<svg id="Ebene_1" data-name="Ebene 1" xmlns="http://www.w3.org/2000/svg" viewBox="0 0 1327 662.55"><defs><style>.cls-1{fill:#ededed;}.cls-1,.cls-10,.cls-11,.cls-12,.cls-13,.cls-14,.cls-15,.cls-16,.cls-17,.cls-18,.cls-19,.cls-2,.cls-20,.cls-21,.cls-22,.cls-23,.cls-24,.cls-25,.cls-26,.cls-27,.cls-28,.cls-29,.cls-3,.cls-30,.cls-31,.cls-32,.cls-33,.cls-34,.cls-35,.cls-36,.cls-37,.cls-38,.cls-39,.cls-4,.cls-40,.cls-41,.cls-42,.cls-43,.cls-44,.cls-45,.cls-46,.cls-47,.cls-48,.cls-49,.cls-5,.cls-50,.cls-51,.cls-52,.cls-53,.cls-54,.cls-55,.cls-56,.cls-57,.cls-58,.cls-59,.cls-6,.cls-60,.cls-61,.cls-62,.cls-63,.cls-64,.cls-65,.cls-66,.cls-67,.cls-68,.cls-69,.cls-7,.cls-70,.cls-71,.cls-72,.cls-73,.cls-8,.cls-9{fill-rule:evenodd;}.cls-2{fill:#dcdcdc;}.cls-3{fill:#5a5a5a;}.cls-4{fill:#c9c9c9;}.cls-5{fill:#7c7c7c;}.cls-6{fill:#dfdfdf;}.cls-7{fill:#e1e1e1;}.cls-8{fill:#a8a8a8;}.cls-9{fill:#d0d0d0;}.cls-10{fill:#eaeaea;}.cls-11{fill:#a6a6a6;}.cls-12{fill:#8b8b8b;}.cls-13{fill:#7d7d7d;}.cls-14{fill:#646464;}.cls-15{fill:#848484;}.cls-16{fill:#4f4f4f;}.cls-17{fill:#b1b1b1;}.cls-18{fill:#919191;}.cls-19{fill:#e5e5e5;}.cls-20{fill:#6f6f6f;}.cls-21{fill:#898989;}.cls-22{fill:#c2c2c2;}.cls-23{fill:#d7d7d7;}.cls-24{fill:#606060;}.cls-25{fill:#868686;}.cls-26{fill:silver;}.cls-27{fill:#9c9c9c;}.cls-28{fill:#fefefe;}.cls-29{fill:#fdfdfd;}.cls-30{fill:#a9a9a9;}.cls-31{fill:#ccc;}.cls-32{fill:#b4b4b4;}.cls-33{fill:#d8d8d8;}.cls-34{fill:#696969;}.cls-35{fill:#cfcfcf;}.cls-36{fill:#505050;}.cls-37{fill:#c5c5c5;}.cls-38{fill:#bebebe;}.cls-39{fill:#989898;}.cls-40{fill:#6b6b6b;}.cls-41{fill:#fbfbfb;}.cls-42{fill:#f1f1f1;}.cls-43{fill:#a2a2a2;}.cls-44{fill:#e7e7e7;}.cls-45{fill:#7b7b7b;}.cls-46{fill:#fcfcfc;}.cls-47{fill:#8c8c8c;}.cls-48{fill:#9b9b9b;}.cls-49{fill:#7f7f7f;}.cls-50{fill:#a3a3a3;}.cls-51{fill:#636363;}.cls-52{fill:#999;}.cls-53{fill:#9d9d9d;}.cls-54{fill:#cecece;}.cls-55{fill:#b6b6b6;}.cls-56{fill:#a1a1a1;}.cls-57{fill:#a7a7a7;}.cls-58{fill:#d4d4d4;}.cls-59{fill:#c1c1c1;}.cls-60{fill:#acacac;}.cls-61{fill:#d2d2d2;}.cls-62{fill:#e8e8e8;}.cls-63{fill:#f5f5f5;}.cls-64{fill:#929292;}.cls-65{fill:#ececec;}.cls-66{fill:#9a9a9a;}.cls-67{fill:#f3f3f3;}.cls-68{fill:#fafafa;}.cls-69{fill:#858585;}.cls-70{fill:#c7c7c7;}.cls-71{fill:#8f8f8f;}.cls-72{fill:#bcbcbc;}.cls-73{fill:#c8c8c8;}</style></defs><title>scribble2</title><path class="cls-1" d="M1133,625.9c-6.35-8.93-16.56-16.15-26.07-21.18l-.21-.11c-13.28-4.19-26.89-7.75-40.21-11.89a91.49,91.49,0,0,0-17.43,0c-11,3-21.89,6.42-33.22,8.62-8.6,1.67-19.69,3.07-25.3,12.74,2.56,3.79,10.37,2,9.74,9.1-.42,4.68-.47,9.71,4.55,11.41,5.21,1.77,9-2.48,12.49-5.74,2.92-2.75,4.67-6.87,9.4-7.26,12.54-1,24.69-4.29,37.63-3.48,10.4.65,22.23,4.85,31.44-5.31,2.27-2.51,6.45-1.56,9.45.35,4.41,2.81,9.53,4.25,13.78,7.34,3.27,2.47,6.68,4.8,10.9,5A23.88,23.88,0,0,1,1133,625.9Z" transform="translate(-11 -47.67)"/><path class="cls-2" d="M990.52,614.13c7.16,1.16,18.4-1.57,11.71,12.69-.58,1.24,1.26,5,2.75,5.55,3.87,1.51,8.37-2.23,9.22-4,7.79-16,23.93-9.95,35.91-13.28,9.85-2.74,21.48.25,32.2,1.67,4.22.56,6.28-.72,8.24-3.65,4.72-7.05,10.74-6.94,16.48-2,4.08,3.47,10.21,2.76,13.36,7.48a3.87,3.87,0,0,1,.6,4.52c-11,0-20.11,9.59-31.8,5.93-1.35-.42-3.06.61-3.88,1.84-6.44,9.53-16.56,13.07-26.5,17.38-4.91,2.13-7.35,3.79-10.17-2.43-2.34-5.16-5.69-6.49-9,.46-2.67,5.6-7.82,5.88-13.38,3-11.35-6-23.52-10.12-35.12-15.6-7.17-3.38-5-10-7.38-15.07Z" transform="translate(-11 -47.67)"/><path class="cls-3" d="M1129.26,668.06a12.87,12.87,0,0,0,6.82,6.44c1.9,4.4,10.2,4.27,8.18,12-11.05-4-18.73-12.83-28.85-18.7-2.11,14.86-8,26.84-20.69,38.2,2.16-10.37.58-19,7.57-25.41,2.2-2.47.93-4.24-1.53-4.81a17.71,17.71,0,0,0-8.8.42c-16.41,4.68-33.26,6.71-50.18,7.89-4.82.34-5.25,2.9-6.05,6.13a60.64,60.64,0,0,1-9,20c-3.16-3.51-.93-7.74-1.53-11.59-.8-5.16,2.37-11.81-4.27-14.81-8.6-3.89-17.52-8.39-27.27-4.62a90.66,90.66,0,0,0-10.09,4.25c-7.78,5.59-13.5,13.67-22.11,18.24-6.38-.38-6-3.33-2.81-7.36l16.12-15.26c2.1-2.14,3.93-4.56,6.43-6.3,3.45-3.55,9.94-5.15,5.28-12.89-2.71-4.5,2-5,5.55-4.57a16.38,16.38,0,0,1,2.77,1.3c3.29,2.33,6.48.19,9.69-.27s5.74.72,5.2,3.93c-1.35,7.9,3.64,7.3,8.69,7.41,9.7.21,18.42,6,28.32,5.12,12.59-1,25-2.72,37-7.43-3-3-7.39-5.81-4-10.91,2.71-4,7.41-4.41,11-2.32,8.19,4.78,15.23,2.64,22.3-2a7.39,7.39,0,0,1,5.77,2.11c1.3,1.53,2.24,3.32,3.51,4.87C1125.39,660.29,1127.25,664.21,1129.26,668.06Z" transform="translate(-11 -47.67)"/><path class="cls-4" d="M1130.7,652.13a41.5,41.5,0,0,1,4.07-7.17,9.23,9.23,0,0,0-1.65-8.36c-3.86-4.72-7.22-10.25-12.78-13.5-6.86-3.6-13.52,2.75-17.88,2.28-14.76-1.58-22.64,6.37-31.31,15.12a9.89,9.89,0,0,1-7.29,2.25c-5.35-.63-7.91,3.38-12.21,6.89,4.52-11.79-4.06-10.18-9.48-11.42-5.84-1.33-1.38,3.53-2.85,5.22-3.7,4.22-7.3,8.11-12.6,3-4.35-4.18-9.08-5.76-15-5.77-3.71,0-7.13-2.19-9.64-5.05-5.31-6.07-16.07-6.55-17.3-16.81,0-.12-.68-.16-1-.24-6.82,1.17-3.44,8.14-6.5,11.45,2.66,10.27,8.55,18.72,15.09,26.8a8.11,8.11,0,0,1,.68,1.68c3.69,3.25,6.78-.3,10.05-1,2.4-.53,4.61-2.66,6.88.14a15.88,15.88,0,0,0,14.65,2.55c8-2.35,15.22-.3,22.59,2a9.65,9.65,0,0,0,3.13-.12c13.41-5.73,27.59-9.14,41.43-13.59,5.44-1.75,10.15-4.25,13.53-9.06,1.22-1.74.93-6.61,4.62-4.21,3.41,2.23,10.9-.22,9.9,7.69a55,55,0,0,1-1.65,11.58c-.45,2.1-.42,3.93,2.31,4.33A25,25,0,0,0,1130.7,652.13Z" transform="translate(-11 -47.67)"/><path class="cls-5" d="M977.25,630c1.06.2,3,.36,3.06.61.44,10.4,12.59,15.4,12,26.19-1.67.54-6.46-.06-4.47,1.9,11.41,11.23-2.24,11.48-6.33,15.87-1.82-4.3,2.2-9.59-2.28-13.44C973.19,651.12,972.73,640.72,977.25,630Z" transform="translate(-11 -47.67)"/><path class="cls-6" d="M1035.73,690.26c-.44-4.49-1.34-8,5.89-8.62,17.64-1.62,35.34-3.32,52.44-8.76,8.06-2.57,10.32,0,8.23,7.74-3.25-5.47-8.4-1.73-11.57-1.09-17.18,3.46-34.29,7-51.87,7.85C1037.76,687.43,1036.77,689.26,1035.73,690.26Z" transform="translate(-11 -47.67)"/><path class="cls-7" d="M983.62,683.45c4.65-3.25,7.56-10.65,13.74-9.63,9.42,1.56,18.54,5.11,27.65,8.24,2.46.85,1.59,3.82,1.26,6-1.16,7.43-.42,14.8.51,22.18-1.89-.86-2.49-2.43-2.81-4.38-1-6.33,3.15-14.59-3.11-18.7-8-5.21-17.73-5.64-27.33-4.24C990.28,683.38,986.93,683.28,983.62,683.45Z" transform="translate(-11 -47.67)"/><path class="cls-8" d="M958.7,694.33c-1.27,3.3-.86,6,2.81,7.36-4.06,3.32-7.18,12.39-13.22,6.29-3.25-3.29,3.59-9,7.35-12.71C956.31,694.6,957.66,694.62,958.7,694.33Z" transform="translate(-11 -47.67)"/><path class="cls-9" d="M979.26,661.14c9.53,3,4.67,8.42,2.28,13.44-1.91,2-3.55,4.4-6.73,4.49C970.41,671.63,981.14,668,979.26,661.14Z" transform="translate(-11 -47.67)"/><path class="cls-10" d="M1129,666.34c-1.29-8.88,1.27-15,6.33-22.22,5.67-8,4-12.94-2.71-19.88a13.51,13.51,0,0,1-1-1.16l-.29,0c-4.62.5-7.48-2.59-11-4.53l-.05,4.53c2.7,3.74,2.12,9.31,7.52,11.68,6.14,2.7,5.78,7.15,2.91,12.73-2.5,4.87-6.45,7.88-10.3,11.23l8.79,9.31c0-.15.06-.26.08-.41A6.83,6.83,0,0,1,1129,666.34Z" transform="translate(-11 -47.67)"/><path class="cls-11" d="M1048.62,661c6.8-2.38,13.5-5.65,20.06-8,9.37-3.4,19.88-4,28.62-9.26a37,37,0,0,0,4.28-3.5l16-7.28c6.76,1.06,4.47,6.33,4.82,10.36-5.68,0-5.07,6.67-9,8.58-6.48,6-12.59,11.94-21.69,3.13-2.45-2.38-8.4-3.5-10.81,1-3.11,5.87,6.23,5.23,6.26,10.58-12.87,5.59-26.44,9-40.93,8.17-2.35-3.71,0-5.55,3-6.68C1057.73,664.92,1048.95,663.38,1048.62,661Z" transform="translate(-11 -47.67)"/><path class="cls-12" d="M1048.62,661c4,.38,9.5,0,10,4.69.57,5.12-5,4-8.4,4.52-2.7.42-3.55,2.28-4,4.6-12.8,1.86-24.13-5.24-36.68-5.87-9.17-.46,1.66-7.6-2.35-10.87-4.6-1.39-9.3,7.61-14.22.39,6.12,1.3,11.14-7.46,17.73-1.94,1.45,1.66,1,4.48,5.11,4.28,8.51-.42,17.24-1.93,25.56,2.16,2.1,1,4.91-.84,7.22-2Z" transform="translate(-11 -47.67)"/><path class="cls-13" d="M1113.43,651.92c2-9.81,4-11.71,9-8.58.23,4.33-.25,8.38-4.27,11.08C1117.21,652.4,1115.31,652.18,1113.43,651.92Z" transform="translate(-11 -47.67)"/><path class="cls-11" d="M1048.65,661c-1,2.31-2.65,6.6-4.11,5.87-10.54-5.3-22.07-3-32.91-5.27-.62-.13-.6-3.3-.87-5.06,9.21,4.55,18.58-2.9,28,.47C1042.11,658.23,1045.7,658.76,1048.65,661Z" transform="translate(-11 -47.67)"/><path class="cls-14" d="M113.11,633.77c-9.08-19.15-10.34-40.28-15.39-60.46C83.47,516.42,81.44,458.63,84.28,400.44c-1.33-1.35-2.76-3.18-2.33-4.82,3-11.62,1.39-23.74,4-35.39,5.5-5.23,8.63-1.91,11.28,3.12C104.7,374.43,116.54,375,128,376.42c-4.06-.18-8.4-.19-12.14-1.92-5.53-2.55-1.3-4,1.11-5.39,13.4-3.38,25.59,5.45,38.83,3.74,3.08.78,6.81.73,7.06,5.29-3,3.14-6.92,2.8-10.71,3-19.19,2.3-38.38,4.08-56.66-3.85-2.44,4.47-1.39,8.42-2.56,11.94-2.16,7-1,14.26-1.24,21.4,0,1.21,0,2.42,0,3.63.63,7.8-4.07,15.43-.66,23.31,2.21,15.7-1.79,31.94,4.11,47.32,2.8,26.82,8.06,53.28,12.18,79.9,0,10,1.4,19.7,6.8,28.42,1.81,1.87,4.31,3.33,4.14,6.46-5.31,9.58,2.08,16.73,4.93,24.66,1.08,3,4.4,5.05,4.69,8.65C123.46,642.43,118,633.24,113.11,633.77Z" transform="translate(-11 -47.67)"/><path class="cls-15" d="M95.25,364.73c-2.28-1.88-1.79-7.77-7.27-5a13.65,13.65,0,0,1,.32-8.5c1.94-11.64,2.54-23.71,6.1-34.84,6.49-20.26,14.59-40,22.31-59.87,3.74-9.63,8.15-19,12.25-28.49,1.49-9.23.76-19.44,11-24.81,7.39-11,14-22.56,24.14-31.36,2.74-.92,1.85-7.36,7-4.6,2.08,2.77.56,5.37-.35,8-14.19,21.29-27.66,43-37.64,66.65-6.92,16.4-12.15,33.4-17.08,50.5-1.53,5.31-2.87,10.76-5.86,15.55-.53,2.06-5.05-.73-4.16,4.3.78,4.38,6.36,5.49,5.35,10.21-4.69,3.73-6.2,9.21-7.91,14.58C97.6,345.37,100.6,356.29,95.25,364.73Z" transform="translate(-11 -47.67)"/><path class="cls-16" d="M113.11,633.77c.57-4,2-4.18,4.72-1.36s5.76,5.32,9,.48c3.69-2,7,0,10.43.94,33.75,14.62,68.16,6.9,102.44,3a25.34,25.34,0,0,1,3.27-.91c3.19-.62,6.45-1,9.42-2.47,14.34-3.12,22-12.26,24.75-26.43,1.19-6.16,4.57-11.71,6.33-17.77,3.3-14.16,9.29-27.65,10.36-42.35-.16-14.37,3.11-28.08,7.79-41.53,6.34,4.74,2.28,10.92,2.3,16.54-2.86,30.3-8.67,59.94-19.77,88.39-1.75,4.48-3.65,8.93-2.68,13.93,1.08,1.56,1.13,3-.65,4.07l-6.43,7.19c-2.05,4-4.3,3.43-6.67.3C244.64,646.94,219,645,192.07,649.65c8.82,2.26,15.14,1.75,21.45,1.17,4.62.44,10-3.45,13.7,2.32-36.84,3.33-72.85.35-106.69-15.76-2.52,6.43,3.6,10.25.72,15.95C118,646.59,114.56,640.62,113.11,633.77Z" transform="translate(-11 -47.67)"/><path class="cls-17" d="M297.46,355.17c2.67,7.5,2.57,15.44,3.68,23.2-2.26,3.08-2,6.66-2,10.17-7.36,8.5-1.41,17,.18,25.42,1,5.35,4.17,10.45.27,15.82-4.33-4.6-9.05,6.4-13-.15-2.51-4.19-1.12-9.33-1.86-14-.28-1.8-1-3.52-1.31-5.33-1.36-16.4-1.18-33-6.92-48.79-1.48-4.93,1.09-8.91,3.07-13a54,54,0,0,1,3-4.55c1.15-1.77,2-4.32,4.7-3.79s4.73,3.31,4.39,5.6C290.91,350.91,294.67,352.59,297.46,355.17Z" transform="translate(-11 -47.67)"/><path class="cls-18" d="M297.46,355.17c-2.41-.92-5.63-1.19-7-2.93s-.72-4.94-1.21-7.46c-.2-1-1-1.94-1.71-3.08-3,1.79-2.27,6.36-5.81,7.52a4.12,4.12,0,0,1-3.5-2.53,6,6,0,0,1,.16-3c1.35-2.78,3-5.41,3.77-8.46-.78-19.88-5-39.08-11.73-57.68-9.07-25.21-18-50.5-30.17-74.46-2-4-3.93-8.09-3.24-12.81a5,5,0,0,1,1.94-2.87,360.75,360.75,0,0,1,41.94,98.68C286.89,309,292,332.12,297.46,355.17Z" transform="translate(-11 -47.67)"/><path class="cls-19" d="M88.29,351.23l-.31,8.5c-4,13.32-.85,27.29-3.7,40.72-13.38-7.32-27.92-3.92-42-4.32-9.24-.26-17.42-3.61-25.61-7.07-2.9-1.23-5.65-3.33-5.68-7.45,5.52-1.05,7,4.11,10.62,5.62,8.79,3.7,17.49,5.73,27.09,3.16,5.39-1.44,10.6-4,16.86.14,5.65,3.73,10.63-2.11,14.38-5.72s3.19-8.9,1.38-14.19c-2-5.74-6.13-5.72-10.5-5.83-8.18-.21-16.05,3.39-24.34,2.08-3.35-.53-7.59,1.58-10-3.68,13.41-2.36,26.74.37,39.94-2.42C83.15,359.36,85.82,356.23,88.29,351.23Z" transform="translate(-11 -47.67)"/><path class="cls-20" d="M297.15,386.88c-.38-3.64-.14-7,4-8.52,8.79,45.46,5.77,91.27,4.09,137a40.7,40.7,0,0,1-1.29,6.51c-1.59-5.22,1.28-11-2-16-4.19-3.19-3.66-7.92-3.75-12.29-.42-20.09.79-40.18-.42-60.26,3.63-4.17,4.41-9.14,3.42-14.32C299.13,408.39,296.27,397.88,297.15,386.88Z" transform="translate(-11 -47.67)"/><path class="cls-21" d="M171.81,167.92c-3.78-1-4.79,3.36-7.74,3.93,1.75-10.34,9.76-16.49,16.51-23,4.35-4.22,4.94-12.89,11.3-13.17,6.77-.3,7.14,9.13,12.37,12.6a26.4,26.4,0,0,1,9.7,10.44c-1.08,1.8,0,4.1-1.38,5.84-10.42,1.2-19.65-4.47-29.73-5.19a2.94,2.94,0,0,1-.8-2.79c2.33-4.1,6.52-4.79,10.69-5.53-5.19-1.16-8.06,2.17-11,5.41-.53,5-6.4,5.39-8,9.43A7.43,7.43,0,0,1,171.81,167.92Z" transform="translate(-11 -47.67)"/><path class="cls-22" d="M267.75,635.79l6.67-.3c.3,12.4-5.58,21.75-16.17,31.73Z" transform="translate(-11 -47.67)"/><path class="cls-23" d="M139.92,203.21c-6,7.25-6.22,17-11,24.81-3.49-2-2.43,3.23-4.79,3C124.74,212.86,129.55,204.37,139.92,203.21Z" transform="translate(-11 -47.67)"/><path class="cls-24" d="M211.82,163.2c0-1.84.23-3.58,2.13-4.53,9,9,19.83,16.38,25,28.71q-.18,2-.36,4C226.89,184.61,219.44,173.83,211.82,163.2Z" transform="translate(-11 -47.67)"/><path class="cls-25" d="M227.21,653.14c-4.13-3.31-9.28-.67-13.7-2.32,11.19-4,23.18.35,34.42-3.56C242.06,653.26,234.72,653.49,227.21,653.14Z" transform="translate(-11 -47.67)"/><path class="cls-26" d="M213.93,119l-11.56,12.59c.49-7.37,6-10,9.59-14.44Z" transform="translate(-11 -47.67)"/><path class="cls-27" d="M280.85,628.31l.65-4.07,15.35-4.47.77,1.82Z" transform="translate(-11 -47.67)"/><path class="cls-28" d="M276.82,360.22c7.41,2,5.84,9,6.47,13.71,1.66,12.47,1.82,25.14,2.57,37.73,1.94,21.59,4.84,43.07,2.23,64.93-1.3,10.89.29,22.1-1.38,33.07-2,10.92-2.69,22.24-6.48,32.73-2.53,7,2.92,3.59,4.86,4.79,4.56,9.36,1,18.43-1.1,27.51-1.31,5.7-4.38,11.39,1.44,16.4-3.53,10.36-6.73,20.85-10.69,31-3.87,10-14.33,10.07-22.4,13.68-2.5,2.69-7.57-4.72-9,2.27h0c-11.13-2.48-21.9-.3-32.63,2.52a4.41,4.41,0,0,1-2.18.4c-23.9-7.18-49,2.46-72.87-5.31l-8.81-2.8c-9.12-7.8-11.1-18.89-13.89-29.69-1.66-6.43,3-2.61,4.81-3.34,2,.28,3,1.91,4.36,3.14-.13-4.27,2.62-5,6-4.79a47.1,47.1,0,0,1,7.71,1.18c32.11,7.73,64,5.52,96-1.36,7.89-1.7,16.14-1.74,23.81-4.65-6.27,2.56-12.9,3.32-19.6,3.81-4.17-2-8.77-1.09-13.07-2-3.93-.82-6.49-2.68-.51-7.56-11.61,5.63-22.51,11.37-33.35,8.05-17.11-5.23-34.35-3.12-51.5-4.37-4.26-.31-7.2-3.86-11.4-4.18-12-2-20.71-7.54-21.82-20.93-3.43-21-6.75-42-10.35-63a61,61,0,0,1-.9-17.6c-1.87-13.26-5.37-26.58,1.37-39.55,1.92-3.69-1.91-6.06-2.21-9.21-.66-6.91-1-13.85-1.59-20.76l-1.8-2.4a3.36,3.36,0,0,1,.1-1.78,40.55,40.55,0,0,1,2.29-4.76c3.26-13.76,3.55-14,17.87-14.19,4.82-.07,9.69.35,14.4-1.1A340.83,340.83,0,0,1,172,388.56c15.64,0,30.65-3.8,45.85-6.55a44.22,44.22,0,0,0,17.11-3.64c4.72-2.31,9.15-5.19,14.2-6.79,9-3.12,16.78-9.13,26.16-11.44Z" transform="translate(-11 -47.67)"/><path class="cls-29" d="M279.24,344.55a4.17,4.17,0,0,0-.26,2.17c-.84,11.36-11.85,10.67-18.25,15.46-9.53,3.3-19.1,6.45-28.67,9.67-23.4,6.14-47,6.58-70.84,3a13,13,0,0,0-6.58.77c-13.28.93-25.73-5.19-39-4.66-5.7.13-14.22-.74-14.19-5.43,0-5.89-5.55-10.2-2.87-16.14,2-4.38,1.26-9.51,3.25-14,2.84-4.55-.78-13.56,9.14-13.21,2.94-2.67,5.89-.9,8.85,0,25.85,2.39,51.66,2.4,77.33-1.87,6.56-1.09,13.17-1.93,19.66-3.4,13.38-1.53,26.26-4.8,38.4-10.81,4-2,7.85-4.42,12.64-3.51,4.07,1.32,5.08,5,6.58,8.37C277.76,321.92,282.69,332.64,279.24,344.55Z" transform="translate(-11 -47.67)"/><path class="cls-30" d="M218.53,384.77c-30.89,8.18-62.69,6.67-94.14,8.84-4.92,2.55-10.18.82-15.28,1.19-3.24.23-6.52,0-3.73-4.85,2.05-3.57-.67-4.93-3.32-5.33-5-.74-3.09,2.53-2.46,4.9s1.28,4.56-2,5.23c-3.43.71-5.84-.52-6.7-4.12l-.23-1.54c0-1.11.09-2.22.11-3.34.3-13.19.11-12.61,12.39-8.66a73.85,73.85,0,0,0,36.14,2.46c4-.74,8-1.51,12.1-.87-.32,2.22-1.19,3.42-3.52,1.87,2,2.23,4,.16,5.9-.09,8.24-1.1,17,1.35,24.71-3.43a7.28,7.28,0,0,1,6.35,0c2.17,1.43,4.43,2.82,7.13,2.4,16.56-2.56,33.63-2.55,49.26-9.82,3.53-.3,7.59-1.79,8.59,3.72l-13.33,7C230.58,382.1,224.14,381.72,218.53,384.77Z" transform="translate(-11 -47.67)"/><path class="cls-31" d="M236.58,595.49c8.8-.25,17.07-3.15,25.46-4.65-44.92,17-90.86,21.6-138.1,9.09-.05,4.73,4.91,4.07,5.88,8.34-5.5-1.43-9.71-3.4-12-8.41l-4.88-4.09,1.19-1.42c13.5-2.41,26.51,2,39.73,3.19,9.71.86,19.24,2,28.89.21a7.6,7.6,0,0,1,2.2-.34C202.23,599.6,219.34,595.74,236.58,595.49Z" transform="translate(-11 -47.67)"/><path class="cls-32" d="M101.86,335.46c0,3,.81,6.2-.07,8.87-3.15,9.58-1.44,15.46,12,14.32-4.46,4.94-9.17,2.26-12.57,4.42,3.88,4.79,10.28,4.34,14.43,7.93,4,5.37,12.16.48,16,6.37-16.22,2.62-30.43-2.31-36.41-12.64C95.42,354.52,94.65,344.09,101.86,335.46Z" transform="translate(-11 -47.67)"/><path class="cls-33" d="M90.57,414.27c6.46,4.82,1.94,12.2,4.14,18,.17.46-1,1.73-.83,1.84,9.62,8.13-.84,15.7-.66,23.54.21,9.32-.06,18.64-.12,28-5.76-10-3.76-21.11-4.5-31.8-.4-5.81-.08-11.67-.09-17.51C86.24,428.71,90.67,421.7,90.57,414.27Z" transform="translate(-11 -47.67)"/><path class="cls-34" d="M185.08,378.55l-7,.07c-5.45,2.64-10.62,2-15.57-1.31l-7.89-1.65c12.63-4.49,25.77-1.59,38.61-2a248,248,0,0,0,40.64-5c2.86-.23,3.41,1.15,2.49,3.56C219.68,377.55,202.75,381.11,185.08,378.55Z" transform="translate(-11 -47.67)"/><path class="cls-31" d="M104.35,566.23c3.63,10.68,10.93,16.83,22.25,18,4.77,3.52,2.87,5.39-1.72,5.86-3.83.39-7-2-11.36-4.23.33,3.37,2.3,6.52.07,9.16l-.71.74C105.11,587.35,105.84,576.47,104.35,566.23Z" transform="translate(-11 -47.67)"/><path class="cls-35" d="M162.53,377.31c5.39-2,10.32,1.64,15.57,1.31,2.26,4.3-.72,4-3.45,3.95-9.13,0-18.26,0-27.66,0,.07-3.28,3.66-2,4.44-3.87Z" transform="translate(-11 -47.67)"/><path class="cls-30" d="M90.57,414.27c.47,7.46-.69,14.78-2.05,22.07-4.77-7.61,1.53-15.06.35-22.61A9.65,9.65,0,0,1,90.57,414.27Z" transform="translate(-11 -47.67)"/><path class="cls-30" d="M91,409.53l-2,2.42c-.08-7.67-1.13-15.41,1.72-22.85.26.31.51.63.75,1C93,396.58,94.79,403.12,91,409.53Z" transform="translate(-11 -47.67)"/><path class="cls-28" d="M108.5,308.73c12.32-48.41,29.21-94.76,60.69-134.53,2.71-4.06,8-5.6,10-10.34a6,6,0,0,1,4.16-2.09c21.32-5.09,34.81,8.71,44.45,22.91,20.16,29.72,32.23,63.47,39.85,98.65a19.84,19.84,0,0,1-.7,12.08c-6.19,9-14,14.23-25.53,15.26-11,1-21.23,6.34-32.07,8.88-23.2,5.19-46.74,5.11-70.3,4.78-8.4.43-16.15-2.63-24-4.86C110.35,318.11,106.24,315,108.5,308.73Z" transform="translate(-11 -47.67)"/><path class="cls-36" d="M108.5,308.73c.83,5.34,3.7,8,9.32,8.78,6.75,1,13.34,3.12,20,4.76-6.11,6.06-13.17,2.75-20,2l-6.86-2c-6.28-3-10.67-7.14-6.66-14.64C106.42,303.7,106.9,309,108.5,308.73Z" transform="translate(-11 -47.67)"/><path class="cls-37" d="M180.08,165c.68,8.17-7,6.37-10.88,9.16l2.62-6.29-.1-.12C173.91,165.08,176.65,164,180.08,165Z" transform="translate(-11 -47.67)"/><path class="cls-35" d="M283.63,512.41c1.16-33.57,2.8-67.13,2.23-100.75,4.39,5.48.54,12.31,3,18.22,5.34-.22,2-6.57,5.59-8.14,4.09,1.27,1.21,6.47,4.59,8,.77.38,1.08.84.93,1.36s-.36.84-.58.84c5.48,17.78,1,35.94,2,53.88.4,6.68.34,13.38.49,20.07l-5.32,42.45c-1.11,1.33-.31,4.27-2.7,4.29-3,0-3.15-2.83-3.06-4.9a172.47,172.47,0,0,1,2.71-26.52c.74-3.74.76-7.19.12-13.35.14,1.05-2.09,3.34-.76,2.66q.32-.16.46.66c1.64,9.45-.85,18.17-6.08,21.3C282.74,526.39,287.06,518.7,283.63,512.41Z" transform="translate(-11 -47.67)"/><path class="cls-35" d="M135.66,635.69c21.37-1.36,42.9,2.48,64.17-2,10.22,10.85,20.29-.71,30.47-.49,5.41.12,8.56,3.74,13,4.92C207.27,645,171.2,652.29,135.66,635.69Z" transform="translate(-11 -47.67)"/><path class="cls-38" d="M288,532.68c2.82-8.88,6-17.72,3.58-27.38,8.71,11.26,1.61,23.51,2.27,35.23.16,2.84-1.86,6.08-1.07,8.55,1.58,4.93,2.26-1.34,3.77-.72-1.53,14.82-6.37,28.77-11.18,42.73-7.55.73-8.55-5-6.59-9.24,5-10.76,3.88-22.49,6.85-33.48C283.59,542.7,283.93,537.41,288,532.68Z" transform="translate(-11 -47.67)"/><path class="cls-35" d="M243.35,638.08c-1.62-2.89-1.77-4.9,2-6.67,5.25-2.5,3.65,4.67,7,4.39C249.86,638.62,246.51,638,243.35,638.08Z" transform="translate(-11 -47.67)"/><path class="cls-39" d="M299.39,431.95a22.09,22.09,0,0,1-.34-2.2c.93-10.53-4.37-19.83-6.11-29.87-1.35-7.72-2.45-7.43,3.59-8.83.5-.12.43-2.72.62-4.16,2.65,11.79,6.84,23.28,6.59,35.62C303.65,426.4,303.47,430,299.39,431.95Z" transform="translate(-11 -47.67)"/><path class="cls-40" d="M260.52,360.11c5.77-5,14.51-5.9,18.46-13.4l2.75,2.5-4.91,11-.09-.1C271.33,360.89,265.92,364.22,260.52,360.11Z" transform="translate(-11 -47.67)"/><path class="cls-37" d="M265.66,295.28c-1.36-26.35-11.67-50.17-21.46-74-4.89-11.91-10-24.26-17.77-34.3-6.92-9-15.44-17.6-25.86-23.15-3-1.62-7.65-1.79-10.72.63-3.63,2.87-5.17,0-7.38-1.61-.93-1.4-1-2.63.7-3.51,10.33-4.43,19,3,28.64,3.9,10.48,7.89,18,18.6,26.78,28.12,7.49,20.77,18.47,40,26.11,60.77,9.31,25.35,16.71,51,20.89,77.64.45,2.89,1.15,6-2.1,8-6.68-10.22-5.7-22.84-10.73-34.75-.05-.36-1.09,1.95.28,1.36.35-.15.36.23.59,1,.75,2.36.47,4.37-1.57,6l-4.5-7.42a7.8,7.8,0,0,1,.22-7.12C269.81,292.3,265.28,297.44,265.66,295.28Z" transform="translate(-11 -47.67)"/><path class="cls-17" d="M272.07,311.22q.36-3.74.72-7.47c7.3,10.33,9.13,22.1,10.71,33.95a7.29,7.29,0,0,1-4.27,6.85Z" transform="translate(-11 -47.67)"/><path class="cls-41" d="M180.69,155.86c5.1-7,10-14.84,19.34-2.49-6.1,1.35-12.37-.54-17.32,3Q181.11,158.29,180.69,155.86Z" transform="translate(-11 -47.67)"/><path class="cls-15" d="M180.69,155.86a13,13,0,0,1,2,.56c.16,1,.31,1.92.47,2.88q-.35,1.76-.7,3.51l-2.4,2.23-8.37,2.75C168.59,159.21,179.22,161,180.69,155.86Z" transform="translate(-11 -47.67)"/><path class="cls-42" d="M113.59,595l-4.65-14.23c5.6,2.76,10,5.22,14.57,7.08,3.55,1.43,4.87,0,3.08-3.63,16.5,8.83,35.92-1.14,51.38,6.09,18.4,8.62,32.79-5.06,49.54-3.92-1.08,3.86-6.35,2.15-6.87,6,5,2.81,11.84-4.26,15.92,3.07-13.25,1.29-25.35,10.13-39.77,4.69-7.76-2.93-16,2.17-24.16,1.89C152.76,601.37,133.2,598.06,113.59,595Z" transform="translate(-11 -47.67)"/><path class="cls-33" d="M91,409.53q.23-9.74.45-19.48c2.12,1,2.9,4.7,6.95,2.73L93.1,382.26c7.42-2.26,13.24-1.62,17.59,4.65,3.44,5-3.91,3.62-4.44,6.69h18.15c-5.39,4.64-11.89,2.29-17.79,2.28-7,0-12.47.25-11.49,9.47C95.39,408,93.35,409.11,91,409.53Z" transform="translate(-11 -47.67)"/><path class="cls-43" d="M260.52,360.11c5.4-.38,10.81-2.7,16.21,0a80.1,80.1,0,0,1-26.88,13.27c-2.43-3-5.85-1.69-8.9-2-1.43.2-2.86.92-4.32.1l-2.75-2.82C242.34,364.48,251.48,362.45,260.52,360.11Z" transform="translate(-11 -47.67)"/><path class="cls-44" d="M288,532.68q-1.18,7.84-2.36,15.69c-3.09-.59-5.51,1.05-9.71,3.66l7.66-39.62C291.56,517.76,286.56,525.92,288,532.68Z" transform="translate(-11 -47.67)"/><path class="cls-35" d="M218.53,384.77c5-5.57,11.63-4.43,18-4.36A35.67,35.67,0,0,1,218.53,384.77Z" transform="translate(-11 -47.67)"/><path class="cls-15" d="M265.66,295.28c3.71-1.3,1.26-5.38,3.75-7.85,6.4,6.41-3.27,10.89-1.84,16.37a138.86,138.86,0,0,1-49,16c-2-2.24-5.55.28-7.34-2.5,12.36-4,24.16-9.49,37.6-10.21C255.87,306.69,259.93,299.16,265.66,295.28Z" transform="translate(-11 -47.67)"/><path class="cls-45" d="M211.18,317.28c2.54.56,5.53-.21,7.34,2.5-29.83,6.66-60.05,8.31-90.49,7.08-3.47-.14-7.58,1.38-10.17-2.58,6.57-1.48,13.75,3,20-2C162.38,322.17,187,322.29,211.18,317.28Z" transform="translate(-11 -47.67)"/><path class="cls-35" d="M236.64,371.48c1.44.16,2.82-2.49,4.32-.1-1.41,2.89-3.78,4.12-6.9,4.77a316.07,316.07,0,0,1-44.38,6.23c-2.09.13-7.07,2.17-4.6-3.83C202.24,376.05,219.79,376.33,236.64,371.48Z" transform="translate(-11 -47.67)"/><path class="cls-46" d="M480.05,311c-4.55-8.79,2.63-11.62,8.08-12.69,10-2,12-7.14,8.83-15.56a19.37,19.37,0,0,1,1.25-17c3.27-5.44.83-10.51-.35-16-3.39-15.69-5.88-31.57,4.49-46l-.12.16c6.42-10.89,16-15.73,28.56-15.58,10.62.12,16.35,6.94,11.76,16.49-3.8,7.9,1.94,13.51,2.19,20.25.15,6.53,1.22,13.89-7.87,12-2.89-2-2.62.63-2.36-.84.06-.33.46-.34,1,.16,3.87,3.46,12.26,6.3,8.42,12s-8.67-1.42-12.7-4.07c-2.44-1.61-5-3-9.3-5.74,6.08,5.84,13.41,6.94,15.86,13.66.5,13.94-1.28,27.2-11.26,38-5.88,5-10.33,11.72-17.69,15-2.46,1.09-5.21,1.75-7.44.1-3.19-2.37-.12-4.47.86-6.61,3-6.69,2.36-13.65,2.08-18.06-1-4-3.15-2.34-1.71-2.73.09,0,.18.09.25.34C508.15,296.51,501.22,306.45,480.05,311Z" transform="translate(-11 -47.67)"/><path class="cls-46" d="M546.9,223.51c.39,3.69,2.67,5.12,6.11,4.86,6.82-.51,10.68,3.83,9.31,9.29-1.73,6.9,2.67,16.82-9,20.06-8,2.2-13.75,5.91-10.53,17.38,2,7.07-3.35,15.48-10.47,20.23-2.06,1.37-5,1.28-5.25,4.63-.38,4.26.86,10.53-5.11,10.65-6.45.13-13.57,4.81-19.64-1.33,8-6.44,16.84-11.88,23.79-19.6,8.86-9.73,9.08-22.56,12.34-34.3a7.16,7.16,0,0,1,2.48-3.55c10.38-7.66,10.37-7.66,4.27-19.21a11.28,11.28,0,0,1-1.35-6.39C544.08,224.44,544.91,223.31,546.9,223.51Z" transform="translate(-11 -47.67)"/><path class="cls-47" d="M546.9,223.51l-2.16,2.67c-.54,1-1.09,1-1.66,0-1.56-3.72-3.14-7.43-4.68-11.16s-3.22-8.46,1.18-10.87c5.06-2.78,3.28-6.17,1.8-9.22-1.68-3.46-4.85-5-9.15-4.88-12.07.3-21.73,5.4-30,13.77,5.13-14.27,20.89-21.89,34.84-17.28,7.92,2.62,9.3,9,9.75,15.73C547.28,209.35,546.9,216.44,546.9,223.51Z" transform="translate(-11 -47.67)"/><path class="cls-21" d="M526.85,291c-6.77,8-14.62,14.53-24.56,18.26-7.41.62-14.46,6-22.25,1.68.53-1.89,1.47-3.3,3.6-3.74,16.86-3.57,19-6.16,19.2-23.57,0-2.61,0-5.21,0-8.06,5.5,7.83,5.08,15-1.81,28.6,11.45-.3,16.18-10.08,23.77-15.22C526.81,288.32,527.74,288.76,526.85,291Z" transform="translate(-11 -47.67)"/><path class="cls-48" d="M502.35,203.7c-6,16-7.28,32.09-.66,48.39,1.68,4.14.37,8.87,1.16,13.44,1,5.64-2.81,1.61-4.64.22-2-14.07-7.31-27.72-5.05-42.32C494.32,215.9,494.12,207.87,502.35,203.7Z" transform="translate(-11 -47.67)"/><path class="cls-49" d="M543.08,226.22q.83,0,1.66,0a19.79,19.79,0,0,0,1.61,4.09c10.46,15.46,10.47,15.45-6.43,24.7-4.09,1.31-2-3.44-4.09-4.14-5.85-5.52-16.85-5.31-18.15-17.7L543,248.89c-2.88-8.45-10.52-11.4-15.88-17.8,5.78-.12,8.29,4.66,12.68,5.4C543.18,233.83,542,229.64,543.08,226.22Z" transform="translate(-11 -47.67)"/><path class="cls-50" d="M535.83,250.83l4.09,4.14c-2.89,12.54-3.52,25.91-13.07,36l-2-2C533.82,277.8,535.5,264.51,535.83,250.83Z" transform="translate(-11 -47.67)"/><path class="cls-13" d="M1123.88,239.48c-3.93-1-7.82-2.13-11.81-2.74-1.44-.22-4.27-.89-4.32,1.69,0,1,2.63,2,5.62,4.09-9.9-.33-13.22-8.52-19.87-10.91-1.05-.38-3-3.52,1.24-6.48,6.09-4.27,13.31-3.13,19.18-6.78,3.19-2,4.18-2.62,8.39-9.58.4-.65,2.43-.77,3.53-.47,10.28,2.79,19.77-1.14,29.47-3.27,1.46-3.16,4.85-4.08,7.18-6.24,5.92-6.26,12.5-11.19,21.74-10.6,7.35.47,7.57-6.85,11.33-10.29,2.85,1.85,7.17,2,7.74,6.52-5.88,8.17-11.28,14.79-22.65,18.51-16,5.25-31.59,13.46-47.7,21.29,10.58,3.9,21.24,6.16,31.5,9.64,9.11,3.09,18.43,5.93,23.63,15.17-1.29,8-7.76,4.71-12.29,5.68-1.14-3.45-11.66.34-6.28-8.14l-13.6-1.25c-.89-1.51-1.18-3.41-3-4.33-16.32-7.11-34.1-6.1-51-10.06,6.24-.73,12,2.68,18.24,2.91,2.24,1,5.41.59,6.22,3.69C1127,239.63,1125.46,239.78,1123.88,239.48Z" transform="translate(-11 -47.67)"/><path class="cls-34" d="M1325.76,198.49c-5.46,4.13-8.46,10.12-10.37,16.26-2.86,9.23-8.54,15-18,14.2-13-1.15-16.51,9.71-22,16.88-4.17,5.47-8.06,8.4-14.5,8.75-4.9.26-8.33,5-13.49,4.55a11.25,11.25,0,0,1-6.12-1.36c-5.28-3.05-11.07-4.07-17.07-4.46-2.41-.16-5.79,1-6.52-2.55-.81-3.84,2.71-4.86,5.29-6.12,10.61-5.16,21.35-7.82,33.35-4.39,11.55,3.3,18.31-2.85,17.46-14.14-.3-4-1.5-6.28-5.4-7.12a20.22,20.22,0,0,1-7.18-3c-3.12-2.13-7-4.83-5.41-8.75,2-4.95,6.54-1.72,9.66-.63,9.49,3.32,19.35,5.32,28.84,8.55,6,2,10.34.5,13-5,2.34-4.87,2.48-9.12-5-8.1-6.33.86-11.63-1.45-16.64-4.92-1.1-1.67-.46-3.09.61-4.45a17.08,17.08,0,0,1,11.62-5.49c5.31-.32,9.9,2.24,14.76,3.74,3.74,3.54,8.78,3.65,13.36,5A1.64,1.64,0,0,1,1325.76,198.49Z" transform="translate(-11 -47.67)"/><path class="cls-49" d="M1294.47,93.85c12.34-.07,16.93,7.06,18.09,18.37a36.46,36.46,0,0,0,4.69,14.6c4.69,7.85,5.22,15.88,3.71,24.44-9,1-8.1-5-7.38-12.07-2.93,4.42-3.44,11.77-10.47,6.84-1.8-1.58-2.44-5.26-6.15-3.32-3.55,1.64-6.54,4.25-10.21,5.62-4.34.91-4.27-4.68-7.79-5.22-3.16-.48-7.79-.5-7.39-4.91.5-5.52,5.89-4.54,9.71-5,8.56-1.09,15.86-4.77,22.79-9.65-5.08,4.57-9.94,2.66-14.85-.2-6.75-5.28-11.63-11.53-10.72-20.77a11,11,0,0,1,4-7.71A14.55,14.55,0,0,1,1294.47,93.85Z" transform="translate(-11 -47.67)"/><path class="cls-51" d="M1202.7,183c-2.28-1.84-7.2,0-7.13-5.12.8-1.65,1.21-3.74,2.47-4.89,17.85-16.33,26.25-39.36,41.11-57.74,5.78-7.14,12.88-13.22,19.38-19.78,6.8.62,6.72,5.8,6.33,10.45-.75,9-4.7,16.75-10.93,23.3-11.64,6.68-21.36,14.26-25.65,28.51-1.68,5.58-11.31,8.26-15.93,14.39C1209.53,175.9,1209.31,182.55,1202.7,183Z" transform="translate(-11 -47.67)"/><path class="cls-52" d="M1252.07,126.95c4.45-10,16.78-18.4,6.46-31.44,2.46-4.61,6.79-6.9,11.22-9.06a11.12,11.12,0,0,1,3,1.16c3.41,3.16,11.27,1.08,10.64,9l-2.92,6.42a4.16,4.16,0,0,1-3.42-2.4c-.53,1.14.78,1.43,1,2.22,2.45,8.05,5.33,16,5.91,24.52-5.24,4.57-26,7.38-31.56,4.11C1250.51,130.37,1250.48,128.58,1252.07,126.95Z" transform="translate(-11 -47.67)"/><path class="cls-51" d="M1242.9,256.9c1.83.11,3.57.4,4.56,2.23a34,34,0,0,1-36.67,10.62c-8.48-2.71-17.76-2.11-25.94-6.13,2.48-8.76-6.31-4.3-8.66-7.39a10.22,10.22,0,0,0-.4-1.5c1.37-6.82,10,1.22,11.4-5.61,7.59-1.13,13.7,3.09,19.9,6.11,9.92,4.84,19.42,7.65,29.56.87C1238.62,254.78,1241,255.38,1242.9,256.9Z" transform="translate(-11 -47.67)"/><path class="cls-53" d="M1270.08,89.22l-.34-2.78c-1.42-3.31-3.85-5.65-8.46-8l9.06-.66c1.26-1.39,2.53-1.39,3.82,0,3.69-6.93,1.61-14.2,1.84-21.4.11-3.36-5-5.61-2.08-7.12,4.13-2.15,11.79-2.27,13.39.63,2.33,4.21,5.94,4.14,8.75,5.93,8.78,5.6,9.74,10.6,2.85,19.62l-.92-1.23c-1.23-3.92,2.5-10.91-6.29-10.12-7.31,3.23-8,6.49-2.84,12.59,2,2.37,6.84,3.71,5.17,7.5-1.78,4-6.59,4.62-10.7,4.57A99.9,99.9,0,0,0,1270.08,89.22Z" transform="translate(-11 -47.67)"/><path class="cls-54" d="M1270.08,89.22c6.23-7.36,15.87.22,23.08-5.81-4-4.39-13.35-6.3-10.29-14.64,1.09-3,2.43-10.42,9.6-6.43a4.17,4.17,0,0,1,.57,2.92c-2.44,6.45-.63,10.69,6.36,12.24,5,4.56,5.12,8.44-1.67,11.17-2.44,1-3.19,2.81-3.26,5.17-3,3.92-7.72.59-11.12,2.75C1280.83,90.73,1273.31,93.82,1270.08,89.22Z" transform="translate(-11 -47.67)"/><path class="cls-15" d="M1312.87,192c-5.42,2.87-9.14-3.82-14.27-2.55a4.61,4.61,0,0,1,3-5.32c8-2.44,12-9.25,17-15,4.33-1,3.4,3.12,4.81,5,1.82,1.81-4,6.65,2,6.31,5.2-.28,10.71-2.53,12.31,4.87,1.71,7.88-4.56,9.82-9.95,12.22l-2,.91a7.09,7.09,0,0,1,.1-2.06c-1.56-3.16,3.27-4.75,2.07-8C1322.09,186.59,1319,195.77,1312.87,192Z" transform="translate(-11 -47.67)"/><path class="cls-55" d="M1323.37,174.17l-4.38-4.61c-8.5-2.64-2.57-10.43-6-15-9.9.89-11.11-.26-9.43-9.67,5.89,3.1,6.76-1.07,6.09-5-.9-5.24,2.92-4.8,5.25-4.56,3.3.34,2.09,3.69,1.29,5.21-3,5.81-1.06,9,4.73,10.73C1320.87,159,1325.23,166.25,1323.37,174.17Z" transform="translate(-11 -47.67)"/><path class="cls-56" d="M1157.39,240.78l-1.49,4.55c-10.27-4.17-21.53-2.9-32-5.86,2.26-5-4.15-1.78-4.25-4.53,8.79-3.83,16.88.86,25.2,2.24C1149.08,237.9,1153.17,239.66,1157.39,240.78Z" transform="translate(-11 -47.67)"/><path class="cls-57" d="M1044.32,207.09c-10.86-4.1-15.54-19.62-30.74-15.24C1024,188.7,1024,188.7,1044.32,207.09Z" transform="translate(-11 -47.67)"/><path class="cls-58" d="M1176.17,256.23c3-1.49,6.19-2.17,9.34-.83,2.58,1.1,5.73,2.54,5.42,5.7-.1,1-4,1.69-6.1,2.52C1181.12,262.12,1176.89,261.24,1176.17,256.23Z" transform="translate(-11 -47.67)"/><path class="cls-59" d="M1105.36,198.7c-9.18-1.1-15.29-8.53-24.13-10.19C1091.8,186.07,1097.69,194.61,1105.36,198.7Z" transform="translate(-11 -47.67)"/><path class="cls-15" d="M1274.16,77.78l-3.82,0c-1.8-5.94-7-10.58-6.83-17.34C1271.38,63.64,1270.58,72.05,1274.16,77.78Z" transform="translate(-11 -47.67)"/><path class="cls-53" d="M1299.4,77.51c-3.69,5-6.68,1.15-8.69-1.32-3.16-3.87-2.45-8.11,1.26-11.65,4,2.61,3.25,8.29,7.07,11l-.13-.14A5,5,0,0,0,1299.4,77.51Z" transform="translate(-11 -47.67)"/><path class="cls-60" d="M946.29,201.53c4.88-10.33,12-9.08,19.84-3.55C959.11,197.07,951.64,194.11,946.29,201.53Z" transform="translate(-11 -47.67)"/><path class="cls-61" d="M1162.49,198.79c-.11,4.71-3.45,5.7-7.18,6.24-1.66-1.22-4.32-2.18-4.71-3.71s2.27-2.5,4.15-2.58C1157.33,198.64,1159.91,198.76,1162.49,198.79Z" transform="translate(-11 -47.67)"/><path class="cls-29" d="M1303.59,144.85c-1,4.16.35,9.15,4.38,8.3,10.73-2.26,9.1,4.26,8.93,10.4-.06,2.22,0,4.5,2.09,6-1.69,11.87-12.46,14.44-20.39,19.92-4-.1-7.06,2.33-10.3,4.21-4.12.24-7.12-2.95-10.93-3.64,3.63.79,6.2,3.11,8.5,5.83,6.59,1.08,12.28,6.09,20.12,2,4-2.1,6.8,2.94,6.53,7.7-.57,10-8.26,15.09-18.08,12.26-12.36-3.57-24.78-6.93-37.91-10.59,1.59,6.62,7.12,7.45,11.64,9,5,1.75,15.18-.8,6.9,9.94,8.41,11.41-2.91,13.06-8.63,17.53-2.38,1.86-4.83,1.71-7.34.56-14.46-6.67-27.24-1.65-40.34,5.57,8.85,1.09,18-.95,24.13,7-6.86-.44-10.18,7.1-18.39,6.37-14.2-1.27-25-9.25-37.33-14.15-16.91-15.37-39.36-15.77-59.66-22.18,1.73-12.16,13.62-10.1,20.73-13,10.67-4.34,20.41-12.23,31-14,12-2,15.9-11.08,23.42-16.94,2.52-9.72,9.64-19.93,16.51-22.08,12-3.74,8-13.71,12.77-19.6.91-1.13,1.22-3.5,2.17-3.72,7.17-1.66,12-7.12,17.92-10.68.06,7.3,5.08,2.2,7,2.15,7.87-.19,15.71-1.49,23.56-2.38,2.45-1.44,3.34-5.64,7.42-4.17l9.82.81c2-2.68-1.93-6.17.66-9.15,3.65,2.31,5.51,6.1,6.39,9.93.68,3,4,7.38-5.08,6.08s-17.68,8.87-29,7.35c6.54,1.81,10.36,6.33,15,9.57,1.95-.34,3.11.77,1.95,2.24-2.27,2.89-5.4,1-8,.72,9.7,4.48,10.63-5,14.67-9.66,1-1.85,2-4.55,4.52-3.36C1304.07,138.52,1302.47,142.3,1303.59,144.85Z" transform="translate(-11 -47.67)"/><path class="cls-62" d="M1157.39,240.78c-12.91.18-24.78-6.45-37.76-5.83l-19.66-3.1C1119.64,231.83,1139.55,230.28,1157.39,240.78Z" transform="translate(-11 -47.67)"/><path class="cls-23" d="M1127.48,221.91c-9.09,5.75-17.17,2.43-24.16,5C1110,222.44,1116.93,219.79,1127.48,221.91Z" transform="translate(-11 -47.67)"/><path class="cls-63" d="M1312.87,192c3.57-1.32,6.13-4.22,9.11-6.07,2.45-1.52,7.9-4,10.86.54,3.48,5.35-2.7,5.37-4.86,7.6-.73.75-1.41,1.55-2.12,2.33C1320.56,197.84,1315.39,198.85,1312.87,192Z" transform="translate(-11 -47.67)"/><path class="cls-64" d="M1285.87,195.89c-5.08-2.74-11.37-3.65-15.13-10.5,7.47.86,12.25,5.19,17.56,8.31Z" transform="translate(-11 -47.67)"/><path class="cls-65" d="M1290,122.55c-2.26,1.76-3.59,5.18-7.41,4.18-4.48-4-2.06-9.65-3-14.44-.89-4.58-1.71-8.56-5.84-11.16-2.12-1.33-5.55-2.65-3-5.54,1.87-2.13,4.83-.17,6.49,1.75,1.4,1.61,2.16,3.78,3.2,5.7C1280.63,111,1286.29,116.3,1290,122.55Z" transform="translate(-11 -47.67)"/><path class="cls-66" d="M1296.44,140.43c-.77,5.59-2.12,12.16-8.21,12.73-5.78.53-12.1-2-14.08-11.64,4.77,4.53,8,8.8,13.58,7.6a2.16,2.16,0,0,0,.76-.38c-.2-.55-.47-1.09-.72-1.62C1288.1,141.57,1293.69,142.83,1296.44,140.43Z" transform="translate(-11 -47.67)"/><path class="cls-67" d="M1268.64,108.29c6.75.81,9.11,4.55,7.44,10.82-.48,1.78-2.09,3.84-4,2.66C1266.83,118.52,1266.77,113.6,1268.64,108.29Z" transform="translate(-11 -47.67)"/><path class="cls-68" d="M1299,75.57c-8.65.35-5.9-6.59-7.07-11l.5-2.19c2.54-1.38,5.09-3.4,7.7-.14C1304,67,1299.81,71.15,1299,75.57Z" transform="translate(-11 -47.67)"/><path class="cls-5" d="M1307.54,160.59c.73,5.83-.36,9.86-5.55,11.1-7.54,1.81-15.48,6.17-24-2.75C1290,170.51,1299.08,167.63,1307.54,160.59Z" transform="translate(-11 -47.67)"/><path class="cls-69" d="M1260.84,168.76c-10.21,1.16-10.21,1.16-7.9,8.16-9.08-5.93-8.08-13.42-5.87-23.42C1251.69,159.46,1252.94,165.82,1260.84,168.76Z" transform="translate(-11 -47.67)"/><path class="cls-38" d="M1216.68,208.66c-4.17,5.65-9,10.77-19.17,9.66Z" transform="translate(-11 -47.67)"/><path class="cls-70" d="M1206.58,234.94c5.59-7,12.54-6.48,17.43-9.86C1221.19,232.36,1214.38,232.13,1206.58,234.94Z" transform="translate(-11 -47.67)"/><path class="cls-71" d="M668.76,449.33c2.46-3.24,7.61-2.18,9.72-6-1.53-3.26-4.95-2.47-8.57-3.48l21.17-8.69c3.14-.64,6.33-2.27,9.24.53,1.38.63-1.19,3.13.66,2.69,4.67-1.1,9.17-1.35,13.75.09,1.82,2.46,5.72-.07,7.3,3,1.29,2.62,5,4.44,2.72,8.24-4.7,2.38-9.47,4.56-15,4-5.75-3.33-11.78,4-17.49-1.66,5.46,5.24,10.76.18,16.17.88,4.6,3,9.86,1,14.74,1.94,4.37,3.24,11.84,3.43,11.37,11.46-5.6.47-7.61,10.9-15.34,5.56-.89-.44-1.76-.93-2.63-1.39-9.57,4.42-17,3.33-22.52-6.89-2.32-4.28-8.33-4.3-13-5.28a92,92,0,0,0-10.11-1.11,5.84,5.84,0,0,1-2.57-1.33A2.14,2.14,0,0,1,668.76,449.33Z" transform="translate(-11 -47.67)"/><path class="cls-72" d="M716,505.37c-31.36,11.4-63.48,12.73-95.95,6.48-8.57-1.65-17.17-4.34-23.37-11.72-4-4.7-10.53-5.08-15.74-7.8-3.87-2-9.57-2.31-8.64-9,2.11-2.39,4-1.07,5.95.3,12.5,7.14,27.54,9.16,38.66,19,2.61,2.32,4.9.26,7.31.18,6.66-.21,13.7-1.92,19.79,1.17,10,5,9.78,5.84,18.37,5,16.94-1.74,34-2.82,50.24-8.82C715.38,500.89,716.6,502.55,716,505.37Z" transform="translate(-11 -47.67)"/><path class="cls-40" d="M716,505.37l-2-4.07a5.87,5.87,0,0,1,1.23-5.15c8.88-9.48,14.39-20.81,18.41-33,0-7.52-9.85-5.66-11.28-11.83-.87-2.51.54-4.2,2.11-5.82l-4.17-8.24a5.88,5.88,0,0,1,4.69.66c11.31,12.76,15.8,28,16.38,44.7a15.33,15.33,0,0,1-6.93,13.18C728.8,499.7,722.22,502.25,716,505.37Z" transform="translate(-11 -47.67)"/><path class="cls-72" d="M668.76,449.33l.24,2.26c-14.32,11.24-27.94,23.39-43.84,32.52-6,3.47-11.82,4.32-17.85.33-.35-.42-.7-.85-1-1.28,13-4.89,28.3-8.29,36.13-19.23C649.79,453.58,659.22,452.68,668.76,449.33Z" transform="translate(-11 -47.67)"/><path class="cls-73" d="M725,437.94l-4.68-.65-4.09-.88c-4.64-4.51-10.78-.48-15.81-2.77-2.63-2.65-6.06-2.29-9.35-2.49C708.92,421.45,716.56,423,725,437.94Z" transform="translate(-11 -47.67)"/><path class="cls-72" d="M570.47,482.85c-7.28.79-15.07,2.4-14.75-9.25a11.78,11.78,0,0,1,10.54,4.24C565.27,481.51,572.19,478.55,570.47,482.85Z" transform="translate(-11 -47.67)"/><path class="cls-15" d="M570.47,482.85c.23-3-7,.16-4.22-5,5.83-.39,10.58,2.31,15.2,5.35a1.8,1.8,0,0,1-.26,2.87c-1.81.4-3.34.16-4.17-1.76-1.31-1.59-3-1.19-4.68-.92C571.72,483.18,571.1,483,570.47,482.85Z" transform="translate(-11 -47.67)"/><path class="cls-72" d="M581.35,485a10.89,10.89,0,0,1,.1-1.85l24.81,0-.11-.13C600.2,490.17,593.46,490.72,581.35,485Z" transform="translate(-11 -47.67)"/><path class="cls-28" d="M581.35,485c8.27-.7,16.86,2.67,24.8-2,17.71,5.14,28-8,39.67-16.78,7.39-5.59,13.83-12.29,23.18-14.64l0,0c3.62,4.72,7.5.76,11.28.34,9.08.33,16.53,3.35,20.67,12.17,2.7,5.77,5.81,5,9.89.93,1.72-1.73,5.35-9.56,7.41.22-5,4.62,5,7,1.66,11.41a2.93,2.93,0,0,1-.84.52l1.09-.17c4.14-4.64-6.88-7.22-2.1-12,6.16,7.24,10.08-4,15.61-1.9,1.82,17-10.22,26.9-19.65,38.13-22.45,10.91-46.58,10.27-70.61,10.14-1.36,0-4.14-.44-3.7-2.74.19-1,2.73-1.48,4.34-2.94-26.13,4.15-46.07-10.19-67-21.47Z" transform="translate(-11 -47.67)"/><path class="cls-68" d="M724.51,445.52c.49,2.37-.86,4.08-2.11,5.82-4.94,3.21-9.72,5.4-13.07-2l-.12.18C714.35,448.35,718.16,442.12,724.51,445.52Z" transform="translate(-11 -47.67)"/><path class="cls-62" d="M709.33,449.38c-7.85,6.84-14.83,2.9-21.71-2.09,7.09,1.94,14.69-1.83,21.59,2.27Z" transform="translate(-11 -47.67)"/><path class="cls-40" d="M700.44,433.64c5.59-.93,11.52-3.76,15.81,2.76a47.16,47.16,0,0,0-21.07,1.17C695.9,433.79,698.46,434.19,700.44,433.64Z" transform="translate(-11 -47.67)"/><path class="cls-72" d="M680.3,452c-3.76-.21-7.95,14-11.28-.34C672.81,450.82,676.59,450.27,680.3,452Z" transform="translate(-11 -47.67)"/><path class="cls-18" d="M718.06,465.07c.5,1.36.91,2.76,1.51,4.06,1.1,2.39,6.45,2.55,4.15,6.5-2.44,4.18-6.59,3.34-10.62,2.62.68-5.46,4.51-.61,6.3-3.33,1.69-3-12.94-5.32-1.13-9.65Z" transform="translate(-11 -47.67)"/><path class="cls-5" d="M715.25,484c-1.59,5.22-3.72,9.47-9.92,7.78-1.63-.45-3-1.84-2.39-3C705.48,483.71,711,485.46,715.25,484Z" transform="translate(-11 -47.67)"/></svg>