<svg id="Ebene_1" data-name="Ebene 1" xmlns="http://www.w3.org/2000/svg" viewBox="0 0 1313.67 693.73"><defs><style>.cls-1{fill:#898989;}.cls-1,.cls-10,.cls-11,.cls-12,.cls-13,.cls-14,.cls-15,.cls-16,.cls-17,.cls-18,.cls-19,.cls-2,.cls-20,.cls-21,.cls-22,.cls-23,.cls-24,.cls-25,.cls-26,.cls-27,.cls-28,.cls-29,.cls-3,.cls-30,.cls-31,.cls-32,.cls-33,.cls-34,.cls-35,.cls-36,.cls-37,.cls-38,.cls-39,.cls-4,.cls-40,.cls-41,.cls-42,.cls-43,.cls-44,.cls-45,.cls-46,.cls-47,.cls-48,.cls-49,.cls-5,.cls-50,.cls-51,.cls-52,.cls-53,.cls-54,.cls-55,.cls-56,.cls-57,.cls-58,.cls-59,.cls-6,.cls-60,.cls-61,.cls-62,.cls-63,.cls-64,.cls-65,.cls-66,.cls-67,.cls-68,.cls-7,.cls-8,.cls-9{fill-rule:evenodd;}.cls-2{fill:#9d9d9d;}.cls-3{fill:#787878;}.cls-4{fill:#fcfcfc;}.cls-5{fill:#b2b2b2;}.cls-6{fill:#7c7c7c;}.cls-7{fill:#7b7b7b;}.cls-8{fill:#565656;}.cls-9{fill:#9a9a9a;}.cls-10{fill:#c4c4c4;}.cls-11{fill:#d9d9d9;}.cls-12{fill:#c5c5c5;}.cls-13{fill:#f7f7f7;}.cls-14{fill:#6b6b6b;}.cls-15{fill:#6e6e6e;}.cls-16{fill:#8a8a8a;}.cls-17{fill:#d0d0d0;}.cls-18{fill:#818181;}.cls-19{fill:#a6a6a6;}.cls-20{fill:#b3b3b3;}.cls-21{fill:#4e4e4e;}.cls-22{fill:#bababa;}.cls-23{fill:#bfbfbf;}.cls-24{fill:#d7d7d7;}.cls-25{fill:#656565;}.cls-26{fill:#717171;}.cls-27{fill:#cbcbcb;}.cls-28{fill:gray;}.cls-29{fill:#8f8f8f;}.cls-30{fill:#828282;}.cls-31{fill:#919191;}.cls-32{fill:#c8c8c8;}.cls-33{fill:#a7a7a7;}.cls-34{fill:#505050;}.cls-35{fill:#838383;}.cls-36{fill:#9b9b9b;}.cls-37{fill:#efefef;}.cls-38{fill:#b5b5b5;}.cls-39{fill:#e6e6e6;}.cls-40{fill:#414141;}.cls-41{fill:#555;}.cls-42{fill:#6a6a6a;}.cls-43{fill:#393939;}.cls-44{fill:#6d6d6d;}.cls-45{fill:#666;}.cls-46{fill:#979797;}.cls-47{fill:#aeaeae;}.cls-48{fill:#8d8d8d;}.cls-49{fill:#fafafa;}.cls-50{fill:#949494;}.cls-51{fill:#858585;}.cls-52{fill:#ababab;}.cls-53{fill:#a5a5a5;}.cls-54{fill:#7f7f7f;}.cls-55{fill:#d2d2d2;}.cls-56{fill:#e7e7e7;}.cls-57{fill:#b9b9b9;}.cls-58{fill:#525252;}.cls-59{fill:#a8a8a8;}.cls-60{fill:#f9f9f9;}.cls-61{fill:#f4f4f4;}.cls-62{fill:#6c6c6c;}.cls-63{fill:#727272;}.cls-64{fill:#373737;}.cls-65{fill:#adadad;}.cls-66{fill:#cecece;}.cls-67{fill:#b6b6b6;}.cls-68{fill:#e8e8e8;}</style></defs><title>scribles1</title><path class="cls-1" d="M832.34,669.52c5.84-.5,7.17-7.81,14.41-7.87,16.48-.15,23.21,5.15,24.38,22.63.72,10.75-9.1,19.52-22.38,19.88s-24-6.44-34.69-12.49c-7.15-4-11.88-4.63-18.75.82-21.83,17.31-47.29,18.22-70,2.49-7.44-5.16-13.28-12.7-12.64-23,2.4-3.85,5-5.63,8.37-.92,7.63,22,36,30.61,59.31,18a22.26,22.26,0,0,0,4.17-2.69c14.57-12.78,29.25-11.27,44-.41,7.76,5.71,16.12,7.66,26.41,4.38-2.31-6.13-10.53-8.06-9.48-15.23,1.21-4.26,3.88-5.72,7.91-4.43-6.84-3.61-9.12,2.64-12.64,6.28a4.56,4.56,0,0,1-3.29.76C834.68,675.64,831.43,673.89,832.34,669.52Z" transform="translate(-22.33 -37)"/><path class="cls-2" d="M719.86,671.45c-2.62-3.3-4.81-.25-7.16.48,1.82-11,10-10,17.86-9.33a9.43,9.43,0,0,1,5.46,2.58c12.43,12.64,25.3,14.63,39,2.11,5.09,2.83,9-1.26,12.71-3,11.73-5.49,22.76-2.09,33.77,1.5,3.78,1.23,7.81,3.74,5.65,9.27-3.63,2.09-7.37,1-10.86-.1-15-4.66-28.55-.84-41.56,6.81-15.87,9.34-24.07,9.06-38.24-2.85C731.4,674.61,725.24,674.27,719.86,671.45Z" transform="translate(-22.33 -37)"/><path class="cls-3" d="M827,675c-8.29-11.59-25.54-14.39-41.89-6.65-3.67,1.74-7.48,7.4-10-1,19.58-11.85,38.68-11.19,57.29,2.23,1.76,2.56,5.46,3.82,5.17,7.74,1.68,3.5.26,5.84-3.28,5.64C829.71,682.65,827,679.81,827,675Z" transform="translate(-22.33 -37)"/><path class="cls-4" d="M827,675c7.34,7.65,7.36,7.66,10.54,2.31a13.86,13.86,0,0,0,2-.86c2.22-1.5,4-5.29,7.29-1.55,2.05,7.57,8.68,8.9,15.25,10.16-6.89,11.87-20.78,15-31.67,6.09-15.77-12.94-29.62-13.78-46.43-.78-16.34,12.64-42.1,9.87-57.8-3.38-4.58-3.86-10.29-7.87-6.31-15.49,7.06-3.35,12.39-1.07,17.82,4.16,13,12.55,19.58,13.51,35,3.53C790.34,667.76,808.14,666.65,827,675Z" transform="translate(-22.33 -37)"/><path class="cls-5" d="M846.81,674.86l-7.29,1.55c-.22-5.63,3.25-8.39,8.11-9.1,6-.87,10.83,1.42,14.68,7.11C856.37,676.24,851.45,668.49,846.81,674.86Z" transform="translate(-22.33 -37)"/><path class="cls-6" d="M647.91,271.58c-11.5,2.08-19.93,8.69-25,20.14-5.81-7.44.3-10.88,1.66-16.49-10.3,1.5-21.63-4.23-26.71,10.4-6.58-12.38-15.65-10.33-25.08-6.65-1.77.84-3.37.27-4.95-.56-4-4.36-9.83-2.82-14.14-3.49-3.45-7.33,8.6-3.15,5.41-9.61a5.15,5.15,0,0,1,3.33-5.61c4.65-1.44,8.75-.07,12.64,2.4,1,.7,1.74,1.65,2.7,2.34,9.49,6.88,13,5.45,14.45-5.89,5.23-3.47,9.37-.69,13.25,2.5,7.52,6.18,14.43,8.34,21.77-.72,5.35-6.61,8.89,2.58,13.67,2.52C645,264.34,647.1,267.46,647.91,271.58Z" transform="translate(-22.33 -37)"/><path class="cls-7" d="M539.87,263.33c14-29,42.36-45.86,68.47-34.76-2.52,4.45-7.23,6.35-10.93,9.43-11.28,3.34-24.44-.38-34.06,9.12-4.34,3.71-7.8,8.22-11.43,12.59-1,1.4-2.17,2.74-3.33,4.06-2.49,2.08-4,6.48-8.21,4.77C538.42,267.76,539.27,265.18,539.87,263.33Z" transform="translate(-22.33 -37)"/><path class="cls-8" d="M597.88,236.08c.78-6.28,6.3-5.94,10.46-7.51,16.8,4.76,30.73,13.31,38.39,29.78,1.92,4.14,6.11,8.36,1.18,13.23-4-1.09-4.47-5.69-7.55-7.7-8-7.66-12.7-19.58-26.15-20.18C608.75,241.2,602.22,241,597.88,236.08Z" transform="translate(-22.33 -37)"/><path class="cls-9" d="M539.87,263.33c1.46,3.18,1.46,3.18,7.74-2,1.85,8.18,8.79,3.08,13,5,2.87.56,6.56-1.4,8.64,3.25-4,3.68-9.4.69-14.2,2.8,4.69,3.68,11.51-1.26,15,4.42-2.6,4.74-5,2.36-7.47-.17-5.3-.25-10.64-.13-15.88-.85C539.25,274.74,535.62,271.06,539.87,263.33Z" transform="translate(-22.33 -37)"/><path class="cls-10" d="M562.59,276.6c2.47.93,4.94,1.91,7.47.16l2.76,2.22c-.34.72-.48,1.7-1,2.13-2.94,2.22-4.55,8.18-9.29,5.47C558.26,284.17,563.19,280,562.59,276.6Z" transform="translate(-22.33 -37)"/><path class="cls-11" d="M615.23,241.63c14.95,0,20.82,10.25,25.14,22.25-4,1.16-4,1.16-9.52-4.35-3.33,2,2.55,9.25-4.74,8.86-6.55-.35-13.92,4.12-19.45-2-3.79-4.22-7.7-7.08-13.43-7.12-5.7,2.87-9.71,12.11-18.1,4.8L562.8,261.2c-3.66-1.38-4.68,2.92-7.39,3.46-5,1-7.51-.37-5.21-5.9,1.6-5.53,6.14-8.71,10-12.44,18.42,1.71,36.73,4.06,54.93,8.85C616.84,251.38,612.45,246.36,615.23,241.63Z" transform="translate(-22.33 -37)"/><path class="cls-12" d="M575.13,264c7.35,3.39,11.22-6.4,18.1-4.8-3,4,7.93,9.64-.38,11.82C586.68,272.66,577.42,275.24,575.13,264Z" transform="translate(-22.33 -37)"/><path class="cls-12" d="M550.2,258.77c.62,4.54,2.62,5.78,6.41,2.66,2-1.67,4-2.91,6.19-.23-1.94,1.19-2.38,3-2.15,5.11-5.93,2.48-13.38,8.91-13-5Z" transform="translate(-22.33 -37)"/><path class="cls-13" d="M615.23,241.63c1.18,3.93,2.31,7.88,3.54,11.79,1,3.26,2.41,6.91-2.63,7.65-2.82.41-7,1.91-7.51-3.51-.53-5.58-4-4.88-8-4-14.42,3.16-27.18-3.36-40.39-7.22,9.93-13.1,24.61-8.7,37.68-10.24C604.63,234.89,609.92,238.3,615.23,241.63Z" transform="translate(-22.33 -37)"/><path class="cls-14" d="M1164.79,210.2c-13.75,2.48-22.6,13.66-34.49,19.45-1.8,1.48-3.58,1.56-5.07-.34-1.13-1.45-.66-2.91.51-4.18l19.66-12.87c3.42-7.57-4.66-8.14-7.33-12-4.83-7.89-13.9-14.09-10.1-25.39,3.25-10.29,11.64-15.34,20.56-19.46,7.71-3.56,15.82-6.26,25.06-9.85-4.26-5.07-13-2.94-13-10.54l7.2.39c3.43,3.79,8,1.31,12,2.26,8.56,5.57,18.28,2.39,27.42,3.31,6.88.69,14.09-.25,20.77,1.73,13.43,4,25.8,2.16,37.56-5.13,3.77-.54,7.41-.62,10.06,2.81,0,7-6.41,7.58-10.67,9.76-5.74,2.94-7,6.11-2.76,11.11,1.22,3.7,1.34,7.3-.95,10.68-1,.83-2.74,1.4-3.25.49-12.15-21.66-35.52-18.24-55-25.05,2.65,2.69,8.46-.53,7.89,5.58-4.75,7.26-12.87,4.1-19.27,6.26-11.16-1.61-19.74,6-29.77,8.41-4.68,1.88-7.92,5.91-12.35,8.26-4.25,2.26-6.92,6.38-6,11.31.86,4.71,5.35,5.93,9.39,7a90.77,90.77,0,0,0,10.89,2.53c9.12,6.62,19.74,7.75,30.53,8.32,1.37,2.28,3.59,4.68-1,6C1183.79,210.65,1174.24,212,1164.79,210.2Z" transform="translate(-22.33 -37)"/><path class="cls-15" d="M1257.67,187.35c-1.53,4.83-5.61,8.75-.26,14.77,3.75,4.23-1.31,9-5.22,12.36-8.16-9.87-8.1-9.52-26.61-5.77-5.5,1.12-11.06,6.12-17.15,1.42-4.4,1.18-8.78,1.86-13.06-.43l-2.5-4.94c-2.61-5.94,1-6.73,5.2-5.47,13.36,4,24-.07,32.82-10.19.88-.83,2.76-2,2.59-2.33-4.7-8,2.2-10.56,7.1-13.69-3.42-5.73-16.63-6.23-7.57-16.51,15.61,3.19,21.16,9.35,20.78,24A6.66,6.66,0,0,0,1257.67,187.35Z" transform="translate(-22.33 -37)"/><path class="cls-16" d="M1128,174.87c.09,10.38,8.12,16.86,12.38,25.19-3.73,2.41-5.55-.1-7.3-2.82C1126.93,190.79,1121.89,184.09,1128,174.87Z" transform="translate(-22.33 -37)"/><path class="cls-17" d="M1133,197.24l7.3,2.81c11.92,6.26,11.92,6.26,5.05,12.2C1142.68,206.1,1132.82,205.82,1133,197.24Z" transform="translate(-22.33 -37)"/><path class="cls-18" d="M1195.37,209.71l13.06.43a89,89,0,0,1-43.64.06Z" transform="translate(-22.33 -37)"/><path class="cls-19" d="M1125.74,225.13c-.2,3.25,1.55,4.52,4.56,4.52-2.8,6.07-7.59,6.24-13.33,4.44C1118.1,229.21,1122,227.22,1125.74,225.13Z" transform="translate(-22.33 -37)"/><path class="cls-20" d="M1232.41,157.71c.57,4.15-.6,9.29,6.93,8.09,4.43-.7,4.54,4.07,5.37,7,1.08,3.77-2.27,5.57-4.83,6-5.15.93-10.25.22-2.34,6.39,2.37,1.85-2.58,3.35-4.66,4.53-22.18,11.37-45.52,12.08-69.43,7.56-8.53-1.74-19.12-1.19-17.14-14.92.69-4.74,2.13-9,8.33-8.5,15.52,13.67,50,16.48,65.63,4.28,7.06-5.52,3.07-9.73-4.34-11.2-5.36-1.5-8.84-8.7-15.86-5.16-3.69.54-7.09.21-9.51-3.12-.16-.58-.32-1.16-.48-1.74,6.11-4.37,14.39.25,20.3-4.91C1219.26,148,1225.83,152.86,1232.41,157.71Z" transform="translate(-22.33 -37)"/><path class="cls-18" d="M1163.18,195.22c18.54,2.75,36.86,2.75,55.1-2.62,4.1-1.21,7.31-2.25,10.31-5.54s3.71.31,4.28,2.67c-8.19,12.81-21.73,17.7-35.28,12.2-3.8-1.54-4.14.29-4.74,2.85-11.3,6.14-20.82,1.59-30-5C1161.47,198.16,1161.45,196.63,1163.18,195.22Z" transform="translate(-22.33 -37)"/><path class="cls-21" d="M1232.41,157.71c-8,.68-14.36-5-22-5.67L1203,148.5c15.57-5.38,29.13,4.73,43.81,6.07,5.05.46,9.13,11.58,13.65,17.82-.05,5.15.07,10.33-2.76,15-3.06.08-9.26,8.15-7.59-3.47C1252.42,167.74,1250.34,165.16,1232.41,157.71Z" transform="translate(-22.33 -37)"/><path class="cls-9" d="M1163.18,195.22l-.32,4.57c-4.41-1-8.91-1.64-13.2-3-12.47-4-14.93-14.43-4.19-21.94,4.81-3.36,9-8.17,14.87-10a4.34,4.34,0,0,1,1.41,4.65,8.35,8.35,0,0,1-6.27,5.49c-7.53,1.36-6.63,6.82-6.34,12.36C1149.67,197.62,1159.19,191.39,1163.18,195.22Z" transform="translate(-22.33 -37)"/><path class="cls-22" d="M1160.24,169.66q.05-2.44.1-4.87c10.29-1.19,18.22-11.35,29.75-7.84l.62,1c1.44,2.22,2.06,4.6.38,6.88C1188,169.13,1165.44,172.55,1160.24,169.66Z" transform="translate(-22.33 -37)"/><path class="cls-23" d="M1265.22,139.71c2.67-1.74,5.17-3.85,8-5.11,3.44-1.52,8.07-7.92,10.59-.79,1.73,4.88-3.29,8.31-8.95,8.38C1272.44,138.38,1268.29,141.16,1265.22,139.71Z" transform="translate(-22.33 -37)"/><path class="cls-24" d="M1160.24,169.66c4.43,1.37,8.8,2.17,12.74-1.32,3.6-3.2,6.19-6.58,12.57-3.15,4.69,2.52,4.24-4.06,5.16-7.22l9.67,2c6.52-2.64,9.14,6.22,15.13,5.13,6.72-3,10.5-1,11.76,6.38,1.09,6.42-.3,10.51-7.63,11-11.28.73-21.55,5.7-33.13,6.82-13,1.26-21.05-7.59-32.07-9.07-1.8-.24.76-3.39,1-5.25Z" transform="translate(-22.33 -37)"/><path class="cls-22" d="M1215.51,165.06c-7,3.95-10.14-3.27-15.13-5.13C1208.3,153.15,1211.24,161.07,1215.51,165.06Z" transform="translate(-22.33 -37)"/><path class="cls-25" d="M110.84,41.09c4.79,3.74,10.41-.26,15.39,1.66,2.44,2.39,5.25,4.49,6.32,8a6.29,6.29,0,0,1-3.92,5.63,201.17,201.17,0,0,0-43.24-.77C69.74,57.17,58.26,66,49.34,77.65c-6.84,9-5.08,19.62-.49,29.57,2.92,10.5,7.81,19.17,19.73,21.35A10.32,10.32,0,0,1,74.29,132c3.57,8.7,3.57,8.7-2.84,8.81C62.09,145.14,59.7,154.56,55.88,163c-11.71-10.87.38-16,5.08-22.69-3.15-4.09-7.26-5.51-11.93-5.76-4,1.58-7.62-1-7.52-3.76.28-8.47-6.63-12.45-9.94-18.61-6.35-12.92-.95-38,12.06-50.55A139,139,0,0,1,71.18,40.72h0C84.42,38.54,97.63,39.41,110.84,41.09Z" transform="translate(-22.33 -37)"/><path class="cls-26" d="M71.45,140.84c7.57-.46-1.51-6.11,2.4-7.71,10.75-2.92,22.09-1.43,32.84-4.45,2.38-.67,5.46-.46,6.57-2.85,1.69-3.65-2-5.43-4.11-6.66-7.76-4.48-8.81-10.31-4.71-17.73,11.09-2.86,21.48-2.18,28.61,8,4.58,6.53,10.54,2.2,15.76,3.31A16.69,16.69,0,0,1,154,126.45c-5.85,4-3.65,9.84-3.5,15.22-7.34,6.51-6.7-4.92-11.13-5-6.92-3.85-13.44-.71-20.14.95C103.5,141.52,87.86,147,71.45,140.84Z" transform="translate(-22.33 -37)"/><path class="cls-27" d="M167.05,63c24.15,15.9,32.77,53.91-.34,67.6a10.44,10.44,0,0,1-5.39-1.19c-5.39-3.52-5.41-7.92-2.1-12.87,12.22-12.27,13.33-26.35,6.91-41.73C164.45,70.83,161.39,66.55,167.05,63Z" transform="translate(-22.33 -37)"/><path class="cls-28" d="M167.05,63c-2.2,3.92.22,6.66,1.92,10,8.38,16.76,5.09,33.31-8.44,45-2.78-3-1.18-6.18-.67-9.39,3.3-20.53-1.71-37.78-19.91-49.7-3.54-2.32-6.72-4.87-8.16-9-4.7-.22-5.56-3.39-5.57-7.22C142.39,44.37,154.38,54.4,167.05,63Z" transform="translate(-22.33 -37)"/><path class="cls-29" d="M71.18,40.72c-7.3,8.45-17.79,14-24.53,22.15-11.44,13.83-21.14,30-13.81,49.87a1.71,1.71,0,0,1,.67,1.93c-.25.61-.49.93-.74.94-16.8-20-13-46,9-60C51.06,49.69,59.41,41.78,71.18,40.72Z" transform="translate(-22.33 -37)"/><path class="cls-30" d="M32.76,115.6c0-1,0-1.92.07-2.87,10.94,3.14,6.69,17.57,16.2,21.77-11,7.3-13.69,17.71-11.72,30.14.46,2.88,2.42,7.4-2.4,8.21a7.66,7.66,0,0,1-8.52-5.92C24.75,157,20.49,145.71,30.07,138,39.16,130.66,39.64,124,32.76,115.6Z" transform="translate(-22.33 -37)"/><path class="cls-31" d="M139.36,136.7c4.82-1.73,4.56,7.64,10,4.58q1.08-1.84,2.05.05c1.16,12.84-6.63,22.49-11.63,33.88-3.38-8.17-3.7-15.38-.65-23.1C141,147.35,143.09,141.88,139.36,136.7Z" transform="translate(-22.33 -37)"/><path class="cls-5" d="M151.4,141.34l-2.05-.05c-1.26-5.69-10-13.38,4-15a8.8,8.8,0,0,1,7.74,6,22.2,22.2,0,0,1,1.85-4l3.75,2.25c.44,8.54,1.42,17.11-.8,26.23-7.58-4.09-5.55-11.61-8.74-16.63C153.7,134.81,152.6,137.19,151.4,141.34Z" transform="translate(-22.33 -37)"/><path class="cls-29" d="M110.84,41.09c-11.45,2.77-23.75-3.93-35,3.07-.61.38-3.09-2.23-4.7-3.44C84.46,34.83,97.66,36.69,110.84,41.09Z" transform="translate(-22.33 -37)"/><path class="cls-32" d="M47.39,109.69c-10.22-15.14-7.65-30.82,6.1-42.47,23-19.48,49-18.51,76-12.44,2.42-.63,3.3.74,3.66,2.79-2.14,6.1-7.59,7.52-12.89,9.17-9.55.07-18.94-1.6-28.41-2.55-8-.8-18.1-3.13-20.37,9.64-.52,3-3.21,3.46-5.7,4-3,.6-5.86,1.48-6,5.18-.11,3.94,2.86,5.76,5.82,7.33,6.41,3.41,13.44,3.94,20.51,4.32,2.52.14,4.9.87,6.43,3.18.45,10.69-10.52,18.57-23,16.22-3.54-.67-6.88-2.48-10.64-1.75C54.69,113.24,49.71,117.31,47.39,109.69Z" transform="translate(-22.33 -37)"/><path class="cls-33" d="M57.32,109.34c8.72-1.55,17.19,4.58,26.45-.25,4.62-2.41,6.88-4.95,8-9.41,2.44-.24,4.85.53,7.3.22a9,9,0,0,1,4.43.39l1.11,1c-2.58,12.37,9.24,15.93,15.37,24.9-14.76,8.26-30.08,9.68-46.17,6.91l-5-2.42c-3-1.45-8.46-1.72-7-6.38C63.86,117.79,58.35,114.42,57.32,109.34Z" transform="translate(-22.33 -37)"/><path class="cls-34" d="M132.08,57.25l-2.58-2.47L131.79,50c19.66,10,31.75,24.92,32.89,47.89.36,7.38-3.67,13.33-4.15,20.24-3.11,4.35-2.37,7.8,2.43,10.29.48,3.15,1,6.29,1.88,12.36l-11.48-14.44c-1.5-4.2-5.78-7.64-3.52-12.88-.06-.57-.12-1.14-.18-1.71,3.7-11.58,5.12-23-1.69-34.11C146.33,68,137.75,63.75,132.08,57.25Z" transform="translate(-22.33 -37)"/><path class="cls-35" d="M57.32,109.34c3.45,4,12.36,5.06,6.65,14-2.23,3.5,3,4.94,4.85,7.35-10.87-.32-19.85-9.13-21.43-21C50.9,115.18,54,108.63,57.32,109.34Z" transform="translate(-22.33 -37)"/><path class="cls-36" d="M149.85,113.44c-8.62,4.68-15.52,7-21.39-5.12-4.3-8.92-16.18-3.13-23.81-7l-.52-.2c-2.08-5.17,1.15-5.35,4.86-5.3,7,.09,14,.19,20.78-1.94A4.68,4.68,0,0,1,133,95.1c2.85,4.6,6.92,7.6,11.77,10,3.08,1.52,8.68,2.37,5.25,8.35Z" transform="translate(-22.33 -37)"/><path class="cls-37" d="M99.76,101.61c-4,4.72-5.68.28-7.94-1.93-8.51-4.4-18.78-.85-27.14-6.05-4.44-2.76-11-4.73-9.65-11.07C56,78,58.59,71.7,66.3,74.71c.61.24,2.64-1.16,2.58-1.43-4.2-16.34,11.14-12,16.3-12.37,11.44-.79,23.18,2.71,34.8,4.47A265.07,265.07,0,0,0,99.76,101.61Z" transform="translate(-22.33 -37)"/><path class="cls-38" d="M99.76,101.61c2-14.73,7.34-27.59,20.22-36.24l12.1-8.12c9.2,3.12,16.21,8.4,18.2,18.58-1.37,9.18-5.35,15.52-15.92,14.69-4.44-4.53-.33-8.26,1.08-12.19-13.79,6.77-14.38,8.42-6,16.87-5.77,7-13.67,3.19-20.52,3.45-2.8.1-4.16-.5-4.75,2.47Z" transform="translate(-22.33 -37)"/><path class="cls-26" d="M133.82,89.47c8.31-1.13,12.77-6.92,16.47-13.63,7.29,12.6,9,25.15-.31,37.61-.72-6.17-6.88-5.61-10.4-7.18-5.82-2.6-8.23-6.1-8.35-12C130.08,91.61,130.22,89.62,133.82,89.47Z" transform="translate(-22.33 -37)"/><path class="cls-39" d="M133.82,89.47l-2.59,4.84a7.46,7.46,0,0,0-1.81.9c-3.39-.58-7.85,1.69-9.77-2.93s1.11-7.8,4-10.82c4.82-5.07,12.38-6,17.59-15.32C142.46,78.12,133.73,82.21,133.82,89.47Z" transform="translate(-22.33 -37)"/><path class="cls-8" d="M332.91,473.24c6.65,8.95,13.87,1.4,20.51.21,7.51-1.34,10.9,3,7.6,7.46-10.06,13.59-1,23.26,7.31,29.51,7.58,5.73,3.64,15.4,10.93,19.64,4.74-1.08,9.07-1.35,11.48,4.23,2.11,4.91,3.16,10.42-.63,14.12-6.13,6-6,10.33,0,16.24,2.46,2.41,6.12,7.06,2.24,10.94-3.23,3.23-7,.05-10.22-1.63-4.35-2.29-9.48-3.51-12.12-8.31-.75-5.92-3.62.69-5.11-.84-9-1.83-3.35-6.56-2.09-10.45.7-2.29,2.09-5-.37-6.65-2.28-1.55-3.41,1-4.43,2.61-3.11,4.8-7.06,6.43-12.34,3.55-2.16-3.26.83-5.24,1.87-7.72,2.38-10.74,8.9-18.47,17.68-24.45-4.7-3.42-5.86,1.6-8.31,3.42-3.36,4.32-6.7,9.11-13.22,6.75-5.14-1.86-8.16-5.93-7.94-11.48.25-6.13,2.2-12.21,9.2-12.89,6.08-.59,1.4-2.18.79-3.35-1.53-2.94,0-5.66.39-8.47,3.83-7.5,3.67-11.45-6.89-11.1C333.79,484.75,325.33,482.4,332.91,473.24Z" transform="translate(-22.33 -37)"/><path class="cls-40" d="M332.91,473.24c-3.3,8.31,3.73,7.9,8.18,9.82,3.49,1.51,7.37-7.72,10.73.79,2.29,5.82-2.17,8.3-4.32,12-7.3,5.09-15.16,9.39-21.93,15.23-3.51,4.58-2.4,11.24-6.91,15.36-2.51,2-5.24,3.09-8.46,1.87-2.89,0-5.79.28-8.67.08-6.9-.48-10.31-3.05-5.91-10.24,2.58-4.22,5-8.56,7.23-13,1.27-2.47,2.46-4.71.77-8-6.75-13.14-1.42-24.19,13.58-28.77,4.09-1.25,10.07-.32,7.45-7.81,2.2-2.71,4.93-3.64,8.29-2.44C329.88,463.21,326.43,468.22,332.91,473.24Z" transform="translate(-22.33 -37)"/><path class="cls-41" d="M305.24,670.63l-5.69-1.6c6.77-14.28-6.38-28.91.77-43.19-1.57-6-2.92-11.87,5.25-14.24,14,4.42,16.09,2.72,16.57-13.74,3.69-7.31,2.7-14.59-.16-21.87-.85-3.45-2.42-7.57,1.06-9.84,3.78-2.48,6.35,1,8.58,3.75,3.55,8.6,2.62,17.87,2.19,26.59-.64,12.94,4.47,19.84,16.58,22.52,3.67,3.06,4.2,6.33.66,9.87a10.8,10.8,0,0,1-3.47,1.6c-6.77,1.44-13.49-.09-20.23-.41-4.1,0-8-1.31-13-1.83,3.37,10.35,4.06,20.12-.18,29.69,2.9,1.63,5.45,3.83,8.8,4.37,1,.12,2.07.32,3.09.51,3.46.75,6.9,1.62,10.5.81a15.69,15.69,0,0,1,4.76.22,41.59,41.59,0,0,0,12.9,1c2.76,0,5.58-.77,8.23.61.58,13.31-10.9,2.73-14.68,7.41-10.39,10-21.44-.62-32.19.85C312.4,674.1,308.63,671.92,305.24,670.63Z" transform="translate(-22.33 -37)"/><path class="cls-42" d="M342.57,727.4a20.88,20.88,0,0,0-2.39.65c-10.94,4.36-22.26,3.84-29.85-4.8-7.85-8.92-4.48-21.48-.74-31,1.53-3.9-.68-6.52.83-9.33,7.8-2.89,16.24-.51,24.18-3.09,2.67-.87,5.49,1.33,6.57,4.48-2.15,5.06-7.42,5.13-12.05,7.22,6.45.36,9.74-4.51,14.31-6.76,2.51,4.15,3.32,15.5,1.8,25.33l.06.2C338.2,715,345,721.95,342.57,727.4Z" transform="translate(-22.33 -37)"/><path class="cls-43" d="M350.45,627.78a6.41,6.41,0,0,0-.05-7.32,7.2,7.2,0,0,1,2.19-4.17,24.59,24.59,0,0,1,5.29-3.75,73.57,73.57,0,0,0,16.47-10.69c2.88-1.78,5.65-3.78,9.12-4.29,2.82.47,3.38,2.51,3.41,4.91-.51,4.64-2.87,9-1.88,13.88.54,4.43,3.66,7.45,5.93,10.94a2.65,2.65,0,0,1-.68,3l-5.09,2.68c-2.6,4.71-4.71,10.11-11.89,8.2-5.5-1.46-4.64,3.49-5.39,6-1.52,5,.9,10.8-2.56,15.61l-2.92,2.72-7.57,2.4c-4.08-5.21-2-12-4.36-17.58C349.35,642.76,348.94,635.27,350.45,627.78Z" transform="translate(-22.33 -37)"/><path class="cls-44" d="M390.26,630.24a18.05,18.05,0,0,0,0-2.24c-.74-11.39-1.51-22.74.53-34.15.53-2.95-1.79,1.06-2.62-.25-1.56-.75-2.4-2.12-3.39-3.42-3-4-.9-12.8-7.25-12.24-4.84.43-4.62,8.59-6.69,13.29a15.94,15.94,0,0,1-2.32,4.24c-4.22,1.56-5.05-1.75-6.35-4.4-.68-10.39.84-20.14,8.46-28,5,6.62,13.87,6.63,20,13.09,2.64-7.72-2.72-9.59-5.95-12.7-4.48-4.32-8.5-8.48.25-13.05,4.27-2.23,5.76-6.54,4.38-11.76-1.43-5.44-3.89-9-10.07-8.55,12.66-3.77,25.51,9.11,20.32,23.7-7.87,22.09-2.91,44.08-4.35,66.05C395,623.7,398,629.68,390.26,630.24Z" transform="translate(-22.33 -37)"/><path class="cls-45" d="M309,613.34c-9.5-.42-8.31,6.57-8.67,12.49-5-17.67-9.77-35.41-15.12-53-1.89-6.21,2.1-7.58,5.86-10,8.36-5.48,17.9-9.69,22.42-19.59,2.29-.26,3.14,1.22,3.71,3.06.48,3.18-.72,5.91-2.32,8.52-4.63,5.63-8,12.45-15.31,15.54-3.79,1.6-3.9,4.77-2.84,8.29,1.65,5.49,3.82,10.88,5.16,16.39,2.14,8.77,6.62,10,13.89,6.21,3.21.36,6.14,1.45,4.44,5.32C318.17,611.18,315.26,615.28,309,613.34Z" transform="translate(-22.33 -37)"/><path class="cls-16" d="M345.22,710.09c-5.06-7.87-2.93-16.32-2-24.68q-1.93,2-3.07-.54c-2.09-2.12-5.1-4.52-7.46-2.62-7.5,6.06-14.85,2-22.29.68,2.38-5.83-.19-9.57-5.17-12.3,11,1.39,22.47-1.95,33.14,4,2.12,1.19,6.2-1.12,9.37-1.81.5,10.37,2,20.69.39,31.13C347.75,706.5,347.93,708.84,345.22,710.09Z" transform="translate(-22.33 -37)"/><path class="cls-41" d="M365.34,662.7c-2.06-9.68-.12-18.86,4-29,6.29,11.67,10.66,2.05,15.85-.76C388.35,645,382.06,654.41,365.34,662.7Z" transform="translate(-22.33 -37)"/><path class="cls-46" d="M332.93,458.2l-8.29,2.44c-1.23-3.95,3.84-8.8-2.41-12.31-2.51-1.4-.39-4.19,1.82-5.85,2.6-1.95,5.34-2.5,8-.79,2.07,1.34,4.35,4.45,2.18,6.05C329.58,451.18,332,454.58,332.93,458.2Z" transform="translate(-22.33 -37)"/><path class="cls-26" d="M315.44,545.55l-2-2.32c-1.39-4.9-.27-10.35-3.28-14.89l7.79-2.69a7.62,7.62,0,0,1,2.31,3.27c-.05,10.12,6.62,19,5.3,29.41-1.84,5.41-4,6.89-8,1.3C314.46,555.14,318.14,549.91,315.44,545.55Z" transform="translate(-22.33 -37)"/><path class="cls-2" d="M342.57,727.4c-.79-2.68-.83-6-2.51-7.93-7.75-8.75-.41-8.36,5.22-9.17C348.14,716.59,349.73,722.69,342.57,727.4Z" transform="translate(-22.33 -37)"/><path class="cls-47" d="M293,634.49c3.35,7.89,3.63,13.19-1.58,19.45C289.87,647.31,289.33,642,293,634.49Z" transform="translate(-22.33 -37)"/><path class="cls-48" d="M283.66,589.73c3,6.81,5.22,11.11,3.51,18.59C282.91,602.37,280,598.33,283.66,589.73Z" transform="translate(-22.33 -37)"/><path class="cls-49" d="M370.6,563l-7.72,27.5q0,.87,0,1.75c.57,10-4.87,17.76-9.49,25.85l-3,2.34c-17.89-2.7-17.84-2.7-18.67-20.07-.47-9.87-1.14-19.72-1.72-29.58-1.21-20.95-11.59-40.88-6.9-62.48,8.69-3.06,13.34-14,24.37-12.46.5,4.47-4.38,12.33,8.62,8.8-7.11,6.82-20.13,3.66-18,16.45a11.4,11.4,0,0,0,7.52,9.19c6.72,2.47,5.74-5.75,9.59-7.43,4.7-1.75,9.08-6.09,14.52-1.78-.19,1.18-.14,3.27-.6,3.4C357,527.68,352.27,536.69,350.35,548c-4.43,3.13-5.11-.32-6-3.71-1.24,3.27.21,5.78,1.38,8.34,3.82.52,8.27,2.84,9.93-3.18,1.09-3.94,2.54-9.73,7.14-7.29s8.1,8.21,2.84,14.18c-10.52,2.53-12.35,15.14-20.19,17.78,4.37-4.91,12.55-7.16,19.71-11.17C367,562,368.84,560.57,370.6,563Z" transform="translate(-22.33 -37)"/><path class="cls-50" d="M365.17,562.91c1,6.71-4.87,4.76-7.76,6.88-6.41,4.68-13.41,6.81-20.81,9,7.24-4.54,12.3-11,17.49-17.39,2.9-3.57,6.19-6.84,11.56-5.14C366.91,558.61,356.73,560.09,365.17,562.91Z" transform="translate(-22.33 -37)"/><path class="cls-51" d="M345.73,552.61c-4.33-2.15-5.72-5.93-4.53-10.2.71-2.55,2.47-6.09,5.74-5.33,4.82,1.12,2,4.18.68,6.56-1.75,3.14-.75,4.5,2.72,4.34Z" transform="translate(-22.33 -37)"/><path class="cls-52" d="M369.74,521.11c-5.09-1.48-9.35,3.86-14.52,1.78C359.33,516.32,363.82,512.86,369.74,521.11Z" transform="translate(-22.33 -37)"/><path class="cls-53" d="M323.13,508.34a49.23,49.23,0,0,0,3.72,25.13C332,545.81,330,558.3,330,570.82c-2-1.35-5.28-4.17-5.68-3.81-3.31,3,1.09,5.53,1.15,8.5-2.78,3.2-.3,6.28.42,9.27,1.17,4.81,1.15,9-3.66,11.83-2.79.44-5.61-.62-5.45-3.33.83-13.51-5.43-26.33-3.61-39.87l2.24-7.85c1.62,4.57,2.6,9.52,5,13.61s1.75-1,2.75-1.49c2.46-10.33-1.74-19.58-4.73-29-.17-1-.35-2-.52-3C321.77,520.49,317.35,512.9,323.13,508.34Z" transform="translate(-22.33 -37)"/><path class="cls-19" d="M353.13,650.21c2.68,5.66,2.7,11.59,1.73,17.61-5-.66-10.24,1.21-14.85-2,5.28-6.48,1.87-14.16,3.05-21.21-1.39,7.43,3.81,17.2-7.62,21-3.43,3.51-6.57-.42-9.87-.37-5.08-12.85-2.47-25.27,2.16-37.56l20.43.6c4.32,6.45,1.4,13.69,2.23,20.53C350.62,650.9,349.69,654.89,353.13,650.21Z" transform="translate(-22.33 -37)"/><path class="cls-54" d="M327.72,627.74l-2.17,37.56-2.71,0c-5.41-4.08-4.26-9.64-3.77-12.41.59-4.37-1.17-3.09-1-2.77,2.38,5.14-.17,8.17-4.84,10.07-3.19-2.06-10-3.17-.61-7.15,3.39-1.44,2.24-7,1.33-11.31C310.29,624.21,310.82,623.88,327.72,627.74Z" transform="translate(-22.33 -37)"/><path class="cls-55" d="M335.42,665.68c6.42-4.72,4.63-11.68,5.11-18.12.38-5.14-1.46-10.59,1.74-15.68,5.43,11.1,4.18,28.43-2.28,34Z" transform="translate(-22.33 -37)"/><path class="cls-56" d="M353.13,650.21,352,664.5l-3.85.15v-36.3a12.53,12.53,0,0,0,2.31-.56C357.07,634.58,351.24,642.86,353.13,650.21Z" transform="translate(-22.33 -37)"/><path class="cls-17" d="M309,613.34c2.89-2,6.06-3.7,8.6-6.08,3.1-2.91.32-3.67-2.12-4.23-.82-5.34,2.24-6.4,6.62-6l1.26,1.36c4.17,13.4-.78,20.94-12.66,19.34C307.28,617.27,308.53,615.19,309,613.34Z" transform="translate(-22.33 -37)"/><path class="cls-19" d="M313.22,660.22c2.2-3.84,5.94-6.93,6.33-12.07l3.3,17.18C318.53,665.72,316,662.64,313.22,660.22Z" transform="translate(-22.33 -37)"/><path class="cls-17" d="M322.83,596.41c6.8-6.22-4.58-14.74,2.66-20.9,1.8,7.86,7.09,16.06-2.16,22.88l-1-.93Z" transform="translate(-22.33 -37)"/><path class="cls-57" d="M340.16,684.87l3.07.54c-5.64,7.68-11.74,13.47-23.88,4.71C327.75,687.72,334.56,688.23,340.16,684.87Z" transform="translate(-22.33 -37)"/><path class="cls-58" d="M387.06,592.59c4-.52,2.2-5.63,6.18-8-2.42,15.26,2.83,29.64-3,43.44-6-1.73-8.16-5.91-7.54-11.85,4.51-3.69,2.14-8.75,2.64-13.24,0-1.86-.19-3.64-2.19-4.54l-.86-1.54C382.81,594.21,384.27,592.66,387.06,592.59Z" transform="translate(-22.33 -37)"/><path class="cls-11" d="M375.58,603c-4.16,6.8-11.27,9.44-17.93,12.71-2.76-7.7,2.06-12.16,7.08-16.55C369,598.68,372.7,599.62,375.58,603Z" transform="translate(-22.33 -37)"/><path class="cls-58" d="M375.58,603c-3.35-1.12-7.43.26-10.18-3-4.53-2.19-4.56-5.57-2.52-9.5h0l5.37,4.8c5.16-3.45,9.91-3.7,13.92,1.78l1,1.26C381.34,601.09,379.16,603.19,375.58,603Z" transform="translate(-22.33 -37)"/><path class="cls-44" d="M362.88,590.52l2.52,9.5c-4.18,4.44-8.11,9-7.75,15.67l-4.27,2.43C355.18,608.45,358.69,599.37,362.88,590.52Z" transform="translate(-22.33 -37)"/><path class="cls-59" d="M385.34,602.91c4.77,9.53,4.24,12.18-2.64,13.24C382.56,611.53,382.32,606.9,385.34,602.91Z" transform="translate(-22.33 -37)"/><path class="cls-60" d="M382.17,597.11l-13.92-1.78c-2.31-7.88,4.09-13.79,4.78-21,.21-2.21,1.74-4.14,4.09-2.46,3.09,2.21,8.43,1.82,8.82,7.33.31,4.47.74,8.93,1.12,13.4Z" transform="translate(-22.33 -37)"/><path class="cls-49" d="M322.83,596.41l-.46,1c-3,1.06-5.8,2.25-6.92,5.58-10.8,9.5-10.84,9.51-15.51-4.05-1.87-5.42-3.43-11-5.29-16.37-2.66-7.76-4.75-14.29,7-17.24,4.57-1.15,7.76-7.81,11.58-12,3.44,12.46,8.38,24.7,5.49,38.08C318,594.86,320.33,595.71,322.83,596.41Z" transform="translate(-22.33 -37)"/><path class="cls-61" d="M318.5,528.64c9.76,8.34,8.63,18.46,4.73,29C324,547.61,315,539.14,318.5,528.64Z" transform="translate(-22.33 -37)"/><path class="cls-8" d="M1287.09,478.36c-2,6.31-1.92,11.37,6.85,10.8,6-.39,11.55.16,15.67,5.22,4.52,7.37.22,10.94-5.89,13.76-.91.64-1.85,1.22-2.78,1.82-5,4.84-13.3,3.66-17.74,9.61-9.16,4.73-18.51,8.51-29.15,5.93-4.66-6.6,1.83-8.53,5.18-11,7-5.25,15.4-7.79,23.37-11.16,2.47-1,6.39-2,5.48-5.63-1.14-4.48-4.93-3-8.19-2.27-8.25,1.89-16.57,3.44-24.66,6-12.41-16.68,1.28-27.27,24.74-29.68C1283.08,473.15,1287.63,473,1287.09,478.36Z" transform="translate(-22.33 -37)"/><path class="cls-62" d="M1160.5,553.64l-5.61-8.92c8.5-1.32,15.69,1.55,22.2,3.92,9.41,3.43,19,5.62,28.65,7.89s18,.39,22.92-9.36c1.56-3.1,4.71-4.46,6.83-6.7,5.13-5.39,11.47-10.42,8.07-20.18-2.13-6.1,1.58-11,8.64-12,4.14,2.63,5.37,6.65,2.16,10-4.14,4.39-2.22,7.86,0,11.79,1.37,7.34-2.26,13-6.64,18.07-13.59,15.62-40.93,21.89-57.57,13.53.89,1.4-1-.75-1-.69,8.54,10.58,3.59,10.1-5.26,6.53-3.86-1.87-6.09-5.56-7.88-7-2.42-2.51-2.24-1.32-2.13-1.26,3.92,2.26,5.85,7,10.41,8.55,8.17,5.18,19.27,3.19,26.42,10.84,0,2.13-.46,3.7-3.14,2.77-16.19,2.11-26.4-8.54-37.4-17.53C1164.51,562.79,1160.9,559.73,1160.5,553.64Z" transform="translate(-22.33 -37)"/><path class="cls-63" d="M1334.53,536.31c-4.06,16.36-19.67,21-30.61,30.4-10.51,9.08-23.29,10.15-35.9,12.34-6.06-1.81-13,9-18.48-1.28,2.92-6.37,9.48-3.38,14.91-6.06-1-3.17-4.2-5.29-5.72-8.3s-6.1-6.25-2.51-9.67c3.24-3.09,6.91.53,10.07,2.28,2.17,1.2,4.05,2.89,6.24,4.1,1.21,1.14,1.56-1.59.78-.13-.14.27-.47,0-1.12-.51-3.13-2.67-8-5.78-4.58-9.94,4.16-5,8,.35,11.47,2.84,1.35,1-.42-.13.94.8,4.55,3.11,7,11.67,13.54,8.91,7.55-3.19,8.38-11.54,8.31-19.24C1310.52,529.55,1322.2,531.34,1334.53,536.31Z" transform="translate(-22.33 -37)"/><path class="cls-64" d="M1252.21,528.68c-6-2.7-2.34-7.23-.56-9.35,3.38-4,1-7.39.53-11.06-.75-3.08,2.13-4.54,3.05-6.88,6.64-.63,6.06-6.95,9-11.57,4.08,8.42,10.76,5.41,15.68,2.54,6.87-4,10.87,0,13.24,4.23,3.85,6.85-3.66,6.35-7.09,8.28-11.15,6.31-25.11,7.78-33.17,19.38C1254.1,526,1253.9,527.44,1252.21,528.68Z" transform="translate(-22.33 -37)"/><path class="cls-8" d="M1334.53,536.31c-1.9.59-4.47,2.27-5.61,1.58-10.7-6.41-18.47-.27-26.38,5.62-2.59,3.05-5.76,3.18-8.65.93s-.05-4.32,1.14-6.14c1.93-2.94.63-5.45-.59-8.06-2.18-4.64-2.89-9.34-.54-14.17,2.69-2.79,5.46-5.23,9.29-1.7,2.33,3.87-1.12,8.88,2.48,12.44,5.21-.9,7.7-9.82,14.77-5,5.12,1.73,6.67-2,8.36-5.5,1.59-1.88,3.31-3.42,6-2.17C1335.86,521.52,1337,528.94,1334.53,536.31Z" transform="translate(-22.33 -37)"/><path class="cls-12" d="M1160.5,553.64l9.67,10.26c-3.45,3.3,4.19,5,1.27,8.28-18.84-14.89-38.88-13.87-59.71-4,3.76-5.83,9.4-7.22,14.69-9.22,2.12-.8,2.49-.82,2-5.47-.19-1.75.2-1.78,1.29-1.91,3.92-.47,10.81-2.21,11.32-1.09C1146.2,562,1153.58,555.73,1160.5,553.64Z" transform="translate(-22.33 -37)"/><path class="cls-46" d="M1250.31,576.68c4.85,8.67,12.15-1,17.71,2.37-19.92,6.55-39.9,11.71-60.45,2.37l2.49-2.23C1223.09,572.2,1236.37,569.14,1250.31,576.68Z" transform="translate(-22.33 -37)"/><path class="cls-65" d="M1334.83,514.1l-4.4,2.55c-5.06-1.32-9-5.57-14.53-5.66a29.74,29.74,0,0,1-3.22-.82c-3.61-1.33-8.25-.2-10.61-4.45,5.46-1.82,8.14-5.49,7.56-11.34C1319.94,498.5,1332.63,499.6,1334.83,514.1Z" transform="translate(-22.33 -37)"/><path class="cls-53" d="M1287.09,478.36l-7.12-6.65c3.86-3.72,8.39-7,11.35-11.31,2-2.95,2.07-7.74,7.13-5.82,4,1.5,5.09,5.46,3.52,9.28s-3.51,7.94-9,4.44c-.94-.6-2.14-.78-4.67-1.66C1291.66,471.71,1296.52,476.72,1287.09,478.36Z" transform="translate(-22.33 -37)"/><path class="cls-66" d="M1117.84,576.1c6.16-6.71,13.26-11.22,22.48-10.9Z" transform="translate(-22.33 -37)"/><path class="cls-4" d="M1250.31,576.68c-13.61-2.21-26.78,2.42-40.25,2.51-9.14-3.21-19.23-4.05-26.92-10.85a2.47,2.47,0,0,1-.64-3.51c2.39,1.51,4.62,3.44,8.51,3l-3.49-8.5c36.34,7.2,61.25-4.8,64.69-30.6q.34-2.21.68-4.43c10.61-.06,20.4-3.33,29.9-7.73,9-4.75,9.32-4.75,12.46-.07-.16,4.81-.88,9.56,2.3,14,5.49,7.66,5.33,7.78-4,12.25,2.94,1.85,6,1.36,9,.82,5.18,8.75.74,15.77-5.11,21.39-5.56,5.34-10.12,1.75-14-3.72a34.87,34.87,0,0,0-16.58-12.87c3.4,9.16,13.83,9.15,15.14,17.81-10.62.47-16.32-8.82-26.14-10.5l13.28,16.07C1264,577.34,1256.83,576,1250.31,576.68Z" transform="translate(-22.33 -37)"/><path class="cls-65" d="M1295.26,516.45c-4.19-5.37-8.3,2.34-12.46.07,3.06-8.18,13.57-3.23,17.48-9.91,4.25,5.47,9.86,2.06,14.91,2.29l-.16-.09c5.9,3.63,10.49,7.7,5,15.1-4.08-1.32-7-.89-8.64,4-.32,1-3,8.44-6.3,1-2.38-3.86-.13-8.63-2.46-12.5C1300.13,512,1297.71,515.46,1295.26,516.45Z" transform="translate(-22.33 -37)"/><path class="cls-56" d="M1315.17,508.9c-5.81,4.73-11.71,10-14.91-2.29a7.71,7.71,0,0,1,1.79-.89C1306.43,506.78,1311.54,504.81,1315.17,508.9Z" transform="translate(-22.33 -37)"/><path class="cls-67" d="M1182.5,564.84l.64,3.51c-7-3.6-11.54-9.59-18.28-17.61C1174.83,553.62,1178.09,559.94,1182.5,564.84Z" transform="translate(-22.33 -37)"/><path class="cls-68" d="M1320,523.91c1.45-6.07-1.65-10.63-5-15.1,6.62-.31,12.54.78,15.41,7.84C1328.09,520.69,1330.78,531.94,1320,523.91Z" transform="translate(-22.33 -37)"/><path class="cls-56" d="M1302.63,516.38c7.66,2.82,5.31,7.61,2.46,12.5C1294.23,526.69,1301.62,520.91,1302.63,516.38Z" transform="translate(-22.33 -37)"/></svg>