<?xml version="1.0" encoding="UTF-8"?>
<svg width="391px" height="180px" viewBox="0 0 391 180" version="1.1" xmlns="http://www.w3.org/2000/svg" xmlns:xlink="http://www.w3.org/1999/xlink">
    <!-- Generator: Sketch 41.2 (35397) - http://www.bohemiancoding.com/sketch -->
    <title>Artboard 2</title>
    <desc>Created with Sketch.</desc>
    <defs>
        <radialGradient cx="100%" cy="0%" fx="100%" fy="0%" r="369.902474%" id="radialGradient-1">
            <stop stop-color="#FFFFFF" offset="0%"></stop>
            <stop stop-color="#918F8F" offset="100%"></stop>
        </radialGradient>
        <radialGradient cx="50%" cy="50%" fx="50%" fy="50%" r="58.2477817%" id="radialGradient-2">
            <stop stop-color="#7EBADE" offset="0%"></stop>
            <stop stop-color="#091A27" offset="100%"></stop>
        </radialGradient>
    </defs>
    <g id="Page-1" stroke="none" stroke-width="1" fill="none" fill-rule="evenodd">
        <g id="Artboard-2">
            <g id="Group-2" transform="translate(0.000000, -2.000000)">
                <path d="M182.138431,150.087544 C182.138431,167.598045 167.805946,181.924818 150.288465,181.924818 L31.9883982,181.924818 C14.4709165,181.924818 0.138431422,167.598045 0.138431422,150.087544 L0.138431422,31.8372743 C0.138431422,14.3267735 14.4709165,0 31.9883982,0 L150.288465,0 C167.805946,0 182.138431,14.3267735 182.138431,31.8372743 L182.138431,150.087544 Z" id="Fill-1" fill="#61BAC9"></path>
                <polygon id="Fill-19-Copy" fill="url(#radialGradient-1)" points="157.735328 26 89 26 89 41.6785311 129.815358 41.6785311 129.815358 116.281224 157.735328 116.281224"></polygon>
                <polygon id="Fill-21-Copy" fill="url(#radialGradient-1)" points="125.735328 46 57 46 57 61.9995569 98.3074631 61.9995569 98.3074631 136.28653 125.735328 136.28653"></polygon>
                <polygon id="Fill-23-Copy" fill="url(#radialGradient-1)" points="25 156.283877 93.7339298 156.283877 93.7339298 66 25 66"></polygon>
                <path d="M182.138431,150.087544 C182.138431,167.598045 167.805946,181.924818 150.288465,181.924818 L31.9883982,181.924818 C14.4709165,181.924818 0.138431422,167.598045 0.138431422,150.087544 L0.138431422,31.8372743 C0.138431422,14.3267735 14.4709165,0 31.9883982,0 L150.288465,0 C167.805946,0 182.138431,14.3267735 182.138431,31.8372743 L182.138431,150.087544 Z" id="overlay" fill-opacity="0.746631567" fill="#E3E3E3"></path>
            </g>
            <g id="Group" transform="translate(209.000000, -3.000000)">
                <path d="M181.89677,150.5745 C181.89677,168.351007 167.352354,182.895423 149.575846,182.895423 L32.3209233,182.895423 C14.5444155,182.895423 0,168.351007 0,150.5745 L0,33.3209233 C0,15.5444155 14.5444155,1 32.3209233,1 L149.575846,1 C167.352354,1 181.89677,15.5444155 181.89677,33.3209233 L181.89677,150.5745 Z" id="Fill-25-Copy" fill="url(#radialGradient-2)"></path>
                <polygon id="Fill-19" fill="#E1E2E1" points="151.727342 24.956403 85.5152376 24.956403 85.5152376 40.873111 124.832294 40.873111 124.832294 116.609115 151.727342 116.609115"></polygon>
                <polygon id="Fill-21" fill="#E1E2E1" points="120.792583 44.9130918 54.5804779 44.9130918 54.5804779 61.1557025 94.3715746 61.1557025 94.3715746 136.57119 120.792583 136.57119"></polygon>
                <polygon id="Fill-23" fill="#E1E2E1" points="24.1208357 156.850145 90.3315938 156.850145 90.3315938 65.1947405 24.1208357 65.1947405"></polygon>
                <path d="M182,151.074387 C182,168.592124 167.667515,182.924818 150.150033,182.924818 L31.8499668,182.924818 C14.3324851,182.924818 0,168.592124 0,151.074387 L0,32.7752497 C0,15.2575125 14.3324851,0.924818374 31.8499668,0.924818374 L150.150033,0.924818374 C167.667515,0.924818374 182,15.2575125 182,32.7752497 L182,151.074387 Z" id="overlay" fill-opacity="0.7" fill="#E2E2E2"></path>
            </g>
        </g>
    </g>
</svg>