<?xml version="1.0" encoding="UTF-8"?>
<svg width="390px" height="180px" viewBox="0 0 390 180" version="1.1" xmlns="http://www.w3.org/2000/svg" xmlns:xlink="http://www.w3.org/1999/xlink">
    <!-- Generator: Sketch 41.2 (35397) - http://www.bohemiancoding.com/sketch -->
    <title>Artboard 2 Copy</title>
    <desc>Created with Sketch.</desc>
    <defs></defs>
    <g id="Page-1" stroke="none" stroke-width="1" fill="none" fill-rule="evenodd">
        <g id="Artboard-2-Copy">
            <g id="Group-15" transform="translate(0.000000, -2.000000)">
                <path d="M181.785244,149.636032 C181.785244,167.409111 167.252891,181.95072 149.491126,181.95072 L32.33345,181.95072 C14.5703397,181.95072 0.0393323529,167.409111 0.0393323529,149.636032 L0.0393323529,32.405077 C0.0393323529,14.6306523 14.5703397,0.0903891736 32.33345,0.0903891736 L149.491126,0.0903891736 C167.252891,0.0903891736 181.785244,14.6306523 181.785244,32.405077 L181.785244,149.636032 Z" id="Fill-1" fill="#091A27"></path>
                <path d="M170.159765,91.0202853 C170.159765,134.816112 134.679295,170.319183 90.9113463,170.319183 C47.1433978,170.319183 11.6642728,134.816112 11.6642728,91.0202853 C11.6642728,47.2244582 47.1433978,11.7213878 90.9113463,11.7213878 C134.679295,11.7213878 170.159765,47.2244582 170.159765,91.0202853" id="Fill-3" fill="#1F70B7"></path>
                <path d="M167.744569,97.752512 C167.744569,136.493783 136.357378,167.900967 97.6394221,167.900967 C58.9228118,167.900967 27.5356206,136.493783 27.5356206,97.752512 C27.5356206,59.0098942 58.9228118,27.6040569 97.6394221,27.6040569 C136.357378,27.6040569 167.744569,59.0098942 167.744569,97.752512" id="Fill-5" fill="#004B7C"></path>
                <path d="M151.872145,91.0202853 C151.872145,124.709694 124.579579,152.019644 90.9116154,152.019644 C57.2449978,152.019644 29.9524316,124.709694 29.9524316,91.0202853 C29.9524316,57.3308768 57.2449978,30.0209263 90.9116154,30.0209263 C124.579579,30.0209263 151.872145,57.3308768 151.872145,91.0202853" id="Fill-7" fill="#0E2C43"></path>
                <polygon id="Fill-9" fill="#E1E2E1" points="126.482106 50.1660373 87.2366794 50.1660373 87.2366794 59.6059655 110.540922 59.6059655 110.540922 104.524728 126.482106 104.524728"></polygon>
                <polygon id="Fill-11" fill="#E1E2E1" points="108.145775 62.0012917 68.9016941 62.0012917 68.9016941 71.6337616 92.4858191 71.6337616 92.4858191 116.362675 108.145775 116.362675"></polygon>
                <polygon id="Fill-13" fill="#E1E2E1" points="50.8468603 128.391279 90.0922868 128.391279 90.0922868 74.0312422 50.8468603 74.0312422"></polygon>
                <path d="M182,150.149569 C182,167.667306 167.667515,182 150.150033,182 L31.8499668,182 C14.3324851,182 0,167.667306 0,150.149569 L0,31.8504313 C0,14.3326941 14.3324851,-5.68434189e-14 31.8499668,-5.68434189e-14 L150.150033,-5.68434189e-14 C167.667515,-5.68434189e-14 182,14.3326941 182,31.8504313 L182,150.149569 Z" id="overlay" fill-opacity="0.600000024" fill="#E2E2E2"></path>
            </g>
            <g id="Group-32" transform="translate(208.000000, 0.000000)">
                <path d="M181.3812,148.010424 C181.3812,165.577535 166.928259,179.950626 149.263553,179.950626 L32.7460824,179.950626 C15.0813765,179.950626 0.628435294,165.577535 0.628435294,148.010424 L0.628435294,32.1380275 C0.628435294,14.5709166 15.0813765,0.197825967 32.7460824,0.197825967 L149.263553,0.197825967 C166.928259,0.197825967 181.3812,14.5709166 181.3812,32.1380275 L181.3812,148.010424 Z" id="Fill-25" fill="#091A27"></path>
                <path d="M169.820721,90.0739597 C169.820721,133.362249 134.534132,168.453883 91.0040147,168.453883 C47.4765735,168.453883 12.1899853,133.362249 12.1899853,90.0739597 C12.1899853,46.7856708 47.4765735,11.6940361 91.0040147,11.6940361 C134.534132,11.6940361 169.820721,46.7856708 169.820721,90.0739597" id="Fill-26" fill="#37607D"></path>
                <path d="M160.726207,90.0739597 C160.726207,128.3676 129.511869,159.409483 91.0041485,159.409483 C52.4991044,159.409483 21.2847662,128.3676 21.2847662,90.0739597 C21.2847662,51.7816506 52.4991044,20.7384365 91.0041485,20.7384365 C129.511869,20.7384365 160.726207,51.7816506 160.726207,90.0739597" id="Fill-27" fill="#6D99B7"></path>
                <path d="M151.631694,90.0739597 C151.631694,123.372951 124.488268,150.366413 91.0042824,150.366413 C57.5216353,150.366413 30.3782088,123.372951 30.3782088,90.0739597 C30.3782088,56.7749688 57.5216353,29.781506 91.0042824,29.781506 C124.488268,29.781506 151.631694,56.7749688 151.631694,90.0739597" id="Fill-28" fill="#A7D1F1"></path>
                <polygon id="Fill-29" fill="#283036" points="126.380265 49.6931607 87.3506324 49.6931607 87.3506324 59.0236921 110.526191 59.0236921 110.526191 103.421903 126.380265 103.421903"></polygon>
                <polygon id="Fill-30" fill="#283036" points="108.145471 61.3919249 69.1158382 61.3919249 69.1158382 70.9127667 92.56975 70.9127667 92.56975 115.123329 108.145471 115.123329"></polygon>
                <polygon id="Fill-31" fill="#283036" points="51.1593971 127.011206 90.1890294 127.011206 90.1890294 73.2811326 51.1593971 73.2811326"></polygon>
            </g>
        </g>
    </g>
</svg>