<?xml version="1.0" encoding="utf-8"?>
<!-- Generator: Adobe Illustrator 20.1.0, SVG Export Plug-In . SVG Version: 6.00 Build 0)  -->
<svg version="1.1" id="Ebene_1" xmlns="http://www.w3.org/2000/svg" xmlns:xlink="http://www.w3.org/1999/xlink" x="0px" y="0px"
	 viewBox="0 0 1200 400" style="enable-background:new 0 0 1200 400;" xml:space="preserve">
<style type="text/css">
	.st0{fill:#CFDADE;stroke:#CFDADE;stroke-width:10;stroke-miterlimit:10;}
</style>
<path class="st0" d="M771.8,381c-27.9-28.7-55.7-57.3-83.6-85.9c-27.7-28.6-55.5-57.1-83.5-85.9c-55.7,57.4-111.4,114.6-167,171.9
	c-122.3,0-244.5,0-366.9,0c0-122.2,0-244.3,0-366.6c5.1,0,10,0,15,0c0.1,0.1,0.2,0.1,0.2,0.2c0,0.1,0.1,0.1,0.1,0.2
	c0,0.1,0,0.1,0.1,0.2c0,0.1,0,0.1,0,0.2c0,0.1,0,0.2,0,0.2c0,0.2,0,0.3,0,0.5c0,0.1,0,0.2,0,0.2c0,0.1,0,0.2,0,0.2
	c0,0.2,0,0.3,0,0.5c0,115.5,0,231.1,0,346.6c0,0.2,0,0.3,0,0.5c0,0.1,0,0.2,0,0.2c0,0.1,0,0.2,0,0.2c0,0.1,0,0.2,0,0.2
	c0,0.1,0,0.2,0,0.2c0,0.1,0,0.2,0,0.2c0,0.1,0.1,0.1,0.2,0.3c114.7,0,229.5,0,344.6,0C485.4,309.8,539.6,254,594,198
	C534.7,136.8,475.4,76,415.9,14.5c7.5,0,14.4,0,21.6,0c55.6,57.2,111.4,114.7,167.4,172.3c55.9-57.6,111.7-115,167.4-172.4
	c122.2,0,244.4,0,366.6,0c0,122.2,0,244.3,0,366.6C1016.6,381,894.3,381,771.8,381z M1123.3,365.5c0.5-3.5,0.3-333.7-0.2-335.5
	c-114.8,0-229.7,0-344.4,0c-54.4,56-108.6,111.9-163,167.9c54.3,55.9,108.5,111.8,162.7,167.6
	C893.4,365.5,1008.3,365.5,1123.3,365.5z"/>
</svg>
