<?xml version="1.0" encoding="UTF-8"?>
<svg width="1072px" height="370px" viewBox="0 0 1072 370" version="1.1" xmlns="http://www.w3.org/2000/svg" xmlns:xlink="http://www.w3.org/1999/xlink">
    <!-- Generator: Sketch 41.2 (35397) - http://www.bohemiancoding.com/sketch -->
    <title>LecLogo</title>
    <desc>Created with Sketch.</desc>
    <defs></defs>
    <g id="Page-1" stroke="none" stroke-width="1" fill="none" fill-rule="evenodd">
        <g id="LecLogo">
            <g id="Page-1" transform="translate(2.000000, 2.000000)">
                <path d="M1052.2988,351.079 C1052.7808,347.557 1052.6298,17.336 1052.1438,15.555 L707.7548,15.555 C653.3818,71.561 599.1078,127.466 544.7118,183.497 C599.0198,239.422 653.2458,295.267 707.4468,351.079 L1052.2988,351.079 Z M700.8348,366.561 C672.9168,337.845 645.0918,309.237 617.2758,280.613 C589.5278,252.057 561.7888,223.487 533.8228,194.683 C478.0978,252.057 422.4608,309.329 366.8588,366.576 L-0.0002,366.576 L-0.0002,0.015 L14.9668,0.015 C15.0538,0.083 15.1218,0.122 15.1708,0.18 C15.2188,0.234 15.2528,0.307 15.2828,0.374 C15.3118,0.443 15.3308,0.521 15.3508,0.599 C15.3648,0.672 15.3748,0.749 15.3808,0.827 C15.3888,0.905 15.3948,0.983 15.3948,1.06 C15.4038,1.217 15.4038,1.372 15.4038,1.528 C15.4088,1.606 15.4088,1.683 15.4088,1.761 L15.4088,1.996 L15.4088,2.462 L15.4088,349.046 C15.4088,349.202 15.4138,349.357 15.4138,349.513 L15.4138,349.746 C15.4138,349.824 15.4188,349.902 15.4188,349.979 C15.4238,350.058 15.4238,350.141 15.4278,350.213 C15.4388,350.296 15.4528,350.369 15.4628,350.448 C15.4778,350.525 15.4818,350.603 15.5108,350.671 C15.5448,350.743 15.5988,350.802 15.7498,351.007 L360.3578,351.007 C414.3938,295.375 468.6298,239.538 523.0018,183.565 C463.6858,122.406 404.3568,61.544 344.8948,0.054 L366.5268,0.054 C422.0968,57.267 477.9078,114.724 533.8858,172.355 C589.8198,114.772 645.5828,57.365 701.3028,0 L1067.9458,0 L1067.9458,366.561 L700.8348,366.561 Z" id="Fill-1" fill="#CFDADE"></path>
                <path d="M1052.2988,351.079 C1052.7808,347.557 1052.6298,17.336 1052.1438,15.555 L707.7548,15.555 C653.3818,71.561 599.1078,127.466 544.7118,183.497 C599.0198,239.422 653.2458,295.267 707.4468,351.079 L1052.2988,351.079 Z M700.8348,366.561 C672.9168,337.845 645.0918,309.237 617.2758,280.613 C589.5278,252.057 561.7888,223.487 533.8228,194.683 C478.0978,252.057 422.4608,309.329 366.8588,366.576 L-0.0002,366.576 L-0.0002,0.015 L14.9668,0.015 C15.0538,0.083 15.1218,0.122 15.1708,0.18 C15.2188,0.234 15.2528,0.307 15.2828,0.374 C15.3118,0.443 15.3308,0.521 15.3508,0.599 C15.3648,0.672 15.3748,0.749 15.3808,0.827 C15.3888,0.905 15.3948,0.983 15.3948,1.06 C15.4038,1.217 15.4038,1.372 15.4038,1.528 C15.4088,1.606 15.4088,1.683 15.4088,1.761 L15.4088,1.996 L15.4088,2.462 L15.4088,349.046 C15.4088,349.202 15.4138,349.357 15.4138,349.513 L15.4138,349.746 C15.4138,349.824 15.4188,349.902 15.4188,349.979 C15.4238,350.058 15.4238,350.141 15.4278,350.213 C15.4388,350.296 15.4528,350.369 15.4628,350.448 C15.4778,350.525 15.4818,350.603 15.5108,350.671 C15.5448,350.743 15.5988,350.802 15.7498,351.007 L360.3578,351.007 C414.3938,295.375 468.6298,239.538 523.0018,183.565 C463.6858,122.406 404.3568,61.544 344.8948,0.054 L366.5268,0.054 C422.0968,57.267 477.9078,114.724 533.8858,172.355 C589.8198,114.772 645.5828,57.365 701.3028,0 L1067.9458,0 L1067.9458,366.561 L700.8348,366.561 Z" id="Stroke-3" stroke="#CFDADE" stroke-width="4"></path>
            </g>
        </g>
    </g>
</svg>