<?xml version="1.0" encoding="utf-8"?>
<!-- Generator: Adobe Illustrator 16.0.0, SVG Export Plug-In . SVG Version: 6.00 Build 0)  -->
<!DOCTYPE svg PUBLIC "-//W3C//DTD SVG 1.1//EN" "http://www.w3.org/Graphics/SVG/1.1/DTD/svg11.dtd">
<svg version="1.1" id="Ebene_1" xmlns="http://www.w3.org/2000/svg" xmlns:xlink="http://www.w3.org/1999/xlink" x="0px" y="0px"
	 width="1200px" height="400px" viewBox="0 0 1200 400" enable-background="new 0 0 1200 400" xml:space="preserve">
<path fill-rule="evenodd" clip-rule="evenodd" fill="#051F28" stroke="#051F28" stroke-width="10" stroke-miterlimit="10" d="
	M771.835,380.996c-27.918-28.717-55.743-57.324-83.56-85.948c-27.748-28.557-55.486-57.126-83.452-85.93
	c-55.726,57.373-111.362,114.646-166.965,171.893c-122.309,0-244.51,0-366.858,0c0-122.23,0-244.331,0-366.561
	c5.075,0,10.033,0,14.967,0c0.087,0.068,0.155,0.107,0.204,0.165c0.049,0.054,0.083,0.126,0.113,0.194
	c0.028,0.068,0.048,0.146,0.067,0.225c0.015,0.073,0.024,0.15,0.03,0.228c0.009,0.078,0.014,0.156,0.014,0.233
	c0.01,0.156,0.01,0.312,0.01,0.467c0.004,0.078,0.004,0.156,0.004,0.233c0,0.078,0,0.156,0,0.234c0,0.155,0,0.311,0,0.467
	c0,115.531,0,231.057,0,346.583c0,0.156,0.005,0.312,0.005,0.467c0,0.078,0,0.156,0,0.233c0,0.078,0.005,0.156,0.005,0.233
	c0.005,0.078,0.005,0.161,0.009,0.233c0.01,0.083,0.024,0.156,0.034,0.235c0.015,0.077,0.02,0.155,0.049,0.223
	c0.034,0.072,0.087,0.131,0.238,0.336c114.694,0,229.486,0,344.608,0C485.394,309.81,539.63,253.973,594.001,198
	C534.686,136.841,475.356,75.979,415.895,14.488c7.478,0,14.363,0,21.632,0c55.57,57.214,111.381,114.67,167.359,172.301
	c55.934-57.583,111.697-114.99,167.417-172.355c122.24,0,244.369,0,366.644,0c0,122.216,0,244.316,0,366.562
	C1016.551,380.996,894.266,380.996,771.835,380.996z M1123.299,365.514c0.482-3.522,0.331-333.743-0.155-335.524
	c-114.826,0-229.69,0-344.389,0c-54.373,56.006-108.647,111.911-163.043,167.942c54.308,55.924,108.534,111.77,162.735,167.582
	C893.434,365.514,1008.308,365.514,1123.299,365.514z"/>
</svg>
