<svg xmlns="http://www.w3.org/2000/svg">
<defs>
<font id="NaiveDecoSansPart1" horiz-adv-x="719" >
  <font-face 
    font-family="Naive Deco Sans Part 1"
    font-weight="600"
    font-stretch="normal"
    units-per-em="1000"
    panose-1="2 1 5 3 1 1 1 2 1 4"
    ascent="753"
    descent="-247"
    x-height="746"
    cap-height="749"
    bbox="-4.98804 -248.69 1101.2 975.187"
    underline-thickness="50"
    underline-position="-100"
    unicode-range="U+000D-F6C3"
  />
<missing-glyph horiz-adv-x="487" 
d="M407 737h4c9 -5 11 -13 4 -17c2 -16 2 -35 2 -50c0 -23 -1 -46 -2 -68c0 -3 -1 -6 -1 -10v-9c-1 -20 -2 -48 -1 -67c0 -19 2 -231 4 -269v-5c2 -18 4 -39 5 -57v-25c0 -3 -1 -7 -1 -11v-28c0 -13 0 -28 1 -38c1 -34 -6 -54 -55 -49c-12 1 -36 0 -55 -2
c-9 -1 -77 -2 -104 -2c-26 2 -80 4 -113 5h-11c-8 1 -16 8 -16 17c0 14 0 34 2 49c0 4 0 12 1 16c2 14 3 32 2 45c-1 25 2 63 -2 89l-1 4c-2 15 -4 123 -5 200c-1 39 -1 72 -1 79c-1 16 1 35 3 51v5c0 2 1 7 1 9c2 15 -1 33 -1 49c0 9 0 22 -1 32c-1 14 2 35 3 47
c4 5 10 8 15 8c27 0 84 -2 111 -4c26 -2 113 -4 140 -3c10 0 24 2 34 4c4 0 5 1 7 1c9 2 21 4 31 4zM96 101c-1 -4 0 -12 0 -16h2l4 7l14 35v-1c4 6 7 17 11 25l7 16l11 28l38 87l25 55c4 10 8 20 13 30l8 18l-35 79l-18 41c-4 8 -6 16 -9 23c-4 7 -10 24 -13 34
c0 1 -1 2 -1 3l-33 71c-1 4 -9 19 -12 26l-5 11l-7 20h-2c0 -3 -3 -15 -2 -17c1 -9 1 -24 1 -29c0 -15 1 -32 -1 -45c-2 -12 -4 -28 -4 -40c-1 -34 3 -279 7 -311c4 -29 4 -58 4 -88c1 -15 -1 -33 -3 -49c0 -2 -1 -5 -1 -7zM370 55l8 -3l-35 76c-9 19 -17 35 -17 36
c-15 34 -35 79 -49 115l-33 73l-33 -73c-13 -34 -33 -82 -48 -115c-3 -5 -9 -19 -17 -36c-13 -28 -30 -64 -35 -73c8 0 22 -2 30 -2c24 -2 77 -3 101 -3c12 0 69 0 89 1c1 0 5 0 7 1c9 2 24 4 32 3zM387 515c-1 28 0 64 2 91c1 18 2 52 2 70v7h-2l-8 -21
c-4 -7 -10 -20 -12 -26l-33 -71c0 -1 -1 -2 -1 -3c-3 -10 -9 -27 -13 -34c-3 -7 -5 -15 -9 -23l-19 -41l-36 -79l9 -18c5 -10 9 -20 13 -30l26 -55l38 -87l11 -28l7 -16c3 -9 7 -20 11 -25v1c3 -9 8 -18 12 -26l7 -14l2 -7h2c1 13 1 26 1 38c0 26 -1 53 -3 80l-2 29

<glyph glyph-name=".notdef" horiz-adv-x="487" 
d="M407 737h4c9 -5 11 -13 4 -17c2 -16 2 -35 2 -50c0 -23 -1 -46 -2 -68c0 -3 -1 -6 -1 -10v-9c-1 -20 -2 -48 -1 -67c0 -19 2 -231 4 -269v-5c2 -18 4 -39 5 -57v-25c0 -3 -1 -7 -1 -11v-28c0 -13 0 -28 1 -38c1 -34 -6 -54 -55 -49c-12 1 -36 0 -55 -2
c-9 -1 -77 -2 -104 -2c-26 2 -80 4 -113 5h-11c-8 1 -16 8 -16 17c0 14 0 34 2 49c0 4 0 12 1 16c2 14 3 32 2 45c-1 25 2 63 -2 89l-1 4c-2 15 -4 123 -5 200c-1 39 -1 72 -1 79c-1 16 1 35 3 51v5c0 2 1 7 1 9c2 15 -1 33 -1 49c0 9 0 22 -1 32c-1 14 2 35 3 47
c4 5 10 8 15 8c27 0 84 -2 111 -4c26 -2 113 -4 140 -3c10 0 24 2 34 4c4 0 5 1 7 1c9 2 21 4 31 4zM96 101c-1 -4 0 -12 0 -16h2l4 7l14 35v-1c4 6 7 17 11 25l7 16l11 28l38 87l25 55c4 10 8 20 13 30l8 18l-35 79l-18 41c-4 8 -6 16 -9 23c-4 7 -10 24 -13 34
c0 1 -1 2 -1 3l-33 71c-1 4 -9 19 -12 26l-5 11l-7 20h-2c0 -3 -3 -15 -2 -17c1 -9 1 -24 1 -29c0 -15 1 -32 -1 -45c-2 -12 -4 -28 -4 -40c-1 -34 3 -279 7 -311c4 -29 4 -58 4 -88c1 -15 -1 -33 -3 -49c0 -2 -1 -5 -1 -7zM370 55l8 -3l-35 76c-9 19 -17 35 -17 36
c-15 34 -35 79 -49 115l-33 73l-33 -73c-13 -34 -33 -82 -48 -115c-3 -5 -9 -19 -17 -36c-13 -28 -30 -64 -35 -73c8 0 22 -2 30 -2c24 -2 77 -3 101 -3c12 0 69 0 89 1c1 0 5 0 7 1c9 2 24 4 32 3zM387 515c-1 28 0 64 2 91c1 18 2 52 2 70v7h-2l-8 -21
c-4 -7 -10 -20 -12 -26l-33 -71c0 -1 -1 -2 -1 -3c-3 -10 -9 -27 -13 -34c-3 -7 -5 -15 -9 -23l-19 -41l-36 -79l9 -18c5 -10 9 -20 13 -30l26 -55l38 -87l11 -28l7 -16c3 -9 7 -20 11 -25v1c3 -9 8 -18 12 -26l7 -14l2 -7h2c1 13 1 26 1 38c0 26 -1 53 -3 80l-2 29
c-1 15 -2 110 -3 187c-1 49 -2 92 -2 101zM188 711l-74 4l5 -9c0 -1 3 -7 4 -8l13 -30c13 -28 26 -60 39 -88c2 -10 11 -30 16 -40l2 -5l11 -29l5 -15l15 -30l20 -43l20 43l15 30l5 15l11 29s2 4 3 5c5 10 14 30 16 40l39 88c3 9 9 21 13 30l3 7l4 8c-16 -5 -15 -3 -22 -4
c-2 0 -4 -1 -6 -1h-38c-41 0 -96 1 -119 3z" />
    <glyph glyph-name="space" unicode=" " horiz-adv-x="440" 
 />
    <glyph glyph-name="period" unicode="." horiz-adv-x="187" 
d="M103 48c12 0 22 -10 23 -24c2 -17 -15 -24 -24 -28c-15 -4 -24 -1 -32 10c-11 21 0 37 24 41c2 1 5 1 9 1z" />
    <glyph glyph-name="exclam" unicode="!" horiz-adv-x="161" 
d="M128 50c-4 0 -7 0 -9 -1c-23 -5 -29 -22 -18 -43c8 -11 16 -14 31 -10c10 4 22 12 20 29c-1 14 -11 25 -24 25zM113 749c4 5 17 3 20 0s4 -11 4 -15v-58c-1 -5 -1 -53 -1 -57l1 -71c-1 -22 -2 -36 -2 -52s0 -31 1 -51c1 -7 0 -20 1 -37l1 -28v-53c-1 -18 -2 -45 -1 -63
c1 -19 0 -68 -1 -94c0 -5 0 -11 -3 -13c-5 -3 -18 -3 -22 1c-3 4 -3 7 -3 13l1 163v14c0 24 1 52 1 64v5l-2 49v70c0 3 2 30 2 33l-1 84l1 24v52c0 6 0 17 3 20z" />
    <glyph glyph-name="comma" unicode="," horiz-adv-x="208" 
d="M103 68c5 12 13 24 17 34c3 8 10 10 16 10c14 0 10 -13 7 -21c-2 -5 -5 -8 -7 -15l-3 -7c-4 -10 -7 -17 -18 -38l-11 -23s-3 -5 -5 -12c-1 -4 -15 -31 -15 -31l-7 -15c-4 -9 -7 -12 -14 -27c-3 -6 -18 -43 -27 -63s-6 -14 -6 -14l-10 -22c-7 -12 -30 -5 -24 9
c2 5 6 18 12 27c6 10 5 12 10 22c2 4 4 12 6 16c3 8 10 22 14 30c5 10 12 31 31 66c20 38 34 74 34 74z" />
    <glyph glyph-name="hyphen" unicode="-" horiz-adv-x="507" 
d="M77 293c-14 0 -22 3 -20 13c3 13 9 13 20 13h22c13 1 33 0 49 0c20 0 37 1 55 1h33c22 0 44 2 66 0c28 -2 56 1 78 0l25 -1c15 1 19 0 22 -12c3 -14 -6 -14 -27 -14c-33 3 -54 0 -104 0l-93 1l-15 -1c-46 -5 -84 0 -102 0h-9z" />
    <glyph glyph-name="colon" unicode=":" horiz-adv-x="236" 
d="M142 446c13 0 23 -11 24 -25c2 -16 -15 -34 -25 -38c-15 -4 -23 -1 -31 10c-11 20 0 47 23 52c2 1 5 1 9 1zM141 60c13 0 23 -10 24 -24c2 -17 -15 -35 -25 -39c-14 -4 -23 -1 -31 10c-11 21 0 48 23 52c2 1 5 1 9 1z" />
    <glyph glyph-name="endash" unicode="&#x2013;" horiz-adv-x="485" 
d="M90 295c-38 -1 -40 4 -38 16s12 10 27 10c42 0 22 1 56 0c31 -1 46 -1 76 -2h93c4 0 40 -2 43 -2l40 2c29 1 41 4 41 -13c0 -13 -12 -11 -37 -12c-13 -1 -21 -2 -32 -2c-13 0 -15 0 -28 1s-32 1 -52 1c-26 0 -18 1 -45 0c-6 0 -13 -1 -19 -1h-30c-52 0 -95 2 -95 2z" />
    <glyph glyph-name="grave" unicode="`" horiz-adv-x="308" 
d="M93 932c9 -4 21 -11 34 -18c23 -12 35 -20 35 -20c1 -1 24 -9 49 -26c21 -15 43 -23 55 -32c13 -10 2 -29 -11 -22l-46 24l-33 18c-7 3 -49 24 -55 27c-19 12 -33 22 -45 28c-17 8 -16 18 -11 27c6 10 18 -2 28 -6z" />
    <glyph glyph-name="acute" unicode="&#xb4;" horiz-adv-x="308" 
d="M240 930c10 5 28 18 34 8c5 -9 8 -16 -14 -30c-11 -7 -17 -7 -32 -17c-6 -4 -60 -31 -67 -35c0 0 -28 -20 -51 -29l-28 -13c-13 -6 -22 15 -9 25c12 9 18 9 41 22c26 15 35 19 36 20c0 0 26 15 50 26c15 7 23 15 40 23z" />
    <glyph glyph-name="circumflex" unicode="&#x2c6;" horiz-adv-x="459" 
d="M238 907l-25 -28c-2 -4 -6 -8 -25 -25l-32 -34c-5 -7 -22 -23 -30 -15c-11 13 -7 14 6 29c0 0 21 27 37 40c0 0 17 18 24 26c10 9 33 35 33 35c9 9 21 22 30 23c6 1 22 -14 34 -27l18 -21l14 -17c20 -19 33 -36 38 -43l14 -18c10 -12 14 -25 3 -27c-14 -3 -15 2 -28 18
c-1 1 -39 47 -46 53l-13 13l-16 17l-3 4c-5 6 -13 13 -15 14z" />
    <glyph glyph-name="dieresis" unicode="&#xa8;" horiz-adv-x="436" 
d="M135 891c13 0 20 -11 24 -23c5 -16 -12 -29 -22 -33c-15 -4 -24 -1 -32 10c-11 19 -3 40 21 45c2 1 5 1 9 1zM298 894c13 0 23 -11 24 -23c2 -17 -13 -29 -23 -33c-15 -5 -21 2 -30 10c-11 20 1 36 20 45c2 1 5 1 9 1z" />
    <glyph glyph-name="tilde" unicode="&#x2dc;" horiz-adv-x="441" 
d="M170 794c-11 0 -36 -11 -48 -21c-19 -9 -33 9 -23 17c23 20 54 32 72 32c30 0 42 -9 59 -20l8 -5c1 -1 15 -9 16 -9c16 -10 26 -16 51 -16c30 0 50 26 60 42c7 11 26 -1 23 -12c-9 -34 -45 -54 -79 -57c-23 -2 -44 7 -62 16l-16 7l-24 13c-11 6 -15 13 -37 13z" />
    <glyph glyph-name="cedilla" unicode="&#xb8;" horiz-adv-x="348" 
d="M80 7l25 -3v-60l17 -1c3 0 6 1 9 1c17 0 38 -6 49 -11c31 -16 49 -45 52 -74c1 -20 -1 -28 -7 -40c-13 -25 -22 -34 -46 -47c0 0 -13 -6 -19 -7c-3 -1 -9 -3 -13 -3c-8 -1 -22 -1 -29 1c-8 1 -22 6 -29 9c-12 8 -20 18 -16 26v-1c4 5 9 8 13 6h-1c5 -3 14 -7 14 -7l20 -7
c11 -3 25 -2 37 2c8 2 21 5 27 12c9 11 22 24 22 40c0 8 0 24 -3 34l-7 14c-4 9 -10 7 -19 15c-9 4 -27 9 -32 10c-6 1 -17 1 -26 0l-13 1c-3 0 -25 0 -25 8v82z" />
    <glyph glyph-name="emdash" unicode="&#x2014;" horiz-adv-x="545" 
d="M90 296c-38 -1 -40 3 -38 15s12 10 27 10h226c31 0 65 -1 95 -2h9c4 0 7 -1 10 -1h48c29 0 35 7 35 -10c0 -13 -6 -14 -31 -15c-13 -1 -51 -1 -62 -1c-13 0 -25 0 -38 1s-32 1 -52 1c-26 0 -58 1 -85 0c-6 0 -13 -1 -19 -1h-30c-52 0 -95 3 -95 3z" />
    <glyph glyph-name="minus" unicode="&#x2212;" horiz-adv-x="485" 
d="M90 295c-38 -1 -40 4 -38 16s12 10 27 10c42 0 22 1 56 0c31 -1 46 -1 76 -2h87c4 0 40 -2 43 -2l40 2c29 1 41 4 41 -13c0 -13 -12 -11 -37 -12c-13 -1 -21 -2 -32 -2c-13 0 -15 0 -28 1s-32 1 -52 1c-26 0 -12 1 -39 0c-6 0 -13 -1 -19 -1h-30c-52 0 -95 2 -95 2z" />
    <glyph glyph-name="plus" unicode="+" horiz-adv-x="485" 
d="M221 482c0 9 0 13 14 14c12 1 10 -11 10 -15c-1 -7 0 -57 1 -61v-12c-1 -7 -1 -13 -1 -18c0 -20 1 -17 1 -32c0 -18 1 -10 1 -29l-1 -10h29c6 0 11 -1 17 -1c24 0 29 1 41 1c0 0 24 -3 38 -2c11 1 25 0 25 0c16 0 21 -4 22 -10c3 -18 -5 -15 -16 -15c0 0 -20 1 -36 0
c-12 -1 -36 1 -36 1h-16h-19l-18 -1h-31v-28c0 -29 1 -46 -1 -82l1 -49c0 -4 4 -17 -13 -17c-14 0 -13 13 -13 23v23v25c0 7 1 26 1 34c0 12 -2 21 -1 34c1 15 0 37 0 37l-30 1c-31 0 -45 1 -68 -1c-14 -1 -47 2 -47 2c-20 0 -24 -1 -24 11s4 14 20 13h25c47 2 76 0 76 0h26
h22l-1 48c1 21 2 46 0 75c-2 24 2 41 2 41z" />
    <glyph glyph-name="slash" unicode="/" horiz-adv-x="390" 
d="M299 743c-3 -12 -7 -25 -12 -38l-6 -16l-4 -11l-6 -21c-6 -19 -12 -45 -14 -54c-3 -13 -6 -26 -10 -38c-8 -31 -22 -75 -35 -115l-13 -42c-3 -8 -6 -16 -8 -24l-25 -79c-9 -32 -19 -71 -29 -104c-2 -5 -4 -10 -5 -15l-5 -16c-10 -30 -28 -84 -33 -96l-6 -15
c-3 -7 -5 -14 -7 -22l-6 -23l-4 -12l-4 -14l-4 -13c-5 -13 -10 -18 -18 -16c-5 1 -16 5 -10 24l3 11l23 72l51 150c18 61 33 121 52 179l10 28l28 89c4 10 8 25 11 37c0 3 1 6 2 9l3 10c5 15 10 32 14 47c3 13 11 42 18 65l8 27c2 7 4 16 7 23c3 8 6 17 9 28
c5 13 9 18 18 17c2 0 6 0 8 -2c10 -6 -1 -30 -1 -30z" />
    <glyph glyph-name="semicolon" unicode=";" horiz-adv-x="266" 
d="M122 14l29 64c9 23 20 42 30 35c10 -6 8 -16 2 -33l-4 -11c-8 -18 -23 -52 -34 -73l-79 -172c-13 -22 -28 2 -21 18c13 28 77 172 77 172zM202 446c13 0 23 -11 24 -25c2 -16 -15 -34 -25 -38c-15 -4 -24 -1 -32 10c-11 20 0 47 24 52c2 1 5 1 9 1z" />
    <glyph glyph-name="d" unicode="d" horiz-adv-x="696" 
d="M225 0h-17c-9 0 -17 4 -17 16v21c0 8 1 17 1 25v78c0 16 1 33 1 50v51c0 18 -1 35 -1 52c0 19 -1 38 -1 55v185c1 19 0 37 0 56v73l-2 62v7c0 13 8 19 18 19h13c35 0 45 -1 62 -4l16 -2c5 -1 13 -3 17 -3c97 -13 167 -43 221 -98c13 -14 25 -29 34 -41c0 -1 9 -15 10 -15
c19 -28 34 -55 41 -98l4 -24l3 -11c2 -6 3 -21 3 -29l3 -34c0 -20 -1 -41 -4 -64c-2 -12 -2 -20 -2 -27c-1 -11 -2 -21 -6 -37c-1 -8 -6 -18 -11 -27l-4 -8l-8 -17l-5 -7l-9 -19l-5 -10l-4 -7c-4 -8 -8 -17 -15 -25c-10 -12 -28 -29 -42 -41l-10 -8
c-50 -36 -118 -77 -192 -88c-30 -4 -61 -6 -92 -6zM604 401c1 15 -3 31 -8 52l-4 16c-5 20 -12 45 -19 63c-11 22 -36 64 -55 87c-31 39 -71 54 -118 72c-66 21 -100 26 -168 29h-12v-54c0 -15 -1 -29 0 -43c1 -8 0 -30 -1 -44c0 -2 -1 -6 -1 -8c-1 -20 -2 -49 -2 -67
c0 -5 1 -19 2 -27c1 -5 2 -15 2 -18v-99c0 -42 0 -85 -1 -128c-1 -26 0 -57 1 -87c1 -19 1 -48 1 -62l-2 -56c27 1 73 5 73 5c20 3 35 6 51 10c33 12 78 31 111 54c9 2 64 40 87 79c0 0 10 18 16 28c12 17 23 37 27 48c16 40 18 91 20 150z" />
    <glyph glyph-name="a" unicode="a" 
d="M575 36l3 -10l6 -18c3 -11 -19 -8 -19 -8c-7 1 -17 23 -21 35l-2 5l-3 7c-2 7 -5 15 -7 19c-5 8 -8 23 -11 33l-10 22l-10 26c-2 10 -6 23 -10 31c-6 15 -12 32 -17 55l-5 18l-2 7c-2 6 -5 16 -8 22l-10 30c-1 1 -3 6 -3 8l-52 -1c-15 0 -31 1 -47 1c-22 -3 -60 1 -60 1
c-42 0 -80 -3 -108 0l-12 -26c-1 -4 -4 -10 -5 -13l-11 -28l-23 -56l-19 -38l-9 -25l-26 -63l-4 -8l-4 -7l-24 -50c-12 -20 -34 -7 -30 5c1 2 1 3 1 4l4 8l4 7l24 47l9 21c8 19 18 43 25 62l32 75l7 17c6 15 13 29 18 42c0 0 4 10 5 13l7 22l27 69l32 73l12 37l4 13l45 122
c10 29 22 64 27 80c5 17 12 29 25 29c7 0 8 -3 11 -7l2 -4c4 -9 11 -25 20 -56l28 -78l15 -39c4 -9 7 -22 9 -30l2 -6l6 -20l10 -32c3 -11 7 -22 11 -33l12 -33l15 -43l26 -84l15 -46c3 -14 10 -34 17 -52c0 -2 3 -8 4 -10c6 -14 12 -30 15 -40zM354 598
c-4 20 -11 39 -20 60l-9 22l-7 26c-4 -14 -11 -31 -15 -45c-14 -45 -31 -93 -42 -125c-2 -6 -7 -19 -7 -19l-26 -73c-10 -23 -16 -32 -21 -48c-2 -4 -5 -12 -5 -14l-4 -11c-4 -9 -9 -18 -12 -26h16c4 0 58 -1 62 -1l49 1c34 -1 53 -2 71 -2c15 0 31 2 54 3l-20 56l-4 17
l-4 12c-10 37 -29 93 -42 127l-4 11c-4 10 -7 19 -10 29z" />
    <glyph glyph-name="b" unicode="b" horiz-adv-x="648" 
d="M202 0c-9 0 -12 8 -12 19v218c-1 18 -1 48 -1 64c0 40 0 76 2 122v9l1 49c-2 30 -2 73 -2 101v67c0 4 1 8 1 12c1 10 1 21 1 34c0 10 -1 25 0 34c1 17 4 25 16 25h45c49 0 103 -10 140 -21l13 -3c82 -23 152 -116 152 -174c0 -82 -58 -136 -162 -163l-39 -9
c5 -1 10 -1 13 -1l82 -18c28 -8 53 -19 73 -35c12 -10 23 -18 32 -30c3 -4 6 -11 8 -15c15 -26 23 -57 23 -93c0 -48 -17 -88 -35 -111c-10 -13 -25 -23 -38 -32c-6 -4 -32 -20 -47 -25c-70 -23 -159 -25 -228 -25c-4 0 -8 1 -11 1h-27zM263 28c4 0 8 -1 11 -1h37
c14 0 30 1 67 5c11 1 33 4 57 11c14 4 30 13 44 17c23 7 59 39 73 75c5 14 4 26 7 47c6 41 -10 77 -29 101c-5 6 -11 9 -17 15c-23 21 -52 34 -87 48c-52 11 -102 18 -102 18h-15c-11 1 -21 2 -30 2c-18 0 -25 0 -32 -1h-8c-4 0 -9 -1 -19 -1c-3 -15 -4 -33 -4 -46
c0 -15 1 -30 2 -45s2 -31 2 -47c0 -10 -1 -21 -1 -31v-29c-1 -21 -1 -42 -1 -62c0 -25 1 -52 2 -75c2 0 3 -1 6 -1h37zM524 573c-5 31 -31 73 -75 107c-62 35 -161 47 -227 49c-3 -18 -3 -40 -3 -60c0 -34 0 -70 1 -105c0 -17 1 -35 1 -51v-48c0 -25 -1 -50 -2 -72h11
c6 0 11 0 17 1c8 1 17 2 32 2h5c7 0 16 1 25 3c7 2 20 4 26 4c28 7 52 15 73 23c0 0 15 4 21 7l22 11c20 11 47 33 55 45c6 9 21 46 21 65c0 7 -2 13 -3 19z" />
    <glyph glyph-name="c" unicode="c" horiz-adv-x="636" 
d="M182 61c-11 9 -16 16 -16 35c2 68 2 135 1 156c-2 49 -1 88 0 129v49c0 3 -1 114 -1 117l1 39l-1 33l1 22c0 9 4 21 13 29c17 15 37 30 37 30c4 3 11 5 14 8c6 5 14 9 14 9c9 7 26 14 42 20c12 4 26 7 40 9l17 3l12 2c6 1 18 2 28 3c15 0 34 -1 49 -3c0 0 18 -2 38 -9
c8 -3 35 -13 31 -12c0 0 18 -8 28 -15c6 -3 13 -7 15 -8c8 -5 12 -16 9 -23c-4 -9 -13 -9 -14 -7l-12 7l-10 6l-7 4c-4 1 -10 5 -13 7l-11 6l-29 10l-18 4c-7 0 -13 1 -21 2l-10 1h-29h-14l-18 -3c-15 -2 -39 0 -67 -21c-25 -11 -51 -28 -76 -47c-6 -5 -9 -10 -9 -18
c-2 -41 -3 -96 -3 -125c0 -13 -1 -31 0 -45c1 -30 2 -73 3 -108c0 -42 0 -84 -1 -127l1 -34c0 -14 -1 -26 -1 -36c-1 -26 0 -39 0 -59c0 -12 0 -13 7 -18c0 0 6 -9 46 -28l27 -9l24 -10c27 -8 64 -13 84 -11c23 2 47 1 76 9c18 2 45 14 59 27l5 3c24 18 31 27 37 33
s15 13 22 4c9 -12 -1 -23 -19 -40c-15 -15 -48 -41 -83 -51c-33 -9 -70 -15 -112 -13c-33 1 -92 10 -130 30c-14 8 -24 13 -31 18c-11 7 -14 7 -25 16z" />
    <glyph glyph-name="e" unicode="e" horiz-adv-x="604" 
d="M192 642l1 55c0 4 -1 2 -1 35c0 11 4 19 17 19l42 -1c3 0 56 -1 59 -1c0 0 45 -1 60 0c26 2 114 0 114 0h16c16 1 20 1 31 0c9 -1 13 -7 13 -15c0 -11 -17 -11 -19 -11h-16l-34 -1c-19 1 -29 -1 -42 -1h-11c-3 0 -18 2 -20 2c-9 -1 -28 -1 -31 -1h-36
c-22 3 -81 -1 -100 -1c-5 0 -9 0 -14 -1v-35c0 -7 -3 -23 0 -50c0 0 -1 -27 -1 -49c0 -3 1 -6 1 -9c1 -10 1 -62 1 -71c0 -3 -1 -6 -1 -9v-23c-1 -4 0 -42 0 -55c11 -1 38 0 49 0c18 -1 36 -2 53 -2c22 0 52 1 54 1c16 1 59 -1 59 -1c2 0 6 0 7 -1c9 -4 8 -21 2 -23
s-10 -1 -18 -1h-23c-9 0 -37 1 -47 0c-15 -2 -35 -1 -47 -1c-20 0 -32 -1 -51 0h-37l-1 -49v-95c0 -27 -2 -56 0 -79v-15c0 -2 1 -4 0 -6c1 -12 2 -33 2 -43l-1 -18c0 -21 0 -32 1 -51c0 -5 2 -6 8 -6l36 -2c13 1 39 0 52 0c35 0 73 -1 73 -1c48 4 122 0 122 0
c9 0 14 0 16 -2c6 -6 8 -21 -3 -24h-58c-22 0 -44 0 -54 -1c-3 0 -16 0 -24 1c-17 1 -46 2 -59 2c-11 0 -22 -1 -29 -2h-86c-14 0 -22 6 -22 21v28v36v43l-1 28v30l-2 155l1 65v25l-1 61c1 22 1 38 1 57c0 14 1 28 0 44z" />
    <glyph glyph-name="f" unicode="f" horiz-adv-x="571" 
d="M223 22v-14c-1 -12 -28 -10 -28 -2v58l-1 36c-1 13 -1 36 -1 49c0 10 0 26 1 35c0 16 0 60 -1 68c0 0 1 24 -1 51c-2 34 0 89 0 97c0 0 2 80 0 126c0 1 0 79 -1 111c-1 37 -1 59 -1 69v22c0 16 8 22 20 22c6 0 12 -1 19 -1h54c4 0 8 -1 12 -1h45c16 1 36 2 52 2
c8 0 16 -1 25 -1l26 1l9 -1h29h19c13 0 27 0 33 -1c9 -2 12 -25 -2 -25h-17c-2 0 -3 -1 -47 0l-14 -1c-5 0 -10 1 -14 1c-19 1 -38 0 -56 0c-12 0 -24 0 -39 -1c-3 0 -7 -1 -10 -1c-16 -2 -44 -1 -59 0c-6 1 -40 1 -53 1c0 -15 0 -54 -1 -62c-1 -16 -1 -32 -1 -47
c0 -11 0 -22 1 -33c1 -18 2 -35 2 -54v-18c0 -7 -1 -13 -1 -20v-24c0 -15 -1 -29 0 -44h29c17 0 23 0 35 1l26 -2c7 0 16 2 24 2s17 -1 25 -1h23c7 0 14 -1 20 -1c16 1 24 1 27 0c8 -4 7 -22 0 -25c-2 -1 -37 0 -39 0c0 0 -20 -3 -42 -1c-34 3 -52 0 -72 0
c-19 0 -39 -1 -56 0c-3 -16 -1 -36 -1 -56c0 -4 -1 -9 -1 -13v-74c0 -4 1 -9 1 -13c0 -19 1 -20 1 -24v-65c1 -11 1 -29 1 -38v-88z" />
    <glyph glyph-name="g" unicode="g" horiz-adv-x="675" 
d="M564 321l-1 43c0 6 0 12 1 17c2 11 25 13 26 0c0 -1 1 -3 1 -6l2 -32c0 -29 -1 -44 0 -74l2 -66c0 -13 -2 -87 -2 -104v-17c0 -12 -1 -20 -10 -26l-9 -6l-9 -5c-34 -20 -76 -49 -163 -48c-11 0 -21 -1 -33 0c-33 1 -87 13 -126 30c-15 7 -23 13 -31 17s-14 6 -33 19
c-8 6 -13 13 -13 32v20c1 34 2 66 1 117c-1 28 0 90 1 124v34c-1 49 0 52 0 72v36v59v29v48c1 23 0 28 16 41l34 25c4 3 11 6 14 9l14 9c9 7 26 13 42 19c12 4 26 7 40 9l17 3l12 2c6 1 18 2 25 2c0 0 10 0 12 1c50 -1 92 -17 129 -34l30 -14l6 -4s9 -6 15 -12
c5 -5 7 -9 6 -18c-1 -12 -21 -2 -35 7l-27 13l-6 3c-12 7 -37 14 -55 18c-18 7 -36 8 -56 9l-26 1l-22 -1c-21 0 -50 -8 -71 -22c-25 -11 -50 -27 -75 -46c-6 -4 -9 -6 -9 -14c-2 -41 -4 -100 -4 -129c0 -13 0 -31 1 -45l2 -109c0 -42 -1 -85 -2 -128l1 -34
c0 -14 -1 -26 -1 -36c-1 -26 -1 -39 -1 -59c0 -10 1 -12 10 -18c0 0 12 -10 52 -29l44 -13l9 -3c20 -6 38 -10 54 -11h28h11c48 0 84 12 100 20l11 3c22 11 43 23 45 29c7 6 6 6 7 16l1 60s-1 9 -1 19c1 26 1 36 -1 84c-1 28 0 64 0 64z" />
    <glyph glyph-name="h" unicode="h" horiz-adv-x="703" 
d="M192 684c0 9 1 18 1 24v6c0 11 1 18 1 23v7c0 11 23 8 26 -1c1 -2 1 -6 1 -11v-5c0 -3 1 -7 1 -11v-11c-1 -23 -1 -24 -1 -44v-17c-1 -32 -2 -63 -2 -96c0 -31 0 -57 1 -90v-37c0 -5 1 -10 1 -17c26 -2 9 -2 35 -2c23 0 47 1 69 0c19 -1 38 -2 56 -2c25 0 99 0 124 1
c21 1 57 1 78 1v46c0 15 -1 30 0 43c0 16 1 27 1 38c0 6 1 11 1 16c0 13 1 25 0 43l-1 40l1 30c0 5 -1 24 -1 29c0 23 1 42 1 42c0 5 0 13 3 17c5 8 17 3 20 1c2 -1 4 -13 4 -22c0 -5 2 -41 0 -80c-1 -35 2 -54 0 -97c-1 -12 0 -23 0 -32l-1 -51v-16v-35c0 -18 -1 -17 1 -47
c1 -13 1 -35 1 -51l-1 -38c2 -66 1 -105 1 -105c0 -32 -1 -66 0 -95l2 -50s1 -22 -4 -25c-7 -4 -19 -4 -21 2c-3 7 -3 13 -3 22v21c0 2 -1 9 -1 12c0 15 -1 27 -1 33c0 5 -1 18 -1 28l1 64v83c0 19 -1 39 -2 59v47c-22 0 -80 0 -92 -1c-19 -1 -40 -2 -56 -2l-36 1
c-4 0 -17 1 -21 1h-27h-11h-49c-18 0 -50 0 -69 2c-1 -11 -1 -27 -1 -37c0 -12 0 -23 1 -32v-19c0 -32 -2 -51 -1 -97v-106c0 -17 0 -44 -1 -59v-8c0 -9 0 -11 -3 -15c-4 -6 -23 -4 -23 3v53c0 31 0 64 -2 93l1 37v31l1 86v51v56c-1 6 -1 17 -1 21v21c0 3 -1 6 -1 10v30
c-1 9 -1 24 -1 31c0 5 0 20 1 29v130z" />
    <glyph glyph-name="i" unicode="i" horiz-adv-x="309" 
d="M196 749c4 5 18 3 21 0s4 -11 4 -15v-58c-1 -5 -1 -53 -1 -57l1 -71c-1 -22 -2 -36 -2 -52s0 -31 1 -51c1 -7 1 -20 1 -37v-94c1 -18 1 -48 1 -64l-1 -56c0 -3 1 -5 1 -23c-1 -18 -2 -45 -1 -63c1 -19 0 -68 -1 -94c0 -5 0 -11 -3 -13c-5 -3 -19 -3 -23 1
c-3 4 -3 7 -3 13l1 163v27c0 12 1 25 1 38c0 35 -1 71 -2 96l1 27v6c0 3 1 6 1 9c1 11 1 24 0 31v5l-2 49v70c0 3 2 30 2 33l-1 84l1 24v52c0 6 0 17 3 20z" />
    <glyph glyph-name="j" unicode="j" horiz-adv-x="446" 
d="M203 21c-12 -10 -19 -15 -34 -18c-1 0 -2 -1 -3 -1c-14 -4 -37 -7 -52 -5c-19 2 -53 11 -68 28c-9 10 -21 21 -26 35c-5 11 -13 36 -14 47l-1 10c0 3 1 9 1 12c4 8 16 7 21 1c2 -3 4 -10 4 -19c0 -3 4 -15 7 -26c4 -13 9 -21 15 -28c6 -8 11 -16 19 -20s26 -13 33 -14
c14 -2 35 -1 42 1c18 5 30 5 48 27c9 11 21 48 21 48s0 1 2 13c2 10 3 19 4 31l1 24c0 8 0 26 1 37v12l1 17v13c1 22 1 45 1 71c0 19 0 39 -1 59v53v99c-2 15 0 43 1 57c0 13 0 47 -1 51c-1 14 -1 14 -1 28l1 71c0 8 2 13 8 15c5 1 14 2 18 -4c2 -3 2 -9 2 -12l-1 -58
l-1 -76c0 -2 1 -30 1 -34l-1 -84c0 -10 2 -20 2 -43l-1 -82c0 -2 1 -4 1 -70c1 -18 0 -31 0 -40v-17c-1 -11 -1 -35 -2 -47l-1 -14c0 -5 -1 -10 -1 -15c0 -9 -1 -21 -2 -30c-1 -14 -7 -42 -16 -63c-11 -23 -28 -40 -28 -40z" />
    <glyph glyph-name="k" unicode="k" horiz-adv-x="627" 
d="M223 454v-48l15 15c8 8 23 23 40 37l27 26l14 17l20 20l10 10l24 23c12 12 23 24 32 36l34 35l13 13l22 23l12 16l18 17l11 13l16 17l14 14c10 10 11 13 27 12c7 0 13 -8 4 -18c-18 -17 -37 -42 -44 -49l-41 -42c-27 -33 -24 -30 -50 -57c0 0 -26 -23 -43 -45
c-19 -23 -41 -41 -69 -68c-5 -5 -33 -36 -37 -39c-1 -1 -5 -4 -5 -4l-21 -19c-12 -10 -21 -23 -21 -23c0 -1 4 -5 9 -9c13 -15 28 -28 40 -40c5 -5 26 -27 26 -27l14 -13l19 -22c37 -35 66 -62 80 -78l15 -16l27 -31l27 -25l33 -33c22 -25 46 -50 66 -70
c17 -22 -12 -28 -22 -16c0 0 -7 3 -24 21l-24 27c-8 10 -19 21 -33 35l-17 15c-13 14 -28 30 -47 49l-19 18l-26 30l-49 50l-16 14l-14 14c-1 2 -16 19 -20 23l-32 29l-20 22l-4 4c-2 3 -6 5 -11 10l-1 -59c0 -2 1 -8 1 -22c0 -51 0 -97 -1 -140c-1 -40 -1 -93 -1 -136
c0 -7 -4 -10 -15 -11c-8 -1 -14 2 -14 11c1 125 2 126 2 128v26c1 10 0 18 0 35c0 30 1 32 1 34l-1 33c-1 20 1 90 0 114l-1 28c-1 13 -1 41 0 53c0 6 1 19 1 24v37c0 3 0 13 1 20v172c0 1 -1 5 -1 14c0 15 0 22 14 22c12 0 13 -10 14 -20c1 -9 1 -22 1 -30l-1 -60
c-1 -29 0 -32 0 -35c0 -7 0 -26 1 -32v-90v-4c-1 -8 0 -14 0 -25z" />
    <glyph glyph-name="l" unicode="l" horiz-adv-x="556" 
d="M301 0c0 0 -40 -1 -85 0c-11 0 -21 3 -22 18c-2 61 -3 148 -3 205l1 49c0 3 1 5 1 7v40c-2 107 0 177 0 177v84c0 5 -1 31 1 53c-3 39 -2 61 -2 100v9c0 12 26 10 27 4c1 -4 2 -9 2 -14c0 0 -1 -22 0 -98c-1 -18 -1 -67 -1 -85v-31c0 -2 1 -44 1 -46l-1 -47l1 -74
c0 -11 1 -23 0 -35v-46c0 -2 -1 -4 -1 -33c-1 -15 -1 -30 -1 -44c0 -12 0 -29 1 -41v-60v-15l1 -38c0 -8 0 -13 7 -12c6 0 40 0 47 1l19 -1h23h7c10 -1 101 -3 108 -2c11 1 84 -1 84 -1c7 0 12 -8 9 -15c-2 -5 -6 -9 -10 -9c-5 0 -21 -2 -27 -1l-37 1c-44 -1 -36 -4 -82 0
c-11 1 -68 0 -68 0z" />
    <glyph glyph-name="m" unicode="m" horiz-adv-x="886" 
d="M693 114l1 -33c1 -13 1 -35 1 -46c1 -11 0 -20 -1 -27c-1 -13 -27 -11 -27 0v8v7c0 8 -1 16 -1 23l-1 59v11c-1 22 -1 59 -1 76v32l2 98c-1 10 -2 27 -2 36l2 32c-1 26 -1 54 1 80c1 8 -2 49 -1 66c1 13 1 41 1 59v8c0 3 1 38 1 41c1 10 2 25 1 37l-7 -13
c-7 -13 -13 -26 -20 -36c-4 -7 -7 -13 -10 -16c0 0 -12 -18 -28 -40c-4 -6 -14 -26 -18 -32c-11 -17 -11 -20 -20 -30c-33 -56 -55 -80 -69 -104c-5 -7 -36 -52 -43 -52c-6 -2 -10 3 -10 3c-21 29 -46 61 -64 90l-29 42l-20 35l-10 15s-8 11 -21 31c-12 19 -17 28 -17 28
l-31 47c-15 22 -19 31 -44 70l-9 13l-3 4c-5 8 -8 14 0 16c6 1 17 0 25 -5c6 -6 7 -9 15 -20c0 0 17 -32 49 -75l25 -41l24 -36l14 -21c1 -1 12 -19 14 -21c2 -3 2 -5 4 -8l10 -16c4 -6 16 -26 26 -38c24 -33 29 -47 50 -74c0 0 12 17 29 42c11 16 50 71 50 71
c6 10 13 22 21 35c13 21 22 39 44 70c7 10 11 21 18 31l24 33l12 22l9 14c2 4 6 12 11 19c4 6 11 16 16 16c8 0 10 -6 10 -19v-9c-1 -3 -1 -21 -1 -44v-23c0 -9 -1 -18 -1 -27v-8c0 -3 -1 -7 -1 -11v-18l2 -61c0 -23 0 -86 -1 -93c0 -2 -1 -4 -1 -37c0 -11 0 -22 1 -36v-12
c2 -11 1 -39 0 -50v-89c0 -30 -1 -53 -1 -80v-19z" />
    <glyph glyph-name="n" unicode="n" horiz-adv-x="655" 
d="M566 347v-133v-4c0 -13 2 -45 -8 -45s-14 8 -20 15l-6 9l-27 41l-22 37c-5 6 -11 18 -17 28l-7 12c-4 8 -16 24 -25 37c-19 28 -36 56 -57 90l-10 17l-8 13l-34 56l-15 26l-7 12c-5 9 -11 19 -21 34l-28 44l-20 36l-22 39l-11 20c-7 13 -6 19 4 20c11 1 19 -5 22 -9
l13 -22l28 -46l9 -18c30 -55 64 -108 92 -152c12 -16 23 -34 39 -60c1 -1 3 -3 14 -23l20 -32c6 -10 12 -20 18 -28c5 -8 10 -16 14 -21c6 -8 11 -23 32 -56l8 -12l11 -22l14 -26c-1 9 1 78 1 84l-2 66c-3 45 1 63 0 89c-1 67 4 157 1 222c-1 21 0 13 0 36v21
c0 17 27 9 27 2v-14c0 -2 3 -64 1 -96c-1 -15 0 -63 0 -63c0 -8 -2 -36 -1 -39c0 0 3 -47 0 -82v-96v-7z" />
    <glyph glyph-name="o" unicode="o" horiz-adv-x="678" 
d="M261 6c-35 11 -55 17 -80 38c-7 6 -10 15 -10 27l-1 48c0 23 -2 34 0 73c0 -2 1 36 0 67v18c0 0 -1 26 -1 33c0 0 2 22 0 78c-1 49 -3 78 0 119c1 17 -1 58 0 87c0 9 -1 18 -1 27c0 22 1 41 0 60c0 14 7 22 14 27c28 20 74 44 129 47c14 1 41 0 55 -2
c26 -3 55 -14 80 -22c35 -11 63 -32 74 -45c17 -19 27 -26 42 -49c3 -4 13 -24 16 -28c11 -15 19 -30 25 -62c4 -31 9 -85 7 -116c0 0 3 -59 2 -88v-44c0 -11 -1 -21 -2 -31c-1 -7 -1 -14 -1 -18c0 -16 -1 -32 -5 -49c-9 -36 -18 -67 -31 -89c-23 -36 -64 -77 -112 -97
c0 0 -25 -10 -56 -15c-25 -3 -60 -5 -61 -5s-23 0 -43 2c-22 1 -40 9 -40 9zM334 728c-16 0 -32 1 -49 -5c-11 -4 -15 -5 -42 -14c-17 -6 -22 -10 -36 -20c-8 -5 -12 -6 -11 -23c-1 -39 -2 -73 -1 -88c2 -45 0 -71 0 -71c0 -13 0 -31 1 -45c0 0 2 -61 1 -136
c0 -30 5 -50 1 -91c-2 -20 0 -74 -1 -86c-3 -29 1 -34 1 -47v-22c0 -14 -1 -14 9 -21c1 -1 7 -14 46 -23c31 -7 50 -14 79 -15c40 -2 76 4 107 17c8 3 22 11 29 13c30 10 47 34 67 57c9 12 17 32 25 53c11 29 19 41 21 74c0 0 4 46 2 102c1 23 2 46 2 69c-1 35 -2 38 -6 72
v6c0 1 -1 34 -1 36c-3 25 -11 52 -25 78c-10 21 -25 39 -42 55c-19 18 -40 34 -58 45c-1 0 -21 10 -23 10c-18 4 -40 19 -96 20z" />
    <glyph glyph-name="p" unicode="p" horiz-adv-x="628" 
d="M220 12v-5c0 -11 -25 -10 -26 -2c-2 21 -3 31 -2 48l-1 73v49c1 4 1 46 1 49l-1 59c0 25 1 35 1 60c-1 18 -2 38 -1 53v63v93c-1 27 1 30 1 61c1 6 -2 18 -1 25c1 9 0 44 0 44c-1 22 0 52 0 52c0 12 1 16 11 17l40 1h9h30c50 -1 80 -2 117 -8c29 -5 49 -17 70 -25
c28 -10 58 -50 77 -80c11 -17 21 -51 23 -76c3 -17 3 -39 -1 -54c0 -1 -5 -20 -5 -21c-1 -2 -1 -3 -1 -3c-9 -46 -23 -61 -50 -88c-28 -25 -42 -36 -82 -44c-10 -2 -44 -5 -54 -5c-11 0 -21 -1 -32 -1c-16 -1 -33 2 -50 -1c-7 -1 -22 2 -29 1c-12 -1 -18 -1 -44 -2
c-2 -12 -2 -22 -1 -32c-3 -32 0 -75 0 -75v-29c1 -7 1 -18 1 -29c0 -25 -1 -70 -1 -113c0 -35 1 -55 1 -55zM482 669c-13 13 -23 20 -51 31c-34 22 -100 24 -136 23h-14c-23 1 -44 1 -64 0c2 -33 -2 -31 1 -76c1 -10 0 -24 1 -34c1 -17 1 -31 1 -46v-43c0 -8 0 -20 1 -31
c0 -11 0 -28 -2 -38c0 -5 -1 -13 -1 -18v-36c-1 -8 0 -18 1 -26l21 -2c13 0 26 2 37 2c17 0 32 1 48 -2c8 -1 23 1 38 2c35 2 72 7 92 17c22 11 31 23 37 29c11 11 15 17 25 31c8 12 9 20 11 25c8 19 13 39 14 61c0 16 -2 35 -7 53c-13 36 -24 57 -53 78z" />
    <glyph glyph-name="q" unicode="q" horiz-adv-x="676" 
d="M450 30l28 8c15 -19 40 -45 53 -67c5 -9 -5 -26 -16 -18c-5 3 -5 5 -9 8c-10 14 -28 36 -44 55zM474 46l-33 -4l-8 11l-8 11c-8 8 -24 28 -26 33c-5 10 13 20 20 15c4 -4 28 -33 40 -48zM259 6c-33 11 -59 24 -82 40c-7 5 -10 15 -10 27v48c0 22 -2 48 0 72
c3 31 0 93 0 93c-2 29 -1 67 0 102v52c0 35 0 70 1 97c1 25 3 54 0 84c-2 23 1 44 0 63c0 14 5 21 12 25c39 22 75 43 131 46c14 1 41 1 55 -1c59 -8 115 -38 154 -67c37 -36 71 -83 80 -136c0 -4 0 -7 1 -12c0 -1 3 -19 3 -21l3 -53l1 -4c0 -4 1 -13 2 -18l-2 -27v-70
c1 -12 2 -33 2 -44s1 -21 0 -31c-1 -7 -1 -14 -1 -18c-1 -16 -3 -32 -7 -49c-9 -38 -29 -91 -47 -113c-28 -34 -51 -55 -96 -74c-3 -2 -26 -11 -55 -17c-25 -3 -60 -4 -61 -4c-8 0 -2 -1 -29 0c-17 1 -40 5 -55 10zM331 729c-47 1 -93 -16 -128 -39c-5 -2 -6 -5 -6 -15
c0 -20 -2 -81 -2 -96v-71c0 -13 0 -31 1 -45c0 -40 -5 -93 -1 -136c3 -29 1 -59 0 -89c0 -20 1 -74 0 -86c0 -11 -1 -35 -1 -48v-25c0 -7 0 -15 6 -17l38 -19c32 -19 63 -20 92 -21c93 -5 166 47 196 78c20 24 50 100 55 156c2 24 1 59 0 83c-4 46 0 79 -1 109l-7 68
c0 1 -1 2 -1 5c-3 24 -7 51 -20 77c-21 45 -62 73 -98 95c-1 0 -15 8 -17 9c-17 10 -39 26 -106 27z" />
    <glyph glyph-name="r" unicode="r" horiz-adv-x="662" 
d="M222 31l1 -25c0 -9 -27 -10 -27 2l-1 11v55v9c-2 34 -4 80 -3 113c0 20 0 46 -1 65v7c0 1 -1 3 1 40l1 15s-1 28 0 31c1 15 1 29 0 41l1 48c-1 8 -1 21 -1 26c1 29 1 56 0 84v9c0 3 -1 7 -1 11c-1 14 -2 35 -2 47c1 27 1 54 0 83v8v28c0 13 9 14 15 14h21c12 1 33 2 43 2
c16 0 22 0 30 -1c6 -1 13 -2 25 -2h6c34 -2 86 -7 111 -17c15 -5 43 -20 54 -27c27 -17 55 -57 65 -96c4 -15 11 -35 11 -51s-2 -38 -6 -61c0 -1 -3 -12 -3 -13c-2 -15 -6 -21 -12 -33c-5 -10 -11 -21 -17 -30c-4 -5 -14 -17 -19 -21c-15 -12 -21 -22 -39 -33
c-21 -12 -47 -20 -76 -22l21 -31l10 -15c13 -23 21 -41 25 -46l9 -15s11 -13 20 -33c15 -21 23 -42 30 -51c20 -26 32 -53 50 -80l10 -16l8 -13l15 -28c8 -11 4 -19 -5 -20c-17 -1 -20 5 -25 14l-6 10c-3 5 -5 9 -8 12l-32 54l-2 5l-19 30l-13 23l-9 15c-1 1 -3 4 -3 5
l-8 10l-16 27l-32 56c-4 8 -12 20 -20 32c-3 4 -6 10 -9 13l-23 39h-27c-3 0 -41 1 -45 1c-16 0 -30 -3 -50 -2c-5 0 -19 -1 -24 -1c0 -3 -1 -8 -1 -12l-2 -44v-37c1 -13 1 -30 1 -43c0 -18 -1 -35 1 -54c2 -32 3 -68 2 -103v-19zM223 435c2 -20 -1 -44 1 -63
c10 0 45 -1 54 0l40 1c60 0 65 -1 102 8c14 4 30 7 41 17c9 8 26 20 34 30c27 32 45 77 45 113c-1 25 -5 58 -13 77c-29 67 -53 71 -95 90c-2 1 -46 11 -49 12c-2 0 -5 1 -7 1l-58 4c-15 1 -28 2 -49 2c-15 0 -34 -1 -49 -2c0 -33 -1 -121 0 -137c0 -9 0 -18 1 -26
c0 -5 1 -9 1 -13v-12c0 -29 -3 -52 1 -102z" />
    <glyph glyph-name="s" unicode="s" horiz-adv-x="585" 
d="M473 321c-9 8 -23 19 -37 28c-21 13 -42 21 -51 24c-16 5 -23 12 -39 18l-16 6l-41 16c-53 20 -99 43 -133 68c-8 6 -17 11 -27 22c-20 24 -36 41 -44 64s-8 58 -2 73l4 11c6 16 13 29 23 40c2 3 20 16 22 18c16 15 20 15 42 26l8 4c30 14 71 17 112 16
c25 -1 52 -5 73 -11c14 -4 25 -8 34 -14l19 -11c6 -4 16 -9 36 -25l8 -6l9 -7c11 -10 -4 -32 -16 -23l-6 5l-10 7c-3 1 -10 6 -12 8c-6 5 -13 11 -22 18c-10 6 -27 11 -44 18c-20 8 -64 15 -79 14c-39 -3 -34 -1 -79 -10c-8 -2 -17 -7 -26 -12c-13 -6 -21 -14 -32 -20
c-5 -3 -9 -8 -13 -12c-15 -15 -27 -29 -27 -53c0 -12 -1 -24 2 -35c1 -4 2 -8 4 -12c2 -5 10 -18 13 -23c8 -14 19 -23 36 -36c42 -31 60 -43 110 -64c7 -3 36 -14 36 -14c26 -9 54 -24 81 -33c16 -5 31 -16 47 -24c3 -2 24 -11 46 -35c10 -10 4 -35 -9 -24z" />
    <glyph glyph-name="t" unicode="t" horiz-adv-x="573" 
d="M321 726c0 19 4 22 14 22h27c7 0 43 1 49 1l45 -2c3 0 16 1 19 1h29c10 1 18 1 26 -1c9 -2 10 -16 5 -20c-3 -2 -13 -5 -19 -5l-20 1c-5 0 -35 -2 -58 -1c-10 0 -21 0 -46 -1h-44s1 -24 1 -33c-1 -22 1 -48 1 -52c1 -13 0 -35 0 -35c-1 -11 0 -21 1 -32
c-1 -11 0 -63 0 -73l1 -33c0 -4 -1 -50 -1 -54l2 -33c0 -35 0 -77 -1 -111c-2 -28 -1 -55 -1 -83v-47c-1 -14 -1 -29 -1 -45v-18c0 -1 1 -4 1 -12v-54c0 -8 -26 -9 -26 0v9l-1 51c1 38 1 91 1 131l-1 57s2 61 1 99c0 2 -1 35 -1 59c0 9 1 51 1 117c0 38 -3 73 -1 108
c-3 37 -3 73 -3 89z" />
    <glyph glyph-name="u" unicode="u" horiz-adv-x="693" 
d="M218 111c-7 13 -12 34 -15 47l-2 10c-4 14 -7 37 -7 54v30l-2 100v12c0 2 -1 4 -1 27v36c1 19 2 40 2 60c0 5 0 19 -1 29c-1 8 -1 20 -1 27s0 21 1 30v42v15l1 42c0 5 1 9 1 13v11c0 8 -1 19 0 24v23c1 12 21 7 24 3c2 -4 4 -10 4 -16v-16v-10v-30c-1 -29 3 -54 -1 -91
v-48v-30s-1 -35 0 -65l1 -13v-65c0 0 -3 -72 0 -113c0 -35 3 -72 10 -92l2 -8l3 -9c7 -23 14 -40 29 -63c20 -26 42 -36 62 -46l9 -3c10 -4 22 -5 37 -5h17c6 0 11 1 17 1c6 1 30 1 34 1c29 9 58 26 80 49c26 33 35 54 45 82l6 30c10 30 10 61 9 97l1 17c0 6 -1 12 -1 18
c0 14 0 27 1 40s2 28 2 42v20c0 28 0 57 -2 80c-1 15 -1 30 -1 45c0 21 0 39 1 60l1 30v28c0 20 0 40 -1 60v20c0 8 17 12 26 3c2 -2 2 -13 2 -20v-4c1 -14 1 -36 1 -48l-1 -25v-24c-1 -28 -2 -53 -1 -82l3 -116c0 -13 0 -28 -1 -44c0 -3 -1 -7 -1 -10v-5
c-1 -21 -2 -43 -1 -64l1 -31c0 -26 -5 -62 -9 -87c-9 -48 -26 -100 -59 -130c-34 -31 -69 -61 -138 -61c-15 0 -77 4 -101 15c-30 15 -35 20 -51 37c-7 7 -15 21 -22 35l-2 5z" />
    <glyph glyph-name="v" unicode="v" horiz-adv-x="686" 
d="M616 702l5 14l4 8s3 7 4 8c4 7 9 21 25 18c11 -2 5 -17 0 -28l-2 -5l-3 -8l-14 -32c-2 -3 -3 -9 -5 -13c-5 -14 -11 -30 -16 -41l-18 -40l-3 -7l-21 -51c-4 -11 -9 -26 -16 -38l-4 -7c-4 -8 -8 -16 -10 -24l-18 -43l-12 -28c0 -1 -7 -19 -16 -38l-4 -8
c-19 -42 -43 -98 -44 -102c-8 -23 -16 -38 -24 -59c-5 -13 -9 -22 -17 -40c-3 -7 -9 -16 -15 -16c-5 0 -8 4 -14 15c-9 15 -21 42 -28 57l-21 46s-9 26 -17 45l-20 46l-6 12l-3 7c-10 20 -12 26 -17 41l-4 13c-2 4 -6 12 -7 17c-1 1 -9 21 -13 33l-9 25c-1 2 -4 8 -4 10
l-16 41l-7 16l-9 24c-2 6 -8 21 -12 30l-4 10c-5 11 -11 27 -16 40l-3 5c-2 7 -5 17 -8 23l-12 35l-4 13c-6 14 -6 24 5 24c12 0 15 -3 22 -20l7 -19l9 -24l15 -39l7 -20l5 -15l5 -13l23 -58l8 -17l7 -20c9 -20 18 -44 29 -71c11 -22 25 -63 25 -63l21 -47l6 -16
c0 -1 4 -9 4 -11l3 -9l17 -41l19 -45c4 -9 12 -23 16 -32c8 17 15 39 19 53c0 1 1 2 1 3l6 13c2 6 12 27 12 27l21 49l24 61c0 1 2 5 3 7l9 17c0 1 2 6 2 6l7 14c6 18 17 41 24 55l6 13c9 19 19 39 27 61c3 6 5 13 8 20c0 1 2 3 2 4l3 9c6 16 12 31 19 46z" />
    <glyph glyph-name="w" unicode="w" horiz-adv-x="1127" 
d="M1057 701l5 14l4 8s3 7 4 8c4 7 9 22 25 19c11 -2 5 -17 0 -28l-2 -5l-3 -8l-14 -32c-2 -3 -2 -9 -4 -13c-5 -14 -9 -30 -14 -41l-17 -40l-3 -7l-18 -48c-4 -11 -22 -67 -42 -110l-28 -71l-4 -8c-19 -42 -39 -98 -40 -102c-8 -23 -16 -38 -24 -59c-5 -13 -8 -22 -16 -40
c-3 -7 -9 -16 -15 -16c-5 0 -7 4 -13 15c-9 15 -18 42 -25 57l-19 46s-11 36 -19 55l-9 23l-5 12l-3 7c-10 20 -20 49 -25 64l-4 13c-2 4 -6 12 -7 17c-1 1 -8 21 -12 33l-5 15c-1 2 -3 8 -3 10l-16 41l-7 16l-8 24c-2 6 -7 21 -11 30l-3 10c-5 11 -10 27 -15 40l-3 5
c-2 7 -5 17 -8 23l-13 35c-10 26 -10 37 2 37s15 -3 22 -20l6 -19l10 -24l15 -39l6 -20l5 -15l4 -13l21 -58l8 -17l7 -20c9 -20 18 -50 26 -71l24 -63l19 -47l5 -16c0 -1 1 -3 1 -5l6 -15l15 -41l19 -45l11 -30c8 17 15 37 19 51c0 1 1 2 1 3l5 13c2 6 10 27 10 27l20 49
s20 52 33 80c16 34 34 82 41 105c2 6 4 13 7 20c0 1 11 26 11 27l13 35c6 16 11 31 18 46zM239 232c25 -57 58 -138 74 -167l14 -33c5 -12 10 -25 1 -34c-7 -7 -13 -1 -17 7l-17 35l-25 53l-7 18l-3 7l-5 9l-14 30l-19 43l-13 38c-17 35 -33 84 -47 121l-5 14
c-13 36 -25 70 -39 104l-20 54l-8 19c-11 25 -21 60 -30 85l-11 35l-9 24l-7 23l-5 15c0 1 -1 2 -1 4c-2 9 2 15 15 13c11 -3 10 -10 15 -19c12 -41 29 -92 44 -128l14 -40c11 -23 24 -61 34 -88l3 -11l9 -27l11 -25l8 -19c8 -24 20 -58 32 -82z" />
    <glyph glyph-name="x" unicode="x" horiz-adv-x="647" 
d="M294 444l-20 -22l-63 97l-24 41c-2 3 -29 48 -32 52c0 0 -21 30 -27 41l-25 40c-5 8 -18 25 -26 44c-4 8 -1 14 9 13c9 1 18 -3 22 -10l9 -15c7 -10 7 -10 13 -24c5 -8 53 -79 64 -97c9 -15 22 -32 32 -55c2 -4 44 -69 68 -105zM458 741c9 14 35 11 31 1
c-5 -12 -20 -35 -32 -54l-9 -14l-24 -40l-6 -13l-12 -18c-1 -1 -2 -3 -4 -6c-3 -8 -11 -21 -13 -25c-10 -15 -32 -52 -46 -73c-19 -30 -45 -70 -56 -91c-6 -10 -27 -44 -41 -66l-38 -63c-2 -4 -33 -52 -35 -55l-22 -38c-1 -2 -1 -5 -18 -30c-6 -8 -11 -18 -16 -28l-73 -120
c-9 -15 -33 -9 -28 5c1 2 15 25 18 30c1 1 12 22 13 24l74 120l22 37c4 7 10 15 19 31l24 40l17 27c2 5 4 9 6 13l14 22l51 85l8 12c4 6 15 23 21 32c16 26 35 54 41 67c0 0 37 59 71 120c6 11 21 30 34 55c3 5 7 9 9 13z" />
    <glyph glyph-name="y" unicode="y" horiz-adv-x="735" 
d="M145 745c2 7 13 6 19 5s11 -6 16 -14l17 -28s11 -24 38 -62l11 -21c12 -22 23 -33 37 -55l7 -12c4 -6 15 -26 34 -57l34 -52l22 -38l11 -18l27 -46l6 -8c14 18 29 40 41 59c6 10 26 38 32 48l9 11c4 5 38 54 40 58l29 46c16 25 19 35 37 60c11 16 20 29 23 34
c17 27 13 25 40 67l12 22c7 9 26 7 27 -1c1 -4 -1 -8 -4 -14l-4 -8c-9 -19 -27 -49 -36 -61l-11 -20l-34 -55l-9 -10l-10 -17l-21 -37l-21 -31l-4 -5l-31 -46c-3 -7 -60 -89 -63 -93l-12 -16c-6 -8 -9 -15 -13 -21l-2 -72c0 -15 1 -33 2 -46v-18c1 3 -2 -42 0 -83
c2 -35 1 -52 1 -84c0 -10 -26 -9 -26 -1v18v4c-1 21 -1 60 -1 74c-1 14 -1 53 -1 66c-1 14 -1 39 -1 51c0 38 0 80 -2 87c-3 6 -8 13 -8 13c-11 15 -28 44 -44 72l-15 23c-9 16 -12 25 -17 32l-28 45c-5 7 -9 15 -19 30l-21 30l-19 31l-9 14l-3 4l-15 25l-6 9l-9 16l-6 12
l-7 12l-13 20l-9 17c-1 2 -2 3 -2 3c-12 19 -18 26 -16 32z" />
    <glyph glyph-name="z" unicode="z" horiz-adv-x="608" 
d="M260 377c-3 -5 -3 -9 -6 -13l-30 -63c-14 -30 -18 -45 -33 -72l-8 -13l-7 -14l-3 -6c-14 -31 -22 -49 -25 -53c0 0 -9 -14 -12 -23c-4 -10 -9 -19 -20 -40c-7 -11 -9 -18 -9 -18l-8 -18l-9 -16l-11 -22c-4 -9 -32 -8 -28 4l4 10l4 9l14 27c2 5 22 44 22 44l2 5l13 25
c6 16 23 45 23 45l15 35l17 28l9 18c1 5 7 17 11 24l5 12l15 31c2 4 2 8 5 12l6 13c7 12 12 26 18 39l5 11c3 6 6 14 10 21l10 18c3 8 4 15 25 57l18 36l21 43l10 23c12 23 27 45 36 68c8 21 24 55 24 55l3 5l-19 -1s-25 -1 -61 1c-19 1 -63 1 -83 0c-27 -1 -37 6 -70 0
c-23 -4 -42 -1 -42 -1c-20 0 -38 1 -53 0h-11c-8 0 -12 1 -14 3c-6 4 -2 20 6 22c18 3 41 3 64 3l101 1l13 -1h18c6 0 12 -1 19 -1h28c15 2 35 2 45 1c2 0 14 -1 17 -1c0 0 22 3 62 1c9 -1 14 -9 9 -24l-3 -7s-34 -83 -49 -109c-7 -12 -15 -31 -24 -50l-19 -36
c-8 -20 -21 -47 -30 -68c-3 -5 -6 -10 -7 -14l-13 -26z" />
    <glyph glyph-name="zero" unicode="0" horiz-adv-x="590" 
d="M341 31c18 10 39 29 50 40l1 216c-1 37 -2 96 -2 129c0 14 -1 29 -2 42c-1 17 -2 34 -1 49v63c0 23 -1 52 -2 77c0 4 -1 8 -1 11l1 22c-1 7 -33 28 -33 28c-6 5 -29 17 -44 19l-8 1c-12 0 -32 -2 -39 -3c-4 -1 -12 -3 -20 -7l-7 -4l-4 -2l-16 -7l-9 -7
c-24 -20 -50 -56 -69 -86c-15 -29 -26 -72 -34 -102c-9 -38 -15 -77 -14 -116c0 -28 1 -91 10 -137c5 -28 21 -80 30 -103c17 -49 33 -67 70 -104l19 -11c16 -9 45 -18 66 -19h19c3 1 7 2 10 2c4 1 11 3 11 3zM418 80c1 -12 1 -19 -12 -34c-14 -17 -28 -27 -37 -32
c-22 -12 -53 -21 -92 -21c-19 0 -35 2 -49 6l-22 11c-10 6 -24 19 -35 30l-5 4l-24 24l-10 15c-5 5 -11 15 -16 24l-5 9l-23 57l-4 22l-3 14l-3 15l-3 12l-3 18l-3 13c-1 5 -2 11 -2 16l-2 13c-3 18 -5 42 -5 61v38c0 8 1 21 2 29c1 5 2 13 2 15c2 32 9 63 16 93
c0 2 0 7 6 25c0 3 1 9 2 10c4 17 11 35 28 68c0 1 2 4 2 5l7 13l9 13l4 7l5 7l7 9c15 19 36 35 54 45c0 0 11 5 20 9l7 3c13 5 25 7 44 10c19 1 28 -1 50 -4c19 -2 46 -21 63 -35c11 -7 9 -7 15 -14c9 -9 10 -20 10 -34v-71c0 -3 1 -7 1 -10v-29c0 -1 1 -33 1 -34
c1 -34 2 -60 2 -86v-90c0 -7 1 -15 1 -23v-34c0 -6 1 -12 1 -18v-85c0 -7 -1 -14 -1 -21v-88z" />
    <glyph glyph-name="one" unicode="1" horiz-adv-x="385" 
d="M165 752c5 3 14 1 19 -1c4 -2 5 -9 5 -14c0 -11 -1 -46 0 -61c0 -3 0 -5 1 -30v-36l1 -14v-18c1 -9 1 -24 1 -29c0 -19 -1 -45 -2 -71c-1 -35 -2 -70 -1 -93c1 -13 3 -68 2 -109c0 -8 1 -15 1 -23c0 -12 1 -25 0 -38v-40c0 -5 1 -9 1 -13v-12c-1 -16 -1 -29 0 -43v-94
c0 -21 -27 -15 -27 -5c0 2 -1 11 -1 14v173c0 13 1 21 0 47l-1 26v22c0 9 -1 18 -1 24v5l-2 89c0 9 1 25 1 42c1 30 2 64 1 80v64c0 15 0 30 -1 45c0 7 -1 10 -1 14c0 6 1 10 0 22l1 35v5l-33 -28c-4 -3 -41 -38 -44 -41c-16 -16 -29 -29 -42 -36c-9 -6 -18 -14 -26 -2
c-3 4 0 14 5 19l20 16l8 7l39 36l8 7c3 3 7 7 8 9l33 28c16 13 23 20 27 22z" />
    <glyph glyph-name="two" unicode="2" horiz-adv-x="523" 
d="M317 370c0 22 0 33 3 87l-2 66c0 14 2 111 2 121c1 20 -3 36 -3 53c-6 5 -19 13 -23 16c-7 6 -21 12 -38 16c-8 1 -16 2 -23 2c-34 0 -65 -6 -88 -18c-26 -14 -41 -36 -58 -59s-26 -67 -24 -94v-4c0 -10 0 -25 -9 -25c-18 -1 -17 13 -18 38c-2 18 7 58 14 74
c18 46 39 66 89 100c17 12 49 15 73 16c14 1 26 1 39 -1c25 -4 60 -18 84 -39c7 -6 10 -13 10 -31v-1c1 -81 1 -109 1 -150v-50c0 -3 -1 -39 -1 -42l1 -29v-47c0 -14 -6 -28 -15 -43c-9 -14 -19 -24 -35 -45c-4 -6 -20 -25 -22 -27c-9 -10 -21 -20 -33 -33
c-19 -21 -49 -44 -63 -64c-9 -12 -14 -16 -22 -25c-13 -14 -21 -22 -31 -33c-2 -3 -20 -24 -22 -26c-26 -28 -34 -34 -39 -44c7 0 25 -1 30 0c23 -1 42 2 57 1c20 -1 50 1 70 -2c13 2 62 4 83 0c7 0 13 1 20 1c38 2 53 1 72 0c6 -1 12 0 18 0c15 0 23 -1 23 -14
c0 -15 -20 -14 -39 -14c0 0 -110 -2 -135 0c-30 2 -46 0 -48 0h-15c-2 0 -37 2 -51 2c-2 0 -69 -3 -71 -3h-33c-16 0 -25 23 -9 42l28 33c2 3 23 23 25 26c23 27 51 60 83 92c8 8 14 13 22 23c4 6 12 14 17 19c23 23 37 38 55 57c3 3 10 9 13 15c3 5 6 9 9 13
c18 21 29 38 29 50z" />
    <glyph glyph-name="three" unicode="3" horiz-adv-x="515" 
d="M322 722h-52c-6 0 -30 1 -74 1c-10 0 -41 1 -48 1s-12 -1 -14 -1h-14c-40 -4 -76 1 -76 1c-8 0 -11 -1 -13 5c-3 15 13 19 18 20c10 1 24 0 57 0l56 1c6 1 23 1 32 0h57h42c10 0 30 0 37 1h5c2 0 24 1 26 1h42c19 0 21 -5 21 -21c-4 -8 -13 -17 -20 -26
c-13 -12 -25 -22 -34 -36c-2 -2 -6 -6 -10 -11c-12 -12 -29 -30 -29 -30s-34 -41 -48 -53c-10 -8 -57 -62 -62 -70c-16 -15 -30 -30 -30 -30c2 0 19 4 42 -4c8 -3 17 -5 27 -7c13 -3 19 -7 28 -11c8 -3 16 -7 25 -12c10 -8 18 -15 19 -35v-36l-1 -29c0 -3 2 -43 2 -46
c0 0 -3 -51 -1 -76c-1 -41 0 -69 -1 -150v-1c0 -18 -3 -25 -10 -31c-24 -21 -59 -35 -84 -39c-13 -2 -25 -2 -39 -1c-24 1 -56 4 -73 16c-50 34 -71 54 -89 100c-7 16 -12 33 -14 51c-3 25 -5 38 13 40c9 2 10 -12 13 -22v-4c3 -27 8 -53 25 -76s32 -45 58 -59
c23 -12 54 -18 88 -18c7 0 15 1 23 2c17 4 31 10 38 16c4 3 17 11 23 16c0 17 4 33 3 53c0 10 -2 22 -2 36l1 34c-3 77 -1 56 -1 89c0 14 1 10 1 23c0 25 -1 111 -1 117c-7 6 -16 11 -26 16c-8 4 -13 5 -27 10c-37 14 -54 13 -78 14c-19 -1 -28 17 -16 29l23 26s14 18 30 33
c15 14 31 33 37 40c12 15 23 23 34 36c9 10 13 16 27 29c7 7 20 23 29 32c3 4 11 12 12 13c16 16 30 34 30 34c-16 0 -24 -1 -57 -1z" />
    <glyph glyph-name="four" unicode="4" horiz-adv-x="551" 
d="M365 5c0 -7 -27 -9 -27 0v81c-1 12 -2 28 -2 43h-7c-8 0 -20 -3 -47 -3l-59 -1l-56 2c-20 0 -69 -5 -84 -5c-10 0 -29 2 -38 1h-18c-14 0 -14 22 -7 31c7 15 12 25 17 32l10 23c6 10 12 23 12 23l19 38c29 60 47 83 54 98l3 6l48 92l27 51c20 39 29 52 47 85l33 55
c3 7 6 17 22 40l19 35c6 11 14 22 26 18c16 -5 -2 -31 -7 -41l-28 -54c-1 -3 -4 -6 -5 -9l-36 -66l-21 -35l-19 -36l-10 -16l-27 -52l-19 -36l-8 -12l-15 -31l-7 -14l-14 -24l-9 -17c-2 -5 -16 -27 -17 -31c-18 -29 -19 -32 -28 -52l-3 -7c-1 -3 -18 -37 -18 -35l-15 -32
c26 0 51 2 78 3h41s49 4 88 0c34 2 47 3 78 3l2 50c0 5 -1 9 -1 13v12c1 18 2 44 1 62c-1 21 0 39 1 64c1 6 3 12 5 14c5 3 16 2 20 -3c3 -4 3 -7 3 -12c-1 -36 -3 -70 -1 -134c1 -26 -1 -48 -1 -65c0 -35 1 -71 2 -96l-1 -27v-7c0 -4 -1 -10 -1 -22z" />
    <glyph glyph-name="five" unicode="5" horiz-adv-x="521" 
d="M252 23c28 1 51 9 61 17c13 8 44 29 44 29l10 11c32 40 43 80 46 119l3 37c0 3 1 5 1 8c0 54 -40 114 -70 144c-8 7 -25 13 -42 19c-23 7 -49 13 -77 13c-19 0 -35 0 -57 -6c-6 -2 -24 -8 -29 -10c-18 -6 -28 -13 -36 -22c-7 -6 -25 -4 -27 8v10c-1 7 -1 17 -1 26v6
c0 2 1 4 1 7v14c1 18 1 38 1 58c0 8 -2 43 -2 63v24c0 3 -1 7 -1 10v16c0 16 3 23 22 23h22c2 0 24 -1 31 -1c7 -1 34 -1 44 -1h63c9 1 26 1 32 0h47c33 0 57 1 67 1c13 0 20 -7 17 -22c-2 -6 -5 -6 -13 -6h-17c-13 -1 -22 0 -30 0c-12 1 -28 1 -48 0c-4 0 -24 -1 -36 1
c-7 1 -20 0 -28 0c-25 -1 -28 -1 -65 -1h-25c-16 1 -54 0 -54 0v-33c0 -7 -1 -15 -1 -23c0 -10 1 -25 1 -30c0 -21 2 -37 2 -52c0 -22 -1 -39 -2 -61c12 10 26 15 48 19c9 2 26 7 34 8c20 4 31 3 56 3s51 -4 74 -13c18 -7 33 -17 48 -27c12 -8 26 -21 42 -47
c15 -27 29 -63 29 -64s1 -2 1 -3c0 -2 1 -4 1 -6c1 -11 4 -21 5 -32c1 -9 1 -5 1 -12c1 -46 0 -85 -23 -129c0 0 -1 -9 -6 -17l-9 -14l-7 -9l1 1c-1 -2 -4 -5 -6 -7c-6 -8 -14 -18 -24 -28c-24 -24 -70 -40 -98 -45c-13 -2 -25 -3 -39 -2c-51 4 -88 18 -126 54
c-9 9 -15 18 -21 28c-11 18 -15 27 -17 42c-1 9 -6 16 -7 24c-4 25 -4 36 15 35c7 0 10 -13 11 -24c0 -1 1 -2 1 -5c2 -17 13 -41 25 -62c15 -24 25 -31 32 -34c19 -11 33 -22 51 -24c19 -2 33 -6 54 -6z" />
    <glyph glyph-name="six" unicode="6" horiz-adv-x="551" 
d="M180 462c-9 -14 -20 -30 -20 -30c20 20 35 29 51 33c3 1 20 3 24 4c14 3 18 4 39 4c13 0 30 -1 48 -6c7 -2 13 -5 19 -7c11 -3 17 -8 25 -13c10 -8 18 -15 19 -35v-36v-28c2 -39 -1 -85 -1 -88c0 0 -1 -31 1 -52c3 -28 0 -59 -1 -140v-1c0 -17 -3 -24 -10 -30
c-24 -21 -25 -21 -56 -34c-12 -5 -27 -6 -48 -6c-51 0 -103 16 -141 52c-16 15 -34 36 -47 58l-7 18c-3 8 -5 16 -7 24c-5 22 -8 48 -8 73v8c0 11 0 30 3 41c6 27 11 52 21 69l18 37l6 13l6 14c28 50 41 74 48 89c6 14 17 36 22 43c0 0 5 18 12 28c3 9 7 14 10 20
c7 13 18 31 27 56c8 21 30 54 36 64l7 17l6 10l5 9c4 6 9 11 19 8s7 -12 3 -22c0 0 -17 -26 -21 -41c-9 -17 -19 -36 -26 -51l-7 -16l-3 -6l-4 -6c-6 -11 -12 -22 -22 -46l-14 -31c-2 -7 -17 -36 -21 -41c-1 -2 -11 -25 -11 -26zM88 222c-1 -13 1 -30 3 -47c2 -4 2 -8 3 -13
c0 -1 2 -2 2 -5c2 -16 13 -38 24 -59c15 -24 57 -50 64 -52c34 -19 49 -23 95 -23c27 1 55 17 65 24c4 3 13 12 14 20c1 10 2 17 1 37c0 10 -2 24 -2 38l1 32c-3 77 -1 88 -1 121c0 13 2 38 1 51c-2 32 -2 64 -2 70c-3 5 -33 22 -43 24c-1 0 -3 1 -4 1c-7 1 -15 1 -25 1
c-6 0 -10 3 -35 1c-19 -2 -53 -13 -76 -28c-17 -12 -34 -32 -46 -55c-9 -18 -21 -33 -27 -56c-10 -35 -10 -63 -12 -82z" />
    <glyph glyph-name="seven" unicode="7" horiz-adv-x="453" 
d="M401 647c10 0 18 -11 13 -23l-9 -20l-6 -11l-3 -7l-3 -7l-8 -17l-3 -9l-13 -29l-10 -23c-9 -21 -15 -38 -25 -56c-11 -18 -25 -46 -36 -70l-37 -85c-4 -11 -15 -28 -21 -37c-3 -7 -9 -19 -11 -25l-7 -16l-4 -9l-9 -21c-3 -9 -6 -16 -9 -21l-5 -9l-4 -11l-7 -18l-16 -32
l-24 -49l-6 -12c-5 -12 -9 -17 -15 -25c-7 -10 -33 -6 -24 12c7 14 19 40 27 54c9 16 15 31 20 43l7 13c5 10 10 21 14 32l6 15c4 10 9 20 13 28c9 18 17 36 24 54c5 12 14 26 20 37l7 17l11 26c1 4 5 10 6 14l16 38c7 17 15 34 27 54c17 32 37 72 68 145c0 1 1 2 1 3l12 30
c-16 0 -32 -1 -38 0c-28 -2 -56 0 -74 0c-15 0 -29 -2 -45 -1h-20c-10 -1 -36 -2 -46 0l-26 -1c-31 0 -62 0 -78 1c-6 1 -12 1 -14 6s-2 15 3 19c4 3 7 3 12 3c50 -2 83 -1 83 -1c16 0 40 2 64 1c35 -1 51 -1 76 0l96 1h7z" />
    <glyph glyph-name="eight" unicode="8" horiz-adv-x="553" 
d="M90 338c5 11 27 38 34 45c21 19 35 27 55 43c17 13 36 21 53 26c-21 9 -43 19 -58 38c2 -1 -11 10 -24 28l-3 8c-10 20 -17 44 -17 73c0 5 -1 18 0 26c2 19 17 54 27 66c11 14 28 30 37 37l4 3c9 7 22 13 22 13c9 5 31 9 44 11c4 1 12 0 17 0c16 0 34 -3 49 -6
c10 -2 49 -21 74 -49c21 -25 27 -48 29 -80l2 -16c0 -9 0 -16 -2 -23c-9 -28 -16 -43 -41 -67c-11 -11 -18 -18 -29 -26l-23 -19l-32 -16c13 -3 27 -8 43 -16c11 -6 37 -20 39 -39l-1 -36v-151c1 -40 1 -67 1 -146v-1c-1 -17 -4 -24 -11 -30c-23 -21 -34 -20 -64 -32
c-12 -5 -27 -6 -47 -6c-50 1 -103 15 -140 50c-15 15 -34 36 -46 57l-7 18c-3 8 -4 15 -7 23c-5 23 -8 54 -8 78v8c0 11 2 29 3 40c0 22 17 52 27 68zM364 62l-2 53c0 4 1 9 1 12v55c0 20 -2 43 0 63c2 16 0 26 -1 41c2 18 2 40 1 57c-2 10 -2 36 -1 50
c-23 26 -56 33 -89 46c0 0 -26 -10 -35 -13c-10 -4 -20 -12 -37 -20c-50 -38 -84 -70 -99 -110c-12 -28 -12 -27 -12 -49c0 -19 -7 -53 4 -89c4 -21 16 -49 25 -62l10 -11c18 -21 48 -37 97 -55c15 -5 29 -7 39 -7c33 -1 76 14 99 39zM404 626c-2 48 -41 85 -83 96
c-14 3 -25 7 -41 7l-17 -1c-14 -3 -32 -8 -45 -17c-23 -17 -30 -18 -43 -47c-7 -12 -24 -43 -18 -72c4 -20 3 -43 21 -64c16 -18 33 -31 41 -39c4 -2 7 -5 10 -7l22 -10c8 -2 15 -2 21 -5l38 16l47 34l18 21c22 23 26 38 26 38c7 24 3 50 3 50z" />
    <glyph glyph-name="nine" unicode="9" horiz-adv-x="541" 
d="M360 287l24 36c-13 -16 -30 -28 -57 -33c-18 -3 -37 -8 -57 -8c-12 0 -27 3 -43 7c-4 1 -9 1 -14 3c-12 4 -23 9 -33 16c-10 8 -18 15 -19 34v59l1 28c0 3 -1 34 -1 37c-1 51 0 77 0 77c-2 57 0 57 1 82c2 31 0 60 0 60c0 17 3 24 10 30c23 20 24 20 55 33
c12 5 27 6 47 6c50 0 102 -16 139 -51c16 -15 34 -36 47 -57l6 -18c3 -8 5 -15 7 -23c5 -23 8 -48 8 -72v-8c0 -11 0 -30 -3 -41c-6 -26 -11 -51 -20 -67l-17 -37l-7 -13l-7 -14c-27 -49 -17 -37 -32 -64c-7 -13 -33 -67 -38 -74l-15 -30s-9 -23 -32 -65
c-6 -10 -16 -30 -18 -34c-6 -11 -8 -20 -8 -20c-9 -17 -19 -39 -19 -39l-6 -10l-5 -9c-5 -6 -12 -12 -20 -6s-6 18 -2 24c9 19 14 27 19 40c5 14 11 21 18 36l13 23l11 21c9 15 17 36 17 36c6 11 8 12 18 36l3 10c2 7 14 30 18 35c1 2 11 23 11 24zM453 533c1 12 0 29 -2 44
c-2 4 -2 9 -3 14c0 1 -1 2 -1 5c-2 17 -13 38 -24 59c-15 22 -55 45 -62 48c-34 20 -51 23 -95 23c-27 -1 -53 -16 -63 -24c-4 -3 -11 -8 -12 -16c0 -10 -2 -18 -2 -37v-37l-2 -34c3 -74 2 -50 2 -82c0 -14 1 -31 0 -43c-2 -47 1 -110 1 -115c3 -5 26 -23 42 -26
c1 0 3 -1 4 -1c7 -1 15 -1 26 -1c5 0 23 -1 48 3c24 4 38 17 62 31c17 10 31 30 43 53c8 18 20 32 26 55c10 34 10 62 12 81z" />
    <glyph glyph-name="at" unicode="@" horiz-adv-x="902" 
d="M394 456c-13 -10 -32 -28 -40 -47c-18 -33 -27 -47 -23 -98c1 -14 13 -59 26 -74c24 -27 65 -52 106 -52c23 0 45 9 64 28c20 21 22 40 24 58v4c0 1 1 3 1 5l14 90l3 25c4 28 8 55 2 66c-17 35 -52 42 -82 44c-31 0 -71 -21 -95 -49zM189 104l-8 9c-14 13 -14 32 -14 50
v6c0 22 0 44 -1 66c0 22 -1 43 -1 64l-2 36c0 5 1 79 1 83v8c-1 13 -1 32 -1 62v46c0 26 2 37 19 51l25 24l11 9s18 14 33 25c65 49 162 84 276 84h18c54 -5 126 -29 166 -57l22 -17l11 -8c10 -8 30 -25 36 -35l8 -10l8 -13c4 -5 8 -13 12 -17l5 -10c12 -21 19 -49 22 -65
c2 -17 8 -51 6 -78c0 -2 0 -8 -1 -11c0 -2 -1 -8 -1 -9c-2 -30 -10 -57 -17 -76l-6 -19l-18 -33c-2 -5 -6 -9 -8 -14c-1 -1 -2 -3 -2 -4c-7 -12 -15 -28 -30 -42c-13 -12 -22 -27 -73 -46c-44 -12 -99 13 -120 51c-7 -15 -25 -32 -37 -40l-19 -8l-13 -4h1
c-10 -3 -26 -6 -41 -6c-6 0 -14 1 -19 2c-1 0 -4 1 -7 2s-5 1 -7 1l-7 2c-6 0 -17 5 -19 6l-15 9c-34 21 -70 62 -76 125c-9 82 32 148 82 189c24 17 38 24 51 30c5 2 21 6 30 8c13 2 36 1 36 1c26 0 47 -9 70 -27l15 -18c0 1 2 12 2 13l2 9c2 10 10 13 18 11
c3 -1 8 -6 5 -23c-1 -1 -4 -23 -4 -24c0 0 -6 -15 -8 -33c-2 -21 -8 -44 -9 -57c-4 -24 -6 -39 -11 -67c-2 -14 -5 -45 -4 -55c2 -22 5 -34 17 -42c6 -4 32 -26 65 -26c16 0 40 8 62 25c43 39 74 108 88 189c5 66 -15 146 -56 189c-58 63 -148 94 -248 103
c-65 -3 -178 -36 -202 -52c-47 -27 -85 -60 -114 -96c0 0 -5 -72 -4 -137c0 -24 2 -39 2 -39c1 -20 -1 -52 2 -88c1 -18 2 -33 0 -56c-2 -20 0 -29 0 -47v-41c17 -20 41 -36 57 -48c3 -2 2 -2 11 -9c19 -14 46 -27 75 -44c34 -20 81 -27 140 -27c27 0 65 3 105 12
c8 2 16 6 24 8c33 9 67 19 96 36c7 6 19 12 26 17l26 17c9 4 16 -7 16 -13c0 -4 -1 -6 -10 -15l-3 -2l-13 -9c-7 -5 -31 -22 -42 -28c-6 -3 -18 -8 -25 -10c-8 -2 -14 -5 -26 -12l-38 -11c-32 -8 -66 -16 -100 -18h-27c-2 0 -5 1 -8 1h-36c-50 4 -114 22 -157 47l-16 11
l-12 6l-18 12l-13 11l-17 13c-6 3 -9 6 -16 13z" />
    <glyph glyph-name="ampersand" unicode="&#x26;" horiz-adv-x="668" 
d="M261 401c0 0 -10 -4 -33 -20c-20 -10 -32 -25 -32 -25c0 -17 -2 -26 -2 -36c-1 -11 -1 -22 -1 -39c0 -12 0 -29 1 -43c1 -30 1 -66 1 -101c-1 -22 -3 -38 -1 -83c23 -22 72 -35 106 -35c49 0 95 20 147 60l43 40l-40 50l-8 8c-4 5 -93 113 -99 118l-22 30
c-7 9 -15 19 -24 29c-18 26 -36 47 -36 47zM211 666c-10 -22 -16 -39 -16 -55c-1 -81 38 -124 65 -156l12 -16l9 5l17 10c60 37 103 91 103 159c0 17 -7 35 -11 55c-5 23 -18 33 -29 46c-10 12 -25 17 -44 17c-11 0 -25 -5 -40 -10c-19 -7 -56 -34 -66 -55zM189 22
c-14 10 -23 16 -23 34c1 12 1 29 1 36c1 17 -1 28 -1 71c0 25 3 83 1 137c-1 12 0 39 0 39c-1 23 6 37 18 44l19 15c11 9 31 22 43 29l-23 29c-16 19 -30 37 -37 59c-9 31 -15 37 -19 69c-6 49 12 103 66 144c21 15 53 29 88 29c27 -1 49 -15 49 -15c24 -20 38 -42 48 -77
c5 -12 9 -42 9 -42c2 -51 -15 -94 -23 -105c-14 -21 -18 -23 -25 -31c-40 -41 -63 -56 -78 -63l-14 -8c4 -7 6 -9 8 -11l3 -3l12 -16l60 -81c14 -14 19 -24 26 -32l13 -15l46 -55c20 -24 36 -42 52 -60c7 7 13 18 31 49l8 13c1 3 8 20 9 24c2 6 7 15 9 21c11 48 16 83 16 83
c0 15 23 13 24 1v-11c-3 -33 -8 -58 -14 -78c-4 -15 -10 -35 -17 -49c-15 -31 -41 -70 -48 -77l22 -24l19 -24l12 -12c8 -7 18 -20 26 -31c3 -2 5 -5 11 -11c9 -16 -16 -19 -26 -11c0 0 -33 34 -36 38c0 0 -10 11 -22 25c-7 9 -23 27 -23 27c-2 -2 -10 -8 -11 -10l-47 -38v1
c-27 -25 -66 -38 -66 -38c-33 -14 -85 -17 -85 -17h-14c-13 0 -41 2 -70 15c-18 6 -19 6 -27 13z" />
    <glyph glyph-name="parenleft" unicode="(" horiz-adv-x="274" 
d="M81 216c0 -11 8 -41 14 -66l3 -13l5 -22c6 -26 22 -60 22 -60c23 -54 64 -123 100 -172c5 -7 7 -12 1 -18c-3 -3 -10 -3 -12 -2c-9 4 -42 42 -80 111l-28 61l-12 25l-12 37c-2 4 -4 10 -4 13l-13 42l-12 62l-8 46v11l-1 19c0 3 -1 7 -1 11v11l1 78c0 22 7 91 11 102l3 11
c2 6 4 11 5 19l4 15c0 4 3 10 4 13l5 16c0 4 1 6 3 10c3 7 19 47 19 47s41 84 46 91l7 12l8 14l5 10c3 6 7 14 12 22l3 4l2 5c11 17 26 38 36 35c4 -2 5 -2 7 -7c2 -6 -3 -15 -9 -25l-3 -6l-20 -33c-14 -23 -39 -71 -44 -82l-3 -8c-1 -2 -2 -4 -2 -5c-5 -11 -10 -22 -16 -33
c-12 -26 -25 -53 -33 -89c-15 -41 -24 -115 -24 -158c0 -55 1 -80 5 -108z" />
    <glyph glyph-name="parenright" unicode=")" horiz-adv-x="280" 
d="M192 216l6 46c4 28 6 54 6 109c0 43 -10 116 -25 157c-8 36 -21 63 -33 89c-6 11 -11 22 -16 33c0 1 -1 3 -2 5l-3 8c-5 11 -30 59 -44 82l-20 33l-3 6c-6 10 -11 19 -9 25c2 5 3 5 7 7c10 3 22 -15 33 -32l5 -9c5 -8 11 -16 14 -22l5 -10l8 -14l7 -12
c5 -7 47 -94 47 -94s16 -40 19 -47c2 -4 3 -6 3 -10l5 -16c1 -3 4 -9 4 -13l4 -15c1 -8 3 -13 5 -19l3 -11c4 -11 11 -80 11 -102l1 -78v-11c0 -4 -1 -8 -1 -11l-1 -19v-11l-8 -46l-12 -62l-13 -42c0 -3 -2 -9 -4 -13l-12 -37l-12 -25l-28 -61c-38 -69 -71 -107 -80 -111
c-2 -1 -9 -1 -12 2c-6 6 -4 11 1 18c36 49 77 118 100 172c0 0 16 34 22 60l5 22l3 13c6 25 14 55 14 66z" />
    <glyph glyph-name="question" unicode="?" horiz-adv-x="498" 
d="M374 441l-1 -43c0 -26 -5 -34 -10 -43l-4 -8c-3 -4 -5 -8 -7 -12c-4 -7 -17 -19 -23 -27l-8 -10c-5 -5 -7 -8 -9 -12l-4 -6l-5 -9c-7 -13 -7 -9 -13 -26l-3 -9c0 -2 -1 -4 -1 -6l-2 -12c-2 -14 -4 -33 -4 -33c0 -5 0 -6 1 -11c0 -4 1 -19 1 -23s-1 -10 -1 -14
c0 -11 2 -19 -15 -19c-7 0 -10 11 -10 22c0 9 -1 11 -1 17c0 12 -1 25 -1 38c0 20 -2 39 6 55c7 14 6 16 14 28c10 14 8 13 15 24c12 19 31 35 46 56c0 0 10 22 11 36v62c0 38 1 106 2 145c0 8 1 24 1 31c1 21 0 32 -1 41c-1 8 -1 25 -1 32c-10 6 -35 20 -81 23
c-34 -4 -76 -20 -105 -33c-34 -21 -54 -55 -71 -90c-9 -20 -12 -36 -13 -49c0 -4 -1 -7 -1 -10c0 -13 -6 -21 -15 -21c-8 2 -10 19 -11 33c0 11 3 22 6 31c2 10 4 20 8 29l9 18l3 8l9 13l8 9l6 10c8 13 19 21 27 28l13 10l7 5l16 9l20 8l24 9c19 6 39 10 64 10
c6 0 14 0 20 -1l20 -3l25 -8l27 -13c11 -6 13 -17 13 -35v-94c0 -4 0 -12 -1 -17c-1 -8 -2 -40 -1 -47c1 -31 1 -61 1 -96zM258 37c-13 -5 -16 -44 10 -40c14 2 29 7 23 30c-8 9 -22 12 -33 10z" />
    <glyph glyph-name="dollar" unicode="$" horiz-adv-x="600" 
d="M328 810c4 5 17 3 20 0s4 -11 4 -15v-48c14 -4 24 -10 37 -15c44 -20 39 -20 57 -32c17 -12 23 -17 22 -27c-2 -14 -13 -11 -30 1c-5 3 -43 25 -54 30l-23 10l-9 5h-1v-50l1 -65c-1 -22 -2 -36 -2 -52s0 -31 1 -51c1 -7 1 -20 1 -37v-83c21 -11 48 -23 63 -33
c36 -28 70 -65 82 -92c6 -17 11 -42 12 -63c3 -53 -9 -100 -36 -126c-27 -30 -72 -50 -121 -62c0 -25 -1 -47 -1 -55c0 -5 0 -11 -3 -13c-5 -3 -18 -3 -22 1c-3 4 -3 7 -3 13l1 283v27c0 12 1 25 1 38c0 35 -1 71 -2 96l1 27v6c0 3 1 6 1 9c1 11 1 24 0 31v5l-2 49v70
c0 3 2 24 2 27l-1 84l1 24v63c0 6 0 17 3 20zM431 68c14 14 45 37 50 75c1 7 1 46 1 60c-12 58 -28 71 -54 101c-6 6 -39 28 -75 48v-46l-1 -56c0 -3 1 -5 1 -23c-1 -18 -2 -45 -1 -63v-132c22 7 64 21 79 36z" />
    <glyph glyph-name="Euro" unicode="&#x20ac;" horiz-adv-x="659" 
d="M391 436h19c12 0 11 -27 -1 -27h-17c-7 -1 -30 -1 -57 0l-38 -1c-8 0 -16 -1 -24 -1c-12 0 -25 -1 -38 0h-107c-5 0 -9 -1 -21 0h-48c-7 0 -15 21 -2 27c3 1 12 2 16 2c19 0 28 0 49 -1v5c2 60 26 157 67 211c10 13 28 33 45 46c20 16 43 28 53 32c27 13 38 21 72 23
c0 0 30 1 37 1c31 -1 72 -8 110 -23l35 -24c18 -18 20 -21 17 -36c-2 -10 -11 -8 -24 6c-2 2 -14 10 -14 12l-5 4c-4 1 -9 6 -13 10l-25 13c-17 5 -59 10 -83 10c-14 0 -22 0 -37 -1c-44 -4 -82 -28 -116 -62c-43 -42 -44 -46 -58 -85c-24 -57 -18 -53 -28 -99l-5 -44
c19 -1 42 0 65 1l23 1l72 -1c9 0 18 1 24 1h5c20 -2 37 -1 52 0z" />
    <glyph glyph-name="less" unicode="&#x3c;" horiz-adv-x="720" 
d="M279 357c-71 -36 -96 -48 -165 -85c11 -4 22 -10 22 -10l19 -7c12 -5 27 -16 36 -21l20 -7l21 -10l43 -23c27 -10 75 -26 105 -42c6 -3 88 -44 142 -66c43 -18 74 -34 87 -43l8 -4c14 -6 11 -28 2 -31c-7 0 -14 2 -18 5l-14 7c-22 11 -51 26 -74 37l-76 37l-75 34l-37 14
l-79 37c-39 18 -66 31 -83 40c-10 5 -32 14 -42 18c-2 0 -4 2 -15 7c-1 0 -3 1 -18 9c-6 2 -13 8 -13 17c0 6 5 17 15 22l14 7l15 8l157 86l45 20l64 37c1 1 3 3 7 5c19 11 61 33 72 36l8 5c5 3 12 7 18 12l21 11c6 2 33 13 54 23c13 6 22 11 22 11c8 3 26 13 33 3
c3 -10 1 -16 -7 -20l-9 -6l-11 -6l-14 -8c-6 -2 -12 -4 -15 -7l-26 -13l-38 -17l-3 -2l-47 -27c-7 -5 -17 -10 -22 -11c-2 -1 -7 -4 -8 -4c-4 -2 -6 -2 -11 -5l-59 -33c-19 -10 -51 -29 -71 -40z" />
    <glyph glyph-name="greater" unicode="&#x3e;" 
d="M426 357l-17 10c-19 11 -35 20 -54 30l-41 25l-15 7l-22 11c-6 2 -18 7 -23 12l-18 9l-69 36l-26 13c-3 3 -9 5 -15 7l-15 8c-1 0 -2 1 -3 1c-3 2 -10 5 -15 10c-7 6 -13 10 -8 20c7 8 18 5 27 0l7 -3c1 -1 66 -31 75 -34l22 -12l26 -16c12 -4 51 -26 78 -41l64 -37
c12 -5 33 -15 45 -20l157 -86l15 -8s1 -1 3 -1l12 -7c9 -5 14 -15 14 -21c0 -9 -7 -15 -13 -17c-3 -2 -9 -6 -12 -7l-7 -2c-2 -1 -8 -3 -10 -5l-4 -2l-42 -18c-17 -9 -44 -22 -83 -40l-79 -37l-16 -7l-75 -34l-97 -43l-38 -19c-12 -6 -27 -15 -36 -19l-13 -7
c-5 -3 -12 -5 -19 -5c-9 3 -12 25 2 31l7 4l4 2c14 10 45 25 84 42c55 23 142 62 142 62c30 16 77 36 104 46c11 6 33 18 43 23l21 10l20 9c9 5 32 15 44 20l15 6s8 6 21 10l-36 19c-40 21 -80 40 -131 65z" />
    <glyph glyph-name="asterisk" unicode="*" horiz-adv-x="494" 
d="M334 658c32 24 36 28 44 21c9 -7 1 -17 -9 -25c-4 -2 -5 -3 -6 -4l-30 -22c-10 -7 -10 -8 -18 -14c-15 -11 -17 -12 -22 -15c-3 -2 -27 -20 -29 -21c17 -11 47 -24 69 -37c12 -7 27 -16 39 -22c14 -9 16 -10 17 -10c12 -7 17 -10 14 -21c-3 -13 -14 -7 -24 -1l-15 8
l-12 7c-23 11 -40 22 -65 36l-14 8l-18 12s4 -41 3 -58c0 -16 1 -22 0 -36l1 -35c0 -18 -3 -24 -13 -22c-12 2 -12 12 -12 30c-1 12 2 27 0 64c1 14 0 55 0 55l-44 -33c-13 -6 -31 -22 -31 -22l-11 -6l-13 -10c-18 -12 -23 -16 -33 -8s-4 17 13 27c0 0 23 15 27 18
c26 15 15 11 38 25c5 3 16 13 25 19l17 9l-19 8c-11 8 -26 18 -51 29c-27 17 -40 22 -55 32c-13 9 -19 13 -15 21c5 10 10 11 44 -9c-1 0 10 -6 55 -31l14 -9c7 -4 34 -19 39 -22l-1 46v90c1 23 3 28 14 24c10 -4 10 -9 10 -20v-38c1 -13 0 -30 1 -44l-3 -54s15 13 33 28
c19 10 46 32 46 32z" />
    <glyph glyph-name="equal" unicode="=" horiz-adv-x="528" 
d="M144 330l-39 -1c-31 1 -28 8 -27 18c2 10 11 10 22 10l62 1c29 2 44 -2 78 -2l55 2c46 0 50 2 91 1l27 -2c31 -1 32 1 35 -9c2 -18 -11 -19 -31 -19l-85 2s-76 -4 -123 -3zM400 166c0 0 -39 -1 -91 -1c-86 4 -142 4 -203 2c-22 0 -29 0 -29 12c0 14 15 18 31 17l36 1
c37 -4 63 -2 99 -2l62 -2c42 4 78 2 106 0h10c10 0 24 -4 26 -14c0 -15 -10 -13 -25 -14z" />
    <glyph glyph-name="quotesingle" unicode="'" horiz-adv-x="211" 
d="M121 685c5 10 14 24 20 41c10 21 10 25 25 24c11 -1 9 -11 2 -26l-7 -15c-1 -3 -7 -16 -9 -19c-8 -17 -13 -28 -23 -54c-2 -7 -7 -13 -13 -26l-6 -13l-17 -38c-7 -11 -31 -6 -26 5c5 12 10 26 17 40c3 6 11 25 14 30c7 13 9 20 9 20s10 21 14 31z" />
    <glyph glyph-name="fraction" unicode="&#x2044;" horiz-adv-x="390" 
d="M311 773l-8 -20l-29 -79c-6 -20 -13 -45 -21 -66l-6 -21c-15 -59 -47 -157 -66 -216l-9 -27c-8 -23 -17 -46 -21 -66c-17 -67 -35 -132 -58 -197c-6 -15 -8 -33 -14 -54l-4 -11l-6 -18c-6 -17 -12 -36 -18 -49c-4 -13 -8 -18 -15 -17c-18 4 -9 19 -3 43l9 30
c9 28 18 56 25 83c19 58 33 116 49 177l55 167l28 88c4 21 12 45 19 65v-1c0 1 1 3 1 4l7 23c13 45 45 138 62 180c3 13 12 19 18 19c23 1 12 -9 5 -37z" />
    <glyph glyph-name="percent" unicode="%" horiz-adv-x="600" 
d="M232 741c29 -19 42 -47 43 -75c-1 -43 -28 -76 -49 -88c-10 -2 -28 -4 -35 -4c-31 0 -64 14 -81 40c-9 11 -14 32 -14 46c0 39 25 67 58 84c14 4 28 5 38 5c12 0 31 -2 40 -8zM123 655c1 -36 35 -58 74 -53c23 1 33 12 51 42c3 11 1 35 -4 45c-8 21 -28 35 -55 35
c-20 0 -34 -10 -41 -17c-17 -10 -26 -29 -25 -52zM482 690l7 10c8 18 12 23 9 29c-4 6 -8 7 -10 8c-6 3 -10 0 -19 -15l-15 -25l-11 -20c-10 -17 -34 -61 -43 -79l-23 -43l-11 -20l-18 -32l-47 -88l-26 -44c-24 -42 -53 -94 -76 -138l-59 -103l-61 -110c-7 -15 -5 -22 5 -25
c6 -2 10 -2 14 4l12 23c4 9 7 14 12 21l11 20c3 7 8 14 11 21l4 6l5 7l25 42l16 27l19 34c5 10 10 20 16 29l6 11c11 19 30 53 37 69l41 71c3 7 10 20 14 27c25 44 57 104 76 140c4 6 13 25 17 35l23 41c1 3 8 13 11 19c0 1 2 5 4 7l4 6c2 4 4 8 7 11zM450 158
c29 -12 41 -41 42 -70c-1 -43 -26 -76 -49 -87c-10 -3 -29 -5 -34 -5c-31 0 -65 14 -82 37c-6 13 -12 33 -12 48c0 39 20 71 57 83c13 4 27 6 38 6c12 0 30 -5 40 -12zM341 78c1 -37 36 -61 71 -57c26 1 37 15 52 47c3 11 3 32 -1 46c-9 18 -30 28 -55 28
c-19 0 -33 -4 -42 -12c-16 -7 -26 -29 -25 -52z" />
    <glyph glyph-name="degree" unicode="&#xb0;" horiz-adv-x="225" 
d="M147 748c27 -17 39 -43 40 -68c-1 -38 -20 -65 -45 -75c-10 -4 -24 -8 -32 -8c-28 0 -56 17 -69 33c-7 8 -11 29 -11 44c0 36 17 60 52 76c8 4 22 4 32 4c11 0 25 -1 33 -6zM78 718c-19 -11 -22 -27 -22 -46c0 -37 31 -53 60 -49c20 2 38 16 45 45c3 7 -2 30 -7 38
c-11 14 -21 25 -41 25c-15 0 -31 -9 -35 -13z" />
    <glyph glyph-name="numbersign" unicode="#" horiz-adv-x="615" 
d="M508 606c-9 -33 -26 -85 -39 -128c4 0 27 1 32 1l48 -1c19 0 23 0 25 -11c2 -12 0 -12 -21 -12c-43 1 -66 -3 -92 0c-2 -7 -6 -19 -9 -26l-13 -47l-12 -36l-10 -32l-16 -52c6 0 12 -1 20 -1h25c15 0 36 0 45 -1h10c12 0 17 0 19 -10c0 -1 0 -2 1 -3c1 -10 0 -11 -34 -10
c0 0 -45 -1 -94 -1c-1 -6 -4 -16 -5 -21c-5 -16 -8 -32 -16 -51c0 -2 -1 -3 -2 -5c-2 -6 -4 -13 -6 -17c-2 -5 -22 -70 -23 -77l-6 -21l-9 -31c-5 -13 -8 -18 -16 -16c-5 1 -21 -1 -15 17l27 83c15 51 43 139 43 139s-62 3 -105 1c-53 -3 -72 0 -97 -1l-5 -20l-4 -14
c-6 -21 -16 -50 -21 -62c-1 -5 -12 -43 -16 -51c-3 -8 -5 -15 -7 -23l-7 -22l-9 -31c-5 -13 -12 -16 -18 -16c-5 0 -16 1 -11 19l26 79c7 26 17 52 24 77l19 64h-84c-23 0 -30 -2 -28 12s8 14 23 13h82c5 0 8 1 15 1c15 38 23 69 34 105l28 85l-36 2c-15 0 -30 -1 -40 -1
c-33 1 -35 1 -32 15c3 10 10 11 20 11h42c22 1 27 -1 53 -1l20 62c3 10 8 22 10 33l11 39l34 102c6 15 7 19 17 17c8 0 15 -2 10 -16l-22 -68l-7 -22c0 -2 -2 -5 -2 -7l-3 -9l-9 -30c-3 -14 -8 -29 -12 -44l-18 -58s60 2 97 1c23 -1 58 0 75 -1c12 -1 28 2 28 2l20 61l13 43
c0 3 4 13 5 16l3 10l9 31c10 28 20 60 24 73c5 14 7 19 18 18c9 0 13 -2 7 -18c0 0 -1 -20 -31 -107zM232 452l-12 -39l-13 -33l-16 -59l-8 -20c-4 -15 -6 -24 -11 -39h39s57 -3 73 -1c27 3 89 0 89 0c10 34 32 100 40 132c8 31 7 28 19 60c0 0 -7 -1 -35 -1
c-10 0 -75 2 -85 2c-19 0 -32 -3 -52 -2c-8 0 -13 -1 -28 0z" />
    <glyph glyph-name="divide" unicode="&#xf7;" horiz-adv-x="470" 
d="M244 509c13 0 23 -11 24 -25c2 -16 -15 -34 -25 -38c-15 -4 -23 -1 -31 10c-11 20 0 47 23 52c2 1 5 1 9 1zM243 123c13 0 23 -10 24 -24c2 -17 -15 -35 -25 -39c-14 -4 -23 -1 -31 10c-11 21 0 48 23 52c2 1 5 1 9 1zM88 288c-38 -1 -40 4 -38 16s12 10 27 10
c42 0 22 1 56 0c31 -1 46 -1 76 -2h87c4 0 40 -2 43 -2l40 2c29 1 41 4 41 -13c0 -13 -12 -11 -37 -12c-13 -1 -21 -2 -32 -2c-13 0 -15 0 -28 1s-32 1 -52 1c-26 0 -12 1 -39 0c-6 0 -13 -1 -19 -1h-30c-52 0 -95 2 -95 2z" />
    <glyph glyph-name="backslash" unicode="\" horiz-adv-x="381" 
d="M58 743c0 0 -10 24 0 30c2 2 3 2 9 2c11 1 10 -3 15 -16c3 -11 5 -20 8 -28c3 -6 6 -16 8 -23l28 -92l3 -10l11 -36l5 -20c3 -12 6 -27 10 -37l6 -23c29 -90 59 -184 85 -273c10 -33 28 -89 43 -136l32 -97c5 -17 -4 -24 -9 -25c-8 -2 -14 3 -19 16l-8 27l-4 12l-5 17
l-2 7v-1l-5 22l-5 15l-24 70l-14 42c-1 5 -3 10 -5 15c-11 35 -21 70 -30 104l-25 79c-2 8 -5 16 -8 24l-12 40c-13 41 -27 87 -35 117c-4 12 -7 25 -10 38s-17 61 -21 75l-4 11l-6 15c-5 14 -9 27 -12 39z" />
    <glyph glyph-name="underscore" unicode="_" horiz-adv-x="724" 
d="M97 -88c-40 -1 -48 0 -45 14c2 9 12 12 26 13c17 0 38 1 63 1c21 0 44 1 68 1c10 0 21 -2 32 -2c60 1 122 -2 167 -2c29 0 51 2 61 2c32 0 66 0 96 -1h9c4 0 7 -1 10 -1h46c25 0 38 0 38 -16c0 -9 -11 -10 -30 -10h-17c-13 -1 -36 -1 -47 -1c-10 0 -27 0 -38 1
c-19 1 -61 0 -96 0l-132 1c-11 0 -22 -1 -31 -1l-92 4c-52 0 -88 -3 -88 -3z" />
    <glyph glyph-name="quotedblright" unicode="&#x201d;" horiz-adv-x="322" 
d="M121 685c5 10 14 24 20 41c10 21 10 25 25 24c11 -1 9 -11 2 -26l-7 -15c-1 -3 -7 -16 -9 -19c-8 -17 -13 -28 -23 -54c-2 -7 -7 -13 -13 -26l-6 -13l-17 -38c-7 -11 -31 -6 -26 5c5 12 10 26 17 40c3 6 11 25 14 30c7 13 9 20 9 20s10 21 14 31zM248 685
c5 10 14 24 20 41c10 21 10 25 25 24c11 -1 9 -11 2 -26l-7 -15c-1 -3 -7 -16 -9 -19c-8 -17 -13 -28 -23 -54c-2 -7 -7 -13 -13 -26l-6 -13l-17 -38c-7 -11 -31 -6 -26 5c5 12 10 26 17 40c3 6 11 25 14 30c7 13 9 20 9 20s10 21 14 31z" />
    <glyph glyph-name="quotedblleft" unicode="&#x201c;" horiz-adv-x="322" 
d="M81 614c-4 10 -14 31 -14 31s-2 7 -9 20c-3 5 -11 24 -14 30c-7 14 -12 28 -17 40c-5 11 19 16 26 5l17 -38l6 -13c6 -13 11 -19 13 -26c10 -26 15 -37 23 -54c2 -3 8 -16 9 -19l7 -15c7 -15 9 -25 -2 -26c-15 -1 -15 3 -25 24c-6 17 -15 31 -20 41zM208 614
c-4 10 -14 31 -14 31s-2 7 -9 20c-3 5 -11 24 -14 30c-7 14 -12 28 -17 40c-5 11 19 16 26 5l17 -38l6 -13c6 -13 11 -19 13 -26c10 -26 15 -37 23 -54c2 -3 8 -16 9 -19l7 -15c7 -15 9 -25 -2 -26c-15 -1 -15 3 -25 24c-6 17 -15 31 -20 41z" />
    <glyph glyph-name="quoteleft" unicode="&#x2018;" horiz-adv-x="211" 
d="M88 685c4 -10 14 -31 14 -31s2 -7 9 -20c3 -5 11 -24 14 -30c7 -14 12 -28 17 -40c5 -11 -19 -16 -26 -5l-17 38l-6 13c-6 13 -11 19 -13 26c-10 26 -15 37 -23 54c-2 3 -8 16 -9 19l-7 15c-7 15 -9 25 2 26c15 1 15 -3 25 -24c6 -17 15 -31 20 -41z" />
    <glyph glyph-name="quoteright" unicode="&#x2019;" horiz-adv-x="211" 
d="M121 685c5 10 14 24 20 41c10 21 10 25 25 24c11 -1 9 -11 2 -26l-7 -15c-1 -3 -7 -16 -9 -19c-8 -17 -13 -28 -23 -54c-2 -7 -7 -13 -13 -26l-6 -13l-17 -38c-7 -11 -31 -6 -26 5c5 12 10 26 17 40c3 6 11 25 14 30c7 13 9 20 9 20s10 21 14 31z" />
    <glyph glyph-name="sterling" unicode="&#xa3;" horiz-adv-x="594" 
d="M390 438h19c12 0 11 -29 -1 -29h-17c-7 -1 -12 -1 -39 0l-41 1c-8 0 -28 -1 -36 -1c-12 0 -25 -1 -38 0h-79h-9h-38c-7 0 -15 21 -2 27c3 1 12 2 16 2c22 0 14 0 43 -1c9 -1 17 -1 25 -1l-3 19s-6 44 -7 66c-1 9 -1 21 -1 29c0 81 14 133 64 172c4 4 15 11 19 15l3 2
c3 3 14 7 16 8c20 7 46 9 61 9c46 0 97 -18 127 -79c2 -4 6 -9 7 -13c1 -3 3 -10 5 -16c3 -10 6 -20 -5 -24c-13 -4 -15 7 -32 43c-17 35 -66 62 -99 62c-83 0 -124 -61 -130 -106c0 -2 -5 -35 -6 -37v-6c0 -17 -2 -38 -3 -48c-1 -6 1 -20 1 -25c-1 -7 4 -28 7 -42
c1 -5 4 -17 6 -28h8l13 1l34 -1c9 0 49 1 55 1h5c20 -2 37 -1 52 0z" />
    <glyph glyph-name="braceleft" unicode="{" horiz-adv-x="325" 
d="M102 354l12 -5c11 -3 35 -19 38 -22c25 -25 33 -62 33 -62c2 -15 2 -29 2 -38v-8c0 -20 -3 -36 -7 -52l-6 -35l-4 -14c-4 -12 -5 -33 -7 -48l-2 -19c-6 -72 71 -125 132 -147c34 -14 33 -18 29 -28c-4 -7 -12 -5 -12 -5c-17 1 -46 14 -53 19l-7 4
c-40 20 -115 61 -115 169c0 16 3 30 7 43c3 11 9 29 9 40c0 9 1 16 3 24c0 3 2 6 2 8c2 12 5 27 5 42v14c1 39 -6 68 -74 100c-15 4 -25 14 -25 20c0 7 20 18 20 18l32 14l12 9c22 15 36 50 36 117c0 11 -2 30 -6 48l-1 17c-5 22 -12 58 -12 79c0 41 15 83 59 124
c24 24 71 52 108 52c9 0 10 -1 10 -10c0 -5 -1 -14 -15 -15c-61 -16 -107 -62 -124 -98c-1 -3 -4 -10 -6 -14c-6 -14 -8 -22 -7 -34c2 -21 6 -47 10 -72c5 -31 9 -61 10 -81c1 -41 -9 -90 -27 -113c-11 -14 -31 -29 -59 -41z" />
    <glyph glyph-name="braceright" unicode="}" horiz-adv-x="325" 
d="M208 351l12 5c-28 12 -45 25 -56 39c-18 23 -27 72 -26 113c1 20 6 50 11 81c4 25 8 51 10 72c1 12 -1 20 -7 34c-2 4 -6 11 -7 14c-17 36 -64 82 -125 98c-14 1 -15 10 -15 15c0 9 1 10 10 10c37 0 84 -28 108 -52c44 -41 60 -83 60 -124c0 -21 -7 -57 -12 -79l-1 -17
c-4 -18 -6 -37 -6 -48c0 -67 13 -101 35 -116l12 -9l32 -15s20 -11 20 -18c0 -6 -10 -16 -25 -20c-68 -32 -75 -61 -74 -100v-14c0 -15 2 -30 4 -42c0 -2 2 -5 2 -8c2 -8 4 -15 4 -24c0 -11 6 -29 9 -40c4 -13 6 -27 6 -43c0 -108 -74 -149 -114 -169l-7 -4
c-7 -5 -36 -18 -53 -19c0 0 -8 -2 -12 5c-4 10 -5 14 29 28c61 22 138 75 132 147l-3 19c-2 15 -2 36 -6 48l-4 14l-5 35c-4 16 -7 32 -7 52v8c0 9 0 23 2 38c0 0 7 37 32 62c3 3 24 21 35 24z" />
    <glyph glyph-name="bracketleft" unicode="[" horiz-adv-x="222" 
d="M101 -75l-3 28c6 0 13 0 17 -1c1 0 3 -1 6 -1h37s19 0 27 -1c9 -1 15 -3 14 -14c-1 -9 -14 -10 -25 -10h-16c-4 0 -41 -1 -45 -1h-12zM110 776l-5 25h70c8 1 25 -1 27 -7c4 -13 -4 -15 -12 -16l-20 -1h-49c-4 0 -7 -1 -11 -1zM96 799c7 4 14 2 18 0c2 -1 4 -5 4 -9
c0 -11 0 -48 1 -62c-1 -5 -2 -53 -2 -57l1 -71c-1 -44 -2 -94 -1 -135c1 -7 1 -25 0 -69v-82c1 -19 1 -64 1 -84l-1 -56c0 -9 1 -17 1 -25c-1 -18 -2 -45 -1 -63c1 -23 0 -125 -1 -148c0 -6 -2 -10 -3 -11c-5 -3 -16 -3 -19 1s-3 7 -3 11l1 219c1 42 1 139 -1 181l1 47
c0 10 2 35 1 46v5l-2 49c1 23 0 48 0 73v5c-1 18 0 21 0 39c0 15 2 31 1 46c-1 18 0 37 0 56l1 24c0 10 -1 38 0 46v13c0 6 -1 9 3 11z" />
    <glyph glyph-name="bracketright" unicode="]" horiz-adv-x="222" 
d="M124 -48l-3 -28h-12c-4 0 -41 1 -45 1h-16c-11 0 -24 1 -25 10c-1 11 5 13 14 14c8 1 27 1 27 1h37c3 0 5 1 6 1c4 1 11 1 17 1zM117 801l-5 -25c-4 0 -7 1 -11 1h-49l-20 1c-8 1 -16 3 -12 16c2 6 19 8 27 7h70zM126 799c4 -2 3 -5 3 -11v-13c1 -8 0 -36 0 -46l1 -24
c0 -19 1 -38 0 -56c-1 -15 1 -31 1 -46c0 -18 1 -21 0 -39v-5c0 -25 -1 -50 0 -73l-2 -69v-5c-1 -11 1 -36 1 -46l1 -27c-2 -42 -2 -140 -1 -182l1 -219c0 -4 0 -7 -3 -11s-14 -4 -19 -1c-1 1 -3 5 -3 11c-1 23 -2 125 -1 148c1 18 0 45 -1 63c0 8 1 16 1 25l-1 56
c0 20 0 45 1 64v83c-1 44 -1 82 0 89c1 41 0 91 -1 135l1 71c0 4 -1 52 -2 57c1 14 1 51 1 62c0 4 2 8 4 9c4 2 11 4 18 0z" />
    <glyph glyph-name="quotedbl" unicode="&#x22;" horiz-adv-x="322" 
d="M195 706l25 -54s24 -51 37 -79c7 -16 -8 -40 -21 -18l-39 79c-11 21 -26 55 -34 73l-4 11c-5 16 -7 26 1 32c8 9 18 -8 35 -44zM65 706l25 -54s24 -51 37 -79c7 -16 -8 -40 -21 -18l-39 79c-11 21 -26 55 -34 73l-4 11c-5 16 -7 26 1 32c8 9 18 -8 35 -44z" />
    <glyph glyph-name="guilsinglleft" unicode="&#x2039;" horiz-adv-x="437" 
d="M290 486l-23 -19l-34 -24c-12 -8 -24 -16 -34 -24l-46 -41l-60 -41l27 -20s12 -8 22 -16c25 -18 45 -34 45 -34l20 -14c1 -1 1 -1 32 -21l43 -34l4 -2c4 -1 11 -7 16 -12l9 -5l12 -10c6 -6 6 -13 3 -17c-7 -9 -12 -5 -19 -1l-6 4l-13 8l-52 36l-11 8l-28 20
c-19 11 -59 43 -59 43l-38 26c-5 3 -6 5 -11 8c-6 5 -28 18 -28 32c0 9 11 21 23 28l24 18l38 27c27 26 121 91 121 91l9 8c6 5 19 16 25 20c14 7 19 11 27 -2c4 -6 -7 -17 -12 -20l-18 -13z" />
    <glyph glyph-name="guillemotleft" unicode="&#xab;" horiz-adv-x="583" 
d="M290 486l-23 -19l-34 -24c-12 -8 -24 -16 -34 -24l-46 -41l-60 -41l27 -20s12 -8 22 -16c25 -18 45 -34 45 -34l20 -14c1 -1 1 -1 32 -21l43 -34l4 -2c4 -1 11 -7 16 -12l9 -5l12 -10c6 -6 6 -13 3 -17c-7 -9 -12 -5 -19 -1l-6 4l-13 8l-52 36l-11 8l-28 20
c-19 11 -59 43 -59 43l-38 26c-5 3 -6 5 -11 8c-6 5 -28 18 -28 32c0 9 11 21 23 28l24 18l38 27c27 26 121 91 121 91l9 8c6 5 19 16 25 20c14 7 19 11 27 -2c4 -6 -7 -17 -12 -20l-18 -13zM417 213l23 -19l8 -7l18 -13c5 -3 16 -14 12 -20c-8 -13 -13 -9 -27 -2
c-6 4 -19 15 -25 20l-9 8s-94 65 -121 91l-38 27l-24 18c-12 7 -23 19 -23 28c0 14 22 27 28 32c5 3 6 5 11 8l38 26s40 32 59 43l28 20l11 8l52 36l13 8l6 4c7 4 12 8 19 -1c3 -4 3 -11 -3 -17l-12 -10l-9 -5c-5 -5 -12 -11 -16 -12l-4 -2l-43 -34c-31 -20 -31 -20 -32 -21
l-20 -14s-20 -16 -45 -34c-10 -8 -22 -16 -22 -16l-27 -20l60 -41l46 -41c10 -8 22 -16 34 -24z" />
    <glyph glyph-name="guilsinglright" unicode="&#x203a;" horiz-adv-x="430" 
d="M126 467l-23 19l-8 7l-18 13c-5 3 -16 14 -12 20c8 13 13 9 27 2c6 -4 19 -15 25 -20l9 -8s94 -65 121 -91l38 -27l24 -18c12 -7 23 -19 23 -28c0 -14 -22 -27 -28 -32c-5 -3 -6 -5 -11 -8l-38 -26s-40 -32 -59 -43l-28 -20l-11 -8l-52 -36l-13 -8l-6 -4
c-7 -4 -12 -8 -19 1c-3 4 -3 11 3 17l12 10l9 5c5 5 12 11 16 12l4 2l43 34c31 20 31 20 32 21l20 14s21 16 46 34c10 8 22 16 22 16l27 20l-60 41l-47 41c-10 8 -22 16 -34 24z" />
    <glyph glyph-name="guillemotright" unicode="&#xbb;" horiz-adv-x="583" 
d="M254 196l23 19l34 24c12 8 24 16 34 24l46 41l60 41l-27 20s-12 8 -22 16c-25 18 -45 34 -45 34l-20 14c-1 1 -1 1 -32 21l-43 34l-4 2c-4 1 -11 7 -16 12l-9 5l-12 10c-6 6 -6 13 -3 17c7 9 12 5 19 1l6 -4l13 -8l52 -36l11 -8l28 -20c19 -11 59 -43 59 -43l38 -26
c5 -3 6 -5 11 -8c6 -5 28 -18 28 -32c0 -9 -11 -21 -23 -28l-24 -18l-38 -27c-27 -26 -121 -91 -121 -91l-9 -8c-6 -5 -19 -16 -25 -20c-14 -7 -19 -11 -27 2c-4 6 7 17 12 20l18 13zM126 467l-23 19l-8 7l-18 13c-5 3 -16 14 -12 20c8 13 13 9 27 2c6 -4 19 -15 25 -20
l9 -8s94 -65 121 -91l38 -27l24 -18c12 -7 23 -19 23 -28c0 -14 -22 -27 -28 -32c-5 -3 -6 -5 -11 -8l-38 -26s-40 -32 -59 -43l-28 -20l-11 -8l-52 -36l-13 -8l-6 -4c-7 -4 -12 -8 -19 1c-3 4 -3 13 3 19l26 20l9 7c5 5 10 7 14 9l9 5l26 20c31 20 31 20 32 21l20 14
s20 16 45 34c10 8 22 16 22 16l27 20l-60 41l-46 41c-10 8 -22 16 -34 24z" />
    <glyph glyph-name="multiply" unicode="&#xd7;" horiz-adv-x="485" 
d="M349 438c6 7 9 9 19 0c10 -8 0 -15 -3 -17c-6 -5 -40 -41 -42 -44l-9 -9c-6 -4 -10 -8 -13 -12c-15 -14 -12 -13 -22 -23c-13 -13 -7 -8 -20 -21l-8 -7c5 -5 13 -12 21 -20c4 -4 7 -9 11 -13c17 -17 21 -20 30 -28c0 0 14 -19 25 -29c9 -7 18 -17 18 -17
c11 -12 12 -18 8 -23c-10 -15 -14 -7 -22 1c0 0 -13 15 -25 25c-9 8 -25 27 -25 27l-11 11l-14 13l-13 12l-22 22l-20 -20c-20 -20 -32 -33 -58 -57l-34 -35c-3 -3 -10 -15 -22 -3c-10 10 0 18 7 25l17 17l17 17c5 5 19 18 25 24c9 8 14 16 23 24c12 10 27 27 27 27l-21 22
c-22 21 -31 32 -49 47c-10 9 -32 35 -32 35c-14 14 -17 16 -9 24c9 9 13 7 24 -5l17 -17c35 -32 54 -54 54 -54l18 -18l16 -16l33 35c16 14 34 31 53 53c16 18 31 27 31 27z" />
    <glyph glyph-name="A" unicode="A" 
d="M575 36l3 -10l6 -18c3 -11 -19 -8 -19 -8c-7 1 -17 23 -21 35l-2 5l-3 7c-2 7 -5 15 -7 19c-5 8 -8 23 -11 33l-10 22l-10 26c-2 10 -6 23 -10 31c-6 15 -12 32 -17 55l-5 18l-2 7c-2 6 -5 16 -8 22l-10 30c-1 1 -3 6 -3 8l-52 -1c-15 0 -31 1 -47 1c-22 -3 -60 1 -60 1
c-42 0 -80 -3 -108 0l-12 -26c-1 -4 -4 -10 -5 -13l-11 -28l-23 -56l-19 -38l-9 -25l-26 -63l-4 -8l-4 -7l-24 -50c-12 -20 -34 -7 -30 5c1 2 1 3 1 4l4 8l4 7l24 47l9 21c8 19 18 43 25 62l32 75l7 17c6 15 13 29 18 42c0 0 4 10 5 13l7 22l27 69l32 73l12 37l4 13l45 122
c10 29 22 64 27 80c5 17 12 29 25 29c7 0 8 -3 11 -7l2 -4c4 -9 11 -25 20 -56l28 -78l15 -39c4 -9 7 -22 9 -30l2 -6l6 -20l10 -32c3 -11 7 -22 11 -33l12 -33l15 -43l26 -84l15 -46c3 -14 10 -34 17 -52c0 -2 3 -8 4 -10c6 -14 12 -30 15 -40zM354 598
c-4 20 -11 39 -20 60l-9 22l-7 26c-4 -14 -11 -31 -15 -45c-14 -45 -31 -93 -42 -125c-2 -6 -7 -19 -7 -19l-26 -73c-10 -23 -16 -32 -21 -48c-2 -4 -5 -12 -5 -14l-4 -11c-4 -9 -9 -18 -12 -26h16c4 0 58 -1 62 -1l49 1c34 -1 53 -2 71 -2c15 0 31 2 54 3l-20 56l-4 17
l-4 12c-10 37 -29 93 -42 127l-4 11c-4 10 -7 19 -10 29z" />
    <glyph glyph-name="B" unicode="B" horiz-adv-x="648" 
d="M202 0c-9 0 -12 8 -12 19v218c-1 18 -1 48 -1 64c0 40 0 76 2 122v9l1 49c-2 30 -2 73 -2 101v67c0 4 1 8 1 12c1 10 1 21 1 34c0 10 -1 25 0 34c1 17 4 25 16 25h45c49 0 103 -10 140 -21l13 -3c82 -23 152 -116 152 -174c0 -82 -58 -136 -162 -163l-39 -9
c5 -1 10 -1 13 -1l82 -18c28 -8 53 -19 73 -35c12 -10 23 -18 32 -30c3 -4 6 -11 8 -15c15 -26 23 -57 23 -93c0 -48 -17 -88 -35 -111c-10 -13 -25 -23 -38 -32c-6 -4 -32 -20 -47 -25c-70 -23 -159 -25 -228 -25c-4 0 -8 1 -11 1h-27zM263 28c4 0 8 -1 11 -1h37
c14 0 30 1 67 5c11 1 33 4 57 11c14 4 30 13 44 17c23 7 59 39 73 75c5 14 4 26 7 47c6 41 -10 77 -29 101c-5 6 -11 9 -17 15c-23 21 -52 34 -87 48c-52 11 -102 18 -102 18h-15c-11 1 -21 2 -30 2c-18 0 -25 0 -32 -1h-8c-4 0 -9 -1 -19 -1c-3 -15 -4 -33 -4 -46
c0 -15 1 -30 2 -45s2 -31 2 -47c0 -10 -1 -21 -1 -31v-29c-1 -21 -1 -42 -1 -62c0 -25 1 -52 2 -75c2 0 3 -1 6 -1h37zM524 573c-5 31 -31 73 -75 107c-62 35 -161 47 -227 49c-3 -18 -3 -40 -3 -60c0 -34 0 -70 1 -105c0 -17 1 -35 1 -51v-48c0 -25 -1 -50 -2 -72h11
c6 0 11 0 17 1c8 1 17 2 32 2h5c7 0 16 1 25 3c7 2 20 4 26 4c28 7 52 15 73 23c0 0 15 4 21 7l22 11c20 11 47 33 55 45c6 9 21 46 21 65c0 7 -2 13 -3 19z" />
    <glyph glyph-name="C" unicode="C" horiz-adv-x="636" 
d="M182 61c-11 9 -16 16 -16 35c2 68 2 135 1 156c-2 49 -1 88 0 129v49c0 3 -1 114 -1 117l1 39l-1 33l1 22c0 9 4 21 13 29c17 15 37 30 37 30c4 3 11 5 14 8c6 5 14 9 14 9c9 7 26 14 42 20c12 4 26 7 40 9l17 3l12 2c6 1 18 2 28 3c15 0 34 -1 49 -3c0 0 18 -2 38 -9
c8 -3 35 -13 31 -12c0 0 18 -8 28 -15c6 -3 13 -7 15 -8c8 -5 12 -16 9 -23c-4 -9 -13 -9 -14 -7l-12 7l-10 6l-7 4c-4 1 -10 5 -13 7l-11 6l-29 10l-18 4c-7 0 -13 1 -21 2l-10 1h-29h-14l-18 -3c-15 -2 -39 0 -67 -21c-25 -11 -51 -28 -76 -47c-6 -5 -9 -10 -9 -18
c-2 -41 -3 -96 -3 -125c0 -13 -1 -31 0 -45c1 -30 2 -73 3 -108c0 -42 0 -84 -1 -127l1 -34c0 -14 -1 -26 -1 -36c-1 -26 0 -39 0 -59c0 -12 0 -13 7 -18c0 0 6 -9 46 -28l27 -9l24 -10c27 -8 64 -13 84 -11c23 2 47 1 76 9c18 2 45 14 59 27l5 3c24 18 31 27 37 33
s15 13 22 4c9 -12 -1 -23 -19 -40c-15 -15 -48 -41 -83 -51c-33 -9 -70 -15 -112 -13c-33 1 -92 10 -130 30c-14 8 -24 13 -31 18c-11 7 -14 7 -25 16z" />
    <glyph glyph-name="D" unicode="D" horiz-adv-x="696" 
d="M225 0h-17c-9 0 -17 4 -17 16v21c0 8 1 17 1 25v78c0 16 1 33 1 50v51c0 18 -1 35 -1 52c0 19 -1 38 -1 55v185c1 19 0 37 0 56v73l-2 62v7c0 13 8 19 18 19h13c35 0 45 -1 62 -4l16 -2c5 -1 13 -3 17 -3c97 -13 167 -43 221 -98c13 -14 25 -29 34 -41c0 -1 9 -15 10 -15
c19 -28 34 -55 41 -98l4 -24l3 -11c2 -6 3 -21 3 -29l3 -34c0 -20 -1 -41 -4 -64c-2 -12 -2 -20 -2 -27c-1 -11 -2 -21 -6 -37c-1 -8 -6 -18 -11 -27l-4 -8l-8 -17l-5 -7l-9 -19l-5 -10l-4 -7c-4 -8 -8 -17 -15 -25c-10 -12 -28 -29 -42 -41l-10 -8
c-50 -36 -118 -77 -192 -88c-30 -4 -61 -6 -92 -6zM604 401c1 15 -3 31 -8 52l-4 16c-5 20 -12 45 -19 63c-11 22 -36 64 -55 87c-31 39 -71 54 -118 72c-66 21 -100 26 -168 29h-12v-54c0 -15 -1 -29 0 -43c1 -8 0 -30 -1 -44c0 -2 -1 -6 -1 -8c-1 -20 -2 -49 -2 -67
c0 -5 1 -19 2 -27c1 -5 2 -15 2 -18v-99c0 -42 0 -85 -1 -128c-1 -26 0 -57 1 -87c1 -19 1 -48 1 -62l-2 -56c27 1 73 5 73 5c20 3 35 6 51 10c33 12 78 31 111 54c9 2 64 40 87 79c0 0 10 18 16 28c12 17 23 37 27 48c16 40 18 91 20 150z" />
    <glyph glyph-name="E" unicode="E" horiz-adv-x="604" 
d="M192 642l1 55c0 4 -1 2 -1 35c0 11 4 19 17 19l42 -1c3 0 56 -1 59 -1c0 0 45 -1 60 0c26 2 114 0 114 0h16c16 1 20 1 31 0c9 -1 13 -7 13 -15c0 -11 -17 -11 -19 -11h-16l-34 -1c-19 1 -29 -1 -42 -1h-11c-3 0 -18 2 -20 2c-9 -1 -28 -1 -31 -1h-36
c-22 3 -81 -1 -100 -1c-5 0 -9 0 -14 -1v-35c0 -7 -3 -23 0 -50c0 0 -1 -27 -1 -49c0 -3 1 -6 1 -9c1 -10 1 -62 1 -71c0 -3 -1 -6 -1 -9v-23c-1 -4 0 -42 0 -55c11 -1 38 0 49 0c18 -1 36 -2 53 -2c22 0 52 1 54 1c16 1 59 -1 59 -1c2 0 6 0 7 -1c9 -4 8 -21 2 -23
s-10 -1 -18 -1h-23c-9 0 -37 1 -47 0c-15 -2 -35 -1 -47 -1c-20 0 -32 -1 -51 0h-37l-1 -49v-95c0 -27 -2 -56 0 -79v-15c0 -2 1 -4 0 -6c1 -12 2 -33 2 -43l-1 -18c0 -21 0 -32 1 -51c0 -5 2 -6 8 -6l36 -2c13 1 39 0 52 0c35 0 73 -1 73 -1c48 4 122 0 122 0
c9 0 14 0 16 -2c6 -6 8 -21 -3 -24h-58c-22 0 -44 0 -54 -1c-3 0 -16 0 -24 1c-17 1 -46 2 -59 2c-11 0 -22 -1 -29 -2h-86c-14 0 -22 6 -22 21v28v36v43l-1 28v30l-2 155l1 65v25l-1 61c1 22 1 38 1 57c0 14 1 28 0 44z" />
    <glyph glyph-name="F" unicode="F" horiz-adv-x="571" 
d="M223 22v-14c-1 -12 -28 -10 -28 -2v58l-1 36c-1 13 -1 36 -1 49c0 10 0 26 1 35c0 16 0 60 -1 68c0 0 1 24 -1 51c-2 34 0 89 0 97c0 0 2 80 0 126c0 1 0 79 -1 111c-1 37 -1 59 -1 69v22c0 16 8 22 20 22c6 0 12 -1 19 -1h54c4 0 8 -1 12 -1h45c16 1 36 2 52 2
c8 0 16 -1 25 -1l26 1l9 -1h29h19c13 0 27 0 33 -1c9 -2 12 -25 -2 -25h-17c-2 0 -3 -1 -47 0l-14 -1c-5 0 -10 1 -14 1c-19 1 -38 0 -56 0c-12 0 -24 0 -39 -1c-3 0 -7 -1 -10 -1c-16 -2 -44 -1 -59 0c-6 1 -40 1 -53 1c0 -15 0 -54 -1 -62c-1 -16 -1 -32 -1 -47
c0 -11 0 -22 1 -33c1 -18 2 -35 2 -54v-18c0 -7 -1 -13 -1 -20v-24c0 -15 -1 -29 0 -44h29c17 0 23 0 35 1l26 -2c7 0 16 2 24 2s17 -1 25 -1h23c7 0 14 -1 20 -1c16 1 24 1 27 0c8 -4 7 -22 0 -25c-2 -1 -37 0 -39 0c0 0 -20 -3 -42 -1c-34 3 -52 0 -72 0
c-19 0 -39 -1 -56 0c-3 -16 -1 -36 -1 -56c0 -4 -1 -9 -1 -13v-74c0 -4 1 -9 1 -13c0 -19 1 -20 1 -24v-65c1 -11 1 -29 1 -38v-88z" />
    <glyph glyph-name="G" unicode="G" horiz-adv-x="675" 
d="M564 321l-1 43c0 6 0 12 1 17c2 11 25 13 26 0c0 -1 1 -3 1 -6l2 -32c0 -29 -1 -44 0 -74l2 -66c0 -13 -2 -87 -2 -104v-17c0 -12 -1 -20 -10 -26l-9 -6l-9 -5c-34 -20 -76 -49 -163 -48c-11 0 -21 -1 -33 0c-33 1 -87 13 -126 30c-15 7 -23 13 -31 17s-14 6 -33 19
c-8 6 -13 13 -13 32v20c1 34 2 66 1 117c-1 28 0 90 1 124v34c-1 49 0 52 0 72v36v59v29v48c1 23 0 28 16 41l34 25c4 3 11 6 14 9l14 9c9 7 26 13 42 19c12 4 26 7 40 9l17 3l12 2c6 1 18 2 25 2c0 0 10 0 12 1c50 -1 92 -17 129 -34l30 -14l6 -4s9 -6 15 -12
c5 -5 7 -9 6 -18c-1 -12 -21 -2 -35 7l-27 13l-6 3c-12 7 -37 14 -55 18c-18 7 -36 8 -56 9l-26 1l-22 -1c-21 0 -50 -8 -71 -22c-25 -11 -50 -27 -75 -46c-6 -4 -9 -6 -9 -14c-2 -41 -4 -100 -4 -129c0 -13 0 -31 1 -45l2 -109c0 -42 -1 -85 -2 -128l1 -34
c0 -14 -1 -26 -1 -36c-1 -26 -1 -39 -1 -59c0 -10 1 -12 10 -18c0 0 12 -10 52 -29l44 -13l9 -3c20 -6 38 -10 54 -11h28h11c48 0 84 12 100 20l11 3c22 11 43 23 45 29c7 6 6 6 7 16l1 60s-1 9 -1 19c1 26 1 36 -1 84c-1 28 0 64 0 64z" />
    <glyph glyph-name="H" unicode="H" horiz-adv-x="703" 
d="M192 684c0 9 1 18 1 24v6c0 11 1 18 1 23v7c0 11 23 8 26 -1c1 -2 1 -6 1 -11v-5c0 -3 1 -7 1 -11v-11c-1 -23 -1 -24 -1 -44v-17c-1 -32 -2 -63 -2 -96c0 -31 0 -57 1 -90v-37c0 -5 1 -10 1 -17c26 -2 9 -2 35 -2c23 0 47 1 69 0c19 -1 38 -2 56 -2c25 0 99 0 124 1
c21 1 57 1 78 1v46c0 15 -1 30 0 43c0 16 1 27 1 38c0 6 1 11 1 16c0 13 1 25 0 43l-1 40l1 30c0 5 -1 24 -1 29c0 23 1 42 1 42c0 5 0 13 3 17c5 8 17 3 20 1c2 -1 4 -13 4 -22c0 -5 2 -41 0 -80c-1 -35 2 -54 0 -97c-1 -12 0 -23 0 -32l-1 -51v-16v-35c0 -18 -1 -17 1 -47
c1 -13 1 -35 1 -51l-1 -38c2 -66 1 -105 1 -105c0 -32 -1 -66 0 -95l2 -50s1 -22 -4 -25c-7 -4 -19 -4 -21 2c-3 7 -3 13 -3 22v21c0 2 -1 9 -1 12c0 15 -1 27 -1 33c0 5 -1 18 -1 28l1 64v83c0 19 -1 39 -2 59v47c-22 0 -80 0 -92 -1c-19 -1 -40 -2 -56 -2l-36 1
c-4 0 -17 1 -21 1h-27h-11h-49c-18 0 -50 0 -69 2c-1 -11 -1 -27 -1 -37c0 -12 0 -23 1 -32v-19c0 -32 -2 -51 -1 -97v-106c0 -17 0 -44 -1 -59v-8c0 -9 0 -11 -3 -15c-4 -6 -23 -4 -23 3v53c0 31 0 64 -2 93l1 37v31l1 86v51v56c-1 6 -1 17 -1 21v21c0 3 -1 6 -1 10v30
c-1 9 -1 24 -1 31c0 5 0 20 1 29v130z" />
    <glyph glyph-name="I" unicode="I" horiz-adv-x="309" 
d="M196 749c4 5 18 3 21 0s4 -11 4 -15v-58c-1 -5 -1 -53 -1 -57l1 -71c-1 -22 -2 -36 -2 -52s0 -31 1 -51c1 -7 1 -20 1 -37v-94c1 -18 1 -48 1 -64l-1 -56c0 -3 1 -5 1 -23c-1 -18 -2 -45 -1 -63c1 -19 0 -68 -1 -94c0 -5 0 -11 -3 -13c-5 -3 -19 -3 -23 1
c-3 4 -3 7 -3 13l1 163v27c0 12 1 25 1 38c0 35 -1 71 -2 96l1 27v6c0 3 1 6 1 9c1 11 1 24 0 31v5l-2 49v70c0 3 2 30 2 33l-1 84l1 24v52c0 6 0 17 3 20z" />
    <glyph glyph-name="J" unicode="J" horiz-adv-x="446" 
d="M203 21c-12 -10 -19 -15 -34 -18c-1 0 -2 -1 -3 -1c-14 -4 -37 -7 -52 -5c-19 2 -53 11 -68 28c-9 10 -21 21 -26 35c-5 11 -13 36 -14 47l-1 10c0 3 1 9 1 12c4 8 16 7 21 1c2 -3 4 -10 4 -19c0 -3 4 -15 7 -26c4 -13 9 -21 15 -28c6 -8 11 -16 19 -20s26 -13 33 -14
c14 -2 35 -1 42 1c18 5 30 5 48 27c9 11 21 48 21 48s0 1 2 13c2 10 3 19 4 31l1 24c0 8 0 26 1 37v12l1 17v13c1 22 1 45 1 71c0 19 0 39 -1 59v53v99c-2 15 0 43 1 57c0 13 0 47 -1 51c-1 14 -1 14 -1 28l1 71c0 8 2 13 8 15c5 1 14 2 18 -4c2 -3 2 -9 2 -12l-1 -58
l-1 -76c0 -2 1 -30 1 -34l-1 -84c0 -10 2 -20 2 -43l-1 -82c0 -2 1 -4 1 -70c1 -18 0 -31 0 -40v-17c-1 -11 -1 -35 -2 -47l-1 -14c0 -5 -1 -10 -1 -15c0 -9 -1 -21 -2 -30c-1 -14 -7 -42 -16 -63c-11 -23 -28 -40 -28 -40z" />
    <glyph glyph-name="K" unicode="K" horiz-adv-x="627" 
d="M223 454v-48l15 15c8 8 23 23 40 37l27 26l14 17l20 20l10 10l24 23c12 12 23 24 32 36l34 35l13 13l22 23l12 16l18 17l11 13l16 17l14 14c10 10 11 13 27 12c7 0 13 -8 4 -18c-18 -17 -37 -42 -44 -49l-41 -42c-27 -33 -24 -30 -50 -57c0 0 -26 -23 -43 -45
c-19 -23 -41 -41 -69 -68c-5 -5 -33 -36 -37 -39c-1 -1 -5 -4 -5 -4l-21 -19c-12 -10 -21 -23 -21 -23c0 -1 4 -5 9 -9c13 -15 28 -28 40 -40c5 -5 26 -27 26 -27l14 -13l19 -22c37 -35 66 -62 80 -78l15 -16l27 -31l27 -25l33 -33c22 -25 46 -50 66 -70
c17 -22 -12 -28 -22 -16c0 0 -7 3 -24 21l-24 27c-8 10 -19 21 -33 35l-17 15c-13 14 -28 30 -47 49l-19 18l-26 30l-49 50l-16 14l-14 14c-1 2 -16 19 -20 23l-32 29l-20 22l-4 4c-2 3 -6 5 -11 10l-1 -59c0 -2 1 -8 1 -22c0 -51 0 -97 -1 -140c-1 -40 -1 -93 -1 -136
c0 -7 -4 -10 -15 -11c-8 -1 -14 2 -14 11c1 125 2 126 2 128v26c1 10 0 18 0 35c0 30 1 32 1 34l-1 33c-1 20 1 90 0 114l-1 28c-1 13 -1 41 0 53c0 6 1 19 1 24v37c0 3 0 13 1 20v172c0 1 -1 5 -1 14c0 15 0 22 14 22c12 0 13 -10 14 -20c1 -9 1 -22 1 -30l-1 -60
c-1 -29 0 -32 0 -35c0 -7 0 -26 1 -32v-90v-4c-1 -8 0 -14 0 -25z" />
    <glyph glyph-name="L" unicode="L" horiz-adv-x="556" 
d="M301 0c0 0 -40 -1 -85 0c-11 0 -21 3 -22 18c-2 61 -3 148 -3 205l1 49c0 3 1 5 1 7v40c-2 107 0 177 0 177v84c0 5 -1 31 1 53c-3 39 -2 61 -2 100v9c0 12 26 10 27 4c1 -4 2 -9 2 -14c0 0 -1 -22 0 -98c-1 -18 -1 -67 -1 -85v-31c0 -2 1 -44 1 -46l-1 -47l1 -74
c0 -11 1 -23 0 -35v-46c0 -2 -1 -4 -1 -33c-1 -15 -1 -30 -1 -44c0 -12 0 -29 1 -41v-60v-15l1 -38c0 -8 0 -13 7 -12c6 0 40 0 47 1l19 -1h23h7c10 -1 101 -3 108 -2c11 1 84 -1 84 -1c7 0 12 -8 9 -15c-2 -5 -6 -9 -10 -9c-5 0 -21 -2 -27 -1l-37 1c-44 -1 -36 -4 -82 0
c-11 1 -68 0 -68 0z" />
    <glyph glyph-name="M" unicode="M" horiz-adv-x="886" 
d="M693 114l1 -33c1 -13 1 -35 1 -46c1 -11 0 -20 -1 -27c-1 -13 -27 -11 -27 0v8v7c0 8 -1 16 -1 23l-1 59v11c-1 22 -1 59 -1 76v32l2 98c-1 10 -2 27 -2 36l2 32c-1 26 -1 54 1 80c1 8 -2 49 -1 66c1 13 1 41 1 59v8c0 3 1 38 1 41c1 10 2 25 1 37l-7 -13
c-7 -13 -13 -26 -20 -36c-4 -7 -7 -13 -10 -16c0 0 -12 -18 -28 -40c-4 -6 -14 -26 -18 -32c-11 -17 -11 -20 -20 -30c-33 -56 -55 -80 -69 -104c-5 -7 -36 -52 -43 -52c-6 -2 -10 3 -10 3c-21 29 -46 61 -64 90l-29 42l-20 35l-10 15s-8 11 -21 31c-12 19 -17 28 -17 28
l-31 47c-15 22 -19 31 -44 70l-9 13l-3 4c-5 8 -8 14 0 16c6 1 17 0 25 -5c6 -6 7 -9 15 -20c0 0 17 -32 49 -75l25 -41l24 -36l14 -21c1 -1 12 -19 14 -21c2 -3 2 -5 4 -8l10 -16c4 -6 16 -26 26 -38c24 -33 29 -47 50 -74c0 0 12 17 29 42c11 16 50 71 50 71
c6 10 13 22 21 35c13 21 22 39 44 70c7 10 11 21 18 31l24 33l12 22l9 14c2 4 6 12 11 19c4 6 11 16 16 16c8 0 10 -6 10 -19v-9c-1 -3 -1 -21 -1 -44v-23c0 -9 -1 -18 -1 -27v-8c0 -3 -1 -7 -1 -11v-18l2 -61c0 -23 0 -86 -1 -93c0 -2 -1 -4 -1 -37c0 -11 0 -22 1 -36v-12
c2 -11 1 -39 0 -50v-89c0 -30 -1 -53 -1 -80v-19z" />
    <glyph glyph-name="N" unicode="N" horiz-adv-x="655" 
d="M566 347v-133v-4c0 -13 2 -45 -8 -45s-14 8 -20 15l-6 9l-27 41l-22 37c-5 6 -11 18 -17 28l-7 12c-4 8 -16 24 -25 37c-19 28 -36 56 -57 90l-10 17l-8 13l-34 56l-15 26l-7 12c-5 9 -11 19 -21 34l-28 44l-20 36l-22 39l-11 20c-7 13 -6 19 4 20c11 1 19 -5 22 -9
l13 -22l28 -46l9 -18c30 -55 64 -108 92 -152c12 -16 23 -34 39 -60c1 -1 3 -3 14 -23l20 -32c6 -10 12 -20 18 -28c5 -8 10 -16 14 -21c6 -8 11 -23 32 -56l8 -12l11 -22l14 -26c-1 9 1 78 1 84l-2 66c-3 45 1 63 0 89c-1 67 4 157 1 222c-1 21 0 13 0 36v21
c0 17 27 9 27 2v-14c0 -2 3 -64 1 -96c-1 -15 0 -63 0 -63c0 -8 -2 -36 -1 -39c0 0 3 -47 0 -82v-96v-7z" />
    <glyph glyph-name="O" unicode="O" horiz-adv-x="678" 
d="M261 6c-35 11 -55 17 -80 38c-7 6 -10 15 -10 27l-1 48c0 23 -2 34 0 73c0 -2 1 36 0 67v18c0 0 -1 26 -1 33c0 0 2 22 0 78c-1 49 -3 78 0 119c1 17 -1 58 0 87c0 9 -1 18 -1 27c0 22 1 41 0 60c0 14 7 22 14 27c28 20 74 44 129 47c14 1 41 0 55 -2
c26 -3 55 -14 80 -22c35 -11 63 -32 74 -45c17 -19 27 -26 42 -49c3 -4 13 -24 16 -28c11 -15 19 -30 25 -62c4 -31 9 -85 7 -116c0 0 3 -59 2 -88v-44c0 -11 -1 -21 -2 -31c-1 -7 -1 -14 -1 -18c0 -16 -1 -32 -5 -49c-9 -36 -18 -67 -31 -89c-23 -36 -64 -77 -112 -97
c0 0 -25 -10 -56 -15c-25 -3 -60 -5 -61 -5s-23 0 -43 2c-22 1 -40 9 -40 9zM334 728c-16 0 -32 1 -49 -5c-11 -4 -15 -5 -42 -14c-17 -6 -22 -10 -36 -20c-8 -5 -12 -6 -11 -23c-1 -39 -2 -73 -1 -88c2 -45 0 -71 0 -71c0 -13 0 -31 1 -45c0 0 2 -61 1 -136
c0 -30 5 -50 1 -91c-2 -20 0 -74 -1 -86c-3 -29 1 -34 1 -47v-22c0 -14 -1 -14 9 -21c1 -1 7 -14 46 -23c31 -7 50 -14 79 -15c40 -2 76 4 107 17c8 3 22 11 29 13c30 10 47 34 67 57c9 12 17 32 25 53c11 29 19 41 21 74c0 0 4 46 2 102c1 23 2 46 2 69c-1 35 -2 38 -6 72
v6c0 1 -1 34 -1 36c-3 25 -11 52 -25 78c-10 21 -25 39 -42 55c-19 18 -40 34 -58 45c-1 0 -21 10 -23 10c-18 4 -40 19 -96 20z" />
    <glyph glyph-name="P" unicode="P" horiz-adv-x="628" 
d="M220 12v-5c0 -11 -25 -10 -26 -2c-2 21 -3 31 -2 48l-1 73v49c1 4 1 46 1 49l-1 59c0 25 1 35 1 60c-1 18 -2 38 -1 53v63v93c-1 27 1 30 1 61c1 6 -2 18 -1 25c1 9 0 44 0 44c-1 22 0 52 0 52c0 12 1 16 11 17l40 1h9h30c50 -1 80 -2 117 -8c29 -5 49 -17 70 -25
c28 -10 58 -50 77 -80c11 -17 21 -51 23 -76c3 -17 3 -39 -1 -54c0 -1 -5 -20 -5 -21c-1 -2 -1 -3 -1 -3c-9 -46 -23 -61 -50 -88c-28 -25 -42 -36 -82 -44c-10 -2 -44 -5 -54 -5c-11 0 -21 -1 -32 -1c-16 -1 -33 2 -50 -1c-7 -1 -22 2 -29 1c-12 -1 -18 -1 -44 -2
c-2 -12 -2 -22 -1 -32c-3 -32 0 -75 0 -75v-29c1 -7 1 -18 1 -29c0 -25 -1 -70 -1 -113c0 -35 1 -55 1 -55zM482 669c-13 13 -23 20 -51 31c-34 22 -100 24 -136 23h-14c-23 1 -44 1 -64 0c2 -33 -2 -31 1 -76c1 -10 0 -24 1 -34c1 -17 1 -31 1 -46v-43c0 -8 0 -20 1 -31
c0 -11 0 -28 -2 -38c0 -5 -1 -13 -1 -18v-36c-1 -8 0 -18 1 -26l21 -2c13 0 26 2 37 2c17 0 32 1 48 -2c8 -1 23 1 38 2c35 2 72 7 92 17c22 11 31 23 37 29c11 11 15 17 25 31c8 12 9 20 11 25c8 19 13 39 14 61c0 16 -2 35 -7 53c-13 36 -24 57 -53 78z" />
    <glyph glyph-name="Q" unicode="Q" horiz-adv-x="676" 
d="M450 30l28 8c15 -19 40 -45 53 -67c5 -9 -5 -26 -16 -18c-5 3 -5 5 -9 8c-10 14 -28 36 -44 55zM474 46l-33 -4l-8 11l-8 11c-8 8 -24 28 -26 33c-5 10 13 20 20 15c4 -4 28 -33 40 -48zM259 6c-33 11 -59 24 -82 40c-7 5 -10 15 -10 27v48c0 22 -2 48 0 72
c3 31 0 93 0 93c-2 29 -1 67 0 102v52c0 35 0 70 1 97c1 25 3 54 0 84c-2 23 1 44 0 63c0 14 5 21 12 25c39 22 75 43 131 46c14 1 41 1 55 -1c59 -8 115 -38 154 -67c37 -36 71 -83 80 -136c0 -4 0 -7 1 -12c0 -1 3 -19 3 -21l3 -53l1 -4c0 -4 1 -13 2 -18l-2 -27v-70
c1 -12 2 -33 2 -44s1 -21 0 -31c-1 -7 -1 -14 -1 -18c-1 -16 -3 -32 -7 -49c-9 -38 -29 -91 -47 -113c-28 -34 -51 -55 -96 -74c-3 -2 -26 -11 -55 -17c-25 -3 -60 -4 -61 -4c-8 0 -2 -1 -29 0c-17 1 -40 5 -55 10zM331 729c-47 1 -93 -16 -128 -39c-5 -2 -6 -5 -6 -15
c0 -20 -2 -81 -2 -96v-71c0 -13 0 -31 1 -45c0 -40 -5 -93 -1 -136c3 -29 1 -59 0 -89c0 -20 1 -74 0 -86c0 -11 -1 -35 -1 -48v-25c0 -7 0 -15 6 -17l38 -19c32 -19 63 -20 92 -21c93 -5 166 47 196 78c20 24 50 100 55 156c2 24 1 59 0 83c-4 46 0 79 -1 109l-7 68
c0 1 -1 2 -1 5c-3 24 -7 51 -20 77c-21 45 -62 73 -98 95c-1 0 -15 8 -17 9c-17 10 -39 26 -106 27z" />
    <glyph glyph-name="R" unicode="R" horiz-adv-x="662" 
d="M222 31l1 -25c0 -9 -27 -10 -27 2l-1 11v55v9c-2 34 -4 80 -3 113c0 20 0 46 -1 65v7c0 1 -1 3 1 40l1 15s-1 28 0 31c1 15 1 29 0 41l1 48c-1 8 -1 21 -1 26c1 29 1 56 0 84v9c0 3 -1 7 -1 11c-1 14 -2 35 -2 47c1 27 1 54 0 83v8v28c0 13 9 14 15 14h21c12 1 33 2 43 2
c16 0 22 0 30 -1c6 -1 13 -2 25 -2h6c34 -2 86 -7 111 -17c15 -5 43 -20 54 -27c27 -17 55 -57 65 -96c4 -15 11 -35 11 -51s-2 -38 -6 -61c0 -1 -3 -12 -3 -13c-2 -15 -6 -21 -12 -33c-5 -10 -11 -21 -17 -30c-4 -5 -14 -17 -19 -21c-15 -12 -21 -22 -39 -33
c-21 -12 -47 -20 -76 -22l21 -31l10 -15c13 -23 21 -41 25 -46l9 -15s11 -13 20 -33c15 -21 23 -42 30 -51c20 -26 32 -53 50 -80l10 -16l8 -13l15 -28c8 -11 4 -19 -5 -20c-17 -1 -20 5 -25 14l-6 10c-3 5 -5 9 -8 12l-32 54l-2 5l-19 30l-13 23l-9 15c-1 1 -3 4 -3 5
l-8 10l-16 27l-32 56c-4 8 -12 20 -20 32c-3 4 -6 10 -9 13l-23 39h-27c-3 0 -41 1 -45 1c-16 0 -30 -3 -50 -2c-5 0 -19 -1 -24 -1c0 -3 -1 -8 -1 -12l-2 -44v-37c1 -13 1 -30 1 -43c0 -18 -1 -35 1 -54c2 -32 3 -68 2 -103v-19zM223 435c2 -20 -1 -44 1 -63
c10 0 45 -1 54 0l40 1c60 0 65 -1 102 8c14 4 30 7 41 17c9 8 26 20 34 30c27 32 45 77 45 113c-1 25 -5 58 -13 77c-29 67 -53 71 -95 90c-2 1 -46 11 -49 12c-2 0 -5 1 -7 1l-58 4c-15 1 -28 2 -49 2c-15 0 -34 -1 -49 -2c0 -33 -1 -121 0 -137c0 -9 0 -18 1 -26
c0 -5 1 -9 1 -13v-12c0 -29 -3 -52 1 -102z" />
    <glyph glyph-name="S" unicode="S" horiz-adv-x="585" 
d="M473 321c-9 8 -23 19 -37 28c-21 13 -42 21 -51 24c-16 5 -23 12 -39 18l-16 6l-41 16c-53 20 -99 43 -133 68c-8 6 -17 11 -27 22c-20 24 -36 41 -44 64s-8 58 -2 73l4 11c6 16 13 29 23 40c2 3 20 16 22 18c16 15 20 15 42 26l8 4c30 14 71 17 112 16
c25 -1 52 -5 73 -11c14 -4 25 -8 34 -14l19 -11c6 -4 16 -9 36 -25l8 -6l9 -7c11 -10 -4 -32 -16 -23l-6 5l-10 7c-3 1 -10 6 -12 8c-6 5 -13 11 -22 18c-10 6 -27 11 -44 18c-20 8 -64 15 -79 14c-39 -3 -34 -1 -79 -10c-8 -2 -17 -7 -26 -12c-13 -6 -21 -14 -32 -20
c-5 -3 -9 -8 -13 -12c-15 -15 -27 -29 -27 -53c0 -12 -1 -24 2 -35c1 -4 2 -8 4 -12c2 -5 10 -18 13 -23c8 -14 19 -23 36 -36c42 -31 60 -43 110 -64c7 -3 36 -14 36 -14c26 -9 54 -24 81 -33c16 -5 31 -16 47 -24c3 -2 24 -11 46 -35c10 -10 4 -35 -9 -24z" />
    <glyph glyph-name="T" unicode="T" horiz-adv-x="573" 
d="M321 726c0 19 4 22 14 22h27c7 0 43 1 49 1l45 -2c3 0 16 1 19 1h29c10 1 18 1 26 -1c9 -2 10 -16 5 -20c-3 -2 -13 -5 -19 -5l-20 1c-5 0 -35 -2 -58 -1c-10 0 -21 0 -46 -1h-44s1 -24 1 -33c-1 -22 1 -48 1 -52c1 -13 0 -35 0 -35c-1 -11 0 -21 1 -32
c-1 -11 0 -63 0 -73l1 -33c0 -4 -1 -50 -1 -54l2 -33c0 -35 0 -77 -1 -111c-2 -28 -1 -55 -1 -83v-47c-1 -14 -1 -29 -1 -45v-18c0 -1 1 -4 1 -12v-54c0 -8 -26 -9 -26 0v9l-1 51c1 38 1 91 1 131l-1 57s2 61 1 99c0 2 -1 35 -1 59c0 9 1 51 1 117c0 38 -3 73 -1 108
c-3 37 -3 73 -3 89z" />
    <glyph glyph-name="U" unicode="U" horiz-adv-x="693" 
d="M218 111c-7 13 -12 34 -15 47l-2 10c-4 14 -7 37 -7 54v30l-2 100v12c0 2 -1 4 -1 27v36c1 19 2 40 2 60c0 5 0 19 -1 29c-1 8 -1 20 -1 27s0 21 1 30v42v15l1 42c0 5 1 9 1 13v11c0 8 -1 19 0 24v23c1 12 21 7 24 3c2 -4 4 -10 4 -16v-16v-10v-30c-1 -29 3 -54 -1 -91
v-48v-30s-1 -35 0 -65l1 -13v-65c0 0 -3 -72 0 -113c0 -35 3 -72 10 -92l2 -8l3 -9c7 -23 14 -40 29 -63c20 -26 42 -36 62 -46l9 -3c10 -4 22 -5 37 -5h17c6 0 11 1 17 1c6 1 30 1 34 1c29 9 58 26 80 49c26 33 35 54 45 82l6 30c10 30 10 61 9 97l1 17c0 6 -1 12 -1 18
c0 14 0 27 1 40s2 28 2 42v20c0 28 0 57 -2 80c-1 15 -1 30 -1 45c0 21 0 39 1 60l1 30v28c0 20 0 40 -1 60v20c0 8 17 12 26 3c2 -2 2 -13 2 -20v-4c1 -14 1 -36 1 -48l-1 -25v-24c-1 -28 -2 -53 -1 -82l3 -116c0 -13 0 -28 -1 -44c0 -3 -1 -7 -1 -10v-5
c-1 -21 -2 -43 -1 -64l1 -31c0 -26 -5 -62 -9 -87c-9 -48 -26 -100 -59 -130c-34 -31 -69 -61 -138 -61c-15 0 -77 4 -101 15c-30 15 -35 20 -51 37c-7 7 -15 21 -22 35l-2 5z" />
    <glyph glyph-name="V" unicode="V" horiz-adv-x="686" 
d="M616 702l5 14l4 8s3 7 4 8c4 7 9 21 25 18c11 -2 5 -17 0 -28l-2 -5l-3 -8l-14 -32c-2 -3 -3 -9 -5 -13c-5 -14 -11 -30 -16 -41l-18 -40l-3 -7l-21 -51c-4 -11 -9 -26 -16 -38l-4 -7c-4 -8 -8 -16 -10 -24l-18 -43l-12 -28c0 -1 -7 -19 -16 -38l-4 -8
c-19 -42 -43 -98 -44 -102c-8 -23 -16 -38 -24 -59c-5 -13 -9 -22 -17 -40c-3 -7 -9 -16 -15 -16c-5 0 -8 4 -14 15c-9 15 -21 42 -28 57l-21 46s-9 26 -17 45l-20 46l-6 12l-3 7c-10 20 -12 26 -17 41l-4 13c-2 4 -6 12 -7 17c-1 1 -9 21 -13 33l-9 25c-1 2 -4 8 -4 10
l-16 41l-7 16l-9 24c-2 6 -8 21 -12 30l-4 10c-5 11 -11 27 -16 40l-3 5c-2 7 -5 17 -8 23l-12 35l-4 13c-6 14 -6 24 5 24c12 0 15 -3 22 -20l7 -19l9 -24l15 -39l7 -20l5 -15l5 -13l23 -58l8 -17l7 -20c9 -20 18 -44 29 -71c11 -22 25 -63 25 -63l21 -47l6 -16
c0 -1 4 -9 4 -11l3 -9l17 -41l19 -45c4 -9 12 -23 16 -32c8 17 15 39 19 53c0 1 1 2 1 3l6 13c2 6 12 27 12 27l21 49l24 61c0 1 2 5 3 7l9 17c0 1 2 6 2 6l7 14c6 18 17 41 24 55l6 13c9 19 19 39 27 61c3 6 5 13 8 20c0 1 2 3 2 4l3 9c6 16 12 31 19 46z" />
    <glyph glyph-name="W" unicode="W" horiz-adv-x="1127" 
d="M1057 701l5 14l4 8s3 7 4 8c4 7 9 22 25 19c11 -2 5 -17 0 -28l-2 -5l-3 -8l-14 -32c-2 -3 -2 -9 -4 -13c-5 -14 -9 -30 -14 -41l-17 -40l-3 -7l-18 -48c-4 -11 -22 -67 -42 -110l-28 -71l-4 -8c-19 -42 -39 -98 -40 -102c-8 -23 -16 -38 -24 -59c-5 -13 -8 -22 -16 -40
c-3 -7 -9 -16 -15 -16c-5 0 -7 4 -13 15c-9 15 -18 42 -25 57l-19 46s-11 36 -19 55l-9 23l-5 12l-3 7c-10 20 -20 49 -25 64l-4 13c-2 4 -6 12 -7 17c-1 1 -8 21 -12 33l-5 15c-1 2 -3 8 -3 10l-16 41l-7 16l-8 24c-2 6 -7 21 -11 30l-3 10c-5 11 -10 27 -15 40l-3 5
c-2 7 -5 17 -8 23l-13 35c-10 26 -10 37 2 37s15 -3 22 -20l6 -19l10 -24l15 -39l6 -20l5 -15l4 -13l21 -58l8 -17l7 -20c9 -20 18 -50 26 -71l24 -63l19 -47l5 -16c0 -1 1 -3 1 -5l6 -15l15 -41l19 -45l11 -30c8 17 15 37 19 51c0 1 1 2 1 3l5 13c2 6 10 27 10 27l20 49
s20 52 33 80c16 34 34 82 41 105c2 6 4 13 7 20c0 1 11 26 11 27l13 35c6 16 11 31 18 46zM239 232c25 -57 58 -138 74 -167l14 -33c5 -12 10 -25 1 -34c-7 -7 -13 -1 -17 7l-17 35l-25 53l-7 18l-3 7l-5 9l-14 30l-19 43l-13 38c-17 35 -33 84 -47 121l-5 14
c-13 36 -25 70 -39 104l-20 54l-8 19c-11 25 -21 60 -30 85l-11 35l-9 24l-7 23l-5 15c0 1 -1 2 -1 4c-2 9 2 15 15 13c11 -3 10 -10 15 -19c12 -41 29 -92 44 -128l14 -40c11 -23 24 -61 34 -88l3 -11l9 -27l11 -25l8 -19c8 -24 20 -58 32 -82z" />
    <glyph glyph-name="X" unicode="X" horiz-adv-x="647" 
d="M294 444l-20 -22l-63 97l-24 41c-2 3 -29 48 -32 52c0 0 -21 30 -27 41l-25 40c-5 8 -18 25 -26 44c-4 8 -1 14 9 13c9 1 18 -3 22 -10l9 -15c7 -10 7 -10 13 -24c5 -8 53 -79 64 -97c9 -15 22 -32 32 -55c2 -4 44 -69 68 -105zM458 741c9 14 35 11 31 1
c-5 -12 -20 -35 -32 -54l-9 -14l-24 -40l-6 -13l-12 -18c-1 -1 -2 -3 -4 -6c-3 -8 -11 -21 -13 -25c-10 -15 -32 -52 -46 -73c-19 -30 -45 -70 -56 -91c-6 -10 -27 -44 -41 -66l-38 -63c-2 -4 -33 -52 -35 -55l-22 -38c-1 -2 -1 -5 -18 -30c-6 -8 -11 -18 -16 -28l-73 -120
c-9 -15 -33 -9 -28 5c1 2 15 25 18 30c1 1 12 22 13 24l74 120l22 37c4 7 10 15 19 31l24 40l17 27c2 5 4 9 6 13l14 22l51 85l8 12c4 6 15 23 21 32c16 26 35 54 41 67c0 0 37 59 71 120c6 11 21 30 34 55c3 5 7 9 9 13z" />
    <glyph glyph-name="Y" unicode="Y" horiz-adv-x="735" 
d="M145 745c2 7 13 6 19 5s11 -6 16 -14l17 -28s11 -24 38 -62l11 -21c12 -22 23 -33 37 -55l7 -12c4 -6 15 -26 34 -57l34 -52l22 -38l11 -18l27 -46l6 -8c14 18 29 40 41 59c6 10 26 38 32 48l9 11c4 5 38 54 40 58l29 46c16 25 19 35 37 60c11 16 20 29 23 34
c17 27 13 25 40 67l12 22c7 9 26 7 27 -1c1 -4 -1 -8 -4 -14l-4 -8c-9 -19 -27 -49 -36 -61l-11 -20l-34 -55l-9 -10l-10 -17l-21 -37l-21 -31l-4 -5l-31 -46c-3 -7 -60 -89 -63 -93l-12 -16c-6 -8 -9 -15 -13 -21l-2 -72c0 -15 1 -33 2 -46v-18c1 3 -2 -42 0 -83
c2 -35 1 -52 1 -84c0 -10 -26 -9 -26 -1v18v4c-1 21 -1 60 -1 74c-1 14 -1 53 -1 66c-1 14 -1 39 -1 51c0 38 0 80 -2 87c-3 6 -8 13 -8 13c-11 15 -28 44 -44 72l-15 23c-9 16 -12 25 -17 32l-28 45c-5 7 -9 15 -19 30l-21 30l-19 31l-9 14l-3 4l-15 25l-6 9l-9 16l-6 12
l-7 12l-13 20l-9 17c-1 2 -2 3 -2 3c-12 19 -18 26 -16 32z" />
    <glyph glyph-name="Z" unicode="Z" horiz-adv-x="608" 
d="M260 377c-3 -5 -3 -9 -6 -13l-30 -63c-14 -30 -18 -45 -33 -72l-8 -13l-7 -14l-3 -6c-14 -31 -22 -49 -25 -53c0 0 -9 -14 -12 -23c-4 -10 -9 -19 -20 -40c-7 -11 -9 -18 -9 -18l-8 -18l-9 -16l-11 -22c-4 -9 -32 -8 -28 4l4 10l4 9l14 27c2 5 22 44 22 44l2 5l13 25
c6 16 23 45 23 45l15 35l17 28l9 18c1 5 7 17 11 24l5 12l15 31c2 4 2 8 5 12l6 13c7 12 12 26 18 39l5 11c3 6 6 14 10 21l10 18c3 8 4 15 25 57l18 36l21 43l10 23c12 23 27 45 36 68c8 21 24 55 24 55l3 5l-19 -1s-25 -1 -61 1c-19 1 -63 1 -83 0c-27 -1 -37 6 -70 0
c-23 -4 -42 -1 -42 -1c-20 0 -38 1 -53 0h-11c-8 0 -12 1 -14 3c-6 4 -2 20 6 22c18 3 41 3 64 3l101 1l13 -1h18c6 0 12 -1 19 -1h28c15 2 35 2 45 1c2 0 14 -1 17 -1c0 0 22 3 62 1c9 -1 14 -9 9 -24l-3 -7s-34 -83 -49 -109c-7 -12 -15 -31 -24 -50l-19 -36
c-8 -20 -21 -47 -30 -68c-3 -5 -6 -10 -7 -14l-13 -26z" />
    <glyph glyph-name="ccedilla" unicode="&#xe7;" horiz-adv-x="636" 
d="M182 61c-11 9 -16 16 -16 35c2 68 2 135 1 156c-2 49 -1 88 0 129v49c0 3 -1 114 -1 117l1 39l-1 33l1 22c0 9 4 21 13 29c17 15 37 30 37 30c4 3 11 5 14 8c6 5 14 9 14 9c9 7 26 14 42 20c12 4 26 7 40 9l17 3l12 2l28 3c15 0 34 -1 49 -3c0 0 18 -2 38 -9
c8 -3 35 -13 31 -12c0 0 18 -8 28 -15l15 -8c8 -5 12 -16 9 -23c-4 -9 -13 -9 -14 -7l-12 7l-10 6l-7 4c-4 1 -10 5 -13 7l-11 6l-29 10l-18 4c-7 0 -13 1 -21 2l-10 1h-43l-18 -3c-15 -2 -39 0 -67 -21c-25 -11 -51 -28 -76 -47c-6 -5 -9 -10 -9 -18c-2 -41 -3 -96 -3 -125
c0 -13 -1 -31 0 -45l3 -108c0 -42 0 -84 -1 -127l1 -34c0 -14 -1 -26 -1 -36c-1 -26 0 -39 0 -59c0 -12 0 -13 7 -18c0 0 6 -9 46 -28l27 -9l24 -10c27 -8 64 -13 84 -11c23 2 47 1 76 9c18 2 45 14 59 27l5 3c24 18 31 27 37 33s15 13 22 4c9 -12 -1 -23 -19 -40
c-15 -15 -48 -41 -83 -51c-33 -9 -70 -15 -112 -13c-6 0 -14 1 -21 2v-45l17 -1c3 0 6 1 9 1c17 0 38 -6 49 -11c31 -16 49 -45 52 -74c1 -20 -1 -28 -7 -40c-13 -25 -22 -34 -46 -47c0 0 -13 -6 -19 -7c-3 -1 -9 -3 -13 -3c-8 -1 -22 -1 -29 1c-8 1 -22 6 -29 9
c-12 8 -20 18 -16 26v-1c4 5 9 8 13 6h-1c5 -3 14 -7 14 -7l20 -7c11 -3 25 -2 37 2c8 2 21 5 27 12c9 11 22 24 22 40c0 8 0 24 -3 34l-7 14c-4 9 -10 7 -19 15c-9 4 -27 9 -32 10c-6 1 -17 1 -26 0l-13 1c-3 0 -25 0 -25 8v66c-29 5 -61 13 -84 26c-14 8 -24 13 -31 18
c-11 7 -14 7 -25 16z" />
    <glyph glyph-name="exclamdown" unicode="&#xa1;" horiz-adv-x="161" 
d="M33 699c-13 0 -23 11 -24 25c-2 17 10 25 20 29c15 4 23 1 31 -10c11 -21 5 -38 -18 -43c-2 -1 -5 -1 -9 -1zM48 0c-4 -5 -17 -3 -20 0s-4 11 -4 15v58c1 5 1 53 1 57l-1 71c1 22 2 36 2 52s0 31 -1 51c-1 7 0 20 -1 37l-1 28v53c1 18 2 45 1 63c-1 19 0 68 1 94
c0 5 0 11 3 13c5 3 18 3 22 -1c3 -4 3 -7 3 -13l-1 -163v-14c0 -24 -1 -52 -1 -64v-5l2 -49v-70c0 -3 -2 -30 -2 -33l1 -84l-1 -24v-52c0 -6 0 -17 -3 -20z" />
    <glyph glyph-name="questiondown" unicode="&#xbf;" horiz-adv-x="498" 
d="M124 313l1 43c0 26 5 34 10 43l4 8c3 4 5 8 7 12c4 7 17 19 23 27l8 10c5 5 7 8 9 12l4 6l5 9c7 13 7 9 13 26l3 9c0 2 1 4 1 6l2 12c2 14 4 33 4 33c0 5 0 6 -1 11c0 4 -1 19 -1 23s1 10 1 14c0 11 -2 19 15 19c7 0 10 -11 10 -22c0 -9 1 -11 1 -17c0 -12 1 -25 1 -38
c0 -20 2 -39 -6 -55c-7 -14 -6 -16 -14 -28c-10 -14 -8 -13 -15 -24c-12 -19 -31 -35 -46 -56c0 0 -10 -22 -11 -36v-62c0 -38 -1 -106 -2 -145c0 -8 -1 -24 -1 -31c-1 -21 0 -32 1 -41c1 -8 1 -25 1 -32c10 -6 35 -20 81 -23c34 4 76 20 105 33c34 21 54 55 71 90
c9 20 12 36 13 49c0 4 1 7 1 10c0 13 6 21 15 21c8 -2 10 -19 11 -33c0 -11 -3 -22 -6 -31c-2 -10 -4 -20 -8 -29l-9 -18l-3 -8l-9 -13l-8 -9l-6 -10c-8 -13 -19 -21 -27 -28l-13 -10l-7 -5l-16 -9l-20 -8l-24 -9c-19 -6 -39 -10 -64 -10c-6 0 -14 0 -20 1l-20 3l-25 8
l-27 13c-11 6 -13 17 -13 35v94c0 4 0 12 1 17c1 8 2 40 1 47c-1 31 -1 61 -1 96zM240 717c-11 -2 -25 1 -33 10c-6 23 9 28 23 30c26 4 23 -35 10 -40z" />
    <glyph glyph-name="quotedblbase" unicode="&#x201e;" horiz-adv-x="322" 
d="M102 10l25 54c17 36 27 53 35 44c8 -6 6 -16 1 -32l-4 -11c-8 -18 -23 -52 -34 -73l-39 -79c-13 -22 -28 2 -21 18c13 28 37 79 37 79zM232 10l25 54c17 36 27 53 35 44c8 -6 6 -16 1 -32l-4 -11c-8 -18 -23 -52 -34 -73l-39 -79c-13 -22 -28 2 -21 18c13 28 37 79 37 79
z" />
    <glyph glyph-name="quotesinglbase" unicode="&#x201a;" horiz-adv-x="211" 
d="M106 12l25 54c17 36 27 53 35 44c8 -6 6 -16 1 -32l-4 -11c-8 -18 -23 -52 -34 -73l-39 -79c-13 -22 -28 2 -21 18c13 28 37 79 37 79z" />
    <glyph glyph-name="yen" unicode="&#xa5;" horiz-adv-x="611" 
d="M438 309h19c12 0 11 -29 -1 -29h-17c-7 -1 -20 -1 -47 0l-35 1c-8 0 -16 -1 -24 -1c-12 0 -25 -1 -38 0h-88h-2h-47c-7 0 -15 21 -2 27c3 1 12 2 16 2c22 0 11 0 40 -1c22 -2 33 -1 63 0h10l-6 10c-11 15 -28 44 -44 72l-15 23c-9 16 -12 25 -17 32l-28 45l-19 30l-21 30
l-19 31l-9 14l-3 4l-15 25l-6 9l-9 16l-6 12l-7 12l-13 20l-9 17c-1 2 -2 3 -2 3c-12 19 -18 26 -16 32c2 7 13 6 19 5s11 -6 16 -14l17 -28s11 -24 38 -62l11 -21c12 -22 23 -33 37 -55l7 -12l34 -57l34 -52l22 -38l11 -18l27 -46l6 -8c14 18 29 40 41 59c6 10 26 38 32 48
l9 11c4 5 38 54 40 58l29 46c16 25 19 35 37 60l23 34c17 27 13 25 40 67l12 22c7 9 26 7 27 -1c1 -4 -1 -8 -4 -14l-4 -8c-9 -19 -27 -49 -36 -61l-11 -20l-34 -55l-9 -10l-10 -17l-21 -37l-21 -31l-4 -5l-31 -46c-3 -7 -60 -89 -63 -93l-12 -16c-6 -8 -9 -15 -13 -21v-1
h53c9 0 15 1 21 1h5c20 -2 27 -1 42 0zM206 280c-5 0 8 -1 1 0h-1z" />
    <glyph glyph-name="ellipsis" unicode="&#x2026;" horiz-adv-x="497" 
d="M283 44c8 -5 11 -21 6 -30c-10 -16 -31 -21 -40 -19c-15 4 -20 13 -20 26c2 21 24 33 45 27c2 0 3 -2 5 -3c1 0 2 0 4 -1zM117 55c12 0 21 -9 22 -22c2 -15 -14 -32 -23 -36c-14 -4 -22 -1 -29 9c-10 20 0 44 21 48c2 1 5 1 9 1zM442 15c-1 -12 -11 -21 -24 -21
c-15 -1 -31 16 -34 25c-4 14 -1 22 5 26c22 9 50 2 52 -25c0 -1 1 -2 1 -5z" />
    <glyph glyph-name=".null" horiz-adv-x="0" 
 />
    <glyph glyph-name=".null" horiz-adv-x="0" 
 />
    <glyph glyph-name="CR" unicode="&#xd;" horiz-adv-x="460" 
 />
    <glyph glyph-name="ring" unicode="&#x2da;" horiz-adv-x="224" 
d="M168 751c28 -18 40 -44 41 -70c-1 -39 -21 -62 -46 -73c-10 -4 -25 -8 -33 -8c-29 0 -56 16 -70 33c-7 8 -11 27 -11 42c0 37 17 59 53 76c9 4 22 6 32 6c11 0 26 -1 34 -6zM98 720c-19 -11 -21 -28 -21 -47c0 -38 30 -51 59 -47c20 2 38 13 45 43c3 7 -2 30 -7 39
c-11 14 -21 25 -41 25c-15 0 -31 -9 -35 -13z" />
    <glyph glyph-name="dotaccent" unicode="&#x2d9;" horiz-adv-x="187" 
d="M106 563c12 0 24 -11 23 -25c-1 -17 -12 -29 -21 -33c-15 -4 -24 -1 -32 10c-11 18 -9 39 15 44c2 1 11 4 15 4z" />
    <glyph glyph-name="caron" unicode="&#x2c7;" horiz-adv-x="459" 
d="M183 873l26 -28l18 -17c2 1 10 8 15 14l3 4l16 17l13 14c7 6 45 52 46 53c13 16 14 21 28 18c11 -2 7 -15 -3 -27l-14 -18c-5 -7 -18 -24 -38 -43l-14 -17l-18 -21c-12 -13 -28 -28 -34 -27c-9 1 -21 14 -30 23c0 0 -23 26 -33 35c-7 8 -24 26 -24 26
c-16 13 -37 40 -37 40c-13 15 -17 16 -6 29c8 8 25 -8 30 -15l31 -34c19 -17 23 -22 25 -26z" />
    <glyph glyph-name="Oslash" unicode="&#xd8;" horiz-adv-x="678" 
d="M261 6c-12 3 -22 6 -31 10l-4 -10c-1 -3 -2 -6 -4 -9l-4 -8c-4 -12 -8 -18 -17 -14c-4 2 -12 6 -6 23l4 7l8 21c-9 4 -17 10 -26 18c-7 6 -10 15 -10 27l-1 48c0 23 -2 34 0 73c0 -2 1 36 0 67v18s-1 26 -1 33c0 0 2 22 0 78c-1 49 -3 78 0 119c1 17 -1 58 0 87
c0 9 -1 18 -1 27c0 22 1 41 0 60c0 14 7 22 14 27c28 20 74 44 129 47c14 1 41 0 55 -2c26 -3 55 -14 80 -22c22 -7 42 -19 56 -29c4 6 11 22 15 28c7 13 10 17 21 16l5 -3c6 -8 -5 -29 -5 -29c-2 -7 -8 -21 -14 -33c14 -16 24 -23 38 -44c3 -4 13 -24 16 -28
c11 -15 19 -30 25 -62c4 -31 9 -85 7 -116c0 0 3 -59 2 -88v-44c0 -11 -1 -21 -2 -31c-1 -7 -1 -14 -1 -18c0 -16 -1 -32 -5 -49c-9 -36 -18 -67 -31 -89c-23 -36 -64 -77 -112 -97c0 0 -25 -10 -56 -15c-25 -3 -60 -5 -61 -5s-23 0 -43 2c-22 1 -40 9 -40 9zM241 42l-1 -3
l13 -3c31 -7 50 -14 79 -15c40 -2 76 4 107 17c8 3 22 11 29 13c30 10 47 34 67 57c9 12 17 32 25 53c11 29 19 41 21 74c0 0 4 46 2 102c1 23 2 46 2 69c-1 35 -2 38 -6 72v6c0 1 -1 34 -1 36c-3 25 -11 52 -25 78c-10 21 -25 39 -42 55c-1 0 -1 0 -1 1
c-3 -6 -5 -11 -8 -15l-30 -71c-3 -8 -13 -28 -15 -36c-7 -16 -32 -71 -38 -86l-72 -169c-13 -36 -34 -80 -48 -114c-7 -14 -43 -94 -51 -107c-2 -4 -5 -12 -7 -14zM334 728c-16 0 -32 1 -49 -5l-42 -14c-17 -6 -22 -10 -36 -20c-8 -5 -12 -6 -11 -23c-1 -39 -2 -73 -1 -88
c2 -45 0 -71 0 -71c0 -13 0 -31 1 -45c0 0 2 -61 1 -136c0 -30 5 -50 1 -91c-2 -20 0 -74 -1 -86c-3 -29 1 -34 1 -47v-22c0 -14 -1 -14 9 -21c0 -1 3 -5 11 -10l15 36l19 39c7 16 12 29 19 43l11 26c9 25 26 65 36 87c12 28 25 55 37 84l21 54c8 20 13 24 21 41l3 11
c10 24 21 44 32 66c7 14 14 32 18 48l38 86l1 2c-13 10 -25 19 -36 26c-1 0 -21 10 -23 10c-18 4 -40 19 -96 20z" />
    <glyph glyph-name="oslash" unicode="&#xf8;" horiz-adv-x="678" 
d="M261 6c-12 3 -22 6 -31 10l-4 -10c-1 -3 -2 -6 -4 -9l-4 -8c-4 -12 -8 -18 -17 -14c-4 2 -12 6 -6 23l4 7l8 21c-9 4 -17 10 -26 18c-7 6 -10 15 -10 27l-1 48c0 23 -2 34 0 73c0 -2 1 36 0 67v18s-1 26 -1 33c0 0 2 22 0 78c-1 49 -3 78 0 119c1 17 -1 58 0 87
c0 9 -1 18 -1 27c0 22 1 41 0 60c0 14 7 22 14 27c28 20 74 44 129 47c14 1 41 0 55 -2c26 -3 55 -14 80 -22c22 -7 42 -19 56 -29c4 6 11 22 15 28c7 13 10 17 21 16l5 -3c6 -8 -5 -29 -5 -29c-2 -7 -8 -21 -14 -33c14 -16 24 -23 38 -44c3 -4 13 -24 16 -28
c11 -15 19 -30 25 -62c4 -31 9 -85 7 -116c0 0 3 -59 2 -88v-44c0 -11 -1 -21 -2 -31c-1 -7 -1 -14 -1 -18c0 -16 -1 -32 -5 -49c-9 -36 -18 -67 -31 -89c-23 -36 -64 -77 -112 -97c0 0 -25 -10 -56 -15c-25 -3 -60 -5 -61 -5s-23 0 -43 2c-22 1 -40 9 -40 9zM241 42l-1 -3
l13 -3c31 -7 50 -14 79 -15c40 -2 76 4 107 17c8 3 22 11 29 13c30 10 47 34 67 57c9 12 17 32 25 53c11 29 19 41 21 74c0 0 4 46 2 102c1 23 2 46 2 69c-1 35 -2 38 -6 72v6c0 1 -1 34 -1 36c-3 25 -11 52 -25 78c-10 21 -25 39 -42 55c-1 0 -1 0 -1 1
c-3 -6 -5 -11 -8 -15l-30 -71c-3 -8 -13 -28 -15 -36c-7 -16 -32 -71 -38 -86l-72 -169c-13 -36 -34 -80 -48 -114c-7 -14 -43 -94 -51 -107c-2 -4 -5 -12 -7 -14zM334 728c-16 0 -32 1 -49 -5l-42 -14c-17 -6 -22 -10 -36 -20c-8 -5 -12 -6 -11 -23c-1 -39 -2 -73 -1 -88
c2 -45 0 -71 0 -71c0 -13 0 -31 1 -45c0 0 2 -61 1 -136c0 -30 5 -50 1 -91c-2 -20 0 -74 -1 -86c-3 -29 1 -34 1 -47v-22c0 -14 -1 -14 9 -21c0 -1 3 -5 11 -10l15 36l19 39c7 16 12 29 19 43l11 26c9 25 26 65 36 87c12 28 25 55 37 84l21 54c8 20 13 24 21 41l3 11
c10 24 21 44 32 66c7 14 14 32 18 48l38 86l1 2c-13 10 -25 19 -36 26c-1 0 -21 10 -23 10c-18 4 -40 19 -96 20z" />
    <glyph glyph-name="Eth" unicode="&#xd0;" horiz-adv-x="696" 
d="M225 0h-17c-9 0 -17 4 -17 16v21c0 8 1 17 1 25v78c0 16 1 33 1 50v51c0 18 -1 35 -1 52c0 19 -1 38 -1 55v185c1 19 0 37 0 56v73l-2 62v7c0 13 8 19 18 19h13c35 0 45 -1 62 -4l16 -2c5 -1 13 -3 17 -3c97 -13 167 -43 221 -98c13 -14 25 -29 34 -41c0 -1 9 -15 10 -15
c19 -28 34 -55 41 -98l4 -24l3 -11c2 -6 3 -21 3 -29l3 -34c0 -20 -1 -41 -4 -64c-2 -12 -2 -20 -2 -27c-1 -11 -2 -21 -6 -37c-1 -8 -6 -18 -11 -27l-4 -8l-8 -17l-5 -7l-9 -19l-5 -10l-4 -7c-4 -8 -8 -17 -15 -25c-10 -12 -28 -29 -42 -41l-10 -8
c-50 -36 -118 -77 -192 -88c-30 -4 -61 -6 -92 -6zM604 401c1 15 -3 31 -8 52l-4 16c-5 20 -12 45 -19 63c-11 22 -36 64 -55 87c-31 39 -71 54 -118 72c-66 21 -100 26 -168 29h-12v-54c0 -15 -1 -29 0 -43c1 -8 0 -30 -1 -44c0 -2 -1 -6 -1 -8c-1 -20 -2 -49 -2 -67
c0 -5 1 -19 2 -27c1 -5 2 -15 2 -18v-81c14 0 29 -1 44 -1l43 -1c16 1 29 1 29 -13c0 -15 -14 -13 -27 -13c-49 -2 -72 -2 -89 -2c0 -38 0 -77 -1 -116c-1 -26 0 -57 1 -87c1 -19 1 -48 1 -62l-2 -56c27 1 73 5 73 5c20 3 35 6 51 10c33 12 78 31 111 54c9 2 64 40 87 79
c0 0 10 18 16 28c12 17 23 37 27 48c16 40 18 91 20 150z" />
    <glyph glyph-name="eth" unicode="&#xf0;" horiz-adv-x="696" 
d="M225 0h-17c-9 0 -17 4 -17 16v21c0 8 1 17 1 25v78c0 16 1 33 1 50v51c0 18 -1 35 -1 52c0 19 -1 38 -1 55v185c1 19 0 37 0 56v73l-2 62v7c0 13 8 19 18 19h13c35 0 45 -1 62 -4l16 -2c5 -1 13 -3 17 -3c97 -13 167 -43 221 -98c13 -14 25 -29 34 -41c0 -1 9 -15 10 -15
c19 -28 34 -55 41 -98l4 -24l3 -11c2 -6 3 -21 3 -29l3 -34c0 -20 -1 -41 -4 -64c-2 -12 -2 -20 -2 -27c-1 -11 -2 -21 -6 -37c-1 -8 -6 -18 -11 -27l-4 -8l-8 -17l-5 -7l-9 -19l-5 -10l-4 -7c-4 -8 -8 -17 -15 -25c-10 -12 -28 -29 -42 -41l-10 -8
c-50 -36 -118 -77 -192 -88c-30 -4 -61 -6 -92 -6zM604 401c1 15 -3 31 -8 52l-4 16c-5 20 -12 45 -19 63c-11 22 -36 64 -55 87c-31 39 -71 54 -118 72c-66 21 -100 26 -168 29h-12v-54c0 -15 -1 -29 0 -43c1 -8 0 -30 -1 -44c0 -2 -1 -6 -1 -8c-1 -20 -2 -49 -2 -67
c0 -5 1 -19 2 -27c1 -5 2 -15 2 -18v-81c14 0 29 -1 44 -1l43 -1c16 1 29 1 29 -13c0 -15 -14 -13 -27 -13c-49 -2 -72 -2 -89 -2c0 -38 0 -77 -1 -116c-1 -26 0 -57 1 -87c1 -19 1 -48 1 -62l-2 -56c27 1 73 5 73 5c20 3 35 6 51 10c33 12 78 31 111 54c9 2 64 40 87 79
c0 0 10 18 16 28c12 17 23 37 27 48c16 40 18 91 20 150z" />
    <glyph glyph-name="ae" unicode="&#xe6;" horiz-adv-x="937" 
d="M525 642l1 55c0 4 -1 2 -1 35c0 11 4 19 17 19l42 -1c3 0 56 -1 59 -1c0 0 45 -1 60 0c26 2 114 0 114 0h16c16 1 20 1 31 0c9 -1 13 -7 13 -15c0 -11 -17 -11 -19 -11h-16l-34 -1c-19 1 -29 -1 -42 -1h-11c-3 0 -18 2 -20 2c-9 -1 -28 -1 -31 -1h-36
c-22 3 -81 -1 -100 -1c-5 0 -9 0 -14 -1v-35c0 -7 -3 -23 0 -50c0 0 -1 -27 -1 -49c0 -3 1 -6 1 -9c1 -10 1 -62 1 -71c0 -3 -1 -6 -1 -9v-23c-1 -4 0 -42 0 -55c11 -1 38 0 49 0c18 -1 36 -2 53 -2c22 0 52 1 54 1c16 1 59 -1 59 -1c2 0 6 0 7 -1c9 -4 8 -21 2 -23
s-10 -1 -18 -1h-23c-9 0 -37 1 -47 0c-15 -2 -35 -1 -47 -1c-20 0 -32 -1 -51 0h-37l-1 -49v-95c0 -27 -2 -56 0 -79v-15c0 -2 1 -4 0 -6c1 -12 2 -33 2 -43l-1 -18c0 -21 0 -32 1 -51c0 -5 2 -6 8 -6l36 -2c13 1 39 0 52 0c35 0 73 -1 73 -1c48 4 122 0 122 0
c9 0 14 0 16 -2c6 -6 8 -21 -3 -24h-58c-22 0 -44 0 -54 -1c-3 0 -16 0 -24 1c-17 1 -46 2 -59 2c-11 0 -22 -1 -29 -2h-86c-14 0 -22 6 -22 21v28v36v43l-1 28v30l-2 155l1 65v25l-1 61c1 22 1 38 1 57c0 14 1 28 0 44z" />
    <glyph glyph-name="AE" unicode="&#xc6;" horiz-adv-x="937" 
d="M525 642l1 55c0 4 -1 2 -1 35c0 11 4 19 17 19l42 -1c3 0 56 -1 59 -1c0 0 45 -1 60 0c26 2 114 0 114 0h16c16 1 20 1 31 0c9 -1 13 -7 13 -15c0 -11 -17 -11 -19 -11h-16l-34 -1c-19 1 -29 -1 -42 -1h-11c-3 0 -18 2 -20 2c-9 -1 -28 -1 -31 -1h-36
c-22 3 -81 -1 -100 -1c-5 0 -9 0 -14 -1v-35c0 -7 -3 -23 0 -50c0 0 -1 -27 -1 -49c0 -3 1 -6 1 -9c1 -10 1 -62 1 -71c0 -3 -1 -6 -1 -9v-23c-1 -4 0 -42 0 -55c11 -1 38 0 49 0c18 -1 36 -2 53 -2c22 0 52 1 54 1c16 1 59 -1 59 -1c2 0 6 0 7 -1c9 -4 8 -21 2 -23
s-10 -1 -18 -1h-23c-9 0 -37 1 -47 0c-15 -2 -35 -1 -47 -1c-20 0 -32 -1 -51 0h-37l-1 -49v-95c0 -27 -2 -56 0 -79v-15c0 -2 1 -4 0 -6c1 -12 2 -33 2 -43l-1 -18c0 -21 0 -32 1 -51c0 -5 2 -6 8 -6l36 -2c13 1 39 0 52 0c35 0 73 -1 73 -1c48 4 122 0 122 0
c9 0 14 0 16 -2c6 -6 8 -21 -3 -24h-58c-22 0 -44 0 -54 -1c-3 0 -16 0 -24 1c-17 1 -46 2 -59 2c-11 0 -22 -1 -29 -2h-86c-14 0 -22 6 -22 21v28v36v43l-1 28v30l-2 155l1 65v25l-1 61c1 22 1 38 1 57c0 14 1 28 0 44z" />
    <glyph glyph-name="oe" unicode="&#x153;" horiz-adv-x="994" 
d="M582 642l1 55c0 4 -1 2 -1 35c0 11 4 19 17 19l42 -1c3 0 56 -1 59 -1c0 0 45 -1 60 0c26 2 114 0 114 0h16c16 1 20 1 31 0c9 -1 13 -7 13 -15c0 -11 -17 -11 -19 -11h-16l-34 -1c-19 1 -29 -1 -42 -1h-11c-3 0 -18 2 -20 2c-9 -1 -28 -1 -31 -1h-36
c-22 3 -81 -1 -100 -1c-5 0 -9 0 -14 -1v-35c0 -7 -3 -23 0 -50c0 0 -2 -27 -2 -49c0 -3 1 -6 1 -9c1 -10 1 -62 1 -71c0 -3 -1 -6 -1 -9v-23c-1 -2 0 -15 0 -27c0 -1 1 -2 1 -2c0 -5 1 -16 1 -26c11 -1 37 0 48 0c18 -1 36 -2 53 -2c22 0 52 1 54 1c16 1 59 -1 59 -1
c2 0 6 0 7 -1c9 -4 8 -21 2 -23s-10 -1 -18 -1h-23c-9 0 -37 1 -47 0c-15 -2 -35 -1 -47 -1c-20 0 -32 -1 -51 0h-37v-77c0 -8 0 -19 -1 -33v-34c0 -27 -2 -56 0 -79v-15c0 -2 1 -4 0 -6c1 -12 2 -33 2 -43l-1 -18c0 -21 0 -32 1 -51c0 -5 2 -6 8 -6l36 -2c13 1 39 0 52 0
c35 0 73 -1 73 -1c48 4 122 0 122 0c9 0 14 0 16 -2c6 -6 8 -21 -3 -24h-58c-22 0 -44 0 -54 -1c-3 0 -16 0 -24 1c-17 1 -46 2 -59 2c-11 0 -22 -1 -29 -2h-86c-14 0 -22 6 -22 21v107v33c-6 -27 -16 -55 -20 -60c-23 -36 -56 -66 -104 -86c0 0 -25 -10 -56 -15
c-25 -3 -60 -5 -61 -5s-23 0 -43 2c-22 1 -40 9 -40 9c-35 11 -55 17 -80 38c-7 6 -10 15 -10 27l-1 48c0 23 -2 34 0 73c0 -2 1 36 0 67v18s-1 26 -1 33c0 0 2 22 0 78c-1 49 -3 78 0 119c1 17 -1 58 0 87c0 9 -1 18 -1 27c0 22 1 41 0 60c0 14 7 22 14 27
c28 20 74 44 129 47c14 1 41 0 55 -2c26 -3 55 -14 80 -22c35 -11 63 -32 74 -45c17 -19 27 -26 42 -49c2 -3 15 -21 22 -50zM334 728c-16 0 -32 1 -49 -5l-42 -14c-17 -6 -22 -10 -36 -20c-8 -5 -12 -6 -11 -23c-1 -39 -2 -73 -1 -88c2 -45 0 -71 0 -71c0 -13 0 -31 1 -45
c0 0 2 -61 1 -136c0 -30 5 -50 1 -91c-2 -20 0 -74 -1 -86c-3 -29 1 -34 1 -47v-22c0 -14 -1 -14 9 -21c1 -1 7 -14 46 -23c31 -7 50 -14 79 -15c40 -2 76 4 107 17c8 3 22 11 29 13c30 10 47 34 67 57c9 12 17 32 25 53c11 29 19 41 21 74c0 0 1 14 2 35l-1 43v26v2l1 65v6
l-2 49l-2 17v6c0 1 -1 34 -1 36c-3 25 -11 52 -25 78c-10 21 -25 39 -42 55c-19 18 -40 34 -58 45c-1 0 -21 10 -23 10c-18 4 -40 19 -96 20z" />
    <glyph glyph-name="OE" unicode="&#x152;" horiz-adv-x="994" 
d="M582 642l1 55c0 4 -1 2 -1 35c0 11 4 19 17 19l42 -1c3 0 56 -1 59 -1c0 0 45 -1 60 0c26 2 114 0 114 0h16c16 1 20 1 31 0c9 -1 13 -7 13 -15c0 -11 -17 -11 -19 -11h-16l-34 -1c-19 1 -29 -1 -42 -1h-11c-3 0 -18 2 -20 2c-9 -1 -28 -1 -31 -1h-36
c-22 3 -81 -1 -100 -1c-5 0 -9 0 -14 -1v-35c0 -7 -3 -23 0 -50c0 0 -2 -27 -2 -49c0 -3 1 -6 1 -9c1 -10 1 -62 1 -71c0 -3 -1 -6 -1 -9v-23c-1 -2 0 -15 0 -27c0 -1 1 -2 1 -2c0 -5 1 -16 1 -26c11 -1 37 0 48 0c18 -1 36 -2 53 -2c22 0 52 1 54 1c16 1 59 -1 59 -1
c2 0 6 0 7 -1c9 -4 8 -21 2 -23s-10 -1 -18 -1h-23c-9 0 -37 1 -47 0c-15 -2 -35 -1 -47 -1c-20 0 -32 -1 -51 0h-37v-77c0 -8 0 -19 -1 -33v-34c0 -27 -2 -56 0 -79v-15c0 -2 1 -4 0 -6c1 -12 2 -33 2 -43l-1 -18c0 -21 0 -32 1 -51c0 -5 2 -6 8 -6l36 -2c13 1 39 0 52 0
c35 0 73 -1 73 -1c48 4 122 0 122 0c9 0 14 0 16 -2c6 -6 8 -21 -3 -24h-58c-22 0 -44 0 -54 -1c-3 0 -16 0 -24 1c-17 1 -46 2 -59 2c-11 0 -22 -1 -29 -2h-86c-14 0 -22 6 -22 21v107v33c-6 -27 -16 -55 -20 -60c-23 -36 -56 -66 -104 -86c0 0 -25 -10 -56 -15
c-25 -3 -60 -5 -61 -5s-23 0 -43 2c-22 1 -40 9 -40 9c-35 11 -55 17 -80 38c-7 6 -10 15 -10 27l-1 48c0 23 -2 34 0 73c0 -2 1 36 0 67v18s-1 26 -1 33c0 0 2 22 0 78c-1 49 -3 78 0 119c1 17 -1 58 0 87c0 9 -1 18 -1 27c0 22 1 41 0 60c0 14 7 22 14 27
c28 20 74 44 129 47c14 1 41 0 55 -2c26 -3 55 -14 80 -22c35 -11 63 -32 74 -45c17 -19 27 -26 42 -49c2 -3 15 -21 22 -50zM334 728c-16 0 -32 1 -49 -5l-42 -14c-17 -6 -22 -10 -36 -20c-8 -5 -12 -6 -11 -23c-1 -39 -2 -73 -1 -88c2 -45 0 -71 0 -71c0 -13 0 -31 1 -45
c0 0 2 -61 1 -136c0 -30 5 -50 1 -91c-2 -20 0 -74 -1 -86c-3 -29 1 -34 1 -47v-22c0 -14 -1 -14 9 -21c1 -1 7 -14 46 -23c31 -7 50 -14 79 -15c40 -2 76 4 107 17c8 3 22 11 29 13c30 10 47 34 67 57c9 12 17 32 25 53c11 29 19 41 21 74c0 0 1 14 2 35l-1 43v26v2l1 65v6
l-2 49l-2 17v6c0 1 -1 34 -1 36c-3 25 -11 52 -25 78c-10 21 -25 39 -42 55c-19 18 -40 34 -58 45c-1 0 -21 10 -23 10c-18 4 -40 19 -96 20z" />
    <glyph glyph-name="germandbls" unicode="&#xdf;" horiz-adv-x="648" 
d="M396 7c-18 7 -37 22 -52 39c-10 11 -22 27 -27 43c3 13 18 21 27 6c3 -11 8 -16 12 -20l7 -9c19 -23 54 -44 87 -44c13 0 22 3 35 8c17 8 37 21 49 39l6 11c10 14 21 32 21 76c0 45 -45 78 -61 93c-24 23 -28 27 -45 41l-27 28c-28 16 -71 55 -69 95c4 35 20 46 41 59
c14 9 30 27 51 39c32 30 52 55 52 82c0 9 -2 20 -4 33c-5 39 -40 88 -77 95c-23 4 -44 8 -62 8c-67 0 -102 -49 -114 -79c-13 -31 -18 -61 -21 -86c0 -3 -1 -7 -1 -10c-1 -3 -1 -6 -1 -8c-2 -17 -2 -13 -2 -25v-48c0 -7 -1 -14 -1 -20v-39c-2 -4 0 -15 0 -28
c0 -6 0 -25 -1 -36l2 -47c1 -10 1 -36 0 -51c0 -4 -1 -10 -1 -14v-27c0 -5 1 -10 1 -16c1 -9 1 -25 1 -34c0 -5 -1 -10 -1 -15v-126c1 -17 -2 -20 -15 -20c-8 0 -12 6 -12 20v15c0 2 1 5 1 7v51c1 24 0 50 -1 72v13c0 2 -1 4 -1 7v8l-2 79c0 23 -1 52 0 81c0 3 1 9 1 12v10
c1 16 2 34 2 51c1 24 -1 47 -1 71l2 31c-1 15 0 17 2 30c3 59 17 111 48 143c20 20 41 46 90 52c14 2 25 3 33 3c7 0 13 -1 20 -2c5 0 17 -2 22 -2c1 0 2 -1 4 -1c23 -3 51 -21 70 -40l3 -3c20 -19 34 -34 41 -76c8 -47 -9 -88 -25 -109c-14 -18 -27 -31 -44 -41
c-53 -32 -71 -51 -72 -63c-2 -22 21 -54 37 -63l63 -53c43 -44 95 -80 103 -147c-1 -32 -13 -72 -30 -97c-19 -25 -44 -47 -66 -55c-17 -6 -29 -9 -47 -9s-33 4 -51 12z" />
    <glyph glyph-name="cent" unicode="&#xa2;" horiz-adv-x="561" 
d="M323 750c4 5 17 3 20 0s4 -11 4 -15v-49c-1 -2 -1 -12 -1 -23c26 -3 57 -10 86 -21l35 -24c18 -18 20 -21 17 -36c-2 -10 -11 -8 -24 6c-2 2 -14 10 -14 12l-5 4c-4 1 -9 6 -13 10l-25 13c-12 3 -36 7 -57 9v-7l1 -65c-1 -22 -2 -36 -2 -52s0 -31 1 -51c1 -7 1 -20 1 -37
v-42c1 -18 1 -8 1 -24l-1 -56c0 -3 1 -5 1 -23c-1 -18 -2 -45 -1 -63v-92l6 1c8 0 17 0 27 2c1 0 2 1 4 1c2 1 5 2 8 2c13 4 28 8 36 16l16 10l26 20c5 5 14 13 19 -3c3 -6 1 -11 -8 -24l-13 -11c-36 -21 -43 -25 -57 -30c-17 -6 -30 -9 -51 -9h-13c0 -38 -1 -74 -1 -85
c0 -5 0 -11 -3 -13c-5 -3 -18 -3 -22 1c-3 4 -3 7 -3 13l1 271v27c0 12 2 25 2 38c0 35 -2 19 -3 44l1 -13v6c0 3 1 6 1 9c1 11 1 24 0 31v5l-2 49v70c0 3 2 24 2 27l-1 84l1 24v43c0 6 0 17 3 20z" />
    <glyph glyph-name="bar" unicode="|" horiz-adv-x="316" 
d="M184 761c1 -11 1 -25 0 -39c-1 -10 -1 -21 -1 -29v-78c1 -9 2 -30 2 -39c1 -18 1 -50 1 -68v-204c2 -38 2 -87 2 -124c0 -15 -1 -102 -2 -118c0 -4 0 -14 -1 -16v-38c0 -3 1 -6 1 -9v-41c-1 -14 -2 -20 -12 -20c-5 0 -14 -1 -14 19v30c0 15 1 32 1 51v44c0 15 1 30 1 45
c0 16 -1 30 -1 44v30c-1 27 -1 70 -1 94c0 31 0 61 1 93v59c0 24 1 48 1 65v13c0 5 -1 10 -1 15c-1 9 -1 22 -1 30c0 15 0 33 -1 49c-1 19 -2 77 -2 96v33c0 6 1 12 1 19c0 16 1 20 12 23h6c10 -3 8 -29 8 -29z" />
    <glyph glyph-name="breve" unicode="&#x2d8;" horiz-adv-x="270" 
d="M258 685c0 -7 -1 -11 -3 -17l-3 -12c-4 -18 -18 -37 -34 -51c-7 -7 -26 -14 -34 -16c-22 -5 -45 -2 -57 1c-8 2 -19 5 -25 10c-17 12 -31 23 -39 40c-1 2 -3 2 -6 10c0 1 -1 3 -2 6c-3 5 -3 10 -5 18c-1 3 -2 8 -1 14c0 12 23 14 26 1c1 -3 2 -10 2 -12c1 -6 5 -12 6 -18
c4 -10 13 -18 18 -22l9 -8c6 -7 14 -13 35 -15c9 -1 31 -1 41 4c15 5 18 11 29 26c7 10 12 25 15 39c2 11 28 14 28 2z" />
    <glyph glyph-name="dotlessi" unicode="&#x131;" horiz-adv-x="309" 
d="M196 749c4 5 18 3 21 0s4 -11 4 -15v-58c-1 -5 -1 -53 -1 -57l1 -71c-1 -22 -2 -36 -2 -52s0 -31 1 -51c1 -7 1 -20 1 -37v-94c1 -18 1 -48 1 -64l-1 -56c0 -3 1 -5 1 -23c-1 -18 -2 -45 -1 -63c1 -19 0 -68 -1 -94c0 -5 0 -11 -3 -13c-5 -3 -19 -3 -23 1
c-3 4 -3 7 -3 13l1 163v27c0 12 1 25 1 38c0 35 -1 71 -2 96l1 27v6c0 3 1 6 1 9c1 11 1 24 0 31v5l-2 49v70c0 3 2 30 2 33l-1 84l1 24v52c0 6 0 17 3 20z" />
    <glyph glyph-name="hungarumlaut" unicode="&#x2dd;" horiz-adv-x="616" 
d="M357 918c10 5 28 18 34 8c5 -9 8 -16 -14 -30c-11 -7 -17 -7 -32 -17c-6 -4 -57 -29 -64 -33c0 0 -28 -20 -51 -29l-28 -13c-13 -6 -22 15 -9 25c12 9 18 9 41 22c26 15 32 17 33 18c0 0 26 15 50 26c15 7 23 15 40 23zM515 918c10 5 28 18 34 8c5 -9 8 -16 -14 -30
c-11 -7 -17 -7 -32 -17c-6 -4 -57 -29 -64 -33c0 0 -28 -20 -51 -29l-28 -13c-13 -6 -22 15 -9 25c12 9 15 7 38 20c26 15 35 19 36 20c0 0 26 15 50 26c15 7 23 15 40 23z" />
    <glyph glyph-name="ogonek" unicode="&#x2db;" horiz-adv-x="221" 
d="M138 22l14 -20c-5 -2 -10 -6 -10 -6c-16 -6 -38 -35 -46 -61c-7 -24 23 -40 64 -35c3 0 9 -4 9 -5c3 -2 7 -15 -9 -20c-49 -3 -79 8 -85 23c-5 13 -9 33 -3 49c7 22 28 53 66 75z" />
    <glyph glyph-name="asciitilde" unicode="~" horiz-adv-x="446" 
d="M170 794c-11 0 -36 -11 -48 -21c-19 -9 -33 9 -23 17c23 20 54 32 72 32c30 0 42 -9 59 -20l8 -5c1 -1 15 -9 16 -9c16 -10 26 -16 51 -16c30 0 50 26 60 42c7 11 26 -1 23 -12c-9 -34 -45 -54 -79 -57c-23 -2 -44 7 -62 16l-16 7l-24 13c-11 6 -15 13 -37 13z" />
    <glyph glyph-name="asciicircum" unicode="^" horiz-adv-x="494" 
d="M238 907l-25 -28c-2 -4 -6 -8 -25 -25l-32 -34c-5 -7 -22 -23 -30 -15c-11 13 -7 14 6 29c0 0 21 27 37 40c0 0 17 18 24 26c10 9 33 35 33 35c9 9 21 22 30 23c6 1 22 -14 34 -27l18 -21l14 -17c20 -19 33 -36 38 -43l14 -18c10 -12 14 -25 3 -27c-14 -3 -15 2 -28 18
c-1 1 -39 47 -46 53l-13 13l-16 17l-3 4c-5 6 -13 13 -15 14z" />
    <glyph glyph-name="commaaccent" unicode="&#xf6c3;" horiz-adv-x="460" 
d="M207 -130l19 44s5 10 9 17c3 6 8 18 8 18c7 14 8 19 18 16c8 -6 12 -9 3 -30l-8 -16c-3 -8 -7 -19 -13 -30c-8 -15 -11 -23 -17 -38c-11 -27 -29 -60 -29 -60l-7 -15c-7 -13 -24 4 -20 15c4 10 5 13 11 25c2 5 8 16 10 21c4 11 16 33 16 33z" />
    <glyph glyph-name="macron" unicode="&#xaf;" horiz-adv-x="561" 
d="M204 752c-14 0 -17 5 -13 17c4 10 10 10 21 10l15 1c14 1 19 -1 35 -1l30 2c4 0 9 1 28 0h7c2 0 50 -1 52 -1c16 -1 30 -1 30 -1c11 0 24 1 22 -15c-1 -11 -5 -12 -22 -12h-47c-6 1 -32 3 -42 2l-34 -2c-61 2 -82 0 -82 0z" />
    <glyph glyph-name="Lslash" unicode="&#x141;" horiz-adv-x="556" 
d="M301 0c0 0 -40 -1 -85 0c-11 0 -21 3 -22 18c-2 61 -3 148 -3 205l1 49c0 3 1 5 1 7v40c-2 107 0 177 0 177v84c0 5 -1 31 1 53c-3 39 -2 61 -2 100v9c0 12 26 10 27 4c1 -4 2 -9 2 -14c0 0 -1 -22 0 -98c-1 -18 -1 -67 -1 -85v-31c0 -2 1 -44 1 -46l-1 -47v-10
c8 6 18 11 29 16c9 4 31 21 42 27c9 5 17 11 25 15c9 5 23 18 30 2c6 -14 -10 -21 -16 -25l-11 -7l-24 -14l-25 -17l-13 -7l-37 -23l1 -31c0 -11 1 -23 0 -35v-46c0 -2 -1 -4 -1 -33c-1 -15 -1 -30 -1 -44c0 -12 0 -29 1 -41v-75l1 -38c0 -8 0 -13 7 -12c6 0 40 0 47 1
l19 -1h30c10 -1 101 -3 108 -2c11 1 84 -1 84 -1c7 0 12 -8 9 -15c-2 -5 -6 -9 -10 -9c-5 0 -21 -2 -27 -1l-37 1c-44 -1 -36 -4 -82 0c-11 1 -68 0 -68 0z" />
    <glyph glyph-name="lslash" unicode="&#x142;" horiz-adv-x="556" 
d="M301 0c0 0 -40 -1 -85 0c-11 0 -21 3 -22 18c-2 61 -3 148 -3 205l1 49c0 3 1 5 1 7v40c-2 107 0 177 0 177v84c0 5 -1 31 1 53c-3 39 -2 61 -2 100v9c0 12 26 10 27 4c1 -4 2 -9 2 -14c0 0 -1 -22 0 -98c-1 -18 -1 -67 -1 -85v-31c0 -2 1 -44 1 -46l-1 -47v-10
c8 6 18 11 29 16c9 4 31 21 42 27c9 5 17 11 25 15c9 5 23 18 30 2c6 -14 -10 -21 -16 -25l-11 -7l-24 -14l-25 -17l-13 -7l-37 -23l1 -31c0 -11 1 -23 0 -35v-46c0 -2 -1 -4 -1 -33c-1 -15 -1 -30 -1 -44c0 -12 0 -29 1 -41v-75l1 -38c0 -8 0 -13 7 -12c6 0 40 0 47 1
l19 -1h30c10 -1 101 -3 108 -2c11 1 84 -1 84 -1c7 0 12 -8 9 -15c-2 -5 -6 -9 -10 -9c-5 0 -21 -2 -27 -1l-37 1c-44 -1 -36 -4 -82 0c-11 1 -68 0 -68 0z" />
    <glyph glyph-name="Thorn" unicode="&#xde;" horiz-adv-x="628" 
d="M220 12v-5c0 -11 -25 -10 -26 -2c-2 21 -3 31 -2 48l-1 73v49c1 4 1 46 1 49l-1 59c0 25 1 35 1 60c-1 18 -2 38 -1 53v63v93c-1 27 1 30 1 61c1 6 -2 18 -1 25c1 9 0 44 0 44c-1 22 0 52 0 52c0 12 1 16 11 17c16 0 14 -7 14 -16v-36c1 -2 1 -9 0 -19v-10
c-1 -11 1 -20 1 -44c0 -3 -1 -11 0 -24c1 -11 1 -16 0 -19h34h30c50 -1 80 -2 117 -8c29 -5 49 -17 70 -25c28 -10 58 -50 77 -80c11 -17 21 -51 23 -76c3 -17 3 -39 -1 -54c0 -1 -5 -20 -5 -21c-1 -2 -1 -3 -1 -3c-9 -46 -23 -61 -50 -88c-28 -25 -42 -36 -82 -44
c-10 -2 -44 -5 -54 -5c-11 0 -21 -1 -32 -1c-16 -1 -33 2 -50 -1c-7 -1 -22 2 -29 1c-12 -1 -8 -1 -34 -2l-10 4c-2 -35 -1 -70 -1 -113c0 -35 1 -55 1 -55zM482 500c-13 13 -23 20 -51 31c-34 22 -100 24 -136 23h-14c-23 1 -44 1 -64 0c2 -33 -2 -31 1 -76
c1 -10 0 -24 1 -34c1 -17 1 -31 1 -46v-43c0 -8 0 -20 1 -31c0 -11 0 -28 -2 -38c0 -5 -1 -13 -1 -18v-36c-1 -8 0 -18 1 -26l21 -2c13 0 26 2 37 2c17 0 32 1 48 -2c8 -1 23 1 38 2c35 2 72 7 92 17c22 11 31 23 37 29c11 11 15 17 25 31c8 12 9 20 11 25c8 19 13 39 14 61
c0 16 -2 35 -7 53c-13 36 -24 57 -53 78z" />
    <glyph glyph-name="thorn" unicode="&#xfe;" horiz-adv-x="628" 
d="M220 12v-5c0 -11 -25 -10 -26 -2c-2 21 -3 31 -2 48l-1 73v49c1 4 1 46 1 49l-1 59c0 25 1 35 1 60c-1 18 -2 38 -1 53v63v93c-1 27 1 30 1 61c1 6 -2 18 -1 25c1 9 0 44 0 44c-1 22 0 52 0 52c0 12 1 16 11 17c16 0 14 -7 14 -16v-36c1 -2 1 -9 0 -19v-10
c-1 -11 1 -20 1 -44c0 -3 -1 -11 0 -24c1 -11 1 -16 0 -19h34h30c50 -1 80 -2 117 -8c29 -5 49 -17 70 -25c28 -10 58 -50 77 -80c11 -17 21 -51 23 -76c3 -17 3 -39 -1 -54c0 -1 -5 -20 -5 -21c-1 -2 -1 -3 -1 -3c-9 -46 -23 -61 -50 -88c-28 -25 -42 -36 -82 -44
c-10 -2 -44 -5 -54 -5c-11 0 -21 -1 -32 -1c-16 -1 -33 2 -50 -1c-7 -1 -22 2 -29 1c-12 -1 -8 -1 -34 -2l-10 4c-2 -35 -1 -70 -1 -113c0 -35 1 -55 1 -55zM482 500c-13 13 -23 20 -51 31c-34 22 -100 24 -136 23h-14c-23 1 -44 1 -64 0c2 -33 -2 -31 1 -76
c1 -10 0 -24 1 -34c1 -17 1 -31 1 -46v-43c0 -8 0 -20 1 -31c0 -11 0 -28 -2 -38c0 -5 -1 -13 -1 -18v-36c-1 -8 0 -18 1 -26l21 -2c13 0 26 2 37 2c17 0 32 1 48 -2c8 -1 23 1 38 2c35 2 72 7 92 17c22 11 31 23 37 29c11 11 15 17 25 31c8 12 9 20 11 25c8 19 13 39 14 61
c0 16 -2 35 -7 53c-13 36 -24 57 -53 78z" />
    <glyph glyph-name="section" unicode="&#xa7;" horiz-adv-x="564" 
d="M467 642c-7 -12 -18 -8 -22 0c-2 2 -5 7 -8 12c-12 15 -35 41 -46 46c-5 2 -6 3 -6 3l-15 9c-14 9 -35 18 -53 19c-48 3 -75 -4 -114 -23c-25 -13 -61 -61 -74 -97c-3 -12 -4 -25 -4 -32c0 -33 12 -62 26 -78c35 -29 91 -73 143 -95c34 -13 78 -43 111 -67
c25 -22 51 -57 62 -93c5 -16 10 -41 10 -60c2 -50 -16 -97 -40 -128c12 -16 19 -36 24 -50c6 -17 10 -41 11 -60c2 -57 -11 -97 -36 -123c-36 -34 -70 -60 -149 -69c-33 -2 -76 8 -98 21l-8 5c-2 1 -11 7 -11 7c-13 7 -20 14 -33 24l-36 34s-19 22 -14 28c6 11 18 9 22 4
l29 -32l16 -14c10 -8 14 -10 25 -18c10 -7 12 -8 13 -8c13 -8 30 -16 49 -20c1 0 3 -1 4 -1c9 -2 21 -3 29 -3c12 0 30 3 48 8l7 3l17 5c14 5 29 12 45 24c17 12 45 40 51 76c1 6 2 40 2 56c-7 40 -14 75 -47 106c-9 12 -36 31 -74 55c-14 12 -21 15 -26 18l-7 3l-90 46
c-50 32 -79 58 -95 96c-7 17 -10 25 -13 49c-1 47 11 75 17 85c14 21 28 41 40 51c-13 12 -32 34 -41 51c-6 12 -8 31 -10 51c-1 48 11 76 17 86c25 37 51 68 98 91c29 12 64 16 100 15c44 -3 66 -19 91 -35c16 -11 40 -37 43 -40c0 0 24 -29 20 -41zM419 84
c12 13 22 31 27 57c1 6 3 36 3 52c-8 40 -14 76 -45 107c-14 13 -31 21 -65 49c-13 10 -35 20 -45 25c-20 10 -50 27 -87 48c-11 7 -16 10 -24 17c-2 0 -12 7 -13 8c-22 -20 -40 -46 -47 -77c-2 -10 -3 -20 -3 -29c0 -31 13 -62 27 -80c36 -30 90 -73 142 -92
c34 -16 77 -43 109 -67c12 -9 18 -15 21 -18z" />
    <glyph glyph-name="plusminus" unicode="&#xb1;" horiz-adv-x="485" 
d="M221 482c0 9 0 13 14 14c12 1 10 -11 10 -15c-1 -7 0 -57 1 -61v-12c-1 -7 -1 -13 -1 -18c0 -20 1 -17 1 -32c0 -18 1 -10 1 -29l-1 -10h29c6 0 11 -1 17 -1c24 0 29 1 41 1c0 0 24 -3 38 -2c11 1 25 0 25 0c16 0 21 -4 22 -10c3 -18 -5 -15 -16 -15c0 0 -20 1 -36 0
c-12 -1 -36 1 -36 1h-16h-19l-18 -1h-31v-28c0 -29 1 -46 -1 -82l1 -49c0 -4 4 -17 -13 -17c-14 0 -13 13 -13 23v23v25c0 7 1 26 1 34c0 12 -2 21 -1 34c1 15 0 37 0 37l-30 1c-31 0 -45 1 -68 -1c-14 -1 -47 2 -47 2c-20 0 -24 -1 -24 11s4 14 20 13h25c47 2 76 0 76 0h26
h22l-1 48c1 21 2 46 0 75c-2 24 2 41 2 41zM90 25c-38 -1 -40 4 -38 16s12 10 27 10c42 0 22 1 56 0c31 -1 46 -1 76 -2h87c4 0 40 -2 43 -2l40 2c29 1 41 4 41 -13c0 -13 -12 -11 -37 -12c-13 -1 -21 -2 -32 -2c-13 0 -15 0 -28 1s-32 1 -52 1c-26 0 -12 1 -39 0
c-6 0 -13 -1 -19 -1h-30c-52 0 -95 2 -95 2z" />
    <glyph glyph-name="periodcentered" unicode="&#xb7;" horiz-adv-x="351" 
d="M172 446c13 0 23 -11 24 -25c2 -16 -15 -34 -25 -38c-15 -4 -24 -1 -31 10c-11 20 0 47 23 52c2 1 5 1 9 1z" />
    <glyph glyph-name="Ccedilla" unicode="&#xc7;" horiz-adv-x="636" 
d="M182 61c-11 9 -16 16 -16 35c2 68 2 135 1 156c-2 49 -1 88 0 129v49c0 3 -1 114 -1 117l1 39l-1 33l1 22c0 9 4 21 13 29c17 15 37 30 37 30c4 3 11 5 14 8c6 5 14 9 14 9c9 7 26 14 42 20c12 4 26 7 40 9l17 3l12 2l28 3c15 0 34 -1 49 -3c0 0 18 -2 38 -9
c8 -3 35 -13 31 -12c0 0 18 -8 28 -15l15 -8c8 -5 12 -16 9 -23c-4 -9 -13 -9 -14 -7l-12 7l-10 6l-7 4c-4 1 -10 5 -13 7l-11 6l-29 10l-18 4c-7 0 -13 1 -21 2l-10 1h-43l-18 -3c-15 -2 -39 0 -67 -21c-25 -11 -51 -28 -76 -47c-6 -5 -9 -10 -9 -18c-2 -41 -3 -96 -3 -125
c0 -13 -1 -31 0 -45l3 -108c0 -42 0 -84 -1 -127l1 -34c0 -14 -1 -26 -1 -36c-1 -26 0 -39 0 -59c0 -12 0 -13 7 -18c0 0 6 -9 46 -28l27 -9l24 -10c27 -8 64 -13 84 -11c23 2 47 1 76 9c18 2 45 14 59 27l5 3c24 18 31 27 37 33s15 13 22 4c9 -12 -1 -23 -19 -40
c-15 -15 -48 -41 -83 -51c-33 -9 -70 -15 -112 -13c-6 0 -14 1 -21 2v-45l17 -1c3 0 6 1 9 1c17 0 38 -6 49 -11c31 -16 49 -45 52 -74c1 -20 -1 -28 -7 -40c-13 -25 -22 -34 -46 -47c0 0 -13 -6 -19 -7c-3 -1 -9 -3 -13 -3c-8 -1 -22 -1 -29 1c-8 1 -22 6 -29 9
c-12 8 -20 18 -16 26v-1c4 5 9 8 13 6h-1c5 -3 14 -7 14 -7l20 -7c11 -3 25 -2 37 2c8 2 21 5 27 12c9 11 22 24 22 40c0 8 0 24 -3 34l-7 14c-4 9 -10 7 -19 15c-9 4 -27 9 -32 10c-6 1 -17 1 -26 0l-13 1c-3 0 -25 0 -25 8v66c-29 5 -61 13 -84 26c-14 8 -24 13 -31 18
c-11 7 -14 7 -25 16z" />
    <glyph glyph-name="Zcaron" unicode="&#x17d;" horiz-adv-x="608" 
d="M260 377c-3 -5 -3 -9 -6 -13l-30 -63c-14 -30 -18 -45 -33 -72l-8 -13l-7 -14l-3 -6c-14 -31 -22 -49 -25 -53c0 0 -9 -14 -12 -23c-4 -10 -9 -19 -20 -40c-7 -11 -9 -18 -9 -18l-8 -18l-9 -16l-11 -22c-4 -9 -32 -8 -28 4l4 10l4 9l14 27c2 5 22 44 22 44l2 5l13 25
c6 16 23 45 23 45l15 35l17 28l9 18c1 5 7 17 11 24l5 12l15 31c2 4 2 8 5 12l6 13c7 12 12 26 18 39l5 11c3 6 6 14 10 21l10 18c3 8 4 15 25 57l18 36l21 43l10 23c12 23 27 45 36 68c8 21 24 55 24 55l3 5l-19 -1s-25 -1 -61 1c-19 1 -63 1 -83 0c-27 -1 -37 6 -70 0
c-23 -4 -42 -1 -42 -1c-20 0 -38 1 -53 0h-11c-8 0 -12 1 -14 3c-6 4 -2 20 6 22c18 3 41 3 64 3l101 1l13 -1h18c6 0 12 -1 19 -1h28c15 2 35 2 45 1c2 0 14 -1 17 -1c0 0 22 3 62 1c9 -1 14 -9 9 -24l-3 -7s-34 -83 -49 -109c-7 -12 -15 -31 -24 -50l-19 -36
c-8 -20 -21 -47 -30 -68c-3 -5 -6 -10 -7 -14l-13 -26zM252 893l26 -28l18 -17c2 1 10 8 15 14l3 4l16 17l13 14c7 6 45 52 46 53c13 16 14 21 28 18c11 -2 7 -15 -3 -27l-14 -18c-5 -7 -18 -24 -38 -43l-14 -17l-18 -21c-12 -13 -28 -28 -34 -27c-9 1 -21 14 -30 23
c0 0 -23 26 -33 35c-7 8 -24 26 -24 26c-16 13 -37 40 -37 40c-13 15 -17 16 -6 29c8 8 25 -8 30 -15l31 -34c19 -17 23 -22 25 -26z" />
    <glyph glyph-name="zcaron" unicode="&#x17e;" horiz-adv-x="608" 
d="M260 377c-3 -5 -3 -9 -6 -13l-30 -63c-14 -30 -18 -45 -33 -72l-8 -13l-7 -14l-3 -6c-14 -31 -22 -49 -25 -53c0 0 -9 -14 -12 -23c-4 -10 -9 -19 -20 -40c-7 -11 -9 -18 -9 -18l-8 -18l-9 -16l-11 -22c-4 -9 -32 -8 -28 4l4 10l4 9l14 27c2 5 22 44 22 44l2 5l13 25
c6 16 23 45 23 45l15 35l17 28l9 18c1 5 7 17 11 24l5 12l15 31c2 4 2 8 5 12l6 13c7 12 12 26 18 39l5 11c3 6 6 14 10 21l10 18c3 8 4 15 25 57l18 36l21 43l10 23c12 23 27 45 36 68c8 21 24 55 24 55l3 5l-19 -1s-25 -1 -61 1c-19 1 -63 1 -83 0c-27 -1 -37 6 -70 0
c-23 -4 -42 -1 -42 -1c-20 0 -38 1 -53 0h-11c-8 0 -12 1 -14 3c-6 4 -2 20 6 22c18 3 41 3 64 3l101 1l13 -1h18c6 0 12 -1 19 -1h28c15 2 35 2 45 1c2 0 14 -1 17 -1c0 0 22 3 62 1c9 -1 14 -9 9 -24l-3 -7s-34 -83 -49 -109c-7 -12 -15 -31 -24 -50l-19 -36
c-8 -20 -21 -47 -30 -68c-3 -5 -6 -10 -7 -14l-13 -26zM275 885l26 -28l18 -17c2 1 10 8 15 14l3 4l16 17l13 14c7 6 45 52 46 53c13 16 14 21 28 18c11 -2 7 -15 -3 -27l-14 -18c-5 -7 -18 -24 -38 -43l-14 -17l-18 -21c-12 -13 -28 -28 -34 -27c-9 1 -21 14 -30 23
c0 0 -23 26 -33 35c-7 8 -24 26 -24 26c-16 13 -37 40 -37 40c-13 15 -17 16 -6 29c8 8 25 -8 30 -15l31 -34c19 -17 23 -22 25 -26z" />
    <glyph glyph-name="Scaron" unicode="&#x160;" horiz-adv-x="585" 
d="M473 321c-9 8 -23 19 -37 28c-21 13 -42 21 -51 24c-16 5 -23 12 -39 18l-16 6l-41 16c-53 20 -99 43 -133 68c-8 6 -17 11 -27 22c-20 24 -36 41 -44 64s-8 58 -2 73l4 11c6 16 13 29 23 40c2 3 20 16 22 18c16 15 20 15 42 26l8 4c30 14 71 17 112 16
c25 -1 52 -5 73 -11c14 -4 25 -8 34 -14l19 -11c6 -4 16 -9 36 -25l8 -6l9 -7c11 -10 -4 -32 -16 -23l-6 5l-10 7c-3 1 -10 6 -12 8c-6 5 -13 11 -22 18c-10 6 -27 11 -44 18c-20 8 -64 15 -79 14c-39 -3 -34 -1 -79 -10c-8 -2 -17 -7 -26 -12c-13 -6 -21 -14 -32 -20
c-5 -3 -9 -8 -13 -12c-15 -15 -27 -29 -27 -53c0 -12 -1 -24 2 -35c1 -4 2 -8 4 -12c2 -5 10 -18 13 -23c8 -14 19 -23 36 -36c42 -31 60 -43 110 -64c7 -3 36 -14 36 -14c26 -9 54 -24 81 -33c16 -5 31 -16 47 -24c3 -2 24 -11 46 -35c10 -10 4 -35 -9 -24zM241 883l26 -28
l18 -17c2 1 10 8 15 14l3 4l16 17l13 14c7 6 45 52 46 53c13 16 14 21 28 18c11 -2 7 -15 -3 -27l-14 -18c-5 -7 -18 -24 -38 -43l-14 -17l-18 -21c-12 -13 -28 -28 -34 -27c-9 1 -21 14 -30 23c0 0 -23 26 -33 35c-7 8 -24 26 -24 26c-16 13 -37 40 -37 40
c-13 15 -17 16 -6 29c8 8 25 -8 30 -15l31 -34c19 -17 23 -22 25 -26z" />
    <glyph glyph-name="scaron" unicode="&#x161;" horiz-adv-x="585" 
d="M473 321c-9 8 -23 19 -37 28c-21 13 -42 21 -51 24c-16 5 -23 12 -39 18l-16 6l-41 16c-53 20 -99 43 -133 68c-8 6 -17 11 -27 22c-20 24 -36 41 -44 64s-8 58 -2 73l4 11c6 16 13 29 23 40c2 3 20 16 22 18c16 15 20 15 42 26l8 4c30 14 71 17 112 16
c25 -1 52 -5 73 -11c14 -4 25 -8 34 -14l19 -11c6 -4 16 -9 36 -25l8 -6l9 -7c11 -10 -4 -32 -16 -23l-6 5l-10 7c-3 1 -10 6 -12 8c-6 5 -13 11 -22 18c-10 6 -27 11 -44 18c-20 8 -64 15 -79 14c-39 -3 -34 -1 -79 -10c-8 -2 -17 -7 -26 -12c-13 -6 -21 -14 -32 -20
c-5 -3 -9 -8 -13 -12c-15 -15 -27 -29 -27 -53c0 -12 -1 -24 2 -35c1 -4 2 -8 4 -12c2 -5 10 -18 13 -23c8 -14 19 -23 36 -36c42 -31 60 -43 110 -64c7 -3 36 -14 36 -14c26 -9 54 -24 81 -33c16 -5 31 -16 47 -24c3 -2 24 -11 46 -35c10 -10 4 -35 -9 -24zM241 883l26 -28
l18 -17c2 1 10 8 15 14l3 4l16 17l13 14c7 6 45 52 46 53c13 16 14 21 28 18c11 -2 7 -15 -3 -27l-14 -18c-5 -7 -18 -24 -38 -43l-14 -17l-18 -21c-12 -13 -28 -28 -34 -27c-9 1 -21 14 -30 23c0 0 -23 26 -33 35c-7 8 -24 26 -24 26c-16 13 -37 40 -37 40
c-13 15 -17 16 -6 29c8 8 25 -8 30 -15l31 -34c19 -17 23 -22 25 -26z" />
    <glyph glyph-name="Ydieresis" unicode="&#x178;" horiz-adv-x="735" 
d="M145 745c2 7 13 6 19 5s11 -6 16 -14l17 -28s11 -24 38 -62l11 -21c12 -22 23 -33 37 -55l7 -12c4 -6 15 -26 34 -57l34 -52l22 -38l11 -18l27 -46l6 -8c14 18 29 40 41 59c6 10 26 38 32 48l9 11c4 5 38 54 40 58l29 46c16 25 19 35 37 60c11 16 20 29 23 34
c17 27 13 25 40 67l12 22c7 9 26 7 27 -1c1 -4 -1 -8 -4 -14l-4 -8c-9 -19 -27 -49 -36 -61l-11 -20l-34 -55l-9 -10l-10 -17l-21 -37l-21 -31l-4 -5l-31 -46c-3 -7 -60 -89 -63 -93l-12 -16c-6 -8 -9 -15 -13 -21l-2 -72c0 -15 1 -33 2 -46v-18c1 3 -2 -42 0 -83
c2 -35 1 -52 1 -84c0 -10 -26 -9 -26 -1v18v4c-1 21 -1 60 -1 74c-1 14 -1 53 -1 66c-1 14 -1 39 -1 51c0 38 0 80 -2 87c-3 6 -8 13 -8 13c-11 15 -28 44 -44 72l-15 23c-9 16 -12 25 -17 32l-28 45c-5 7 -9 15 -19 30l-21 30l-19 31l-9 14l-3 4l-15 25l-6 9l-9 16l-6 12
l-7 12l-13 20l-9 17c-1 2 -2 3 -2 3c-12 19 -18 26 -16 32zM331 884c13 0 20 -11 24 -23c5 -16 -12 -29 -22 -33c-15 -4 -24 -1 -32 10c-11 19 -3 40 21 45c2 1 5 1 9 1zM494 887c13 0 23 -11 24 -23c2 -17 -13 -29 -23 -33c-15 -5 -21 2 -30 10c-11 20 1 36 20 45
c2 1 5 1 9 1z" />
    <glyph glyph-name="Agrave" unicode="&#xc0;" 
d="M575 36l3 -10l6 -18c3 -11 -19 -8 -19 -8c-7 1 -17 23 -21 35l-2 5l-3 7c-2 7 -5 15 -7 19c-5 8 -8 23 -11 33l-10 22l-10 26c-2 10 -6 23 -10 31c-6 15 -12 32 -17 55l-5 18l-2 7c-2 6 -5 16 -8 22l-10 30c-1 1 -3 6 -3 8l-52 -1c-15 0 -31 1 -47 1c-22 -3 -60 1 -60 1
c-42 0 -80 -3 -108 0l-12 -26c-1 -4 -4 -10 -5 -13l-11 -28l-23 -56l-19 -38l-9 -25l-26 -63l-4 -8l-4 -7l-24 -50c-12 -20 -34 -7 -30 5c1 2 1 3 1 4l4 8l4 7l24 47l9 21c8 19 18 43 25 62l32 75l7 17c6 15 13 29 18 42c0 0 4 10 5 13l7 22l27 69l32 73l12 37l4 13l45 122
c10 29 22 64 27 80c5 17 12 29 25 29c7 0 8 -3 11 -7l2 -4c4 -9 11 -25 20 -56l28 -78l15 -39c4 -9 7 -22 9 -30l2 -6l6 -20l10 -32c3 -11 7 -22 11 -33l12 -33l15 -43l26 -84l15 -46c3 -14 10 -34 17 -52c0 -2 3 -8 4 -10c6 -14 12 -30 15 -40zM354 598
c-4 20 -11 39 -20 60l-9 22l-7 26c-4 -14 -11 -31 -15 -45c-14 -45 -31 -93 -42 -125c-2 -6 -7 -19 -7 -19l-26 -73c-10 -23 -16 -32 -21 -48c-2 -4 -5 -12 -5 -14l-4 -11c-4 -9 -9 -18 -12 -26h16c4 0 58 -1 62 -1l49 1c34 -1 53 -2 71 -2c15 0 31 2 54 3l-20 56l-4 17
l-4 12c-10 37 -29 93 -42 127l-4 11c-4 10 -7 19 -10 29zM234 934c9 -4 21 -11 34 -18c23 -12 35 -20 35 -20c1 -1 24 -9 49 -26c21 -15 43 -23 55 -32c13 -10 2 -29 -11 -22l-46 24l-33 18c-7 3 -49 24 -55 27c-19 12 -33 22 -45 28c-17 8 -16 18 -11 27c6 10 18 -2 28 -6z
" />
    <glyph glyph-name="Aacute" unicode="&#xc1;" 
d="M575 36l3 -10l6 -18c3 -11 -19 -8 -19 -8c-7 1 -17 23 -21 35l-2 5l-3 7c-2 7 -5 15 -7 19c-5 8 -8 23 -11 33l-10 22l-10 26c-2 10 -6 23 -10 31c-6 15 -12 32 -17 55l-5 18l-2 7c-2 6 -5 16 -8 22l-10 30c-1 1 -3 6 -3 8l-52 -1c-15 0 -31 1 -47 1c-22 -3 -60 1 -60 1
c-42 0 -80 -3 -108 0l-12 -26c-1 -4 -4 -10 -5 -13l-11 -28l-23 -56l-19 -38l-9 -25l-26 -63l-4 -8l-4 -7l-24 -50c-12 -20 -34 -7 -30 5c1 2 1 3 1 4l4 8l4 7l24 47l9 21c8 19 18 43 25 62l32 75l7 17c6 15 13 29 18 42c0 0 4 10 5 13l7 22l27 69l32 73l12 37l4 13l45 122
c10 29 22 64 27 80c5 17 12 29 25 29c7 0 8 -3 11 -7l2 -4c4 -9 11 -25 20 -56l28 -78l15 -39c4 -9 7 -22 9 -30l2 -6l6 -20l10 -32c3 -11 7 -22 11 -33l12 -33l15 -43l26 -84l15 -46c3 -14 10 -34 17 -52c0 -2 3 -8 4 -10c6 -14 12 -30 15 -40zM354 598
c-4 20 -11 39 -20 60l-9 22l-7 26c-4 -14 -11 -31 -15 -45c-14 -45 -31 -93 -42 -125c-2 -6 -7 -19 -7 -19l-26 -73c-10 -23 -16 -32 -21 -48c-2 -4 -5 -12 -5 -14l-4 -11c-4 -9 -9 -18 -12 -26h16c4 0 58 -1 62 -1l49 1c34 -1 53 -2 71 -2c15 0 31 2 54 3l-20 56l-4 17
l-4 12c-10 37 -29 93 -42 127l-4 11c-4 10 -7 19 -10 29zM429 916c10 5 28 18 34 8c5 -9 8 -16 -14 -30c-11 -7 -17 -7 -32 -17c-6 -4 -60 -31 -67 -35c0 0 -28 -20 -51 -29l-28 -13c-13 -6 -22 15 -9 25c12 9 18 9 41 22c26 15 35 19 36 20c0 0 26 15 50 26
c15 7 23 15 40 23z" />
    <glyph glyph-name="Acircumflex" unicode="&#xc2;" 
d="M575 36l3 -10l6 -18c3 -11 -19 -8 -19 -8c-7 1 -17 23 -21 35l-2 5l-3 7c-2 7 -5 15 -7 19c-5 8 -8 23 -11 33l-10 22l-10 26c-2 10 -6 23 -10 31c-6 15 -12 32 -17 55l-5 18l-2 7c-2 6 -5 16 -8 22l-10 30c-1 1 -3 6 -3 8l-52 -1c-15 0 -31 1 -47 1c-22 -3 -60 1 -60 1
c-42 0 -80 -3 -108 0l-12 -26c-1 -4 -4 -10 -5 -13l-11 -28l-23 -56l-19 -38l-9 -25l-26 -63l-4 -8l-4 -7l-24 -50c-12 -20 -34 -7 -30 5c1 2 1 3 1 4l4 8l4 7l24 47l9 21c8 19 18 43 25 62l32 75l7 17c6 15 13 29 18 42c0 0 4 10 5 13l7 22l27 69l32 73l12 37l4 13l45 122
c10 29 22 64 27 80c5 17 12 29 25 29c7 0 8 -3 11 -7l2 -4c4 -9 11 -25 20 -56l28 -78l15 -39c4 -9 7 -22 9 -30l2 -6l6 -20l10 -32c3 -11 7 -22 11 -33l12 -33l15 -43l26 -84l15 -46c3 -14 10 -34 17 -52c0 -2 3 -8 4 -10c6 -14 12 -30 15 -40zM354 598
c-4 20 -11 39 -20 60l-9 22l-7 26c-4 -14 -11 -31 -15 -45c-14 -45 -31 -93 -42 -125c-2 -6 -7 -19 -7 -19l-26 -73c-10 -23 -16 -32 -21 -48c-2 -4 -5 -12 -5 -14l-4 -11c-4 -9 -9 -18 -12 -26h16c4 0 58 -1 62 -1l49 1c34 -1 53 -2 71 -2c15 0 31 2 54 3l-20 56l-4 17
l-4 12c-10 37 -29 93 -42 127l-4 11c-4 10 -7 19 -10 29zM331 894l-25 -28c-2 -4 -6 -8 -25 -25l-32 -34c-5 -7 -22 -23 -30 -15c-11 13 -7 14 6 29c0 0 21 27 37 40c0 0 17 18 24 26c10 9 33 35 33 35c9 9 21 22 30 23c6 1 22 -14 34 -27l18 -21l14 -17
c20 -19 33 -36 38 -43l14 -18c10 -12 14 -25 3 -27c-14 -3 -15 2 -28 18c-1 1 -39 47 -46 53l-13 13l-16 17l-3 4c-5 6 -13 13 -15 14z" />
    <glyph glyph-name="Atilde" unicode="&#xc3;" 
d="M575 36l3 -10l6 -18c3 -11 -19 -8 -19 -8c-7 1 -17 23 -21 35l-2 5l-3 7c-2 7 -5 15 -7 19c-5 8 -8 23 -11 33l-10 22l-10 26c-2 10 -6 23 -10 31c-6 15 -12 32 -17 55l-5 18l-2 7c-2 6 -5 16 -8 22l-10 30c-1 1 -3 6 -3 8l-52 -1c-15 0 -31 1 -47 1c-22 -3 -60 1 -60 1
c-42 0 -80 -3 -108 0l-12 -26c-1 -4 -4 -10 -5 -13l-11 -28l-23 -56l-19 -38l-9 -25l-26 -63l-4 -8l-4 -7l-24 -50c-12 -20 -34 -7 -30 5c1 2 1 3 1 4l4 8l4 7l24 47l9 21c8 19 18 43 25 62l32 75l7 17c6 15 13 29 18 42c0 0 4 10 5 13l7 22l27 69l32 73l12 37l4 13l45 122
c10 29 22 64 27 80c5 17 12 29 25 29c7 0 8 -3 11 -7l2 -4c4 -9 11 -25 20 -56l28 -78l15 -39c4 -9 7 -22 9 -30l2 -6l6 -20l10 -32c3 -11 7 -22 11 -33l12 -33l15 -43l26 -84l15 -46c3 -14 10 -34 17 -52c0 -2 3 -8 4 -10c6 -14 12 -30 15 -40zM354 598
c-4 20 -11 39 -20 60l-9 22l-7 26c-4 -14 -11 -31 -15 -45c-14 -45 -31 -93 -42 -125c-2 -6 -7 -19 -7 -19l-26 -73c-10 -23 -16 -32 -21 -48c-2 -4 -5 -12 -5 -14l-4 -11c-4 -9 -9 -18 -12 -26h16c4 0 58 -1 62 -1l49 1c34 -1 53 -2 71 -2c15 0 31 2 54 3l-20 56l-4 17
l-4 12c-10 37 -29 93 -42 127l-4 11c-4 10 -7 19 -10 29zM281 872c-11 0 -36 -11 -48 -21c-19 -9 -33 9 -23 17c23 20 54 32 72 32c30 0 42 -9 59 -20l8 -5c1 -1 15 -9 16 -9c16 -10 26 -16 51 -16c30 0 50 26 60 42c7 11 26 -1 23 -12c-9 -34 -45 -54 -79 -57
c-23 -2 -44 7 -62 16l-16 7l-24 13c-11 6 -15 13 -37 13z" />
    <glyph glyph-name="Adieresis" unicode="&#xc4;" 
d="M575 36l3 -10l6 -18c3 -11 -19 -8 -19 -8c-7 1 -17 23 -21 35l-2 5l-3 7c-2 7 -5 15 -7 19c-5 8 -8 23 -11 33l-10 22l-10 26c-2 10 -6 23 -10 31c-6 15 -12 32 -17 55l-5 18l-2 7c-2 6 -5 16 -8 22l-10 30c-1 1 -3 6 -3 8l-52 -1c-15 0 -31 1 -47 1c-22 -3 -60 1 -60 1
c-42 0 -80 -3 -108 0l-12 -26c-1 -4 -4 -10 -5 -13l-11 -28l-23 -56l-19 -38l-9 -25l-26 -63l-4 -8l-4 -7l-24 -50c-12 -20 -34 -7 -30 5c1 2 1 3 1 4l4 8l4 7l24 47l9 21c8 19 18 43 25 62l32 75l7 17c6 15 13 29 18 42c0 0 4 10 5 13l7 22l27 69l32 73l12 37l4 13l45 122
c10 29 22 64 27 80c5 17 12 29 25 29c7 0 8 -3 11 -7l2 -4c4 -9 11 -25 20 -56l28 -78l15 -39c4 -9 7 -22 9 -30l2 -6l6 -20l10 -32c3 -11 7 -22 11 -33l12 -33l15 -43l26 -84l15 -46c3 -14 10 -34 17 -52c0 -2 3 -8 4 -10c6 -14 12 -30 15 -40zM354 598
c-4 20 -11 39 -20 60l-9 22l-7 26c-4 -14 -11 -31 -15 -45c-14 -45 -31 -93 -42 -125c-2 -6 -7 -19 -7 -19l-26 -73c-10 -23 -16 -32 -21 -48c-2 -4 -5 -12 -5 -14l-4 -11c-4 -9 -9 -18 -12 -26h16c4 0 58 -1 62 -1l49 1c34 -1 53 -2 71 -2c15 0 31 2 54 3l-20 56l-4 17
l-4 12c-10 37 -29 93 -42 127l-4 11c-4 10 -7 19 -10 29zM275 895c13 0 20 -11 24 -23c5 -16 -12 -29 -22 -33c-15 -4 -24 -1 -32 10c-11 19 -3 40 21 45c2 1 5 1 9 1zM438 898c13 0 23 -11 24 -23c2 -17 -13 -29 -23 -33c-15 -5 -21 2 -30 10c-11 20 1 36 20 45
c2 1 5 1 9 1z" />
    <glyph glyph-name="Aring" unicode="&#xc5;" 
d="M575 36l3 -10l6 -18c3 -11 -19 -8 -19 -8c-7 1 -17 23 -21 35l-2 5l-3 7c-2 7 -5 15 -7 19c-5 8 -8 23 -11 33l-10 22l-10 26c-2 10 -6 23 -10 31c-6 15 -12 32 -17 55l-5 18l-2 7c-2 6 -5 16 -8 22l-10 30c-1 1 -3 6 -3 8l-52 -1c-15 0 -31 1 -47 1c-22 -3 -60 1 -60 1
c-42 0 -80 -3 -108 0l-12 -26c-1 -4 -4 -10 -5 -13l-11 -28l-23 -56l-19 -38l-9 -25l-26 -63l-4 -8l-4 -7l-24 -50c-12 -20 -34 -7 -30 5c1 2 1 3 1 4l4 8l4 7l24 47l9 21c8 19 18 43 25 62l32 75l7 17c6 15 13 29 18 42c0 0 4 10 5 13l7 22l27 69l32 73l12 37l4 13l45 122
c10 29 22 64 27 80c5 17 12 29 25 29c7 0 8 -3 11 -7l2 -4c4 -9 11 -25 20 -56l28 -78l15 -39c4 -9 7 -22 9 -30l2 -6l6 -20l10 -32c3 -11 7 -22 11 -33l12 -33l15 -43l26 -84l15 -46c3 -14 10 -34 17 -52c0 -2 3 -8 4 -10c6 -14 12 -30 15 -40zM354 598
c-4 20 -11 39 -20 60l-9 22l-7 26c-4 -14 -11 -31 -15 -45c-14 -45 -31 -93 -42 -125c-2 -6 -7 -19 -7 -19l-26 -73c-10 -23 -16 -32 -21 -48c-2 -4 -5 -12 -5 -14l-4 -11c-4 -9 -9 -18 -12 -26h16c4 0 58 -1 62 -1l49 1c34 -1 53 -2 71 -2c15 0 31 2 54 3l-20 56l-4 17
l-4 12c-10 37 -29 93 -42 127l-4 11c-4 10 -7 19 -10 29zM396 954c28 -18 40 -44 41 -70c-1 -39 -21 -62 -46 -73c-10 -4 -25 -8 -33 -8c-29 0 -56 16 -70 33c-7 8 -11 27 -11 42c0 37 17 59 53 76c9 4 22 6 32 6c11 0 26 -1 34 -6zM326 923c-19 -11 -21 -28 -21 -47
c0 -38 30 -51 59 -47c20 2 38 13 45 43c3 7 -2 30 -7 39c-11 14 -21 25 -41 25c-15 0 -31 -9 -35 -13z" />
    <glyph glyph-name="agrave" unicode="&#xe0;" 
d="M575 36l3 -10l6 -18c3 -11 -19 -8 -19 -8c-7 1 -17 23 -21 35l-2 5l-3 7c-2 7 -5 15 -7 19c-5 8 -8 23 -11 33l-10 22l-10 26c-2 10 -6 23 -10 31c-6 15 -12 32 -17 55l-5 18l-2 7c-2 6 -5 16 -8 22l-10 30c-1 1 -3 6 -3 8l-52 -1c-15 0 -31 1 -47 1c-22 -3 -60 1 -60 1
c-42 0 -80 -3 -108 0l-12 -26c-1 -4 -4 -10 -5 -13l-11 -28l-23 -56l-19 -38l-9 -25l-26 -63l-4 -8l-4 -7l-24 -50c-12 -20 -34 -7 -30 5c1 2 1 3 1 4l4 8l4 7l24 47l9 21c8 19 18 43 25 62l32 75l7 17c6 15 13 29 18 42c0 0 4 10 5 13l7 22l27 69l32 73l12 37l4 13l45 122
c10 29 22 64 27 80c5 17 12 29 25 29c7 0 8 -3 11 -7l2 -4c4 -9 11 -25 20 -56l28 -78l15 -39c4 -9 7 -22 9 -30l2 -6l6 -20l10 -32c3 -11 7 -22 11 -33l12 -33l15 -43l26 -84l15 -46c3 -14 10 -34 17 -52c0 -2 3 -8 4 -10c6 -14 12 -30 15 -40zM354 598
c-4 20 -11 39 -20 60l-9 22l-7 26c-4 -14 -11 -31 -15 -45c-14 -45 -31 -93 -42 -125c-2 -6 -7 -19 -7 -19l-26 -73c-10 -23 -16 -32 -21 -48c-2 -4 -5 -12 -5 -14l-4 -11c-4 -9 -9 -18 -12 -26h16c4 0 58 -1 62 -1l49 1c34 -1 53 -2 71 -2c15 0 31 2 54 3l-20 56l-4 17
l-4 12c-10 37 -29 93 -42 127l-4 11c-4 10 -7 19 -10 29zM254 932c9 -4 21 -11 34 -18c23 -12 35 -20 35 -20c1 -1 24 -9 49 -26c21 -15 43 -23 55 -32c13 -10 2 -29 -11 -22l-46 24l-33 18c-7 3 -49 24 -55 27c-19 12 -33 22 -45 28c-17 8 -16 18 -11 27c6 10 18 -2 28 -6z
" />
    <glyph glyph-name="aacute" unicode="&#xe1;" 
d="M575 36l3 -10l6 -18c3 -11 -19 -8 -19 -8c-7 1 -17 23 -21 35l-2 5l-3 7c-2 7 -5 15 -7 19c-5 8 -8 23 -11 33l-10 22l-10 26c-2 10 -6 23 -10 31c-6 15 -12 32 -17 55l-5 18l-2 7c-2 6 -5 16 -8 22l-10 30c-1 1 -3 6 -3 8l-52 -1c-15 0 -31 1 -47 1c-22 -3 -60 1 -60 1
c-42 0 -80 -3 -108 0l-12 -26c-1 -4 -4 -10 -5 -13l-11 -28l-23 -56l-19 -38l-9 -25l-26 -63l-4 -8l-4 -7l-24 -50c-12 -20 -34 -7 -30 5c1 2 1 3 1 4l4 8l4 7l24 47l9 21c8 19 18 43 25 62l32 75l7 17c6 15 13 29 18 42c0 0 4 10 5 13l7 22l27 69l32 73l12 37l4 13l45 122
c10 29 22 64 27 80c5 17 12 29 25 29c7 0 8 -3 11 -7l2 -4c4 -9 11 -25 20 -56l28 -78l15 -39c4 -9 7 -22 9 -30l2 -6l6 -20l10 -32c3 -11 7 -22 11 -33l12 -33l15 -43l26 -84l15 -46c3 -14 10 -34 17 -52c0 -2 3 -8 4 -10c6 -14 12 -30 15 -40zM354 598
c-4 20 -11 39 -20 60l-9 22l-7 26c-4 -14 -11 -31 -15 -45c-14 -45 -31 -93 -42 -125c-2 -6 -7 -19 -7 -19l-26 -73c-10 -23 -16 -32 -21 -48c-2 -4 -5 -12 -5 -14l-4 -11c-4 -9 -9 -18 -12 -26h16c4 0 58 -1 62 -1l49 1c34 -1 53 -2 71 -2c15 0 31 2 54 3l-20 56l-4 17
l-4 12c-10 37 -29 93 -42 127l-4 11c-4 10 -7 19 -10 29zM441 930c10 5 28 18 34 8c5 -9 8 -16 -14 -30c-11 -7 -17 -7 -32 -17c-6 -4 -60 -31 -67 -35c0 0 -28 -20 -51 -29l-28 -13c-13 -6 -22 15 -9 25c12 9 18 9 41 22c26 15 35 19 36 20c0 0 26 15 50 26
c15 7 23 15 40 23z" />
    <glyph glyph-name="acircumflex" unicode="&#xe2;" 
d="M575 36l3 -10l6 -18c3 -11 -19 -8 -19 -8c-7 1 -17 23 -21 35l-2 5l-3 7c-2 7 -5 15 -7 19c-5 8 -8 23 -11 33l-10 22l-10 26c-2 10 -6 23 -10 31c-6 15 -12 32 -17 55l-5 18l-2 7c-2 6 -5 16 -8 22l-10 30c-1 1 -3 6 -3 8l-52 -1c-15 0 -31 1 -47 1c-22 -3 -60 1 -60 1
c-42 0 -80 -3 -108 0l-12 -26c-1 -4 -4 -10 -5 -13l-11 -28l-23 -56l-19 -38l-9 -25l-26 -63l-4 -8l-4 -7l-24 -50c-12 -20 -34 -7 -30 5c1 2 1 3 1 4l4 8l4 7l24 47l9 21c8 19 18 43 25 62l32 75l7 17c6 15 13 29 18 42c0 0 4 10 5 13l7 22l27 69l32 73l12 37l4 13l45 122
c10 29 22 64 27 80c5 17 12 29 25 29c7 0 8 -3 11 -7l2 -4c4 -9 11 -25 20 -56l28 -78l15 -39c4 -9 7 -22 9 -30l2 -6l6 -20l10 -32c3 -11 7 -22 11 -33l12 -33l15 -43l26 -84l15 -46c3 -14 10 -34 17 -52c0 -2 3 -8 4 -10c6 -14 12 -30 15 -40zM354 598
c-4 20 -11 39 -20 60l-9 22l-7 26c-4 -14 -11 -31 -15 -45c-14 -45 -31 -93 -42 -125c-2 -6 -7 -19 -7 -19l-26 -73c-10 -23 -16 -32 -21 -48c-2 -4 -5 -12 -5 -14l-4 -11c-4 -9 -9 -18 -12 -26h16c4 0 58 -1 62 -1l49 1c34 -1 53 -2 71 -2c15 0 31 2 54 3l-20 56l-4 17
l-4 12c-10 37 -29 93 -42 127l-4 11c-4 10 -7 19 -10 29zM333 897l-25 -28c-2 -4 -6 -8 -25 -25l-32 -34c-5 -7 -22 -23 -30 -15c-11 13 -7 14 6 29c0 0 21 27 37 40c0 0 17 18 24 26c10 9 33 35 33 35c9 9 21 22 30 23c6 1 22 -14 34 -27l18 -21l14 -17
c20 -19 33 -36 38 -43l14 -18c10 -12 14 -25 3 -27c-14 -3 -15 2 -28 18c-1 1 -39 47 -46 53l-13 13l-16 17l-3 4c-5 6 -13 13 -15 14z" />
    <glyph glyph-name="atilde" unicode="&#xe3;" 
d="M575 36l3 -10l6 -18c3 -11 -19 -8 -19 -8c-7 1 -17 23 -21 35l-2 5l-3 7c-2 7 -5 15 -7 19c-5 8 -8 23 -11 33l-10 22l-10 26c-2 10 -6 23 -10 31c-6 15 -12 32 -17 55l-5 18l-2 7c-2 6 -5 16 -8 22l-10 30c-1 1 -3 6 -3 8l-52 -1c-15 0 -31 1 -47 1c-22 -3 -60 1 -60 1
c-42 0 -80 -3 -108 0l-12 -26c-1 -4 -4 -10 -5 -13l-11 -28l-23 -56l-19 -38l-9 -25l-26 -63l-4 -8l-4 -7l-24 -50c-12 -20 -34 -7 -30 5c1 2 1 3 1 4l4 8l4 7l24 47l9 21c8 19 18 43 25 62l32 75l7 17c6 15 13 29 18 42c0 0 4 10 5 13l7 22l27 69l32 73l12 37l4 13l45 122
c10 29 22 64 27 80c5 17 12 29 25 29c7 0 8 -3 11 -7l2 -4c4 -9 11 -25 20 -56l28 -78l15 -39c4 -9 7 -22 9 -30l2 -6l6 -20l10 -32c3 -11 7 -22 11 -33l12 -33l15 -43l26 -84l15 -46c3 -14 10 -34 17 -52c0 -2 3 -8 4 -10c6 -14 12 -30 15 -40zM354 598
c-4 20 -11 39 -20 60l-9 22l-7 26c-4 -14 -11 -31 -15 -45c-14 -45 -31 -93 -42 -125c-2 -6 -7 -19 -7 -19l-26 -73c-10 -23 -16 -32 -21 -48c-2 -4 -5 -12 -5 -14l-4 -11c-4 -9 -9 -18 -12 -26h16c4 0 58 -1 62 -1l49 1c34 -1 53 -2 71 -2c15 0 31 2 54 3l-20 56l-4 17
l-4 12c-10 37 -29 93 -42 127l-4 11c-4 10 -7 19 -10 29zM286 859c-11 0 -36 -11 -48 -21c-19 -9 -33 9 -23 17c23 20 54 32 72 32c30 0 42 -9 59 -20l8 -5c1 -1 15 -9 16 -9c16 -10 26 -16 51 -16c30 0 50 26 60 42c7 11 26 -1 23 -12c-9 -34 -45 -54 -79 -57
c-23 -2 -44 7 -62 16l-16 7l-24 13c-11 6 -15 13 -37 13z" />
    <glyph glyph-name="adieresis" unicode="&#xe4;" 
d="M575 36l3 -10l6 -18c3 -11 -19 -8 -19 -8c-7 1 -17 23 -21 35l-2 5l-3 7c-2 7 -5 15 -7 19c-5 8 -8 23 -11 33l-10 22l-10 26c-2 10 -6 23 -10 31c-6 15 -12 32 -17 55l-5 18l-2 7c-2 6 -5 16 -8 22l-10 30c-1 1 -3 6 -3 8l-52 -1c-15 0 -31 1 -47 1c-22 -3 -60 1 -60 1
c-42 0 -80 -3 -108 0l-12 -26c-1 -4 -4 -10 -5 -13l-11 -28l-23 -56l-19 -38l-9 -25l-26 -63l-4 -8l-4 -7l-24 -50c-12 -20 -34 -7 -30 5c1 2 1 3 1 4l4 8l4 7l24 47l9 21c8 19 18 43 25 62l32 75l7 17c6 15 13 29 18 42c0 0 4 10 5 13l7 22l27 69l32 73l12 37l4 13l45 122
c10 29 22 64 27 80c5 17 12 29 25 29c7 0 8 -3 11 -7l2 -4c4 -9 11 -25 20 -56l28 -78l15 -39c4 -9 7 -22 9 -30l2 -6l6 -20l10 -32c3 -11 7 -22 11 -33l12 -33l15 -43l26 -84l15 -46c3 -14 10 -34 17 -52c0 -2 3 -8 4 -10c6 -14 12 -30 15 -40zM354 598
c-4 20 -11 39 -20 60l-9 22l-7 26c-4 -14 -11 -31 -15 -45c-14 -45 -31 -93 -42 -125c-2 -6 -7 -19 -7 -19l-26 -73c-10 -23 -16 -32 -21 -48c-2 -4 -5 -12 -5 -14l-4 -11c-4 -9 -9 -18 -12 -26h16c4 0 58 -1 62 -1l49 1c34 -1 53 -2 71 -2c15 0 31 2 54 3l-20 56l-4 17
l-4 12c-10 37 -29 93 -42 127l-4 11c-4 10 -7 19 -10 29zM273 888c13 0 20 -11 24 -23c5 -16 -12 -29 -22 -33c-15 -4 -24 -1 -32 10c-11 19 -3 40 21 45c2 1 5 1 9 1zM436 891c13 0 23 -11 24 -23c2 -17 -13 -29 -23 -33c-15 -5 -21 2 -30 10c-11 20 1 36 20 45
c2 1 5 1 9 1z" />
    <glyph glyph-name="aring" unicode="&#xe5;" 
d="M575 36l3 -10l6 -18c3 -11 -19 -8 -19 -8c-7 1 -17 23 -21 35l-2 5l-3 7c-2 7 -5 15 -7 19c-5 8 -8 23 -11 33l-10 22l-10 26c-2 10 -6 23 -10 31c-6 15 -12 32 -17 55l-5 18l-2 7c-2 6 -5 16 -8 22l-10 30c-1 1 -3 6 -3 8l-52 -1c-15 0 -31 1 -47 1c-22 -3 -60 1 -60 1
c-42 0 -80 -3 -108 0l-12 -26c-1 -4 -4 -10 -5 -13l-11 -28l-23 -56l-19 -38l-9 -25l-26 -63l-4 -8l-4 -7l-24 -50c-12 -20 -34 -7 -30 5c1 2 1 3 1 4l4 8l4 7l24 47l9 21c8 19 18 43 25 62l32 75l7 17c6 15 13 29 18 42c0 0 4 10 5 13l7 22l27 69l32 73l12 37l4 13l45 122
c10 29 22 64 27 80c5 17 12 29 25 29c7 0 8 -3 11 -7l2 -4c4 -9 11 -25 20 -56l28 -78l15 -39c4 -9 7 -22 9 -30l2 -6l6 -20l10 -32c3 -11 7 -22 11 -33l12 -33l15 -43l26 -84l15 -46c3 -14 10 -34 17 -52c0 -2 3 -8 4 -10c6 -14 12 -30 15 -40zM354 598
c-4 20 -11 39 -20 60l-9 22l-7 26c-4 -14 -11 -31 -15 -45c-14 -45 -31 -93 -42 -125c-2 -6 -7 -19 -7 -19l-26 -73c-10 -23 -16 -32 -21 -48c-2 -4 -5 -12 -5 -14l-4 -11c-4 -9 -9 -18 -12 -26h16c4 0 58 -1 62 -1l49 1c34 -1 53 -2 71 -2c15 0 31 2 54 3l-20 56l-4 17
l-4 12c-10 37 -29 93 -42 127l-4 11c-4 10 -7 19 -10 29zM398 963c28 -18 40 -44 41 -70c-1 -39 -21 -62 -46 -73c-10 -4 -25 -8 -33 -8c-29 0 -56 16 -70 33c-7 8 -11 27 -11 42c0 37 17 59 53 76c9 4 22 6 32 6c11 0 26 -1 34 -6zM328 932c-19 -11 -21 -28 -21 -47
c0 -38 30 -51 59 -47c20 2 38 13 45 43c3 7 -2 30 -7 39c-11 14 -21 25 -41 25c-15 0 -31 -9 -35 -13z" />
    <glyph glyph-name="Egrave" unicode="&#xc8;" horiz-adv-x="604" 
d="M192 642l1 55c0 4 -1 2 -1 35c0 11 4 19 17 19l42 -1c3 0 56 -1 59 -1c0 0 45 -1 60 0c26 2 114 0 114 0h16c16 1 20 1 31 0c9 -1 13 -7 13 -15c0 -11 -17 -11 -19 -11h-16l-34 -1c-19 1 -29 -1 -42 -1h-11c-3 0 -18 2 -20 2c-9 -1 -28 -1 -31 -1h-36
c-22 3 -81 -1 -100 -1c-5 0 -9 0 -14 -1v-35c0 -7 -3 -23 0 -50c0 0 -1 -27 -1 -49c0 -3 1 -6 1 -9c1 -10 1 -62 1 -71c0 -3 -1 -6 -1 -9v-23c-1 -4 0 -42 0 -55c11 -1 38 0 49 0c18 -1 36 -2 53 -2c22 0 52 1 54 1c16 1 59 -1 59 -1c2 0 6 0 7 -1c9 -4 8 -21 2 -23
s-10 -1 -18 -1h-23c-9 0 -37 1 -47 0c-15 -2 -35 -1 -47 -1c-20 0 -32 -1 -51 0h-37l-1 -49v-95c0 -27 -2 -56 0 -79v-15c0 -2 1 -4 0 -6c1 -12 2 -33 2 -43l-1 -18c0 -21 0 -32 1 -51c0 -5 2 -6 8 -6l36 -2c13 1 39 0 52 0c35 0 73 -1 73 -1c48 4 122 0 122 0
c9 0 14 0 16 -2c6 -6 8 -21 -3 -24h-58c-22 0 -44 0 -54 -1c-3 0 -16 0 -24 1c-17 1 -46 2 -59 2c-11 0 -22 -1 -29 -2h-86c-14 0 -22 6 -22 21v28v36v43l-1 28v30l-2 155l1 65v25l-1 61c1 22 1 38 1 57c0 14 1 28 0 44zM217 950c9 -4 21 -11 34 -18c23 -12 35 -20 35 -20
c1 -1 24 -9 49 -26c21 -15 43 -23 55 -32c13 -10 2 -29 -11 -22l-46 24l-33 18c-7 3 -49 24 -55 27c-19 12 -33 22 -45 28c-17 8 -16 18 -11 27c6 10 18 -2 28 -6z" />
    <glyph glyph-name="Eacute" unicode="&#xc9;" horiz-adv-x="604" 
d="M192 642l1 55c0 4 -1 2 -1 35c0 11 4 19 17 19l42 -1c3 0 56 -1 59 -1c0 0 45 -1 60 0c26 2 114 0 114 0h16c16 1 20 1 31 0c9 -1 13 -7 13 -15c0 -11 -17 -11 -19 -11h-16l-34 -1c-19 1 -29 -1 -42 -1h-11c-3 0 -18 2 -20 2c-9 -1 -28 -1 -31 -1h-36
c-22 3 -81 -1 -100 -1c-5 0 -9 0 -14 -1v-35c0 -7 -3 -23 0 -50c0 0 -1 -27 -1 -49c0 -3 1 -6 1 -9c1 -10 1 -62 1 -71c0 -3 -1 -6 -1 -9v-23c-1 -4 0 -42 0 -55c11 -1 38 0 49 0c18 -1 36 -2 53 -2c22 0 52 1 54 1c16 1 59 -1 59 -1c2 0 6 0 7 -1c9 -4 8 -21 2 -23
s-10 -1 -18 -1h-23c-9 0 -37 1 -47 0c-15 -2 -35 -1 -47 -1c-20 0 -32 -1 -51 0h-37l-1 -49v-95c0 -27 -2 -56 0 -79v-15c0 -2 1 -4 0 -6c1 -12 2 -33 2 -43l-1 -18c0 -21 0 -32 1 -51c0 -5 2 -6 8 -6l36 -2c13 1 39 0 52 0c35 0 73 -1 73 -1c48 4 122 0 122 0
c9 0 14 0 16 -2c6 -6 8 -21 -3 -24h-58c-22 0 -44 0 -54 -1c-3 0 -16 0 -24 1c-17 1 -46 2 -59 2c-11 0 -22 -1 -29 -2h-86c-14 0 -22 6 -22 21v28v36v43l-1 28v30l-2 155l1 65v25l-1 61c1 22 1 38 1 57c0 14 1 28 0 44zM415 934c10 5 28 18 34 8c5 -9 8 -16 -14 -30
c-11 -7 -17 -7 -32 -17c-6 -4 -60 -31 -67 -35c0 0 -28 -20 -51 -29l-28 -13c-13 -6 -22 15 -9 25c12 9 18 9 41 22c26 15 35 19 36 20c0 0 26 15 50 26c15 7 23 15 40 23z" />
    <glyph glyph-name="Ecircumflex" unicode="&#xca;" horiz-adv-x="604" 
d="M193 697l-1 -55l1 -49c1 -16 0 -30 0 -44c0 -19 0 -35 -1 -57l1 -61v-25l-1 -65l2 -155v-30l1 -28v-43v-36v-28c0 -15 8 -21 22 -21h86c7 1 18 2 29 2c13 0 42 -1 59 -2c8 -1 21 -1 24 -1c10 1 32 1 54 1h58c11 3 9 18 3 24c-2 2 -7 2 -16 2c0 0 -74 4 -122 0
c0 0 -38 1 -73 1c-13 0 -39 1 -52 0l-36 2c-6 0 -8 1 -8 6c-1 19 -1 30 -1 51l1 18c0 10 -1 31 -2 43c1 2 0 4 0 6v15c-2 23 0 52 0 79v95l1 49h37c19 -1 31 0 51 0c12 0 32 -1 47 1c10 1 38 0 47 0h23c8 0 12 -1 18 1s7 19 -2 23c-1 1 -5 1 -7 1c0 0 -43 2 -59 1
c-2 0 -32 -1 -54 -1c-17 0 -35 1 -53 2c-11 0 -38 -1 -49 0c0 13 -1 51 0 55v23c0 3 1 6 1 9c0 9 0 61 -1 71c0 3 -1 6 -1 9c0 22 1 49 1 49c-3 27 0 43 0 50v35c5 1 9 1 14 1c19 0 78 4 100 1h36s22 0 31 1c2 0 17 -2 20 -2h11c13 0 23 2 42 1l34 1h16c2 0 19 0 19 11
c0 8 -4 14 -13 15c-11 1 -15 1 -31 0h-16s-88 2 -114 0c-15 -1 -60 0 -60 0c-3 0 -56 1 -59 1l-42 1c-13 0 -17 -8 -17 -19c0 -33 1 -31 1 -35zM326 908l-25 -28c-2 -4 -6 -8 -25 -25l-32 -34c-5 -7 -22 -23 -30 -15c-11 13 -7 14 6 29c0 0 21 27 37 40c0 0 17 18 24 26
c10 9 33 35 33 35c9 9 21 22 30 23c6 1 22 -14 34 -27l18 -21l14 -17c20 -19 33 -36 38 -43l14 -18c10 -12 14 -25 3 -27c-14 -3 -15 2 -28 18c-1 1 -39 47 -46 53l-13 13l-16 17l-3 4c-5 6 -13 13 -15 14z" />
    <glyph glyph-name="Edieresis" unicode="&#xcb;" horiz-adv-x="604" 
d="M192 642l1 55c0 4 -1 2 -1 35c0 11 4 19 17 19l42 -1c3 0 56 -1 59 -1c0 0 45 -1 60 0c26 2 114 0 114 0h16c16 1 20 1 31 0c9 -1 13 -7 13 -15c0 -11 -17 -11 -19 -11h-16l-34 -1c-19 1 -29 -1 -42 -1h-11c-3 0 -18 2 -20 2c-9 -1 -28 -1 -31 -1h-36
c-22 3 -81 -1 -100 -1c-5 0 -9 0 -14 -1v-35c0 -7 -3 -23 0 -50c0 0 -1 -27 -1 -49c0 -3 1 -6 1 -9c1 -10 1 -62 1 -71c0 -3 -1 -6 -1 -9v-23c-1 -4 0 -42 0 -55c11 -1 38 0 49 0c18 -1 36 -2 53 -2c22 0 52 1 54 1c16 1 59 -1 59 -1c2 0 6 0 7 -1c9 -4 8 -21 2 -23
s-10 -1 -18 -1h-23c-9 0 -37 1 -47 0c-15 -2 -35 -1 -47 -1c-20 0 -32 -1 -51 0h-37l-1 -49v-95c0 -27 -2 -56 0 -79v-15c0 -2 1 -4 0 -6c1 -12 2 -33 2 -43l-1 -18c0 -21 0 -32 1 -51c0 -5 2 -6 8 -6l36 -2c13 1 39 0 52 0c35 0 73 -1 73 -1c48 4 122 0 122 0
c9 0 14 0 16 -2c6 -6 8 -21 -3 -24h-58c-22 0 -44 0 -54 -1c-3 0 -16 0 -24 1c-17 1 -46 2 -59 2c-11 0 -22 -1 -29 -2h-86c-14 0 -22 6 -22 21v28v36v43l-1 28v30l-2 155l1 65v25l-1 61c1 22 1 38 1 57c0 14 1 28 0 44zM275 890c13 0 20 -11 24 -23c5 -16 -12 -29 -22 -33
c-15 -4 -24 -1 -32 10c-11 19 -3 40 21 45c2 1 5 1 9 1zM438 893c13 0 23 -11 24 -23c2 -17 -13 -29 -23 -33c-15 -5 -21 2 -30 10c-11 20 1 36 20 45c2 1 5 1 9 1z" />
    <glyph glyph-name="Igrave" unicode="&#xcc;" horiz-adv-x="309" 
d="M196 749c4 5 18 3 21 0s4 -11 4 -15v-58c-1 -5 -1 -53 -1 -57l1 -71c-1 -22 -2 -36 -2 -52s0 -31 1 -51c1 -7 1 -20 1 -37v-94c1 -18 1 -48 1 -64l-1 -56c0 -3 1 -5 1 -23c-1 -18 -2 -45 -1 -63c1 -19 0 -68 -1 -94c0 -5 0 -11 -3 -13c-5 -3 -19 -3 -23 1
c-3 4 -3 7 -3 13l1 163v27c0 12 1 25 1 38c0 35 -1 71 -2 96l1 27v6c0 3 1 6 1 9c1 11 1 24 0 31v5l-2 49v70c0 3 2 30 2 33l-1 84l1 24v52c0 6 0 17 3 20zM70 941c9 -4 21 -11 34 -18c23 -12 35 -20 35 -20c1 -1 24 -9 49 -26c21 -15 43 -23 55 -32c13 -10 2 -29 -11 -22
l-46 24l-33 18c-7 3 -49 24 -55 27c-19 12 -33 22 -45 28c-17 8 -16 18 -11 27c6 10 18 -2 28 -6z" />
    <glyph glyph-name="Iacute" unicode="&#xcd;" horiz-adv-x="309" 
d="M196 749c4 5 18 3 21 0s4 -11 4 -15v-58c-1 -5 -1 -53 -1 -57l1 -71c-1 -22 -2 -36 -2 -52s0 -31 1 -51c1 -7 1 -20 1 -37v-94c1 -18 1 -48 1 -64l-1 -56c0 -3 1 -5 1 -23c-1 -18 -2 -45 -1 -63c1 -19 0 -68 -1 -94c0 -5 0 -11 -3 -13c-5 -3 -19 -3 -23 1
c-3 4 -3 7 -3 13l1 163v27c0 12 1 25 1 38c0 35 -1 71 -2 96l1 27v6c0 3 1 6 1 9c1 11 1 24 0 31v5l-2 49v70c0 3 2 30 2 33l-1 84l1 24v52c0 6 0 17 3 20zM241 933c10 5 28 18 34 8c5 -9 8 -16 -14 -30c-11 -7 -17 -7 -32 -17c-6 -4 -60 -31 -67 -35c0 0 -28 -20 -51 -29
l-28 -13c-13 -6 -22 15 -9 25c12 9 18 9 41 22c26 15 35 19 36 20c0 0 26 15 50 26c15 7 23 15 40 23z" />
    <glyph glyph-name="Icircumflex" unicode="&#xce;" horiz-adv-x="309" 
d="M196 749c4 5 18 3 21 0s4 -11 4 -15v-58c-1 -5 -1 -53 -1 -57l1 -71c-1 -22 -2 -36 -2 -52s0 -31 1 -51c1 -7 1 -20 1 -37v-94c1 -18 1 -48 1 -64l-1 -56c0 -3 1 -5 1 -23c-1 -18 -2 -45 -1 -63c1 -19 0 -68 -1 -94c0 -5 0 -11 -3 -13c-5 -3 -19 -3 -23 1
c-3 4 -3 7 -3 13l1 163v27c0 12 1 25 1 38c0 35 -1 71 -2 96l1 27v6c0 3 1 6 1 9c1 11 1 24 0 31v5l-2 49v70c0 3 2 30 2 33l-1 84l1 24v52c0 6 0 17 3 20zM136 917l-25 -28c-2 -4 -6 -8 -25 -25l-32 -34c-5 -7 -22 -23 -30 -15c-11 13 -7 14 6 29c0 0 21 27 37 40
c0 0 17 18 24 26c10 9 33 35 33 35c9 9 21 22 30 23c6 1 22 -14 34 -27l18 -21l14 -17c20 -19 33 -36 38 -43l14 -18c10 -12 14 -25 3 -27c-14 -3 -15 2 -28 18c-1 1 -39 47 -46 53l-13 13l-16 17l-3 4c-5 6 -13 13 -15 14z" />
    <glyph glyph-name="Idieresis" unicode="&#xcf;" horiz-adv-x="309" 
d="M196 749c4 5 18 3 21 0s4 -11 4 -15v-58c-1 -5 -1 -53 -1 -57l1 -71c-1 -22 -2 -36 -2 -52s0 -31 1 -51c1 -7 1 -20 1 -37v-94c1 -18 1 -48 1 -64l-1 -56c0 -3 1 -5 1 -23c-1 -18 -2 -45 -1 -63c1 -19 0 -68 -1 -94c0 -5 0 -11 -3 -13c-5 -3 -19 -3 -23 1
c-3 4 -3 7 -3 13l1 163v27c0 12 1 25 1 38c0 35 -1 71 -2 96l1 27v6c0 3 1 6 1 9c1 11 1 24 0 31v5l-2 49v70c0 3 2 30 2 33l-1 84l1 24v52c0 6 0 17 3 20zM79 899c13 0 20 -11 24 -23c5 -16 -12 -29 -22 -33c-15 -4 -24 -1 -32 10c-11 19 -3 40 21 45c2 1 5 1 9 1zM242 902
c13 0 23 -11 24 -23c2 -17 -13 -29 -23 -33c-15 -5 -21 2 -30 10c-11 20 1 36 20 45c2 1 5 1 9 1z" />
    <glyph glyph-name="egrave" unicode="&#xe8;" horiz-adv-x="604" 
d="M192 642l1 55c0 4 -1 2 -1 35c0 11 4 19 17 19l42 -1c3 0 56 -1 59 -1c0 0 45 -1 60 0c26 2 114 0 114 0h16c16 1 20 1 31 0c9 -1 13 -7 13 -15c0 -11 -17 -11 -19 -11h-16l-34 -1c-19 1 -29 -1 -42 -1h-11c-3 0 -18 2 -20 2c-9 -1 -28 -1 -31 -1h-36
c-22 3 -81 -1 -100 -1c-5 0 -9 0 -14 -1v-35c0 -7 -3 -23 0 -50c0 0 -1 -27 -1 -49c0 -3 1 -6 1 -9c1 -10 1 -62 1 -71c0 -3 -1 -6 -1 -9v-23c-1 -4 0 -42 0 -55c11 -1 38 0 49 0c18 -1 36 -2 53 -2c22 0 52 1 54 1c16 1 59 -1 59 -1c2 0 6 0 7 -1c9 -4 8 -21 2 -23
s-10 -1 -18 -1h-23c-9 0 -37 1 -47 0c-15 -2 -35 -1 -47 -1c-20 0 -32 -1 -51 0h-37l-1 -49v-95c0 -27 -2 -56 0 -79v-15c0 -2 1 -4 0 -6c1 -12 2 -33 2 -43l-1 -18c0 -21 0 -32 1 -51c0 -5 2 -6 8 -6l36 -2c13 1 39 0 52 0c35 0 73 -1 73 -1c48 4 122 0 122 0
c9 0 14 0 16 -2c6 -6 8 -21 -3 -24h-58c-22 0 -44 0 -54 -1c-3 0 -16 0 -24 1c-17 1 -46 2 -59 2c-11 0 -22 -1 -29 -2h-86c-14 0 -22 6 -22 21v28v36v43l-1 28v30l-2 155l1 65v25l-1 61c1 22 1 38 1 57c0 14 1 28 0 44zM236 932c9 -4 21 -11 34 -18c23 -12 35 -20 35 -20
c1 -1 24 -9 49 -26c21 -15 43 -23 55 -32c13 -10 2 -29 -11 -22l-46 24l-33 18c-7 3 -49 24 -55 27c-19 12 -33 22 -45 28c-17 8 -16 18 -11 27c6 10 18 -2 28 -6z" />
    <glyph glyph-name="eacute" unicode="&#xe9;" horiz-adv-x="604" 
d="M192 642l1 55c0 4 -1 2 -1 35c0 11 4 19 17 19l42 -1c3 0 56 -1 59 -1c0 0 45 -1 60 0c26 2 114 0 114 0h16c16 1 20 1 31 0c9 -1 13 -7 13 -15c0 -11 -17 -11 -19 -11h-16l-34 -1c-19 1 -29 -1 -42 -1h-11c-3 0 -18 2 -20 2c-9 -1 -28 -1 -31 -1h-36
c-22 3 -81 -1 -100 -1c-5 0 -9 0 -14 -1v-35c0 -7 -3 -23 0 -50c0 0 -1 -27 -1 -49c0 -3 1 -6 1 -9c1 -10 1 -62 1 -71c0 -3 -1 -6 -1 -9v-23c-1 -4 0 -42 0 -55c11 -1 38 0 49 0c18 -1 36 -2 53 -2c22 0 52 1 54 1c16 1 59 -1 59 -1c2 0 6 0 7 -1c9 -4 8 -21 2 -23
s-10 -1 -18 -1h-23c-9 0 -37 1 -47 0c-15 -2 -35 -1 -47 -1c-20 0 -32 -1 -51 0h-37l-1 -49v-95c0 -27 -2 -56 0 -79v-15c0 -2 1 -4 0 -6c1 -12 2 -33 2 -43l-1 -18c0 -21 0 -32 1 -51c0 -5 2 -6 8 -6l36 -2c13 1 39 0 52 0c35 0 73 -1 73 -1c48 4 122 0 122 0
c9 0 14 0 16 -2c6 -6 8 -21 -3 -24h-58c-22 0 -44 0 -54 -1c-3 0 -16 0 -24 1c-17 1 -46 2 -59 2c-11 0 -22 -1 -29 -2h-86c-14 0 -22 6 -22 21v28v36v43l-1 28v30l-2 155l1 65v25l-1 61c1 22 1 38 1 57c0 14 1 28 0 44zM403 930c10 5 28 18 34 8c5 -9 8 -16 -14 -30
c-11 -7 -17 -7 -32 -17c-6 -4 -60 -31 -67 -35c0 0 -28 -20 -51 -29l-28 -13c-13 -6 -22 15 -9 25c12 9 18 9 41 22c26 15 35 19 36 20c0 0 26 15 50 26c15 7 23 15 40 23z" />
    <glyph glyph-name="ecircumflex" unicode="&#xea;" horiz-adv-x="604" 
d="M193 697l-1 -55l1 -49c1 -16 0 -30 0 -44c0 -19 0 -35 -1 -57l1 -61v-25l-1 -65l2 -155v-30l1 -28v-43v-36v-28c0 -15 8 -21 22 -21h86c7 1 18 2 29 2c13 0 42 -1 59 -2c8 -1 21 -1 24 -1c10 1 32 1 54 1h58c11 3 9 18 3 24c-2 2 -7 2 -16 2c0 0 -74 4 -122 0
c0 0 -38 1 -73 1c-13 0 -39 1 -52 0l-36 2c-6 0 -8 1 -8 6c-1 19 -1 30 -1 51l1 18c0 10 -1 31 -2 43c1 2 0 4 0 6v15c-2 23 0 52 0 79v95l1 49h37c19 -1 31 0 51 0c12 0 32 -1 47 1c10 1 38 0 47 0h23c8 0 12 -1 18 1s7 19 -2 23c-1 1 -5 1 -7 1c0 0 -43 2 -59 1
c-2 0 -32 -1 -54 -1c-17 0 -35 1 -53 2c-11 0 -38 -1 -49 0c0 13 -1 51 0 55v23c0 3 1 6 1 9c0 9 0 61 -1 71c0 3 -1 6 -1 9c0 22 1 49 1 49c-3 27 0 43 0 50v35c5 1 9 1 14 1c19 0 78 4 100 1h36s22 0 31 1c2 0 17 -2 20 -2h11c13 0 23 2 42 1l34 1h16c2 0 19 0 19 11
c0 8 -4 14 -13 15c-11 1 -15 1 -31 0h-16s-88 2 -114 0c-15 -1 -60 0 -60 0c-3 0 -56 1 -59 1l-42 1c-13 0 -17 -8 -17 -19c0 -33 1 -31 1 -35zM321 907l-25 -28c-2 -4 -6 -8 -25 -25l-32 -34c-5 -7 -22 -23 -30 -15c-11 13 -7 14 6 29c0 0 21 27 37 40c0 0 17 18 24 26
c10 9 33 35 33 35c9 9 21 22 30 23c6 1 22 -14 34 -27l18 -21l14 -17c20 -19 33 -36 38 -43l14 -18c10 -12 14 -25 3 -27c-14 -3 -15 2 -28 18c-1 1 -39 47 -46 53l-13 13l-16 17l-3 4c-5 6 -13 13 -15 14z" />
    <glyph glyph-name="edieresis" unicode="&#xeb;" horiz-adv-x="604" 
d="M192 642l1 55c0 4 -1 2 -1 35c0 11 4 19 17 19l42 -1c3 0 56 -1 59 -1c0 0 45 -1 60 0c26 2 114 0 114 0h16c16 1 20 1 31 0c9 -1 13 -7 13 -15c0 -11 -17 -11 -19 -11h-16l-34 -1c-19 1 -29 -1 -42 -1h-11c-3 0 -18 2 -20 2c-9 -1 -28 -1 -31 -1h-36
c-22 3 -81 -1 -100 -1c-5 0 -9 0 -14 -1v-35c0 -7 -3 -23 0 -50c0 0 -1 -27 -1 -49c0 -3 1 -6 1 -9c1 -10 1 -62 1 -71c0 -3 -1 -6 -1 -9v-23c-1 -4 0 -42 0 -55c11 -1 38 0 49 0c18 -1 36 -2 53 -2c22 0 52 1 54 1c16 1 59 -1 59 -1c2 0 6 0 7 -1c9 -4 8 -21 2 -23
s-10 -1 -18 -1h-23c-9 0 -37 1 -47 0c-15 -2 -35 -1 -47 -1c-20 0 -32 -1 -51 0h-37l-1 -49v-95c0 -27 -2 -56 0 -79v-15c0 -2 1 -4 0 -6c1 -12 2 -33 2 -43l-1 -18c0 -21 0 -32 1 -51c0 -5 2 -6 8 -6l36 -2c13 1 39 0 52 0c35 0 73 -1 73 -1c48 4 122 0 122 0
c9 0 14 0 16 -2c6 -6 8 -21 -3 -24h-58c-22 0 -44 0 -54 -1c-3 0 -16 0 -24 1c-17 1 -46 2 -59 2c-11 0 -22 -1 -29 -2h-86c-14 0 -22 6 -22 21v28v36v43l-1 28v30l-2 155l1 65v25l-1 61c1 22 1 38 1 57c0 14 1 28 0 44zM272 891c13 0 20 -11 24 -23c5 -16 -12 -29 -22 -33
c-15 -4 -24 -1 -32 10c-11 19 -3 40 21 45c2 1 5 1 9 1zM435 894c13 0 23 -11 24 -23c2 -17 -13 -29 -23 -33c-15 -5 -21 2 -30 10c-11 20 1 36 20 45c2 1 5 1 9 1z" />
    <glyph glyph-name="igrave" unicode="&#xec;" horiz-adv-x="309" 
d="M196 749c4 5 18 3 21 0s4 -11 4 -15v-58c-1 -5 -1 -53 -1 -57l1 -71c-1 -22 -2 -36 -2 -52s0 -31 1 -51c1 -7 1 -20 1 -37v-94c1 -18 1 -48 1 -64l-1 -56c0 -3 1 -5 1 -23c-1 -18 -2 -45 -1 -63c1 -19 0 -68 -1 -94c0 -5 0 -11 -3 -13c-5 -3 -19 -3 -23 1
c-3 4 -3 7 -3 13l1 163v27c0 12 1 25 1 38c0 35 -1 71 -2 96l1 27v6c0 3 1 6 1 9c1 11 1 24 0 31v5l-2 49v70c0 3 2 30 2 33l-1 84l1 24v52c0 6 0 17 3 20zM66 932c9 -4 21 -11 34 -18c23 -12 35 -20 35 -20c1 -1 24 -9 49 -26c21 -15 43 -23 55 -32c13 -10 2 -29 -11 -22
l-46 24l-33 18c-7 3 -49 24 -55 27c-19 12 -33 22 -45 28c-17 8 -16 18 -11 27c6 10 18 -2 28 -6z" />
    <glyph glyph-name="iacute" unicode="&#xed;" horiz-adv-x="309" 
d="M196 749c4 5 18 3 21 0s4 -11 4 -15v-58c-1 -5 -1 -53 -1 -57l1 -71c-1 -22 -2 -36 -2 -52s0 -31 1 -51c1 -7 1 -20 1 -37v-94c1 -18 1 -48 1 -64l-1 -56c0 -3 1 -5 1 -23c-1 -18 -2 -45 -1 -63c1 -19 0 -68 -1 -94c0 -5 0 -11 -3 -13c-5 -3 -19 -3 -23 1
c-3 4 -3 7 -3 13l1 163v27c0 12 1 25 1 38c0 35 -1 71 -2 96l1 27v6c0 3 1 6 1 9c1 11 1 24 0 31v5l-2 49v70c0 3 2 30 2 33l-1 84l1 24v52c0 6 0 17 3 20zM253 930c10 5 28 18 34 8c5 -9 8 -16 -14 -30c-11 -7 -17 -7 -32 -17c-6 -4 -60 -31 -67 -35c0 0 -28 -20 -51 -29
l-28 -13c-13 -6 -22 15 -9 25c12 9 18 9 41 22c26 15 35 19 36 20c0 0 26 15 50 26c15 7 23 15 40 23z" />
    <glyph glyph-name="icircumflex" unicode="&#xee;" horiz-adv-x="309" 
d="M196 749c4 5 18 3 21 0s4 -11 4 -15v-58c-1 -5 -1 -53 -1 -57l1 -71c-1 -22 -2 -36 -2 -52s0 -31 1 -51c1 -7 1 -20 1 -37v-94c1 -18 1 -48 1 -64l-1 -56c0 -3 1 -5 1 -23c-1 -18 -2 -45 -1 -63c1 -19 0 -68 -1 -94c0 -5 0 -11 -3 -13c-5 -3 -19 -3 -23 1
c-3 4 -3 7 -3 13l1 163v27c0 12 1 25 1 38c0 35 -1 71 -2 96l1 27v6c0 3 1 6 1 9c1 11 1 24 0 31v5l-2 49v70c0 3 2 30 2 33l-1 84l1 24v52c0 6 0 17 3 20zM141 907l-25 -28c-2 -4 -6 -8 -25 -25l-32 -34c-5 -7 -22 -23 -30 -15c-11 13 -7 14 6 29c0 0 21 27 37 40
c0 0 17 18 24 26c10 9 33 35 33 35c9 9 21 22 30 23c6 1 22 -14 34 -27l18 -21l14 -17c20 -19 33 -36 38 -43l14 -18c10 -12 14 -25 3 -27c-14 -3 -15 2 -28 18c-1 1 -39 47 -46 53l-13 13l-16 17l-3 4c-5 6 -13 13 -15 14z" />
    <glyph glyph-name="idieresis" unicode="&#xef;" horiz-adv-x="309" 
d="M196 749c4 5 18 3 21 0s4 -11 4 -15v-58c-1 -5 -1 -53 -1 -57l1 -71c-1 -22 -2 -36 -2 -52s0 -31 1 -51c1 -7 1 -20 1 -37v-94c1 -18 1 -48 1 -64l-1 -56c0 -3 1 -5 1 -23c-1 -18 -2 -45 -1 -63c1 -19 0 -68 -1 -94c0 -5 0 -11 -3 -13c-5 -3 -19 -3 -23 1
c-3 4 -3 7 -3 13l1 163v27c0 12 1 25 1 38c0 35 -1 71 -2 96l1 27v6c0 3 1 6 1 9c1 11 1 24 0 31v5l-2 49v70c0 3 2 30 2 33l-1 84l1 24v52c0 6 0 17 3 20zM79 895c13 0 20 -11 24 -23c5 -16 -12 -29 -22 -33c-15 -4 -24 -1 -32 10c-11 19 -3 40 21 45c2 1 5 1 9 1zM242 898
c13 0 23 -11 24 -23c2 -17 -13 -29 -23 -33c-15 -5 -21 2 -30 10c-11 20 1 36 20 45c2 1 5 1 9 1z" />
    <glyph glyph-name="Ntilde" unicode="&#xd1;" horiz-adv-x="655" 
d="M566 347v-133v-4c0 -13 2 -45 -8 -45s-14 8 -20 15l-6 9l-27 41l-22 37c-5 6 -11 18 -17 28l-7 12c-4 8 -16 24 -25 37c-19 28 -36 56 -57 90l-10 17l-8 13l-34 56l-15 26l-7 12c-5 9 -11 19 -21 34l-28 44l-20 36l-22 39l-11 20c-7 13 -6 19 4 20c11 1 19 -5 22 -9
l13 -22l28 -46l9 -18c30 -55 64 -108 92 -152c12 -16 23 -34 39 -60c1 -1 3 -3 14 -23l20 -32c6 -10 12 -20 18 -28c5 -8 10 -16 14 -21c6 -8 11 -23 32 -56l8 -12l11 -22l14 -26c-1 9 1 78 1 84l-2 66c-3 45 1 63 0 89c-1 67 4 157 1 222c-1 21 0 13 0 36v21
c0 17 27 9 27 2v-14c0 -2 3 -64 1 -96c-1 -15 0 -63 0 -63c0 -8 -2 -36 -1 -39c0 0 3 -47 0 -82v-96v-7zM277 873c-11 0 -36 -11 -48 -21c-19 -9 -33 9 -23 17c23 20 54 32 72 32c30 0 42 -9 59 -20l8 -5c1 -1 15 -9 16 -9c16 -10 26 -16 51 -16c30 0 50 26 60 42
c7 11 26 -1 23 -12c-9 -34 -45 -54 -79 -57c-23 -2 -44 7 -62 16l-16 7l-24 13c-11 6 -15 13 -37 13z" />
    <glyph glyph-name="Ograve" unicode="&#xd2;" horiz-adv-x="678" 
d="M261 6c-35 11 -55 17 -80 38c-7 6 -10 15 -10 27l-1 48c0 23 -2 34 0 73c0 -2 1 36 0 67v18c0 0 -1 26 -1 33c0 0 2 22 0 78c-1 49 -3 78 0 119c1 17 -1 58 0 87c0 9 -1 18 -1 27c0 22 1 41 0 60c0 14 7 22 14 27c28 20 74 44 129 47c14 1 41 0 55 -2
c26 -3 55 -14 80 -22c35 -11 63 -32 74 -45c17 -19 27 -26 42 -49c3 -4 13 -24 16 -28c11 -15 19 -30 25 -62c4 -31 9 -85 7 -116c0 0 3 -59 2 -88v-44c0 -11 -1 -21 -2 -31c-1 -7 -1 -14 -1 -18c0 -16 -1 -32 -5 -49c-9 -36 -18 -67 -31 -89c-23 -36 -64 -77 -112 -97
c0 0 -25 -10 -56 -15c-25 -3 -60 -5 -61 -5s-23 0 -43 2c-22 1 -40 9 -40 9zM334 728c-16 0 -32 1 -49 -5c-11 -4 -15 -5 -42 -14c-17 -6 -22 -10 -36 -20c-8 -5 -12 -6 -11 -23c-1 -39 -2 -73 -1 -88c2 -45 0 -71 0 -71c0 -13 0 -31 1 -45c0 0 2 -61 1 -136
c0 -30 5 -50 1 -91c-2 -20 0 -74 -1 -86c-3 -29 1 -34 1 -47v-22c0 -14 -1 -14 9 -21c1 -1 7 -14 46 -23c31 -7 50 -14 79 -15c40 -2 76 4 107 17c8 3 22 11 29 13c30 10 47 34 67 57c9 12 17 32 25 53c11 29 19 41 21 74c0 0 4 46 2 102c1 23 2 46 2 69c-1 35 -2 38 -6 72
v6c0 1 -1 34 -1 36c-3 25 -11 52 -25 78c-10 21 -25 39 -42 55c-19 18 -40 34 -58 45c-1 0 -21 10 -23 10c-18 4 -40 19 -96 20zM238 935c9 -4 21 -11 34 -18c23 -12 35 -20 35 -20c1 -1 24 -9 49 -26c21 -15 43 -23 55 -32c13 -10 2 -29 -11 -22l-46 24l-33 18
c-7 3 -49 24 -55 27c-19 12 -33 22 -45 28c-17 8 -16 18 -11 27c6 10 18 -2 28 -6z" />
    <glyph glyph-name="Oacute" unicode="&#xd3;" horiz-adv-x="678" 
d="M261 6c-35 11 -55 17 -80 38c-7 6 -10 15 -10 27l-1 48c0 23 -2 34 0 73c0 -2 1 36 0 67v18c0 0 -1 26 -1 33c0 0 2 22 0 78c-1 49 -3 78 0 119c1 17 -1 58 0 87c0 9 -1 18 -1 27c0 22 1 41 0 60c0 14 7 22 14 27c28 20 74 44 129 47c14 1 41 0 55 -2
c26 -3 55 -14 80 -22c35 -11 63 -32 74 -45c17 -19 27 -26 42 -49c3 -4 13 -24 16 -28c11 -15 19 -30 25 -62c4 -31 9 -85 7 -116c0 0 3 -59 2 -88v-44c0 -11 -1 -21 -2 -31c-1 -7 -1 -14 -1 -18c0 -16 -1 -32 -5 -49c-9 -36 -18 -67 -31 -89c-23 -36 -64 -77 -112 -97
c0 0 -25 -10 -56 -15c-25 -3 -60 -5 -61 -5s-23 0 -43 2c-22 1 -40 9 -40 9zM334 728c-16 0 -32 1 -49 -5c-11 -4 -15 -5 -42 -14c-17 -6 -22 -10 -36 -20c-8 -5 -12 -6 -11 -23c-1 -39 -2 -73 -1 -88c2 -45 0 -71 0 -71c0 -13 0 -31 1 -45c0 0 2 -61 1 -136
c0 -30 5 -50 1 -91c-2 -20 0 -74 -1 -86c-3 -29 1 -34 1 -47v-22c0 -14 -1 -14 9 -21c1 -1 7 -14 46 -23c31 -7 50 -14 79 -15c40 -2 76 4 107 17c8 3 22 11 29 13c30 10 47 34 67 57c9 12 17 32 25 53c11 29 19 41 21 74c0 0 4 46 2 102c1 23 2 46 2 69c-1 35 -2 38 -6 72
v6c0 1 -1 34 -1 36c-3 25 -11 52 -25 78c-10 21 -25 39 -42 55c-19 18 -40 34 -58 45c-1 0 -21 10 -23 10c-18 4 -40 19 -96 20zM430 921c10 5 28 18 34 8c5 -9 8 -16 -14 -30c-11 -7 -17 -7 -32 -17c-6 -4 -60 -31 -67 -35c0 0 -28 -20 -51 -29l-28 -13
c-13 -6 -22 15 -9 25c12 9 18 9 41 22c26 15 35 19 36 20c0 0 26 15 50 26c15 7 23 15 40 23z" />
    <glyph glyph-name="Ocircumflex" unicode="&#xd4;" horiz-adv-x="678" 
d="M261 6c-35 11 -55 17 -80 38c-7 6 -10 15 -10 27l-1 48c0 23 -2 34 0 73c0 -2 1 36 0 67v18c0 0 -1 26 -1 33c0 0 2 22 0 78c-1 49 -3 78 0 119c1 17 -1 58 0 87c0 9 -1 18 -1 27c0 22 1 41 0 60c0 14 7 22 14 27c28 20 74 44 129 47c14 1 41 0 55 -2
c26 -3 55 -14 80 -22c35 -11 63 -32 74 -45c17 -19 27 -26 42 -49c3 -4 13 -24 16 -28c11 -15 19 -30 25 -62c4 -31 9 -85 7 -116c0 0 3 -59 2 -88v-44c0 -11 -1 -21 -2 -31c-1 -7 -1 -14 -1 -18c0 -16 -1 -32 -5 -49c-9 -36 -18 -67 -31 -89c-23 -36 -64 -77 -112 -97
c0 0 -25 -10 -56 -15c-25 -3 -60 -5 -61 -5s-23 0 -43 2c-22 1 -40 9 -40 9zM334 728c-16 0 -32 1 -49 -5c-11 -4 -15 -5 -42 -14c-17 -6 -22 -10 -36 -20c-8 -5 -12 -6 -11 -23c-1 -39 -2 -73 -1 -88c2 -45 0 -71 0 -71c0 -13 0 -31 1 -45c0 0 2 -61 1 -136
c0 -30 5 -50 1 -91c-2 -20 0 -74 -1 -86c-3 -29 1 -34 1 -47v-22c0 -14 -1 -14 9 -21c1 -1 7 -14 46 -23c31 -7 50 -14 79 -15c40 -2 76 4 107 17c8 3 22 11 29 13c30 10 47 34 67 57c9 12 17 32 25 53c11 29 19 41 21 74c0 0 4 46 2 102c1 23 2 46 2 69c-1 35 -2 38 -6 72
v6c0 1 -1 34 -1 36c-3 25 -11 52 -25 78c-10 21 -25 39 -42 55c-19 18 -40 34 -58 45c-1 0 -21 10 -23 10c-18 4 -40 19 -96 20zM315 910l-25 -28c-2 -4 -6 -8 -25 -25l-32 -34c-5 -7 -22 -23 -30 -15c-11 13 -7 14 6 29c0 0 21 27 37 40c0 0 17 18 24 26c10 9 33 35 33 35
c9 9 21 22 30 23c6 1 22 -14 34 -27l18 -21l14 -17c20 -19 33 -36 38 -43l14 -18c10 -12 14 -25 3 -27c-14 -3 -15 2 -28 18c-1 1 -39 47 -46 53l-13 13l-16 17l-3 4c-5 6 -13 13 -15 14z" />
    <glyph glyph-name="Otilde" unicode="&#xd5;" horiz-adv-x="678" 
d="M261 6c-35 11 -55 17 -80 38c-7 6 -10 15 -10 27l-1 48c0 23 -2 34 0 73c0 -2 1 36 0 67v18c0 0 -1 26 -1 33c0 0 2 22 0 78c-1 49 -3 78 0 119c1 17 -1 58 0 87c0 9 -1 18 -1 27c0 22 1 41 0 60c0 14 7 22 14 27c28 20 74 44 129 47c14 1 41 0 55 -2
c26 -3 55 -14 80 -22c35 -11 63 -32 74 -45c17 -19 27 -26 42 -49c3 -4 13 -24 16 -28c11 -15 19 -30 25 -62c4 -31 9 -85 7 -116c0 0 3 -59 2 -88v-44c0 -11 -1 -21 -2 -31c-1 -7 -1 -14 -1 -18c0 -16 -1 -32 -5 -49c-9 -36 -18 -67 -31 -89c-23 -36 -64 -77 -112 -97
c0 0 -25 -10 -56 -15c-25 -3 -60 -5 -61 -5s-23 0 -43 2c-22 1 -40 9 -40 9zM334 728c-16 0 -32 1 -49 -5c-11 -4 -15 -5 -42 -14c-17 -6 -22 -10 -36 -20c-8 -5 -12 -6 -11 -23c-1 -39 -2 -73 -1 -88c2 -45 0 -71 0 -71c0 -13 0 -31 1 -45c0 0 2 -61 1 -136
c0 -30 5 -50 1 -91c-2 -20 0 -74 -1 -86c-3 -29 1 -34 1 -47v-22c0 -14 -1 -14 9 -21c1 -1 7 -14 46 -23c31 -7 50 -14 79 -15c40 -2 76 4 107 17c8 3 22 11 29 13c30 10 47 34 67 57c9 12 17 32 25 53c11 29 19 41 21 74c0 0 4 46 2 102c1 23 2 46 2 69c-1 35 -2 38 -6 72
v6c0 1 -1 34 -1 36c-3 25 -11 52 -25 78c-10 21 -25 39 -42 55c-19 18 -40 34 -58 45c-1 0 -21 10 -23 10c-18 4 -40 19 -96 20zM264 885c-11 0 -36 -11 -48 -21c-19 -9 -33 9 -23 17c23 20 54 32 72 32c30 0 42 -9 59 -20l8 -5c1 -1 15 -9 16 -9c16 -10 26 -16 51 -16
c30 0 50 26 60 42c7 11 26 -1 23 -12c-9 -34 -45 -54 -79 -57c-23 -2 -44 7 -62 16l-16 7l-24 13c-11 6 -15 13 -37 13z" />
    <glyph glyph-name="Odieresis" unicode="&#xd6;" horiz-adv-x="678" 
d="M261 6c-35 11 -55 17 -80 38c-7 6 -10 15 -10 27l-1 48c0 23 -2 34 0 73c0 -2 1 36 0 67v18c0 0 -1 26 -1 33c0 0 2 22 0 78c-1 49 -3 78 0 119c1 17 -1 58 0 87c0 9 -1 18 -1 27c0 22 1 41 0 60c0 14 7 22 14 27c28 20 74 44 129 47c14 1 41 0 55 -2
c26 -3 55 -14 80 -22c35 -11 63 -32 74 -45c17 -19 27 -26 42 -49c3 -4 13 -24 16 -28c11 -15 19 -30 25 -62c4 -31 9 -85 7 -116c0 0 3 -59 2 -88v-44c0 -11 -1 -21 -2 -31c-1 -7 -1 -14 -1 -18c0 -16 -1 -32 -5 -49c-9 -36 -18 -67 -31 -89c-23 -36 -64 -77 -112 -97
c0 0 -25 -10 -56 -15c-25 -3 -60 -5 -61 -5s-23 0 -43 2c-22 1 -40 9 -40 9zM334 728c-16 0 -32 1 -49 -5c-11 -4 -15 -5 -42 -14c-17 -6 -22 -10 -36 -20c-8 -5 -12 -6 -11 -23c-1 -39 -2 -73 -1 -88c2 -45 0 -71 0 -71c0 -13 0 -31 1 -45c0 0 2 -61 1 -136
c0 -30 5 -50 1 -91c-2 -20 0 -74 -1 -86c-3 -29 1 -34 1 -47v-22c0 -14 -1 -14 9 -21c1 -1 7 -14 46 -23c31 -7 50 -14 79 -15c40 -2 76 4 107 17c8 3 22 11 29 13c30 10 47 34 67 57c9 12 17 32 25 53c11 29 19 41 21 74c0 0 4 46 2 102c1 23 2 46 2 69c-1 35 -2 38 -6 72
v6c0 1 -1 34 -1 36c-3 25 -11 52 -25 78c-10 21 -25 39 -42 55c-19 18 -40 34 -58 45c-1 0 -21 10 -23 10c-18 4 -40 19 -96 20zM244 894c13 0 20 -11 24 -23c5 -16 -12 -29 -22 -33c-15 -4 -24 -1 -32 10c-11 19 -3 40 21 45c2 1 5 1 9 1zM407 897c13 0 23 -11 24 -23
c2 -17 -13 -29 -23 -33c-15 -5 -21 2 -30 10c-11 20 1 36 20 45c2 1 5 1 9 1z" />
    <glyph glyph-name="ntilde" unicode="&#xf1;" horiz-adv-x="655" 
d="M566 347v-133v-4c0 -13 2 -45 -8 -45s-14 8 -20 15l-6 9l-27 41l-22 37c-5 6 -11 18 -17 28l-7 12c-4 8 -16 24 -25 37c-19 28 -36 56 -57 90l-10 17l-8 13l-34 56l-15 26l-7 12c-5 9 -11 19 -21 34l-28 44l-20 36l-22 39l-11 20c-7 13 -6 19 4 20c11 1 19 -5 22 -9
l13 -22l28 -46l9 -18c30 -55 64 -108 92 -152c12 -16 23 -34 39 -60c1 -1 3 -3 14 -23l20 -32c6 -10 12 -20 18 -28c5 -8 10 -16 14 -21c6 -8 11 -23 32 -56l8 -12l11 -22l14 -26c-1 9 1 78 1 84l-2 66c-3 45 1 63 0 89c-1 67 4 157 1 222c-1 21 0 13 0 36v21
c0 17 27 9 27 2v-14c0 -2 3 -64 1 -96c-1 -15 0 -63 0 -63c0 -8 -2 -36 -1 -39c0 0 3 -47 0 -82v-96v-7zM276 866c-11 0 -36 -11 -48 -21c-19 -9 -33 9 -23 17c23 20 54 32 72 32c30 0 42 -9 59 -20l8 -5c1 -1 15 -9 16 -9c16 -10 26 -16 51 -16c30 0 50 26 60 42
c7 11 26 -1 23 -12c-9 -34 -45 -54 -79 -57c-23 -2 -44 7 -62 16l-16 7l-24 13c-11 6 -15 13 -37 13z" />
    <glyph glyph-name="ograve" unicode="&#xf2;" horiz-adv-x="678" 
d="M261 6c-35 11 -55 17 -80 38c-7 6 -10 15 -10 27l-1 48c0 23 -2 34 0 73c0 -2 1 36 0 67v18c0 0 -1 26 -1 33c0 0 2 22 0 78c-1 49 -3 78 0 119c1 17 -1 58 0 87c0 9 -1 18 -1 27c0 22 1 41 0 60c0 14 7 22 14 27c28 20 74 44 129 47c14 1 41 0 55 -2
c26 -3 55 -14 80 -22c35 -11 63 -32 74 -45c17 -19 27 -26 42 -49c3 -4 13 -24 16 -28c11 -15 19 -30 25 -62c4 -31 9 -85 7 -116c0 0 3 -59 2 -88v-44c0 -11 -1 -21 -2 -31c-1 -7 -1 -14 -1 -18c0 -16 -1 -32 -5 -49c-9 -36 -18 -67 -31 -89c-23 -36 -64 -77 -112 -97
c0 0 -25 -10 -56 -15c-25 -3 -60 -5 -61 -5s-23 0 -43 2c-22 1 -40 9 -40 9zM334 728c-16 0 -32 1 -49 -5c-11 -4 -15 -5 -42 -14c-17 -6 -22 -10 -36 -20c-8 -5 -12 -6 -11 -23c-1 -39 -2 -73 -1 -88c2 -45 0 -71 0 -71c0 -13 0 -31 1 -45c0 0 2 -61 1 -136
c0 -30 5 -50 1 -91c-2 -20 0 -74 -1 -86c-3 -29 1 -34 1 -47v-22c0 -14 -1 -14 9 -21c1 -1 7 -14 46 -23c31 -7 50 -14 79 -15c40 -2 76 4 107 17c8 3 22 11 29 13c30 10 47 34 67 57c9 12 17 32 25 53c11 29 19 41 21 74c0 0 4 46 2 102c1 23 2 46 2 69c-1 35 -2 38 -6 72
v6c0 1 -1 34 -1 36c-3 25 -11 52 -25 78c-10 21 -25 39 -42 55c-19 18 -40 34 -58 45c-1 0 -21 10 -23 10c-18 4 -40 19 -96 20zM258 922c9 -4 21 -11 34 -18c23 -12 35 -20 35 -20c1 -1 24 -9 49 -26c21 -15 43 -23 55 -32c13 -10 2 -29 -11 -22l-46 24l-33 18
c-7 3 -49 24 -55 27c-19 12 -33 22 -45 28c-17 8 -16 18 -11 27c6 10 18 -2 28 -6z" />
    <glyph glyph-name="oacute" unicode="&#xf3;" horiz-adv-x="678" 
d="M261 6c-35 11 -55 17 -80 38c-7 6 -10 15 -10 27l-1 48c0 23 -2 34 0 73c0 -2 1 36 0 67v18c0 0 -1 26 -1 33c0 0 2 22 0 78c-1 49 -3 78 0 119c1 17 -1 58 0 87c0 9 -1 18 -1 27c0 22 1 41 0 60c0 14 7 22 14 27c28 20 74 44 129 47c14 1 41 0 55 -2
c26 -3 55 -14 80 -22c35 -11 63 -32 74 -45c17 -19 27 -26 42 -49c3 -4 13 -24 16 -28c11 -15 19 -30 25 -62c4 -31 9 -85 7 -116c0 0 3 -59 2 -88v-44c0 -11 -1 -21 -2 -31c-1 -7 -1 -14 -1 -18c0 -16 -1 -32 -5 -49c-9 -36 -18 -67 -31 -89c-23 -36 -64 -77 -112 -97
c0 0 -25 -10 -56 -15c-25 -3 -60 -5 -61 -5s-23 0 -43 2c-22 1 -40 9 -40 9zM334 728c-16 0 -32 1 -49 -5c-11 -4 -15 -5 -42 -14c-17 -6 -22 -10 -36 -20c-8 -5 -12 -6 -11 -23c-1 -39 -2 -73 -1 -88c2 -45 0 -71 0 -71c0 -13 0 -31 1 -45c0 0 2 -61 1 -136
c0 -30 5 -50 1 -91c-2 -20 0 -74 -1 -86c-3 -29 1 -34 1 -47v-22c0 -14 -1 -14 9 -21c1 -1 7 -14 46 -23c31 -7 50 -14 79 -15c40 -2 76 4 107 17c8 3 22 11 29 13c30 10 47 34 67 57c9 12 17 32 25 53c11 29 19 41 21 74c0 0 4 46 2 102c1 23 2 46 2 69c-1 35 -2 38 -6 72
v6c0 1 -1 34 -1 36c-3 25 -11 52 -25 78c-10 21 -25 39 -42 55c-19 18 -40 34 -58 45c-1 0 -21 10 -23 10c-18 4 -40 19 -96 20zM422 920c10 5 28 18 34 8c5 -9 8 -16 -14 -30c-11 -7 -17 -7 -32 -17c-6 -4 -60 -31 -67 -35c0 0 -28 -20 -51 -29l-28 -13
c-13 -6 -22 15 -9 25c12 9 18 9 41 22c26 15 35 19 36 20c0 0 26 15 50 26c15 7 23 15 40 23z" />
    <glyph glyph-name="ocircumflex" unicode="&#xf4;" horiz-adv-x="678" 
d="M261 6c-35 11 -55 17 -80 38c-7 6 -10 15 -10 27l-1 48c0 23 -2 34 0 73c0 -2 1 36 0 67v18c0 0 -1 26 -1 33c0 0 2 22 0 78c-1 49 -3 78 0 119c1 17 -1 58 0 87c0 9 -1 18 -1 27c0 22 1 41 0 60c0 14 7 22 14 27c28 20 74 44 129 47c14 1 41 0 55 -2
c26 -3 55 -14 80 -22c35 -11 63 -32 74 -45c17 -19 27 -26 42 -49c3 -4 13 -24 16 -28c11 -15 19 -30 25 -62c4 -31 9 -85 7 -116c0 0 3 -59 2 -88v-44c0 -11 -1 -21 -2 -31c-1 -7 -1 -14 -1 -18c0 -16 -1 -32 -5 -49c-9 -36 -18 -67 -31 -89c-23 -36 -64 -77 -112 -97
c0 0 -25 -10 -56 -15c-25 -3 -60 -5 -61 -5s-23 0 -43 2c-22 1 -40 9 -40 9zM334 728c-16 0 -32 1 -49 -5c-11 -4 -15 -5 -42 -14c-17 -6 -22 -10 -36 -20c-8 -5 -12 -6 -11 -23c-1 -39 -2 -73 -1 -88c2 -45 0 -71 0 -71c0 -13 0 -31 1 -45c0 0 2 -61 1 -136
c0 -30 5 -50 1 -91c-2 -20 0 -74 -1 -86c-3 -29 1 -34 1 -47v-22c0 -14 -1 -14 9 -21c1 -1 7 -14 46 -23c31 -7 50 -14 79 -15c40 -2 76 4 107 17c8 3 22 11 29 13c30 10 47 34 67 57c9 12 17 32 25 53c11 29 19 41 21 74c0 0 4 46 2 102c1 23 2 46 2 69c-1 35 -2 38 -6 72
v6c0 1 -1 34 -1 36c-3 25 -11 52 -25 78c-10 21 -25 39 -42 55c-19 18 -40 34 -58 45c-1 0 -21 10 -23 10c-18 4 -40 19 -96 20zM322 907l-25 -28c-2 -4 -6 -8 -25 -25l-32 -34c-5 -7 -22 -23 -30 -15c-11 13 -7 14 6 29c0 0 21 27 37 40c0 0 17 18 24 26c10 9 33 35 33 35
c9 9 21 22 30 23c6 1 22 -14 34 -27l18 -21l14 -17c20 -19 33 -36 38 -43l14 -18c10 -12 14 -25 3 -27c-14 -3 -15 2 -28 18c-1 1 -39 47 -46 53l-13 13l-16 17l-3 4c-5 6 -13 13 -15 14z" />
    <glyph glyph-name="otilde" unicode="&#xf5;" horiz-adv-x="678" 
d="M261 6c-35 11 -55 17 -80 38c-7 6 -10 15 -10 27l-1 48c0 23 -2 34 0 73c0 -2 1 36 0 67v18c0 0 -1 26 -1 33c0 0 2 22 0 78c-1 49 -3 78 0 119c1 17 -1 58 0 87c0 9 -1 18 -1 27c0 22 1 41 0 60c0 14 7 22 14 27c28 20 74 44 129 47c14 1 41 0 55 -2
c26 -3 55 -14 80 -22c35 -11 63 -32 74 -45c17 -19 27 -26 42 -49c3 -4 13 -24 16 -28c11 -15 19 -30 25 -62c4 -31 9 -85 7 -116c0 0 3 -59 2 -88v-44c0 -11 -1 -21 -2 -31c-1 -7 -1 -14 -1 -18c0 -16 -1 -32 -5 -49c-9 -36 -18 -67 -31 -89c-23 -36 -64 -77 -112 -97
c0 0 -25 -10 -56 -15c-25 -3 -60 -5 -61 -5s-23 0 -43 2c-22 1 -40 9 -40 9zM334 728c-16 0 -32 1 -49 -5c-11 -4 -15 -5 -42 -14c-17 -6 -22 -10 -36 -20c-8 -5 -12 -6 -11 -23c-1 -39 -2 -73 -1 -88c2 -45 0 -71 0 -71c0 -13 0 -31 1 -45c0 0 2 -61 1 -136
c0 -30 5 -50 1 -91c-2 -20 0 -74 -1 -86c-3 -29 1 -34 1 -47v-22c0 -14 -1 -14 9 -21c1 -1 7 -14 46 -23c31 -7 50 -14 79 -15c40 -2 76 4 107 17c8 3 22 11 29 13c30 10 47 34 67 57c9 12 17 32 25 53c11 29 19 41 21 74c0 0 4 46 2 102c1 23 2 46 2 69c-1 35 -2 38 -6 72
v6c0 1 -1 34 -1 36c-3 25 -11 52 -25 78c-10 21 -25 39 -42 55c-19 18 -40 34 -58 45c-1 0 -21 10 -23 10c-18 4 -40 19 -96 20zM267 872c-11 0 -36 -11 -48 -21c-19 -9 -33 9 -23 17c23 20 54 32 72 32c30 0 42 -9 59 -20l8 -5c1 -1 15 -9 16 -9c16 -10 26 -16 51 -16
c30 0 50 26 60 42c7 11 26 -1 23 -12c-9 -34 -45 -54 -79 -57c-23 -2 -44 7 -62 16l-16 7l-24 13c-11 6 -15 13 -37 13z" />
    <glyph glyph-name="odieresis" unicode="&#xf6;" horiz-adv-x="678" 
d="M261 6c-35 11 -55 17 -80 38c-7 6 -10 15 -10 27l-1 48c0 23 -2 34 0 73c0 -2 1 36 0 67v18c0 0 -1 26 -1 33c0 0 2 22 0 78c-1 49 -3 78 0 119c1 17 -1 58 0 87c0 9 -1 18 -1 27c0 22 1 41 0 60c0 14 7 22 14 27c28 20 74 44 129 47c14 1 41 0 55 -2
c26 -3 55 -14 80 -22c35 -11 63 -32 74 -45c17 -19 27 -26 42 -49c3 -4 13 -24 16 -28c11 -15 19 -30 25 -62c4 -31 9 -85 7 -116c0 0 3 -59 2 -88v-44c0 -11 -1 -21 -2 -31c-1 -7 -1 -14 -1 -18c0 -16 -1 -32 -5 -49c-9 -36 -18 -67 -31 -89c-23 -36 -64 -77 -112 -97
c0 0 -25 -10 -56 -15c-25 -3 -60 -5 -61 -5s-23 0 -43 2c-22 1 -40 9 -40 9zM334 728c-16 0 -32 1 -49 -5c-11 -4 -15 -5 -42 -14c-17 -6 -22 -10 -36 -20c-8 -5 -12 -6 -11 -23c-1 -39 -2 -73 -1 -88c2 -45 0 -71 0 -71c0 -13 0 -31 1 -45c0 0 2 -61 1 -136
c0 -30 5 -50 1 -91c-2 -20 0 -74 -1 -86c-3 -29 1 -34 1 -47v-22c0 -14 -1 -14 9 -21c1 -1 7 -14 46 -23c31 -7 50 -14 79 -15c40 -2 76 4 107 17c8 3 22 11 29 13c30 10 47 34 67 57c9 12 17 32 25 53c11 29 19 41 21 74c0 0 4 46 2 102c1 23 2 46 2 69c-1 35 -2 38 -6 72
v6c0 1 -1 34 -1 36c-3 25 -11 52 -25 78c-10 21 -25 39 -42 55c-19 18 -40 34 -58 45c-1 0 -21 10 -23 10c-18 4 -40 19 -96 20zM261 892c13 0 20 -11 24 -23c5 -16 -12 -29 -22 -33c-15 -4 -24 -1 -32 10c-11 19 -3 40 21 45c2 1 5 1 9 1zM424 895c13 0 23 -11 24 -23
c2 -17 -13 -29 -23 -33c-15 -5 -21 2 -30 10c-11 20 1 36 20 45c2 1 5 1 9 1z" />
    <glyph glyph-name="Ugrave" unicode="&#xd9;" horiz-adv-x="693" 
d="M218 111c-7 13 -12 34 -15 47l-2 10c-4 14 -7 37 -7 54v30l-2 100v12c0 2 -1 4 -1 27v36c1 19 2 40 2 60c0 5 0 19 -1 29c-1 8 -1 20 -1 27s0 21 1 30v42v15l1 42c0 5 1 9 1 13v11c0 8 -1 19 0 24v23c1 12 21 7 24 3c2 -4 4 -10 4 -16v-16v-10v-30c-1 -29 3 -54 -1 -91
v-48v-30s-1 -35 0 -65l1 -13v-65c0 0 -3 -72 0 -113c0 -35 3 -72 10 -92l2 -8l3 -9c7 -23 14 -40 29 -63c20 -26 42 -36 62 -46l9 -3c10 -4 22 -5 37 -5h17c6 0 11 1 17 1c6 1 30 1 34 1c29 9 58 26 80 49c26 33 35 54 45 82l6 30c10 30 10 61 9 97l1 17c0 6 -1 12 -1 18
c0 14 0 27 1 40s2 28 2 42v20c0 28 0 57 -2 80c-1 15 -1 30 -1 45c0 21 0 39 1 60l1 30v28c0 20 0 40 -1 60v20c0 8 17 12 26 3c2 -2 2 -13 2 -20v-4c1 -14 1 -36 1 -48l-1 -25v-24c-1 -28 -2 -53 -1 -82l3 -116c0 -13 0 -28 -1 -44c0 -3 -1 -7 -1 -10v-5
c-1 -21 -2 -43 -1 -64l1 -31c0 -26 -5 -62 -9 -87c-9 -48 -26 -100 -59 -130c-34 -31 -69 -61 -138 -61c-15 0 -77 4 -101 15c-30 15 -35 20 -51 37c-7 7 -15 21 -22 35l-2 5zM260 935c9 -4 21 -11 34 -18c23 -12 35 -20 35 -20c1 -1 24 -9 49 -26c21 -15 43 -23 55 -32
c13 -10 2 -29 -11 -22l-46 24l-33 18c-7 3 -49 24 -55 27c-19 12 -33 22 -45 28c-17 8 -16 18 -11 27c6 10 18 -2 28 -6z" />
    <glyph glyph-name="Uacute" unicode="&#xda;" horiz-adv-x="693" 
d="M218 111c-7 13 -12 34 -15 47l-2 10c-4 14 -7 37 -7 54v30l-2 100v12c0 2 -1 4 -1 27v36c1 19 2 40 2 60c0 5 0 19 -1 29c-1 8 -1 20 -1 27s0 21 1 30v42v15l1 42c0 5 1 9 1 13v11c0 8 -1 19 0 24v23c1 12 21 7 24 3c2 -4 4 -10 4 -16v-16v-10v-30c-1 -29 3 -54 -1 -91
v-48v-30s-1 -35 0 -65l1 -13v-65c0 0 -3 -72 0 -113c0 -35 3 -72 10 -92l2 -8l3 -9c7 -23 14 -40 29 -63c20 -26 42 -36 62 -46l9 -3c10 -4 22 -5 37 -5h17c6 0 11 1 17 1c6 1 30 1 34 1c29 9 58 26 80 49c26 33 35 54 45 82l6 30c10 30 10 61 9 97l1 17c0 6 -1 12 -1 18
c0 14 0 27 1 40s2 28 2 42v20c0 28 0 57 -2 80c-1 15 -1 30 -1 45c0 21 0 39 1 60l1 30v28c0 20 0 40 -1 60v20c0 8 17 12 26 3c2 -2 2 -13 2 -20v-4c1 -14 1 -36 1 -48l-1 -25v-24c-1 -28 -2 -53 -1 -82l3 -116c0 -13 0 -28 -1 -44c0 -3 -1 -7 -1 -10v-5
c-1 -21 -2 -43 -1 -64l1 -31c0 -26 -5 -62 -9 -87c-9 -48 -26 -100 -59 -130c-34 -31 -69 -61 -138 -61c-15 0 -77 4 -101 15c-30 15 -35 20 -51 37c-7 7 -15 21 -22 35l-2 5zM474 922c10 5 28 18 34 8c5 -9 8 -16 -14 -30c-11 -7 -17 -7 -32 -17c-6 -4 -60 -31 -67 -35
c0 0 -28 -20 -51 -29l-28 -13c-13 -6 -22 15 -9 25c12 9 18 9 41 22c26 15 35 19 36 20c0 0 26 15 50 26c15 7 23 15 40 23z" />
    <glyph glyph-name="Ucircumflex" unicode="&#xdb;" horiz-adv-x="693" 
d="M218 111c-7 13 -12 34 -15 47l-2 10c-4 14 -7 37 -7 54v30l-2 100v12c0 2 -1 4 -1 27v36c1 19 2 40 2 60c0 5 0 19 -1 29c-1 8 -1 20 -1 27s0 21 1 30v42v15l1 42c0 5 1 9 1 13v11c0 8 -1 19 0 24v23c1 12 21 7 24 3c2 -4 4 -10 4 -16v-16v-10v-30c-1 -29 3 -54 -1 -91
v-48v-30s-1 -35 0 -65l1 -13v-65c0 0 -3 -72 0 -113c0 -35 3 -72 10 -92l2 -8l3 -9c7 -23 14 -40 29 -63c20 -26 42 -36 62 -46l9 -3c10 -4 22 -5 37 -5h17c6 0 11 1 17 1c6 1 30 1 34 1c29 9 58 26 80 49c26 33 35 54 45 82l6 30c10 30 10 61 9 97l1 17c0 6 -1 12 -1 18
c0 14 0 27 1 40s2 28 2 42v20c0 28 0 57 -2 80c-1 15 -1 30 -1 45c0 21 0 39 1 60l1 30v28c0 20 0 40 -1 60v20c0 8 17 12 26 3c2 -2 2 -13 2 -20v-4c1 -14 1 -36 1 -48l-1 -25v-24c-1 -28 -2 -53 -1 -82l3 -116c0 -13 0 -28 -1 -44c0 -3 -1 -7 -1 -10v-5
c-1 -21 -2 -43 -1 -64l1 -31c0 -26 -5 -62 -9 -87c-9 -48 -26 -100 -59 -130c-34 -31 -69 -61 -138 -61c-15 0 -77 4 -101 15c-30 15 -35 20 -51 37c-7 7 -15 21 -22 35l-2 5zM372 918l-25 -28c-2 -4 -6 -8 -25 -25l-32 -34c-5 -7 -22 -23 -30 -15c-11 13 -7 14 6 29
c0 0 21 27 37 40c0 0 17 18 24 26c10 9 33 35 33 35c9 9 21 22 30 23c6 1 22 -14 34 -27l18 -21l14 -17c20 -19 33 -36 38 -43l14 -18c10 -12 14 -25 3 -27c-14 -3 -15 2 -28 18c-1 1 -39 47 -46 53l-13 13l-16 17l-3 4c-5 6 -13 13 -15 14z" />
    <glyph glyph-name="Udieresis" unicode="&#xdc;" horiz-adv-x="693" 
d="M218 111c-7 13 -12 34 -15 47l-2 10c-4 14 -7 37 -7 54v30l-2 100v12c0 2 -1 4 -1 27v36c1 19 2 40 2 60c0 5 0 19 -1 29c-1 8 -1 20 -1 27s0 21 1 30v42v15l1 42c0 5 1 9 1 13v11c0 8 -1 19 0 24v23c1 12 21 7 24 3c2 -4 4 -10 4 -16v-16v-10v-30c-1 -29 3 -54 -1 -91
v-48v-30s-1 -35 0 -65l1 -13v-65c0 0 -3 -72 0 -113c0 -35 3 -72 10 -92l2 -8l3 -9c7 -23 14 -40 29 -63c20 -26 42 -36 62 -46l9 -3c10 -4 22 -5 37 -5h17c6 0 11 1 17 1c6 1 30 1 34 1c29 9 58 26 80 49c26 33 35 54 45 82l6 30c10 30 10 61 9 97l1 17c0 6 -1 12 -1 18
c0 14 0 27 1 40s2 28 2 42v20c0 28 0 57 -2 80c-1 15 -1 30 -1 45c0 21 0 39 1 60l1 30v28c0 20 0 40 -1 60v20c0 8 17 12 26 3c2 -2 2 -13 2 -20v-4c1 -14 1 -36 1 -48l-1 -25v-24c-1 -28 -2 -53 -1 -82l3 -116c0 -13 0 -28 -1 -44c0 -3 -1 -7 -1 -10v-5
c-1 -21 -2 -43 -1 -64l1 -31c0 -26 -5 -62 -9 -87c-9 -48 -26 -100 -59 -130c-34 -31 -69 -61 -138 -61c-15 0 -77 4 -101 15c-30 15 -35 20 -51 37c-7 7 -15 21 -22 35l-2 5zM307 896c13 0 20 -11 24 -23c5 -16 -12 -29 -22 -33c-15 -4 -24 -1 -32 10c-11 19 -3 40 21 45
c2 1 5 1 9 1zM470 899c13 0 23 -11 24 -23c2 -17 -13 -29 -23 -33c-15 -5 -21 2 -30 10c-11 20 1 36 20 45c2 1 5 1 9 1z" />
    <glyph glyph-name="Yacute" unicode="&#xdd;" horiz-adv-x="735" 
d="M145 745c2 7 13 6 19 5s11 -6 16 -14l17 -28s11 -24 38 -62l11 -21c12 -22 23 -33 37 -55l7 -12c4 -6 15 -26 34 -57l34 -52l22 -38l11 -18l27 -46l6 -8c14 18 29 40 41 59c6 10 26 38 32 48l9 11c4 5 38 54 40 58l29 46c16 25 19 35 37 60c11 16 20 29 23 34
c17 27 13 25 40 67l12 22c7 9 26 7 27 -1c1 -4 -1 -8 -4 -14l-4 -8c-9 -19 -27 -49 -36 -61l-11 -20l-34 -55l-9 -10l-10 -17l-21 -37l-21 -31l-4 -5l-31 -46c-3 -7 -60 -89 -63 -93l-12 -16c-6 -8 -9 -15 -13 -21l-2 -72c0 -15 1 -33 2 -46v-18c1 3 -2 -42 0 -83
c2 -35 1 -52 1 -84c0 -10 -26 -9 -26 -1v18v4c-1 21 -1 60 -1 74c-1 14 -1 53 -1 66c-1 14 -1 39 -1 51c0 38 0 80 -2 87c-3 6 -8 13 -8 13c-11 15 -28 44 -44 72l-15 23c-9 16 -12 25 -17 32l-28 45c-5 7 -9 15 -19 30l-21 30l-19 31l-9 14l-3 4l-15 25l-6 9l-9 16l-6 12
l-7 12l-13 20l-9 17c-1 2 -2 3 -2 3c-12 19 -18 26 -16 32zM512 910c10 5 28 18 34 8c5 -9 8 -16 -14 -30c-11 -7 -17 -7 -32 -17c-6 -4 -60 -31 -67 -35c0 0 -28 -20 -51 -29l-28 -13c-13 -6 -22 15 -9 25c12 9 18 9 41 22c26 15 35 19 36 20c0 0 26 15 50 26
c15 7 23 15 40 23z" />
    <glyph glyph-name="ugrave" unicode="&#xf9;" horiz-adv-x="693" 
d="M218 111c-7 13 -12 34 -15 47l-2 10c-4 14 -7 37 -7 54v30l-2 100v12c0 2 -1 4 -1 27v36c1 19 2 40 2 60c0 5 0 19 -1 29c-1 8 -1 20 -1 27s0 21 1 30v42v15l1 42c0 5 1 9 1 13v11c0 8 -1 19 0 24v23c1 12 21 7 24 3c2 -4 4 -10 4 -16v-16v-10v-30c-1 -29 3 -54 -1 -91
v-48v-30s-1 -35 0 -65l1 -13v-65c0 0 -3 -72 0 -113c0 -35 3 -72 10 -92l2 -8l3 -9c7 -23 14 -40 29 -63c20 -26 42 -36 62 -46l9 -3c10 -4 22 -5 37 -5h17c6 0 11 1 17 1c6 1 30 1 34 1c29 9 58 26 80 49c26 33 35 54 45 82l6 30c10 30 10 61 9 97l1 17c0 6 -1 12 -1 18
c0 14 0 27 1 40s2 28 2 42v20c0 28 0 57 -2 80c-1 15 -1 30 -1 45c0 21 0 39 1 60l1 30v28c0 20 0 40 -1 60v20c0 8 17 12 26 3c2 -2 2 -13 2 -20v-4c1 -14 1 -36 1 -48l-1 -25v-24c-1 -28 -2 -53 -1 -82l3 -116c0 -13 0 -28 -1 -44c0 -3 -1 -7 -1 -10v-5
c-1 -21 -2 -43 -1 -64l1 -31c0 -26 -5 -62 -9 -87c-9 -48 -26 -100 -59 -130c-34 -31 -69 -61 -138 -61c-15 0 -77 4 -101 15c-30 15 -35 20 -51 37c-7 7 -15 21 -22 35l-2 5zM268 932c9 -4 21 -11 34 -18c23 -12 35 -20 35 -20c1 -1 24 -9 49 -26c21 -15 43 -23 55 -32
c13 -10 2 -29 -11 -22l-46 24l-33 18c-7 3 -49 24 -55 27c-19 12 -33 22 -45 28c-17 8 -16 18 -11 27c6 10 18 -2 28 -6z" />
    <glyph glyph-name="uacute" unicode="&#xfa;" horiz-adv-x="693" 
d="M218 111c-7 13 -12 34 -15 47l-2 10c-4 14 -7 37 -7 54v30l-2 100v12c0 2 -1 4 -1 27v36c1 19 2 40 2 60c0 5 0 19 -1 29c-1 8 -1 20 -1 27s0 21 1 30v42v15l1 42c0 5 1 9 1 13v11c0 8 -1 19 0 24v23c1 12 21 7 24 3c2 -4 4 -10 4 -16v-16v-10v-30c-1 -29 3 -54 -1 -91
v-48v-30s-1 -35 0 -65l1 -13v-65c0 0 -3 -72 0 -113c0 -35 3 -72 10 -92l2 -8l3 -9c7 -23 14 -40 29 -63c20 -26 42 -36 62 -46l9 -3c10 -4 22 -5 37 -5h17c6 0 11 1 17 1c6 1 30 1 34 1c29 9 58 26 80 49c26 33 35 54 45 82l6 30c10 30 10 61 9 97l1 17c0 6 -1 12 -1 18
c0 14 0 27 1 40s2 28 2 42v20c0 28 0 57 -2 80c-1 15 -1 30 -1 45c0 21 0 39 1 60l1 30v28c0 20 0 40 -1 60v20c0 8 17 12 26 3c2 -2 2 -13 2 -20v-4c1 -14 1 -36 1 -48l-1 -25v-24c-1 -28 -2 -53 -1 -82l3 -116c0 -13 0 -28 -1 -44c0 -3 -1 -7 -1 -10v-5
c-1 -21 -2 -43 -1 -64l1 -31c0 -26 -5 -62 -9 -87c-9 -48 -26 -100 -59 -130c-34 -31 -69 -61 -138 -61c-15 0 -77 4 -101 15c-30 15 -35 20 -51 37c-7 7 -15 21 -22 35l-2 5zM455 930c10 5 28 18 34 8c5 -9 8 -16 -14 -30c-11 -7 -17 -7 -32 -17c-6 -4 -60 -31 -67 -35
c0 0 -28 -20 -51 -29l-28 -13c-13 -6 -22 15 -9 25c12 9 18 9 41 22c26 15 35 19 36 20c0 0 26 15 50 26c15 7 23 15 40 23z" />
    <glyph glyph-name="ucircumflex" unicode="&#xfb;" horiz-adv-x="693" 
d="M218 111c-7 13 -12 34 -15 47l-2 10c-4 14 -7 37 -7 54v30l-2 100v12c0 2 -1 4 -1 27v36c1 19 2 40 2 60c0 5 0 19 -1 29c-1 8 -1 20 -1 27s0 21 1 30v42v15l1 42c0 5 1 9 1 13v11c0 8 -1 19 0 24v23c1 12 21 7 24 3c2 -4 4 -10 4 -16v-16v-10v-30c-1 -29 3 -54 -1 -91
v-48v-30s-1 -35 0 -65l1 -13v-65c0 0 -3 -72 0 -113c0 -35 3 -72 10 -92l2 -8l3 -9c7 -23 14 -40 29 -63c20 -26 42 -36 62 -46l9 -3c10 -4 22 -5 37 -5h17c6 0 11 1 17 1c6 1 30 1 34 1c29 9 58 26 80 49c26 33 35 54 45 82l6 30c10 30 10 61 9 97l1 17c0 6 -1 12 -1 18
c0 14 0 27 1 40s2 28 2 42v20c0 28 0 57 -2 80c-1 15 -1 30 -1 45c0 21 0 39 1 60l1 30v28c0 20 0 40 -1 60v20c0 8 17 12 26 3c2 -2 2 -13 2 -20v-4c1 -14 1 -36 1 -48l-1 -25v-24c-1 -28 -2 -53 -1 -82l3 -116c0 -13 0 -28 -1 -44c0 -3 -1 -7 -1 -10v-5
c-1 -21 -2 -43 -1 -64l1 -31c0 -26 -5 -62 -9 -87c-9 -48 -26 -100 -59 -130c-34 -31 -69 -61 -138 -61c-15 0 -77 4 -101 15c-30 15 -35 20 -51 37c-7 7 -15 21 -22 35l-2 5zM360 908l-25 -28c-2 -4 -6 -8 -25 -25l-32 -34c-5 -7 -22 -23 -30 -15c-11 13 -7 14 6 29
c0 0 21 27 37 40c0 0 17 18 24 26c10 9 33 35 33 35c9 9 21 22 30 23c6 1 22 -14 34 -27l18 -21l14 -17c20 -19 33 -36 38 -43l14 -18c10 -12 14 -25 3 -27c-14 -3 -15 2 -28 18c-1 1 -39 47 -46 53l-13 13l-16 17l-3 4c-5 6 -13 13 -15 14z" />
    <glyph glyph-name="udieresis" unicode="&#xfc;" horiz-adv-x="693" 
d="M218 111c-7 13 -12 34 -15 47l-2 10c-4 14 -7 37 -7 54v30l-2 100v12c0 2 -1 4 -1 27v36c1 19 2 40 2 60c0 5 0 19 -1 29c-1 8 -1 20 -1 27s0 21 1 30v42v15l1 42c0 5 1 9 1 13v11c0 8 -1 19 0 24v23c1 12 21 7 24 3c2 -4 4 -10 4 -16v-16v-10v-30c-1 -29 3 -54 -1 -91
v-48v-30s-1 -35 0 -65l1 -13v-65c0 0 -3 -72 0 -113c0 -35 3 -72 10 -92l2 -8l3 -9c7 -23 14 -40 29 -63c20 -26 42 -36 62 -46l9 -3c10 -4 22 -5 37 -5h17c6 0 11 1 17 1c6 1 30 1 34 1c29 9 58 26 80 49c26 33 35 54 45 82l6 30c10 30 10 61 9 97l1 17c0 6 -1 12 -1 18
c0 14 0 27 1 40s2 28 2 42v20c0 28 0 57 -2 80c-1 15 -1 30 -1 45c0 21 0 39 1 60l1 30v28c0 20 0 40 -1 60v20c0 8 17 12 26 3c2 -2 2 -13 2 -20v-4c1 -14 1 -36 1 -48l-1 -25v-24c-1 -28 -2 -53 -1 -82l3 -116c0 -13 0 -28 -1 -44c0 -3 -1 -7 -1 -10v-5
c-1 -21 -2 -43 -1 -64l1 -31c0 -26 -5 -62 -9 -87c-9 -48 -26 -100 -59 -130c-34 -31 -69 -61 -138 -61c-15 0 -77 4 -101 15c-30 15 -35 20 -51 37c-7 7 -15 21 -22 35l-2 5zM297 891c13 0 20 -11 24 -23c5 -16 -12 -29 -22 -33c-15 -4 -24 -1 -32 10c-11 19 -3 40 21 45
c2 1 5 1 9 1zM460 894c13 0 23 -11 24 -23c2 -17 -13 -29 -23 -33c-15 -5 -21 2 -30 10c-11 20 1 36 20 45c2 1 5 1 9 1z" />
    <glyph glyph-name="yacute" unicode="&#xfd;" horiz-adv-x="735" 
d="M145 745c2 7 13 6 19 5s11 -6 16 -14l17 -28s11 -24 38 -62l11 -21c12 -22 23 -33 37 -55l7 -12c4 -6 15 -26 34 -57l34 -52l22 -38l11 -18l27 -46l6 -8c14 18 29 40 41 59c6 10 26 38 32 48l9 11c4 5 38 54 40 58l29 46c16 25 19 35 37 60c11 16 20 29 23 34
c17 27 13 25 40 67l12 22c7 9 26 7 27 -1c1 -4 -1 -8 -4 -14l-4 -8c-9 -19 -27 -49 -36 -61l-11 -20l-34 -55l-9 -10l-10 -17l-21 -37l-21 -31l-4 -5l-31 -46c-3 -7 -60 -89 -63 -93l-12 -16c-6 -8 -9 -15 -13 -21l-2 -72c0 -15 1 -33 2 -46v-18c1 3 -2 -42 0 -83
c2 -35 1 -52 1 -84c0 -10 -26 -9 -26 -1v18v4c-1 21 -1 60 -1 74c-1 14 -1 53 -1 66c-1 14 -1 39 -1 51c0 38 0 80 -2 87c-3 6 -8 13 -8 13c-11 15 -28 44 -44 72l-15 23c-9 16 -12 25 -17 32l-28 45c-5 7 -9 15 -19 30l-21 30l-19 31l-9 14l-3 4l-15 25l-6 9l-9 16l-6 12
l-7 12l-13 20l-9 17c-1 2 -2 3 -2 3c-12 19 -18 26 -16 32zM512 910c10 5 28 18 34 8c5 -9 8 -16 -14 -30c-11 -7 -17 -7 -32 -17c-6 -4 -60 -31 -67 -35c0 0 -28 -20 -51 -29l-28 -13c-13 -6 -22 15 -9 25c12 9 18 9 41 22c26 15 35 19 36 20c0 0 26 15 50 26
c15 7 23 15 40 23z" />
    <glyph glyph-name="ydieresis" unicode="&#xff;" horiz-adv-x="735" 
d="M145 745c2 7 13 6 19 5s11 -6 16 -14l17 -28s11 -24 38 -62l11 -21c12 -22 23 -33 37 -55l7 -12c4 -6 15 -26 34 -57l34 -52l22 -38l11 -18l27 -46l6 -8c14 18 29 40 41 59c6 10 26 38 32 48l9 11c4 5 38 54 40 58l29 46c16 25 19 35 37 60c11 16 20 29 23 34
c17 27 13 25 40 67l12 22c7 9 26 7 27 -1c1 -4 -1 -8 -4 -14l-4 -8c-9 -19 -27 -49 -36 -61l-11 -20l-34 -55l-9 -10l-10 -17l-21 -37l-21 -31l-4 -5l-31 -46c-3 -7 -60 -89 -63 -93l-12 -16c-6 -8 -9 -15 -13 -21l-2 -72c0 -15 1 -33 2 -46v-18c1 3 -2 -42 0 -83
c2 -35 1 -52 1 -84c0 -10 -26 -9 -26 -1v18v4c-1 21 -1 60 -1 74c-1 14 -1 53 -1 66c-1 14 -1 39 -1 51c0 38 0 80 -2 87c-3 6 -8 13 -8 13c-11 15 -28 44 -44 72l-15 23c-9 16 -12 25 -17 32l-28 45c-5 7 -9 15 -19 30l-21 30l-19 31l-9 14l-3 4l-15 25l-6 9l-9 16l-6 12
l-7 12l-13 20l-9 17c-1 2 -2 3 -2 3c-12 19 -18 26 -16 32zM324 862c13 0 20 -11 24 -23c5 -16 -12 -29 -22 -33c-15 -4 -24 -1 -32 10c-11 19 -3 40 21 45c2 1 5 1 9 1zM487 865c13 0 23 -11 24 -23c2 -17 -13 -29 -23 -33c-15 -5 -21 2 -30 10c-11 20 1 36 20 45
c2 1 5 1 9 1z" />
    <glyph glyph-name="Amacron" unicode="&#x100;" 
d="M575 36l3 -10l6 -18c3 -11 -19 -8 -19 -8c-7 1 -17 23 -21 35l-2 5l-3 7c-2 7 -5 15 -7 19c-5 8 -8 23 -11 33l-10 22l-10 26c-2 10 -6 23 -10 31c-6 15 -12 32 -17 55l-5 18l-2 7c-2 6 -5 16 -8 22l-10 30c-1 1 -3 6 -3 8l-52 -1c-15 0 -31 1 -47 1c-22 -3 -60 1 -60 1
c-42 0 -80 -3 -108 0l-12 -26c-1 -4 -4 -10 -5 -13l-11 -28l-23 -56l-19 -38l-9 -25l-26 -63l-4 -8l-4 -7l-24 -50c-12 -20 -34 -7 -30 5c1 2 1 3 1 4l4 8l4 7l24 47l9 21c8 19 18 43 25 62l32 75l7 17c6 15 13 29 18 42c0 0 4 10 5 13l7 22l27 69l32 73l12 37l4 13l45 122
c10 29 22 64 27 80c5 17 12 29 25 29c7 0 8 -3 11 -7l2 -4c4 -9 11 -25 20 -56l28 -78l15 -39c4 -9 7 -22 9 -30l2 -6l6 -20l10 -32c3 -11 7 -22 11 -33l12 -33l15 -43l26 -84l15 -46c3 -14 10 -34 17 -52c0 -2 3 -8 4 -10c6 -14 12 -30 15 -40zM354 598
c-4 20 -11 39 -20 60l-9 22l-7 26c-4 -14 -11 -31 -15 -45c-14 -45 -31 -93 -42 -125c-2 -6 -7 -19 -7 -19l-26 -73c-10 -23 -16 -32 -21 -48c-2 -4 -5 -12 -5 -14l-4 -11c-4 -9 -9 -18 -12 -26h16c4 0 58 -1 62 -1l49 1c34 -1 53 -2 71 -2c15 0 31 2 54 3l-20 56l-4 17
l-4 12c-10 37 -29 93 -42 127l-4 11c-4 10 -7 19 -10 29zM243 828c-14 0 -17 5 -13 17c4 10 10 10 21 10l15 1c14 1 19 -1 35 -1l30 2c4 0 9 1 28 0h7c2 0 50 -1 52 -1c16 -1 30 -1 30 -1c11 0 24 1 22 -15c-1 -11 -5 -12 -22 -12h-47c-6 1 -32 3 -42 2l-34 -2
c-61 2 -82 0 -82 0z" />
    <glyph glyph-name="amacron" unicode="&#x101;" 
d="M575 36l3 -10l6 -18c3 -11 -19 -8 -19 -8c-7 1 -17 23 -21 35l-2 5l-3 7c-2 7 -5 15 -7 19c-5 8 -8 23 -11 33l-10 22l-10 26c-2 10 -6 23 -10 31c-6 15 -12 32 -17 55l-5 18l-2 7c-2 6 -5 16 -8 22l-10 30c-1 1 -3 6 -3 8l-52 -1c-15 0 -31 1 -47 1c-22 -3 -60 1 -60 1
c-42 0 -80 -3 -108 0l-12 -26c-1 -4 -4 -10 -5 -13l-11 -28l-23 -56l-19 -38l-9 -25l-26 -63l-4 -8l-4 -7l-24 -50c-12 -20 -34 -7 -30 5c1 2 1 3 1 4l4 8l4 7l24 47l9 21c8 19 18 43 25 62l32 75l7 17c6 15 13 29 18 42c0 0 4 10 5 13l7 22l27 69l32 73l12 37l4 13l45 122
c10 29 22 64 27 80c5 17 12 29 25 29c7 0 8 -3 11 -7l2 -4c4 -9 11 -25 20 -56l28 -78l15 -39c4 -9 7 -22 9 -30l2 -6l6 -20l10 -32c3 -11 7 -22 11 -33l12 -33l15 -43l26 -84l15 -46c3 -14 10 -34 17 -52c0 -2 3 -8 4 -10c6 -14 12 -30 15 -40zM354 598
c-4 20 -11 39 -20 60l-9 22l-7 26c-4 -14 -11 -31 -15 -45c-14 -45 -31 -93 -42 -125c-2 -6 -7 -19 -7 -19l-26 -73c-10 -23 -16 -32 -21 -48c-2 -4 -5 -12 -5 -14l-4 -11c-4 -9 -9 -18 -12 -26h16c4 0 58 -1 62 -1l49 1c34 -1 53 -2 71 -2c15 0 31 2 54 3l-20 56l-4 17
l-4 12c-10 37 -29 93 -42 127l-4 11c-4 10 -7 19 -10 29zM262 823c-14 0 -17 5 -13 17c4 10 10 10 21 10l15 1c14 1 19 -1 35 -1l30 2c4 0 9 1 28 0h7c2 0 50 -1 52 -1c16 -1 30 -1 30 -1c11 0 24 1 22 -15c-1 -11 -5 -12 -22 -12h-47c-6 1 -32 3 -42 2l-34 -2
c-61 2 -82 0 -82 0z" />
    <glyph glyph-name="Aogonek" unicode="&#x104;" 
d="M575 36l3 -10l6 -18c1 -5 -2 -7 -7 -8c-3 -2 -5 -4 -5 -4c-16 -6 -38 -35 -46 -61c-7 -24 23 -40 64 -35c3 0 9 -4 9 -5c3 -2 7 -15 -9 -20c-49 -3 -79 8 -85 23c-5 13 -9 33 -3 49c6 19 22 45 51 66c-4 7 -7 16 -9 22l-2 5l-3 7c-2 7 -5 15 -7 19c-5 8 -8 23 -11 33
l-10 22l-10 26c-2 10 -6 23 -10 31c-6 15 -12 32 -17 55l-5 18l-2 7c-2 6 -5 16 -8 22l-10 30c-1 1 -3 6 -3 8l-52 -1c-15 0 -31 1 -47 1c-22 -3 -60 1 -60 1c-42 0 -80 -3 -108 0l-12 -26c-1 -4 -4 -10 -5 -13l-11 -28l-23 -56l-19 -38l-9 -25l-26 -63l-4 -8l-4 -7l-24 -50
c-12 -20 -34 -7 -30 5c1 2 1 3 1 4l4 8l4 7l24 47l9 21c8 19 18 43 25 62l32 75l7 17c6 15 13 29 18 42c0 0 4 10 5 13l7 22l27 69l32 73l12 37l4 13l45 122l27 80c5 17 12 29 25 29c7 0 8 -3 11 -7l2 -4c4 -9 11 -25 20 -56l28 -78l15 -39c4 -9 7 -22 9 -30l2 -6l6 -20
l10 -32c3 -11 7 -22 11 -33l12 -33l15 -43l26 -84l15 -46c3 -14 10 -34 17 -52c0 -2 3 -8 4 -10c6 -14 12 -30 15 -40zM354 598c-4 20 -11 39 -20 60l-9 22l-7 26c-4 -14 -11 -31 -15 -45c-14 -45 -31 -93 -42 -125c-2 -6 -7 -19 -7 -19l-26 -73c-10 -23 -16 -32 -21 -48
c-2 -4 -5 -12 -5 -14l-4 -11c-4 -9 -9 -18 -12 -26h16c4 0 58 -1 62 -1l49 1c34 -1 53 -2 71 -2c15 0 31 2 54 3l-20 56l-4 17l-4 12c-10 37 -29 93 -42 127l-4 11c-4 10 -7 19 -10 29z" />
    <glyph glyph-name="aogonek" unicode="&#x105;" 
d="M575 36l3 -10l6 -18c1 -5 -2 -7 -7 -8c-3 -2 -5 -4 -5 -4c-16 -6 -38 -35 -46 -61c-7 -24 23 -40 64 -35c3 0 9 -4 9 -5c3 -2 7 -15 -9 -20c-49 -3 -79 8 -85 23c-5 13 -9 33 -3 49c6 19 22 45 51 66c-4 7 -7 16 -9 22l-2 5l-3 7c-2 7 -5 15 -7 19c-5 8 -8 23 -11 33
l-10 22l-10 26c-2 10 -6 23 -10 31c-6 15 -12 32 -17 55l-5 18l-2 7c-2 6 -5 16 -8 22l-10 30c-1 1 -3 6 -3 8l-52 -1c-15 0 -31 1 -47 1c-22 -3 -60 1 -60 1c-42 0 -80 -3 -108 0l-12 -26c-1 -4 -4 -10 -5 -13l-11 -28l-23 -56l-19 -38l-9 -25l-26 -63l-4 -8l-4 -7l-24 -50
c-12 -20 -34 -7 -30 5c1 2 1 3 1 4l4 8l4 7l24 47l9 21c8 19 18 43 25 62l32 75l7 17c6 15 13 29 18 42c0 0 4 10 5 13l7 22l27 69l32 73l12 37l4 13l45 122l27 80c5 17 12 29 25 29c7 0 8 -3 11 -7l2 -4c4 -9 11 -25 20 -56l28 -78l15 -39c4 -9 7 -22 9 -30l2 -6l6 -20
l10 -32c3 -11 7 -22 11 -33l12 -33l15 -43l26 -84l15 -46c3 -14 10 -34 17 -52c0 -2 3 -8 4 -10c6 -14 12 -30 15 -40zM354 598c-4 20 -11 39 -20 60l-9 22l-7 26c-4 -14 -11 -31 -15 -45c-14 -45 -31 -93 -42 -125c-2 -6 -7 -19 -7 -19l-26 -73c-10 -23 -16 -32 -21 -48
c-2 -4 -5 -12 -5 -14l-4 -11c-4 -9 -9 -18 -12 -26h16c4 0 58 -1 62 -1l49 1c34 -1 53 -2 71 -2c15 0 31 2 54 3l-20 56l-4 17l-4 12c-10 37 -29 93 -42 127l-4 11c-4 10 -7 19 -10 29z" />
    <glyph glyph-name="Ccaron" unicode="&#x10c;" horiz-adv-x="636" 
d="M182 61c-11 9 -16 16 -16 35c2 68 2 135 1 156c-2 49 -1 88 0 129v49c0 3 -1 114 -1 117l1 39l-1 33l1 22c0 9 4 21 13 29c17 15 37 30 37 30c4 3 11 5 14 8c6 5 14 9 14 9c9 7 26 14 42 20c12 4 26 7 40 9l17 3l12 2c6 1 18 2 28 3c15 0 34 -1 49 -3c0 0 18 -2 38 -9
c8 -3 35 -13 31 -12c0 0 18 -8 28 -15c6 -3 13 -7 15 -8c8 -5 12 -16 9 -23c-4 -9 -13 -9 -14 -7l-12 7l-10 6l-7 4c-4 1 -10 5 -13 7l-11 6l-29 10l-18 4c-7 0 -13 1 -21 2l-10 1h-29h-14l-18 -3c-15 -2 -39 0 -67 -21c-25 -11 -51 -28 -76 -47c-6 -5 -9 -10 -9 -18
c-2 -41 -3 -96 -3 -125c0 -13 -1 -31 0 -45c1 -30 2 -73 3 -108c0 -42 0 -84 -1 -127l1 -34c0 -14 -1 -26 -1 -36c-1 -26 0 -39 0 -59c0 -12 0 -13 7 -18c0 0 6 -9 46 -28l27 -9l24 -10c27 -8 64 -13 84 -11c23 2 47 1 76 9c18 2 45 14 59 27l5 3c24 18 31 27 37 33
s15 13 22 4c9 -12 -1 -23 -19 -40c-15 -15 -48 -41 -83 -51c-33 -9 -70 -15 -112 -13c-33 1 -92 10 -130 30c-14 8 -24 13 -31 18c-11 7 -14 7 -25 16zM329 898l26 -28l18 -17c2 1 10 8 15 14l3 4l16 17l13 14c7 6 45 52 46 53c13 16 14 21 28 18c11 -2 7 -15 -3 -27
l-14 -18c-5 -7 -18 -24 -38 -43l-14 -17l-18 -21c-12 -13 -28 -28 -34 -27c-9 1 -21 14 -30 23c0 0 -23 26 -33 35c-7 8 -24 26 -24 26c-16 13 -37 40 -37 40c-13 15 -17 16 -6 29c8 8 25 -8 30 -15l31 -34c19 -17 23 -22 25 -26z" />
    <glyph glyph-name="ccaron" unicode="&#x10d;" horiz-adv-x="636" 
d="M182 61c-11 9 -16 16 -16 35c2 68 2 135 1 156c-2 49 -1 88 0 129v49c0 3 -1 114 -1 117l1 39l-1 33l1 22c0 9 4 21 13 29c17 15 37 30 37 30c4 3 11 5 14 8c6 5 14 9 14 9c9 7 26 14 42 20c12 4 26 7 40 9l17 3l12 2c6 1 18 2 28 3c15 0 34 -1 49 -3c0 0 18 -2 38 -9
c8 -3 35 -13 31 -12c0 0 18 -8 28 -15c6 -3 13 -7 15 -8c8 -5 12 -16 9 -23c-4 -9 -13 -9 -14 -7l-12 7l-10 6l-7 4c-4 1 -10 5 -13 7l-11 6l-29 10l-18 4c-7 0 -13 1 -21 2l-10 1h-29h-14l-18 -3c-15 -2 -39 0 -67 -21c-25 -11 -51 -28 -76 -47c-6 -5 -9 -10 -9 -18
c-2 -41 -3 -96 -3 -125c0 -13 -1 -31 0 -45c1 -30 2 -73 3 -108c0 -42 0 -84 -1 -127l1 -34c0 -14 -1 -26 -1 -36c-1 -26 0 -39 0 -59c0 -12 0 -13 7 -18c0 0 6 -9 46 -28l27 -9l24 -10c27 -8 64 -13 84 -11c23 2 47 1 76 9c18 2 45 14 59 27l5 3c24 18 31 27 37 33
s15 13 22 4c9 -12 -1 -23 -19 -40c-15 -15 -48 -41 -83 -51c-33 -9 -70 -15 -112 -13c-33 1 -92 10 -130 30c-14 8 -24 13 -31 18c-11 7 -14 7 -25 16zM346 889l26 -28l18 -17c2 1 10 8 15 14l3 4l16 17l13 14c7 6 45 52 46 53c13 16 14 21 28 18c11 -2 7 -15 -3 -27
l-14 -18c-5 -7 -18 -24 -38 -43l-14 -17l-18 -21c-12 -13 -28 -28 -34 -27c-9 1 -21 14 -30 23c0 0 -23 26 -33 35c-7 8 -24 26 -24 26c-16 13 -37 40 -37 40c-13 15 -17 16 -6 29c8 8 25 -8 30 -15l31 -34c19 -17 23 -22 25 -26z" />
    <glyph glyph-name="Cacute" unicode="&#x106;" horiz-adv-x="636" 
d="M182 61c-11 9 -16 16 -16 35c2 68 2 135 1 156c-2 49 -1 88 0 129v49c0 3 -1 114 -1 117l1 39l-1 33l1 22c0 9 4 21 13 29c17 15 37 30 37 30c4 3 11 5 14 8c6 5 14 9 14 9c9 7 26 14 42 20c12 4 26 7 40 9l17 3l12 2c6 1 18 2 28 3c15 0 34 -1 49 -3c0 0 18 -2 38 -9
c8 -3 35 -13 31 -12c0 0 18 -8 28 -15c6 -3 13 -7 15 -8c8 -5 12 -16 9 -23c-4 -9 -13 -9 -14 -7l-12 7l-10 6l-7 4c-4 1 -10 5 -13 7l-11 6l-29 10l-18 4c-7 0 -13 1 -21 2l-10 1h-29h-14l-18 -3c-15 -2 -39 0 -67 -21c-25 -11 -51 -28 -76 -47c-6 -5 -9 -10 -9 -18
c-2 -41 -3 -96 -3 -125c0 -13 -1 -31 0 -45c1 -30 2 -73 3 -108c0 -42 0 -84 -1 -127l1 -34c0 -14 -1 -26 -1 -36c-1 -26 0 -39 0 -59c0 -12 0 -13 7 -18c0 0 6 -9 46 -28l27 -9l24 -10c27 -8 64 -13 84 -11c23 2 47 1 76 9c18 2 45 14 59 27l5 3c24 18 31 27 37 33
s15 13 22 4c9 -12 -1 -23 -19 -40c-15 -15 -48 -41 -83 -51c-33 -9 -70 -15 -112 -13c-33 1 -92 10 -130 30c-14 8 -24 13 -31 18c-11 7 -14 7 -25 16zM456 931c10 5 28 18 34 8c5 -9 8 -16 -14 -30c-11 -7 -17 -7 -32 -17c-6 -4 -60 -31 -67 -35c0 0 -28 -20 -51 -29
l-28 -13c-13 -6 -22 15 -9 25c12 9 18 9 41 22c26 15 35 19 36 20c0 0 26 15 50 26c15 7 23 15 40 23z" />
    <glyph glyph-name="cacute" unicode="&#x107;" horiz-adv-x="636" 
d="M182 61c-11 9 -16 16 -16 35c2 68 2 135 1 156c-2 49 -1 88 0 129v49c0 3 -1 114 -1 117l1 39l-1 33l1 22c0 9 4 21 13 29c17 15 37 30 37 30c4 3 11 5 14 8c6 5 14 9 14 9c9 7 26 14 42 20c12 4 26 7 40 9l17 3l12 2c6 1 18 2 28 3c15 0 34 -1 49 -3c0 0 18 -2 38 -9
c8 -3 35 -13 31 -12c0 0 18 -8 28 -15c6 -3 13 -7 15 -8c8 -5 12 -16 9 -23c-4 -9 -13 -9 -14 -7l-12 7l-10 6l-7 4c-4 1 -10 5 -13 7l-11 6l-29 10l-18 4c-7 0 -13 1 -21 2l-10 1h-29h-14l-18 -3c-15 -2 -39 0 -67 -21c-25 -11 -51 -28 -76 -47c-6 -5 -9 -10 -9 -18
c-2 -41 -3 -96 -3 -125c0 -13 -1 -31 0 -45c1 -30 2 -73 3 -108c0 -42 0 -84 -1 -127l1 -34c0 -14 -1 -26 -1 -36c-1 -26 0 -39 0 -59c0 -12 0 -13 7 -18c0 0 6 -9 46 -28l27 -9l24 -10c27 -8 64 -13 84 -11c23 2 47 1 76 9c18 2 45 14 59 27l5 3c24 18 31 27 37 33
s15 13 22 4c9 -12 -1 -23 -19 -40c-15 -15 -48 -41 -83 -51c-33 -9 -70 -15 -112 -13c-33 1 -92 10 -130 30c-14 8 -24 13 -31 18c-11 7 -14 7 -25 16zM472 937c10 5 28 18 34 8c5 -9 8 -16 -14 -30c-11 -7 -17 -7 -32 -17c-6 -4 -60 -31 -67 -35c0 0 -28 -20 -51 -29
l-28 -13c-13 -6 -22 15 -9 25c12 9 18 9 41 22c26 15 35 19 36 20c0 0 26 15 50 26c15 7 23 15 40 23z" />
    </font>
</defs>
</svg>
